<?xml version="1.0" encoding="UTF-8" standalone="no"?>
<svg
   xmlns:dc="http://purl.org/dc/elements/1.1/"
   xmlns:cc="http://creativecommons.org/ns#"
   xmlns:rdf="http://www.w3.org/1999/02/22-rdf-syntax-ns#"
   xmlns:svg="http://www.w3.org/2000/svg"
   xmlns="http://www.w3.org/2000/svg"
   xmlns:sodipodi="http://sodipodi.sourceforge.net/DTD/sodipodi-0.dtd"
   xmlns:inkscape="http://www.inkscape.org/namespaces/inkscape"
   width="959"
   height="593"
   version="1.1"
   id="svg59"
   sodipodi:docname="20 most profitable routes.svg"
   inkscape:version="0.92.1 r15371">
  <metadata
     id="metadata65">
    <rdf:RDF>
      <cc:Work
         rdf:about="">
        <dc:format>image/svg+xml</dc:format>
        <dc:type
           rdf:resource="http://purl.org/dc/dcmitype/StillImage" />
        <dc:title>Blank US states map</dc:title>
      </cc:Work>
    </rdf:RDF>
  </metadata>
  <defs
     id="defs63" />
  <sodipodi:namedview
     pagecolor="#ffffff"
     bordercolor="#666666"
     borderopacity="1"
     objecttolerance="10"
     gridtolerance="10"
     guidetolerance="10"
     inkscape:pageopacity="0"
     inkscape:pageshadow="2"
     inkscape:window-width="3742"
     inkscape:window-height="2124"
     id="namedview61"
     showgrid="false"
     inkscape:zoom="3.1838111"
     inkscape:cx="457.67878"
     inkscape:cy="339.2067"
     inkscape:window-x="98"
     inkscape:window-y="36"
     inkscape:window-maximized="1"
     inkscape:current-layer="svg59" />
  <title
     id="title2">Blank US states map</title>
  <g
     id="outlines">
    <path
       id="AK"
       fill="#D3D3D3"
       d="M161.1,453.7 l-0.3,85.4 1.6,1 3.1,0.2 1.5,-1.1 h2.6 l0.2,2.9 7,6.8 0.5,2.6 3.4,-1.9 0.6,-0.2 0.3,-3.1 1.5,-1.6 1.1,-0.2 1.9,-1.5 3.1,2.1 0.6,2.9 1.9,1.1 1.1,2.4 3.9,1.8 3.4,6 2.7,3.9 2.3,2.7 1.5,3.7 5,1.8 5.2,2.1 1,4.4 0.5,3.1 -1,3.4 -1.8,2.3 -1.6,-0.8 -1.5,-3.1 -2.7,-1.5 -1.8,-1.1 -0.8,0.8 1.5,2.7 0.2,3.7 -1.1,0.5 -1.9,-1.9 -2.1,-1.3 0.5,1.6 1.3,1.8 -0.8,0.8 c0,0 -0.8,-0.3 -1.3,-1 -0.5,-0.6 -2.1,-3.4 -2.1,-3.4 l-1,-2.3 c0,0 -0.3,1.3 -1,1 -0.6,-0.3 -1.3,-1.5 -1.3,-1.5 l1.8,-1.9 -1.5,-1.5 v-5 h-0.8 l-0.8,3.4 -1.1,0.5 -1,-3.7 -0.6,-3.7 -0.8,-0.5 0.3,5.7 v1.1 l-1.5,-1.3 -3.6,-6 -2.1,-0.5 -0.6,-3.7 -1.6,-2.9 -1.6,-1.1 v-2.3 l2.1,-1.3 -0.5,-0.3 -2.6,0.6 -3.4,-2.4 -2.6,-2.9 -4.8,-2.6 -4,-2.6 1.3,-3.2 v-1.6 l-1.8,1.6 -2.9,1.1 -3.7,-1.1 -5.7,-2.4 h-5.5 l-0.6,0.5 -6.5,-3.9 -2.1,-0.3 -2.7,-5.8 -3.6,0.3 -3.6,1.5 0.5,4.5 1.1,-2.9 1,0.3 -1.5,4.4 3.2,-2.7 0.6,1.6 -3.9,4.4 -1.3,-0.3 -0.5,-1.9 -1.3,-0.8 -1.3,1.1 -2.7,-1.8 -3.1,2.1 -1.8,2.1 -3.4,2.1 -4.7,-0.2 -0.5,-2.1 3.7,-0.6 v-1.3 l-2.3,-0.6 1,-2.4 2.3,-3.9 v-1.8 l0.2,-0.8 4.4,-2.3 1,1.3 h2.7 l-1.3,-2.6 -3.7,-0.3 -5,2.7 -2.4,3.4 -1.8,2.6 -1.1,2.3 -4.2,1.5 -3.1,2.6 -0.3,1.6 2.3,1 0.8,2.1 -2.7,3.2 -6.5,4.2 -7.8,4.2 -2.1,1.1 -5.3,1.1 -5.3,2.3 1.8,1.3 -1.5,1.5 -0.5,1.1 -2.7,-1 -3.2,0.2 -0.8,2.3 h-1 l0.3,-2.4 -3.6,1.3 -2.9,1 -3.4,-1.3 -2.9,1.9 h-3.2 l-2.1,1.3 -1.6,0.8 -2.1,-0.3 -2.6,-1.1 -2.3,0.6 -1,1 -1.6,-1.1 v-1.9 l3.1,-1.3 6.3,0.6 4.4,-1.6 2.1,-2.1 2.9,-0.6 1.8,-0.8 2.7,0.2 1.6,1.3 1,-0.3 2.3,-2.7 3.1,-1 3.4,-0.6 1.3,-0.3 0.6,0.5 h0.8 l1.3,-3.7 4,-1.5 1.9,-3.7 2.3,-4.5 1.6,-1.5 0.3,-2.6 -1.6,1.3 -3.4,0.6 -0.6,-2.4 -1.3,-0.3 -1,1 -0.2,2.9 -1.5,-0.2 -1.5,-5.8 -1.3,1.3 -1.1,-0.5 -0.3,-1.9 -4,0.2 -2.1,1.1 -2.6,-0.3 1.5,-1.5 0.5,-2.6 -0.6,-1.9 1.5,-1 1.3,-0.2 -0.6,-1.8 v-4.4 l-1,-1 -0.8,1.5 h-6.1 l-1.5,-1.3 -0.6,-3.9 -2.1,-3.6 v-1 l2.1,-0.8 0.2,-2.1 1.1,-1.1 -0.8,-0.5 -1.3,0.5 -1.1,-2.7 1,-5 4.5,-3.2 2.6,-1.6 1.9,-3.7 2.7,-1.3 2.6,1.1 0.3,2.4 2.4,-0.3 3.2,-2.4 1.6,0.6 1,0.6 h1.6 l2.3,-1.3 0.8,-4.4 c0,0 0.3,-2.9 1,-3.4 0.6,-0.5 1,-1 1,-1 l-1.1,-1.9 -2.6,0.8 -3.2,0.8 -1.9,-0.5 -3.6,-1.8 -5,-0.2 -3.6,-3.7 0.5,-3.9 0.6,-2.4 -2.1,-1.8 -1.9,-3.7 0.5,-0.8 6.8,-0.5 h2.1 l1,1 h0.6 l-0.2,-1.6 3.9,-0.6 2.6,0.3 1.5,1.1 -1.5,2.1 -0.5,1.5 2.7,1.6 5,1.8 1.8,-1 -2.3,-4.4 -1,-3.2 1,-0.8 -3.4,-1.9 -0.5,-1.1 0.5,-1.6 -0.8,-3.9 -2.9,-4.7 -2.4,-4.2 2.9,-1.9 h3.2 l1.8,0.6 4.2,-0.2 3.7,-3.6 1.1,-3.1 3.7,-2.4 1.6,1 2.7,-0.6 3.7,-2.1 1.1,-0.2 1,0.8 4.5,-0.2 2.7,-3.1 h1.1 l3.6,2.4 1.9,2.1 -0.5,1.1 0.6,1.1 1.6,-1.6 3.9,0.3 0.3,3.7 1.9,1.5 7.1,0.6 6.3,4.2 1.5,-1 5.2,2.6 2.1,-0.6 1.9,-0.8 4.8,1.9z m-115.1,28.9 2.1,5.3 -0.2,1 -2.9,-0.3 -1.8,-4 -1.8,-1.5 h-2.4 l-0.2,-2.6 1.8,-2.4 1.1,2.4 1.5,1.5z m-2.6,33.5 3.7,0.8 3.7,1 0.8,1 -1.6,3.7 -3.1,-0.2 -3.4,-3.6z m-20.7,-14.1 1.1,2.6 1.1,1.6 -1.1,0.8 -2.1,-3.1 v-1.9z m-13.7,73.1 3.4,-2.3 3.4,-1 2.6,0.3 0.5,1.6 1.9,0.5 1.9,-1.9 -0.3,-1.6 2.7,-0.6 2.9,2.6 -1.1,1.8 -4.4,1.1 -2.7,-0.5 -3.7,-1.1 -4.4,1.5 -1.6,0.3z m48.9,-4.5 1.6,1.9 2.1,-1.6 -1.5,-1.3z m2.9,3 1.1,-2.3 2.1,0.3 -0.8,1.9 h-2.4z m23.6,-1.9 1.5,1.8 1,-1.1 -0.8,-1.9z m8.8,-12.5 1.1,5.8 2.9,0.8 5,-2.9 4.4,-2.6 -1.6,-2.4 0.5,-2.4 -2.1,1.3 -2.9,-0.8 1.6,-1.1 1.9,0.8 3.9,-1.8 0.5,-1.5 -2.4,-0.8 0.8,-1.9 -2.7,1.9 -4.7,3.6 -4.8,2.9z m42.3,-19.8 2.4,-1.5 -1,-1.8 -1.8,1z" />
    <path
       id="HI"
       fill="#D3D3D3"
       d="M233.1,519.3 l1.9,-3.6 2.3,-0.3 0.3,0.8 -2.1,3.1z m10.2,-3.7 6.1,2.6 2.1,-0.3 1.6,-3.9 -0.6,-3.4 -4.2,-0.5 -4,1.8z m30.7,10 3.7,5.5 2.4,-0.3 1.1,-0.5 1.5,1.3 3.7,-0.2 1,-1.5 -2.9,-1.8 -1.9,-3.7 -2.1,-3.6 -5.8,2.9z m20.2,8.9 1.3,-1.9 4.7,1 0.6,-0.5 6.1,0.6 -0.3,1.3 -2.6,1.5 -4.4,-0.3z m5.3,5.2 1.9,3.9 3.1,-1.1 0.3,-1.6 -1.6,-2.1 -3.7,-0.3z m7,-1.2 2.3,-2.9 4.7,2.4 4.4,1.1 4.4,2.7 v1.9 l-3.6,1.8 -4.8,1 -2.4,-1.5z m16.6,15.6 1.6,-1.3 3.4,1.6 7.6,3.6 3.4,2.1 1.6,2.4 1.9,4.4 4,2.6 -0.3,1.3 -3.9,3.2 -4.2,1.5 -1.5,-0.6 -3.1,1.8 -2.4,3.2 -2.3,2.9 -1.8,-0.2 -3.6,-2.6 -0.3,-4.5 0.6,-2.4 -1.6,-5.7 -2.1,-1.8 -0.2,-2.6 2.3,-1 2.1,-3.1 0.5,-1 -1.6,-1.8z" />
    <path
       id="AL"
       fill="#D3D3D3"
       d="M628.5,466.4 l0.6,0.2 1.3,-2.7 1.5,-4.4 2.3,0.6 3.1,6 v1 l-2.7,1.9 2.7,0.3 5.2,-2.5 -0.3,-7.6 -2.5,-1.8 -2,-2 0.4,-4 10.5,-1.5 25.7,-2.9 6.7,-0.6 5.6,0.1 -0.5,-2.2 -1.5,-0.8 -0.9,-1.1 1,-2.6 -0.4,-5.2 -1.6,-4.5 0.8,-5.1 1.7,-4.8 -0.2,-1.7 -1.8,-0.7 -0.5,-3.6 -2.7,-3.4 -2,-6.5 -1.4,-6.7 -1.8,-5 -3.8,-16 -3.5,-7.9 -0.8,-5.6 0.1,-2.2 -9,0.8 -23.4,2.2 -12.2,0.8 -0.2,6.4 0.2,16.7 -0.7,31 -0.3,14.1 2.8,18.8 1.6,14.7z" />
    <path
       id="AR"
       fill="#D3D3D3"
       d="M587.3,346.1 l-6.4,-0.7 0.9,-3.1 3.1,-2.6 0.6,-2.3 -1.8,-2.9 -31.9,1.2 -23.3,0.7 -23.6,0.3 1.5,6.9 0.1,8.5 1.4,10.9 0.3,38.2 2.1,1.6 3,-1.2 2.9,1.2 0.4,10.1 25.2,-0.2 26.8,-0.8 0.9,-1.9 -0.3,-3.8 -1.7,-3.1 1.5,-1.4 -1.4,-2.2 0.7,-2.4 1.1,-5.9 2.7,-2.3 -0.8,-2.2 4,-5.6 2.5,-1.1 -0.1,-1.7 -0.5,-1.7 2.9,-5.8 2.5,-1.1 0.2,-3.3 2.1,-1.4 0.9,-4.1 -1.4,-4 4.2,-2.4 0.3,-2.1 1.2,-4.2 0.9,-3.1z" />
    <path
       id="AZ"
       fill="#D3D3D3"
       d="M135.1,389.7 l-0.3,1.5 0.5,1 18.9,10.7 12.1,7.6 14.7,8.6 16.8,10 12.3,2.4 25.4,2.7 6,-39.6 7,-53.1 4.4,-31 -24.6,-3.6 -60.7,-11 -0.2,1.1 -2.6,16.5 -2.1,3.8 -2.8,-0.2 -1.2,-2.6 -2.6,-0.4 -1.2,-1.1 -1.1,0.1 -2.1,1.7 -0.3,6.8 -0.3,1.5 -0.5,12.5 -1.5,2.4 -0.4,3.3 2.8,5 1.1,5.5 0.7,1.1 1.1,0.9 -0.4,2.4 -1.7,1.2 -3.4,1.6 -1.6,1.8 -1.6,3.6 -0.5,4.9 -3,2.9 -1.9,0.9 -0.1,5.8 -0.6,1.6 0.5,0.8 3.9,0.4 -0.9,3 -1.7,2.4 -3.7,0.4z" />
    <path
       id="CA"
       fill="#D3D3D3"
       d="M122.7,385.9 l-19.7,-2.7 -10,-1.5 -0.5,-1.8 v-9.4 l-0.3,-3.2 -2.6,-4.2 -0.8,-2.3 -3.9,-4.2 -2.9,-4.7 -2.7,-0.2 -3.2,-0.8 -0.3,-1 1.5,-0.6 -0.6,-3.2 -1.5,-2.1 -4.8,-0.8 -3.9,-2.1 -1.1,-2.3 -2.6,-4.8 -2.9,-3.1 h-2.9 l-3.9,-2.1 -4.5,-1.8 -4.2,-0.5 -2.4,-2.7 0.5,-1.9 1.8,-7.1 0.8,-1.9 v-2.4 l-1.6,-1 -0.5,-2.9 -1.5,-2.6 -3.4,-5.8 -1.3,-3.1 -1.5,-4.7 -1.6,-5.3 -3.2,-4.4 -0.5,-2.9 0.8,-3.9 h1.1 l2.1,-1.6 1.1,-3.6 -1,-2.7 -2.7,-0.5 -1.9,-2.6 -2.1,-3.7 -0.2,-8.2 0.6,-1.9 0.6,-2.3 0.5,-2.4 -5.7,-6.3 v-2.1 l0.3,-0.5 0.3,-3.2 -1.3,-4 -2.3,-4.8 -2.7,-4.5 -1.8,-3.9 1,-3.7 0.6,-5.8 1.8,-3.1 0.3,-6.5 -1.1,-3.6 -1.6,-4.2 -2.7,-4.2 0.8,-3.2 1.5,-4.2 1.8,-0.8 0.3,-1.1 3.1,-2.6 5.2,-11.8 0.2,-7.4 1.69,-4.9 38.69,11.8 25.6,6.6 -8,31.3 -8.67,33.1 12.63,19.2 42.16,62.3 17.1,26.1 -0.4,3.1 2.8,5.2 1.1,5.4 1,1.5 0.7,0.6 -0.2,1.4 -1.4,1 -3.4,1.6 -1.9,2.1 -1.7,3.9 -0.5,4.7 -2.6,2.5 -2.3,1.1 -0.1,6.2 -0.6,1.9 1,1.7 3,0.3 -0.4,1.6 -1.4,2 -3.9,0.6z m-73.9,-48.9 1.3,1.5 -0.2,1.3 -3.2,-0.1 -0.6,-1.2 -0.6,-1.5z m1.9,0 1.2,-0.6 3.6,2.1 3.1,1.2 -0.9,0.6 -4.5,-0.2 -1.6,-1.6z m20.7,19.8 1.8,2.3 0.8,1 1.5,0.6 0.6,-1.5 -1,-1.8 -2.7,-2 -1.1,0.2 v1.2z m-1.4,8.7 1.8,3.2 1.2,1.9 -1.5,0.2 -1.3,-1.2 c0,0 -0.7,-1.5 -0.7,-1.9 0,-0.4 0,-2.2 0,-2.2z" />
    <path
       id="CO"
       fill="#D3D3D3"
       d="M380.2,235.5 l-36,-3.5 -79.1,-8.6 -2.2,22.1 -7,50.4 -1.9,13.7 34,3.9 37.5,4.4 34.7,3 14.3,0.6z" />
    <path
       id="CT"
       fill="#D3D3D3"
       d="M852,190.9 l3.6,-3.2 1.9,-2.1 0.8,0.6 2.7,-1.5 5.2,-1.1 7,-3.5 -0.6,-4.2 -0.8,-4.4 -1.6,-6 -4.3,1.1 -21.8,4.7 0.6,3.1 1.5,7.3 v8.3 l-0.9,2.1 1.7,2.2z" />
    <path
       id="DE"
       fill="#D3D3D3"
       d="M834.4,247.2 l-1,0.5 -3.6,-2.4 -1.8,-4.7 -1.9,-3.6 -2.3,-1 -2.1,-3.6 0.5,-2 0.5,-2.3 0.1,-1.1 -0.6,0.1 -1.7,1 -2,1.7 -0.2,0.3 1.4,4.1 2.3,5.6 3.7,16.1 5,-0.3 6,-1.1z" />
    <path
       id="FL"
       fill="#D3D3D3"
       d="M750.2,445.2 l-5.2,-0.7 -0.7,0.8 1.5,4.4 -0.4,5.2 -4.1,-1 -0.2,-2.8 h-4.1 l-5.3,0.7 -32.4,1.9 -8.2,-0.3 -1.7,-1.7 -2.5,-4.2 h-5.9 l-6.6,0.5 -35.4,4.2 -0.3,2.8 1.6,1.6 2.9,2 0.3,8.4 3.3,-0.6 6,-2.1 6,-0.5 4.4,-0.6 7.6,1.8 8.1,3.9 1.6,1.5 2.9,1.1 1.6,1.9 0.3,2.7 3.2,-1.3 h3.9 l3.6,-1.9 3.7,-3.6 3.1,0.2 0.5,-1.1 -0.8,-1 0.2,-1.9 4,-0.8 h2.6 l2.9,1.5 4.2,1.5 2.4,3.7 2.7,1 1.1,3.4 3.4,1.6 1.6,2.6 1.9,0.6 5.2,1.3 1.3,3.1 3,3.7 v9.5 l-1.5,4.7 0.3,2.7 1.3,4.8 1.8,4 0.8,-0.5 1.5,-4.5 -2.6,-1 -0.3,-0.6 1.6,-0.6 4.5,1 0.2,1.6 -3.2,5.5 -2.1,2.4 3.6,3.7 2.6,3.1 2.9,5.3 2.9,3.9 2.1,5 1.8,0.3 1.6,-2.1 1.8,1.1 2.6,4 0.6,3.6 3.1,4.4 0.8,-1.3 3.9,0.3 3.6,2.3 3.4,5.2 0.8,3.4 0.3,2.9 1.1,1 1.3,0.5 2.4,-1 1.5,-1.6 3.9,-0.2 3.1,-1.5 2.7,-3.2 -0.5,-1.9 -0.3,-2.4 0.6,-1.9 -0.3,-1.9 2.4,-1.3 0.3,-3.4 -0.6,-1.8 -0.5,-12 -1.3,-7.6 -4.5,-8.2 -3.6,-5.8 -2.6,-5.3 -2.9,-2.9 -2.9,-7.4 0.7,-1.4 1.1,-1.3 -1.6,-2.9 -4,-3.7 -4.8,-5.5 -3.7,-6.3 -5.3,-9.4 -3.7,-9.7 -2.3,-7.3z m17.7,132.7 2.4,-0.6 1.3,-0.2 1.5,-2.3 2.3,-1.6 1.3,0.5 1.7,0.3 0.4,1.1 -3.5,1.2 -4.2,1.5 -2.3,1.2z m13.5,-5 1.2,1.1 2.7,-2.1 5.3,-4.2 3.7,-3.9 2.5,-6.6 1,-1.7 0.2,-3.4 -0.7,0.5 -1,2.8 -1.5,4.6 -3.2,5.3 -4.4,4.2 -3.4,1.9z" />
    <path
       id="GA"
       fill="#D3D3D3"
       d="M750.2,444.2 l-5.6,-0.7 -1.4,1.6 1.6,4.7 -0.3,3.9 -2.2,-0.6 -0.2,-3 h-5.2 l-5.3,0.7 -32.3,1.9 -7.7,-0.3 -1.4,-1.2 -2.5,-4.3 -0.8,-3.3 -1.6,-0.9 -0.5,-0.5 0.9,-2.2 -0.4,-5.5 -1.6,-4.5 0.8,-4.9 1.7,-4.8 -0.2,-2.5 -1.9,-0.7 -0.4,-3.2 -2.8,-3.5 -1.9,-6.2 -1.5,-7 -1.7,-4.8 -3.8,-16 -3.5,-8 -0.8,-5.3 0.1,-2.3 3.3,-0.3 13.6,-1.6 18.6,-2 6.3,-1.1 0.5,1.4 -2.2,0.9 -0.9,2.2 0.4,2 1.4,1.6 4.3,2.7 3.2,-0.1 3.2,4.7 0.6,1.6 2.3,2.8 0.5,1.7 4.7,1.8 3,2.2 2.3,3 2.3,1.3 2,1.8 1.4,2.7 2.1,1.9 4.1,1.8 2.7,6 1.7,5.1 2.8,0.7 2.1,1.9 2,5.7 2.9,1.6 1.7,-0.8 0.4,1.2 -3.3,6.2 0.5,2.6 -1.5,4.2 -2.3,10 0.8,6.3z" />
    <path
       id="IA"
       fill="#D3D3D3"
       d="M556.8,183.6 l2.1,2.1 0.3,0.7 -2,3 0.3,4 2.6,4.1 3.1,1.6 2.4,0.3 0.9,1.8 0.2,2.4 2.5,1 0.9,1.1 0.5,1.6 3.8,3.3 0.6,1.9 -0.7,3 -1.7,3.7 -0.6,2.4 -2.1,1.6 -1.6,0.5 -5.7,1.5 -1.6,4.8 0.8,1.8 1.7,1.5 -0.2,3.5 -1.9,1.4 -0.7,1.8 v2.4 l-1.4,0.4 -1.7,1.4 -0.5,1.7 0.4,1.7 -1.3,1 -2.3,-2.7 -1.4,-2.8 -8.3,0.8 -10,0.6 -49.2,1.2 -1.6,-4.3 -0.4,-6.7 -1.4,-4.2 -0.7,-5.2 -2.2,-3.7 -1,-4.6 -2.7,-7.8 -1.1,-5.6 -1.4,-1.9 -1.3,-2.9 1.7,-3.8 1.2,-6.1 -2.7,-2.2 -0.3,-2.4 0.7,-2.4 1.8,-0.3 61.1,-0.6 21.2,-0.7z" />
    <path
       id="ID"
       fill="#D3D3D3"
       d="M175.3,27.63 l-4.8,17.41 -4.5,20.86 -3.4,16.22 -0.4,9.67 1.2,4.44 3.5,2.66 -0.2,3.91 -3.9,4.4 -4.5,6.6 -0.9,2.9 -1.2,1.1 -1.8,0.8 -4.3,5.3 -0.4,3.1 -0.4,1.1 0.6,1 2.6,-0.1 1.1,2.3 -2.4,5.8 -1.2,4.2 -8.8,35.3 20.7,4.5 39.5,7.9 34.8,6.1 4.9,-29.2 3.8,-24.1 -2.7,-2.4 -0.4,-2.6 -0.8,-1.1 -2.1,1 -0.7,2.6 -3.2,0.5 -3.9,-1.6 -3.8,0.1 -2.5,0.7 -3.4,-1.5 -2.4,0.2 -2.4,2 -2,-1.1 -0.7,-4 0.7,-2.9 -2.5,-2.9 -3.3,-2.6 -2.7,-13.1 -0.1,-4.7 -0.3,-0.1 -0.2,0.4 -5.1,3.5 -1.7,-0.2 -2.9,-3.4 -0.2,-3.1 7,-17.13 -0.4,-1.94 -3.4,-1.15 -0.6,-1.18 -2.6,-3.46 -4.6,-10.23 -3.2,-1.53 -2,-4.95 1.3,-4.63 -3.2,-7.58 4.4,-21.52z" />
    <path
       id="IL"
       fill="#D3D3D3"
       d="M618.7,214.3 l-0.8,-2.6 -1.3,-3.7 -1.6,-1.8 -1.5,-2.6 -0.4,-5.5 -15.9,1.8 -17.4,1 h-12.3 l0.2,2.1 2.2,0.9 1.1,1.4 0.4,1.4 3.9,3.4 0.7,2.4 -0.7,3.3 -1.7,3.7 -0.8,2.7 -2.4,1.9 -1.9,0.6 -5.2,1.3 -1.3,4.1 0.6,1.1 1.9,1.8 -0.2,4.3 -2.1,1.6 -0.5,1.3 v2.8 l-1.8,0.6 -1.4,1.2 -0.4,1.2 0.4,2 -1.6,1.3 -0.9,2.8 0.3,3.9 2.3,7 7,7.6 5.7,3.7 v4.4 l0.7,1.2 6.6,0.6 2.7,1.4 -0.7,3.5 -2.2,6.2 -0.8,3 2,3.7 6.4,5.3 4.8,0.8 2.2,5.1 2,3.4 -0.9,2.8 1.5,3.8 1.7,2.1 1.6,-0.3 1,-2.2 2.4,-1.7 2.8,-1 6.1,2.5 0.5,-0.2 v-1.1 l-1.2,-2.7 0.4,-2.8 2.4,-1.6 3.4,-1.2 -0.5,-1.3 -0.8,-2 1.2,-1.3 1,-2.7 v-4 l0.4,-4.9 2.5,-3 1.8,-3.8 2.5,-4 -0.5,-5.3 -1.8,-3.2 -0.3,-3.3 0.8,-5.3 -0.7,-7.2 -1.1,-15.8 -1.4,-15.3 -0.9,-11.7z" />
    <path
       id="IN"
       fill="#D3D3D3"
       d="M622.9,216.1 l1.5,1 1.1,-0.3 2.1,-1.9 2.5,-1.8 14.3,-1.1 18.4,-1.8 1.6,15.5 4.9,42.6 -0.6,2.9 1.3,1.6 0.2,1.3 -2.3,1.6 -3.6,1.7 -3.2,0.4 -0.5,4.8 -4.7,3.6 -2.9,4 0.2,2.4 -0.5,1.4 h-3.5 l-1.4,-1.7 -5.2,3 0.2,3.1 -0.9,0.2 -0.5,-0.9 -2.4,-1.7 -3.6,1.5 -1.4,2.9 -1.2,-0.6 -1.6,-1.8 -4.4,0.5 -5.7,1 -2.5,1.3 v-2.6 l0.4,-4.7 2.3,-2.9 1.8,-3.9 2.7,-4.2 -0.5,-5.8 -1.8,-3.1 -0.3,-3.2 0.8,-5.3 -0.7,-7.1 -0.9,-12.6 -2.5,-30.1z" />
    <path
       id="KS"
       fill="#D3D3D3"
       d="M485.9,259.5 l-43.8,-0.6 -40.6,-1.2 -21.7,-0.9 -4.3,64.8 24.3,1 44.7,2.1 46.3,0.6 12.6,-0.3 0.7,-35 -1.2,-11.1 -2.5,-2 -2.4,-3 -2.3,-3.6 0.6,-3 1.7,-1.4 v-2.1 l-0.8,-0.7 -2.6,-0.2 -3.5,-3.4z" />
    <path
       id="KY"
       fill="#D3D3D3"
       d="M607.2,331.8 l12.6,-0.7 0.1,-4.1 h4.3 l30.4,-3.2 45.1,-4.3 5.6,-3.6 3.9,-2.1 0.1,-1.9 6,-7.8 4.1,-3.6 2.1,-2.4 -3.3,-2 -2.5,-2.7 -3,-3.8 -0.5,-2.2 -2.6,-1.4 -0.9,-1.9 -0.2,-6.1 -2.6,-2 -1.9,-1.1 -0.5,-2.3 -1.3,0.2 -2,1.2 -2.5,2.7 -1.9,-1.7 -2.5,-0.5 -2.4,1.4 h-2.3 l-1.8,-2 -5.6,-0.1 -1.8,-4.5 -2.9,-1.5 -2.1,0.8 -4.2,0.2 -0.5,2.1 1.2,1.5 0.3,2.1 -2.8,2 -3.8,1.8 -2.6,0.4 -0.5,4.5 -4.9,3.6 -2.6,3.7 0.2,2.2 -0.9,2.3 -4.5,-0.1 -1.3,-1.3 -3.9,2.2 0.2,3.3 -2.4,0.6 -0.8,-1.4 -1.7,-1.2 -2.7,1.1 -1.8,3.5 -2.2,-1 -1.4,-1.6 -3.7,0.4 -5.6,1 -2.8,1.3 -1.2,3.4 -1,1 1.5,3.7 -4.2,1.4 -1.9,1.4 -0.4,2.2 1.2,2.4 v2.2 l-1.6,0.4 -6.1,-2.5 -2.3,0.9 -2,1.4 -0.8,1.8 1.7,2.4 -0.9,1.8 -0.1,3.3 -2.4,1.3 -2.1,1.7z" />
    <path
       id="LA"
       fill="#D3D3D3"
       d="M526.9,485.9 l8.1,-0.3 10.3,3.6 6.5,1.1 3.7,-1.5 3.2,1.1 3.2,1 0.8,-2.1 -3.2,-1.1 -2.6,0.5 -2.7,-1.6 0.8,-1.5 3.1,-1 1.8,1.5 1.8,-1 3.2,0.6 1.5,2.4 0.3,2.3 4.5,0.3 1.8,1.8 -0.8,1.6 -1.3,0.8 1.6,1.6 8.4,3.6 3.6,-1.3 1,-2.4 2.6,-0.6 1.8,-1.5 1.3,1 0.8,2.9 -2.3,0.8 0.6,0.6 3.4,-1.3 2.3,-3.4 0.8,-0.5 -2.1,-0.3 0.8,-1.6 -0.2,-1.5 2.1,-0.5 1.1,-1.3 0.6,0.8 0.6,3.1 4.2,0.6 4,1.9 1,1.5 h2.9 l1.1,1 2.3,-3.1 v-1.5 h-1.3 l-3.4,-2.7 -5.8,-0.8 -3.2,-2.3 1.1,-2.7 2.3,0.3 0.2,-0.6 -1.8,-1 v-0.5 h3.2 l1.8,-3.1 -1.3,-1.9 -0.3,-2.7 -1.5,0.2 -1.9,2.1 -0.6,2.6 -3.1,-0.6 -1,-1.8 1.8,-1.9 1.9,-1.7 -2.2,-6.5 -3.4,-3.4 1,-7.3 -0.2,-0.5 -1.3,0.2 -33.1,1.4 -0.8,-2.4 0.8,-8.5 8.6,-14.8 -0.9,-2.6 1.4,-0.4 0.4,-2 -2.2,-2 0.1,-1.9 -2,-4.5 -0.4,-5.1 0.1,-0.7 -26.4,0.8 -25.2,0.1 0.4,9.7 0.7,9.5 0.5,3.7 2.6,4.5 0.9,4.4 4.3,6 0.3,3.1 0.6,0.8 -0.7,8.3 -2.8,4.6 1.2,2.4 -0.5,2.6 -0.8,7.3 -1.3,3 0.2,3.7z" />
    <path
       id="MA"
       fill="#D3D3D3"
       d="M887.5,172.5 l-0.5,-2.3 0.8,-1.5 2.9,-1.5 0.8,3.1 -0.5,1.8 -2.4,1.5 v1 l1.9,-1.5 3.9,-4.5 3.9,-1.9 4.2,-1.5 -0.3,-2.4 -1,-2.9 -1.9,-2.4 -1.8,-0.8 -2.1,0.2 -0.5,0.5 1,1.3 1.5,-0.8 2.1,1.6 0.8,2.7 -1.8,1.8 -2.3,1 -3.6,-0.5 -3.9,-6 -2.3,-2.6 h-1.8 l-1.1,0.8 -1.9,-2.6 0.3,-1.5 2.4,-5.2 -2.9,-4.4 -3.7,1.8 -1.8,2.9 -18.3,4.7 -13.8,2.5 -0.6,10.6 0.7,4.9 22,-4.8 11.2,-2.8 2,1.6 3.4,4.3 2.9,4.7z m12.5,1.4 2.2,-0.7 0.5,-1.7 1,0.1 1,2.3 -1.3,0.5 -3.9,0.1z m-9.4,0.8 2.3,-2.6 h1.6 l1.8,1.5 -2.4,1 -2.2,1z" />
    <path
       id="MD"
       fill="#D3D3D3"
       d="M834.8,264.1 l1.7,-3.8 0.5,-4.8 -6.3,1.1 -5.8,0.3 -3.8,-16.8 -2.3,-5.5 -1.5,-4.6 -22.2,4.3 -37.6,7.6 2,10.4 4.8,-4.9 2.5,-0.7 1.4,-1.5 1.8,-2.7 1.6,0.7 2.6,-0.2 2.6,-2.1 2,-1.5 2.1,-0.6 1.5,1.1 2.7,1.4 1.9,1.8 1.3,1.4 4.8,1.6 -0.6,2.9 5.8,2.1 2.1,-2.6 3.7,2.5 -2.1,3.3 -0.7,3.3 -1.8,2.6 v2.1 l0.3,0.8 2,1.3 3.4,1.1 4.3,-0.1 3.1,1 2.1,0.3 1,-2.1 -1.5,-2.1 v-1.8 l-2.4,-2.1 -2.1,-5.5 1.3,-5.3 -0.2,-2.1 -1.3,-1.3 c0,0 1.5,-1.6 1.5,-2.3 0,-0.6 0.5,-2.1 0.5,-2.1 l1.9,-1.3 1.9,-1.6 0.5,1 -1.5,1.6 -1.3,3.7 0.3,1.1 1.8,0.3 0.5,5.5 -2.1,1 0.3,3.6 0.5,-0.2 1.1,-1.9 1.6,1.8 -1.6,1.3 -0.3,3.4 2.6,3.4 3.9,0.5 1.6,-0.8 3.2,4.2 1,0.4z m-14.5,0.2 1.1,2.5 0.2,1.8 1.1,1.9 c0,0 0.9,-0.9 0.9,-1.2 0,-0.3 -0.7,-3.1 -0.7,-3.1 l-0.7,-2.3z" />
    <path
       id="ME"
       fill="#D3D3D3"
       d="M865.8,91.9 l1.5,0.4 v-2.6 l0.8,-5.5 2.6,-4.7 1.5,-4 -1.9,-2.4 v-6 l0.8,-1 0.8,-2.7 -0.2,-1.5 -0.2,-4.8 1.8,-4.8 2.9,-8.9 2.1,-4.2 h1.3 l1.3,0.2 v1.1 l1.3,2.3 2.7,0.6 0.8,-0.8 v-1 l4,-2.9 1.8,-1.8 1.5,0.2 6,2.4 1.9,1 9.1,29.9 h6 l0.8,1.9 0.2,4.8 2.9,2.3 h0.8 l0.2,-0.5 -0.5,-1.1 2.8,-0.5 1.9,2.1 2.3,3.7 v1.9 l-2.1,4.7 -1.9,0.6 -3.4,3.1 -4.8,5.5 c0,0 -0.6,0 -1.3,0 -0.6,0 -1,-2.1 -1,-2.1 l-1.8,0.2 -1,1.5 -2.4,1.5 -1,1.5 1.6,1.5 -0.5,0.6 -0.5,2.7 -1.9,-0.2 v-1.6 l-0.3,-1.3 -1.5,0.3 -1.8,-3.2 -2.1,1.3 1.3,1.5 0.3,1.1 -0.8,1.3 0.3,3.1 0.2,1.6 -1.6,2.6 -2.9,0.5 -0.3,2.9 -5.3,3.1 -1.3,0.5 -1.6,-1.5 -3.1,3.6 1,3.2 -1.5,1.3 -0.2,4.4 -1.1,6.3 -2.2,-0.9 -0.5,-3.1 -4,-1.1 -0.2,-2.5 -11.7,-37.43z m36.5,15.6 1.5,-1.5 1.4,1.1 0.6,2.4 -1.7,0.9z m6.7,-5.9 1.8,1.9 c0,0 1.3,0.1 1.3,-0.2 0,-0.3 0.2,-2 0.2,-2 l0.9,-0.8 -0.8,-1.8 -2,0.7z" />
    <path
       id="MI"
       fill="#D3D3D3"
       d="M644.5,211 l19.1,-1.9 0.2,1.1 9.9,-1.5 12,-1.7 0.1,-0.6 0.2,-1.5 2.1,-3.7 2,-1.7 -0.2,-5.1 1.6,-1.6 1.1,-0.3 0.2,-3.6 1.5,-3 1.1,0.6 0.2,0.6 0.8,0.2 1.9,-1 -0.4,-9.1 -3.2,-8.2 -2.3,-9.1 -2.4,-3.2 -2.6,-1.8 -1.6,1.1 -3.9,1.8 -1.9,5 -2.7,3.7 -1.1,0.6 -1.5,-0.6 c0,0 -2.6,-1.5 -2.4,-2.1 0.2,-0.6 0.5,-5 0.5,-5 l3.4,-1.3 0.8,-3.4 0.6,-2.6 2.4,-1.6 -0.3,-10 -1.6,-2.3 -1.3,-0.8 -0.8,-2.1 0.8,-0.8 1.6,0.3 0.2,-1.6 -2.6,-2.2 -1.3,-2.6 h-2.6 l-4.5,-1.5 -5.5,-3.4 h-2.7 l-0.6,0.6 -1,-0.5 -3.1,-2.3 -2.9,1.8 -2.9,2.3 0.3,3.6 1,0.3 2.1,0.5 0.5,0.8 -2.6,0.8 -2.6,0.3 -1.5,1.8 -0.3,2.1 0.3,1.6 0.3,5.5 -3.6,2.1 -0.6,-0.2 v-4.2 l1.3,-2.4 0.6,-2.4 -0.8,-0.8 -1.9,0.8 -1,4.2 -2.7,1.1 -1.8,1.9 -0.2,1 0.6,0.8 -0.6,2.6 -2.3,0.5 v1.1 l0.8,2.4 -1.1,6.1 -1.6,4 0.6,4.7 0.5,1.1 -0.8,2.4 -0.3,0.8 -0.3,2.7 3.6,6 2.9,6.5 1.5,4.8 -0.8,4.7 -1,6 -2.4,5.2 -0.3,2.7 -3.2,3.1z m-33.3,-72.4 -1.3,-1.1 -1.8,-10.4 -3.7,-1.3 -1.7,-2.3 -12.6,-2.8 -2.8,-1.1 -8.1,-2.2 -7.8,-1 -3.9,-5.3 0.7,-0.5 2.7,-0.8 3.6,-2.3 v-1 l0.6,-0.6 6,-1 2.4,-1.9 4.4,-2.1 0.2,-1.3 1.9,-2.9 1.8,-0.8 1.3,-1.8 2.3,-2.3 4.4,-2.4 4.7,-0.5 1.1,1.1 -0.3,1 -3.7,1 -1.5,3.1 -2.3,0.8 -0.5,2.4 -2.4,3.2 -0.3,2.6 0.8,0.5 1,-1.1 3.6,-2.9 1.3,1.3 h2.3 l3.2,1 1.5,1.1 1.5,3.1 2.7,2.7 3.9,-0.2 1.5,-1 1.6,1.3 1.6,0.5 1.3,-0.8 h1.1 l1.6,-1 4,-3.6 3.4,-1.1 6.6,-0.3 4.5,-1.9 2.6,-1.3 1.5,0.2 v5.7 l0.5,0.3 2.9,0.8 1.9,-0.5 6.1,-1.6 1.1,-1.1 1.5,0.5 v7 l3.2,3.1 1.3,0.6 1.3,1 -1.3,0.3 -0.8,-0.3 -3.7,-0.5 -2.1,0.6 -2.3,-0.2 -3.2,1.5 h-1.8 l-5.8,-1.3 -5.2,0.2 -1.9,2.6 -7,0.6 -2.4,0.8 -1.1,3.1 -1.3,1.1 -0.5,-0.2 -1.5,-1.6 -4.5,2.4 h-0.6 l-1.1,-1.6 -0.8,0.2 -1.9,4.4 -1,4 -3.2,6.9z m-29.6,-56.5 1.8,-2.1 2.2,-0.8 5.4,-3.9 2.3,-0.6 0.5,0.5 -5.1,5.1 -3.3,1.9 -2.1,0.9z m86.2,32.1 0.6,2.5 3.2,0.2 1.3,-1.2 c0,0 -0.1,-1.5 -0.4,-1.6 -0.3,-0.2 -1.6,-1.9 -1.6,-1.9 l-2.2,0.2 -1.6,0.2 -0.3,1.1z" />
    <path
       id="MN"
       fill="#D3D3D3"
       d="M464.6,66.79 l-0.6,3.91 v10.27 l1.6,5.03 1.9,3.32 0.5,9.93 1.8,13.45 1.8,7.3 0.4,6.4 v5.3 l-1.6,1.8 -1.8,1.3 v1.5 l0.9,1.7 4.1,3.5 0.7,3.2 v35.9 l60.3,-0.6 21.2,-0.7 -0.5,-6 -1.8,-2.1 -7.2,-4.6 -3.6,-5.3 -3.4,-0.9 -2,-2.8 h-3.2 l-3.5,-3.8 -0.5,-7 0.1,-3.9 1.5,-3 -0.7,-2.7 -2.8,-3.1 2.2,-6.1 5.4,-4 1.2,-1.4 -0.2,-8 0.2,-3 2.6,-3 3.8,-2.9 1.3,-0.2 4.5,-5 1.8,-0.8 2.3,-3.9 2.4,-3.6 3.1,-2.6 4.8,-2 9.2,-4.1 3.9,-1.8 0.6,-2.3 -4.4,0.4 -0.7,1.1 h-0.6 l-1.8,-3.1 -8.9,0.3 -1,0.8 h-1 l-0.5,-1.3 -0.8,-1.8 -2.6,0.5 -3.2,3.2 -1.6,0.8 h-3.1 l-2.6,-1 v-2.1 l-1.3,-0.2 -0.5,0.5 -2.6,-1.3 -0.5,-2.9 -1.5,0.5 -0.5,1 -2.4,-0.5 -5.3,-2.4 -3.9,-2.6 h-2.9 l-1.3,-1 -2.3,0.6 -1.1,1.1 -0.3,1.3 h-4.8 v-2.1 l-6.3,-0.3 -0.3,-1.5 h-4.8 l-1.6,-1.6 -1.5,-6.1 -0.8,-5.5 -1.9,-0.8 -2.3,-0.5 -0.6,0.2 -0.3,8.2 -30.1,-0.03z" />
    <path
       id="MO"
       fill="#D3D3D3"
       d="M593.1,338.7 l0.5,-5.9 4.2,-3.4 1.9,-1 v-2.9 l0.7,-1.6 -1.1,-1.6 -2.4,0.3 -2.1,-2.5 -1.7,-4.5 0.9,-2.6 -2,-3.2 -1.8,-4.6 -4.6,-0.7 -6.8,-5.6 -2.2,-4.2 0.8,-3.3 2.2,-6 0.6,-3 -1.9,-1 -6.9,-0.6 -1.1,-1.9 v-4.1 l-5.3,-3.5 -7.2,-7.8 -2.3,-7.3 -0.5,-4.2 0.7,-2.4 -2.6,-3.1 -1.2,-2.4 -7.7,0.8 -10,0.6 -48.8,1.2 1.3,2.6 -0.1,2.2 2.3,3.6 3,3.9 3.1,3 2.6,0.2 1.4,1.1 v2.9 l-1.8,1.6 -0.5,2.3 2.1,3.2 2.4,3 2.6,2.1 1.3,11.6 -0.8,40 0.5,5.7 23.7,-0.2 23.3,-0.7 32.5,-1.3 2.2,3.7 -0.8,3.1 -3.1,2.5 -0.5,1.8 5.2,0.5 4.1,-1.1z" />
    <path
       id="MS"
       fill="#D3D3D3"
       d="M604.3,472.5 l2.6,-4.2 1.8,0.8 6.8,-1.9 2.1,0.3 1.5,0.8 h5.2 l0.4,-1.6 -1.7,-14.8 -2.8,-19 1,-45.1 -0.2,-16.7 0.2,-6.3 -4.8,0.3 -19.6,1.6 -13,0.4 -0.2,3.2 -2.8,1.3 -2.6,5.1 0.5,1.6 0.1,2.4 -2.9,1.1 -3.5,5.1 0.8,2.3 -3,2.5 -1,5.7 -0.6,1.9 1.6,2.5 -1.5,1.4 1.5,2.8 0.3,4.2 -1.2,2.5 -0.2,0.9 0.4,5 2,4.5 -0.1,1.7 2.3,2 -0.7,3.1 -0.9,0.3 0.6,1.9 -8.6,15 -0.8,8.2 0.5,1.5 24.2,-0.7 8.2,-0.7 1.9,-0.3 0.6,1.4 -1,7.1 3.3,3.3 2.2,6.4z" />
    <path
       id="MT"
       fill="#D3D3D3"
       d="M361.1,70.77 l-5.3,57.13 -1.3,15.2 -59.1,-6.6 -49,-7.1 -1.4,11.2 -1.9,-1.7 -0.4,-2.5 -1.3,-1.9 -3.3,1.5 -0.7,2.5 -2.3,0.3 -3.8,-1.6 -4.1,0.1 -2.4,0.7 -3.2,-1.5 -3,0.2 -2.1,1.9 -0.9,-0.6 -0.7,-3.4 0.7,-3.2 -2.7,-3.2 -3.3,-2.5 -2.5,-12.6 -0.1,-5.3 -1.6,-0.8 -0.6,1 -4.5,3.2 -1.2,-0.1 -2.3,-2.8 -0.2,-2.8 7,-17.15 -0.6,-2.67 -3.5,-1.12 -0.4,-0.91 -2.7,-3.5 -4.6,-10.41 -3.2,-1.58 -1.8,-4.26 1.3,-4.63 -3.2,-7.57 4.4,-21.29 32.7,6.89 18.4,3.4 32.3,5.3 29.3,4 29.2,3.5 30.8,3.07z" />
    <path
       id="NC"
       fill="#D3D3D3"
       d="M786.7,357.7 l-12.7,-7.7 -3.1,-0.8 -16.6,2.1 -1.6,-3 -2.8,-2.2 -16.7,0.5 -7.4,0.9 -9.2,4.5 -6.8,2.7 -6.5,1.2 -13.4,1.4 0.1,-4.1 1.7,-1.3 2.7,-0.7 0.7,-3.8 3.9,-2.5 3.9,-1.5 4.5,-3.7 4.4,-2.3 0.7,-3.2 4.1,-3.8 0.7,1 2.5,0.2 2.4,-3.6 1.7,-0.4 2.6,0.3 1.8,-4 2.5,-2.4 0.5,-1.8 0.1,-3.5 4.4,0.1 38.5,-5.6 57.5,-12.3 2,4.8 3.6,6.5 2.4,2.4 0.6,2.3 -2.4,0.2 0.8,0.6 -0.3,4.2 -2.6,1.3 -0.6,2.1 -1.3,2.9 -3.7,1.6 -2.4,-0.3 -1.5,-0.2 -1.6,-1.3 0.3,1.3 v1 h1.9 l0.8,1.3 -1.9,6.3 h4.2 l0.6,1.6 2.3,-2.3 1.3,-0.5 -1.9,3.6 -3.1,4.8 h-1.3 l-1.1,-0.5 -2.7,0.6 -5.2,2.4 -6.5,5.3 -3.4,4.7 -1.9,6.5 -0.5,2.4 -4.7,0.5 -5.1,1.5z m49.3,-26.2 2.6,-2.5 3.2,-2.6 1.5,-0.6 0.2,-2 -0.6,-6.1 -1.5,-2.3 -0.6,-1.9 0.7,-0.2 2.7,5.5 0.4,4.4 -0.2,3.4 -3.4,1.5 -2.8,2.4 -1.1,1.2z" />
    <path
       id="ND"
       fill="#D3D3D3"
       d="M471,126.4 l-0.4,-6.2 -1.8,-7.3 -1.8,-13.61 -0.5,-9.7 -1.9,-3.18 -1.6,-5.32 v-10.41 l0.6,-3.85 -1.8,-5.54 -28.6,-0.59 -18.6,-0.6 -26.5,-1.3 -25.2,-2.16 -0.9,14.42 -4.7,50.94 56.8,3.9 56.9,1.7z" />
    <path
       id="NE"
       fill="#D3D3D3"
       d="M470.3,204.3 l-1,-2.3 -0.5,-1.6 -2.9,-1.6 -4.8,-1.5 -2.2,-1.2 -2.6,0.1 -3.7,0.4 -4.2,1.2 -6,-4.1 -2.2,-2 -10.7,0.6 -41.5,-2.4 -35.6,-2.2 -4.3,43.7 33.1,3.3 -1.4,21.1 21.7,1 40.6,1.2 43.8,0.6 h4.5 l-2.2,-3 -2.6,-3.9 0.1,-2.3 -1.4,-2.7 -1.9,-5.2 -0.4,-6.7 -1.4,-4.1 -0.5,-5 -2.3,-3.7 -1,-4.7 -2.8,-7.9 -1,-5.3z" />
    <path
       id="NH"
       fill="#D3D3D3"
       d="M881.7,141.3 l1.1,-3.2 -2.7,-1.2 -0.5,-3.1 -4.1,-1.1 -0.3,-3 -11.7,-37.48 -0.7,0.08 -0.6,1.6 -0.6,-0.5 -1,-1 -1.5,1.9 -0.2,2.29 0.5,8.41 1.9,2.8 v4.3 l-3.9,4.8 -2.4,0.9 v0.7 l1.1,1.9 v8.6 l-0.8,9.2 -0.2,4.7 1,1.4 -0.2,4.7 -0.5,1.5 1,1.1 5.1,-1.2 13.8,-3.5 1.7,-2.9 4,-1.9z" />
    <path
       id="NJ"
       fill="#D3D3D3"
       d="M823.7,228.3 l0.1,-1.5 2.7,-1.3 1.7,-2.8 1.7,-2.4 3.3,-3.2 v-1.2 l-6.1,-4.1 -1,-2.7 -2.7,-0.3 -0.1,-0.9 -0.7,-2.2 2.2,-1.1 0.2,-2.9 -1.3,-1.3 0.2,-1.2 1.9,-3.1 v-3.1 l2.5,-3.1 5.6,2.5 6.4,1.9 2.5,1.2 0.1,1.8 -0.5,2.7 0.4,4.5 -2.1,1.9 -1.1,1 0.5,0.5 2.7,-0.3 1.1,-0.8 1.6,3.4 0.2,9.4 0.6,1.1 -1.1,5.5 -3.1,6.5 -2.7,4 -0.8,4.8 -2.1,2.4 h-0.8 l-0.3,-2.7 0.8,-1 -0.2,-1.5 -4,-0.6 -4.8,-2.3 -3.2,-2.9 -1,-2z" />
    <path
       id="NM"
       fill="#D3D3D3"
       d="M270.2,429.4 l-16.7,-2.6 -1.2,9.6 -15.8,-2 6,-39.7 7,-53.2 4.4,-30.9 34,3.9 37.4,4.4 32,2.8 -0.3,10.8 -1.4,-0.1 -7.4,97.7 -28.4,-1.8 -38.1,-3.7 0.7,6.3z" />
    <path
       id="NV"
       fill="#D3D3D3"
       d="M123.1,173.6 l38.7,8.5 26,5.2 -10.6,53.1 -5.4,29.8 -3.3,15.5 -2.1,11.1 -2.6,16.4 -1.7,3.1 -1.6,-0.1 -1.2,-2.6 -2.8,-0.5 -1.3,-1.1 -1.8,0.1 -0.9,0.8 -1.8,1.3 -0.3,7.3 -0.3,1.5 -0.5,12.4 -1.1,1.8 -16.7,-25.5 -42.1,-62.1 -12.43,-19 8.55,-32.6 8.01,-31.3z" />
    <path
       id="NY"
       fill="#D3D3D3"
       d="M843.4,200 l0.5,-2.7 -0.2,-2.4 -3,-1.5 -6.5,-2 -6,-2.6 -0.6,-0.4 -2.7,-0.3 -2,-1.5 -2.1,-5.9 -3.3,-0.5 -2.4,-2.4 -38.4,8.1 -31.6,6 -0.5,-6.5 1.6,-1.2 1.3,-1.1 1,-1.6 1.8,-1.1 1.9,-1.8 0.5,-1.6 2.1,-2.7 1.1,-1 -0.2,-1 -1.3,-3.1 -1.8,-0.2 -1.9,-6.1 2.9,-1.8 4.4,-1.5 4,-1.3 3.2,-0.5 6.3,-0.2 1.9,1.3 1.6,0.2 2.1,-1.3 2.6,-1.1 5.2,-0.5 2.1,-1.8 1.8,-3.2 1.6,-1.9 h2.1 l1.9,-1.1 0.2,-2.3 -1.5,-2.1 -0.3,-1.5 1.1,-2.1 v-1.5 h-1.8 l-1.8,-0.8 -0.8,-1.1 -0.2,-2.6 5.8,-5.5 0.6,-0.8 1.5,-2.9 2.9,-4.5 2.7,-3.7 2.1,-2.4 2.4,-1.8 3.1,-1.2 5.5,-1.3 3.2,0.2 4.5,-1.5 7.4,-2.2 0.7,4.9 2.4,6.5 0.8,5 -1,4.2 2.6,4.5 0.8,2 -0.9,3.2 3.7,1.7 2.7,10.2 v5.8 l-0.6,10.9 0.8,5.4 0.7,3.6 1.5,7.3 v8.1 l-1.1,2.3 2.1,2.7 0.5,0.9 -1.9,1.8 0.3,1.3 1.3,-0.3 1.5,-1.3 2.3,-2.6 1.1,-0.6 1.6,0.6 2.3,0.2 7.9,-3.9 2.9,-2.7 1.3,-1.5 4.2,1.6 -3.4,3.6 -3.9,2.9 -7.1,5.3 -2.6,1 -5.8,1.9 -4,1.1 -1,-0.4z" />
    <path
       id="OH"
       fill="#D3D3D3"
       d="M663.8,211.2 l1.7,15.5 4.8,41.1 3.9,-0.2 2.3,-0.8 3.6,1.8 1.7,4.2 5.4,0.1 1.8,2 h1.7 l2.4,-1.4 3.1,0.5 1.5,1.3 1.8,-2 2.3,-1.4 2.4,-0.4 0.6,2.7 1.6,1 2.6,2 0.8,0.2 2,-0.1 1.2,-0.6 v-2.1 l1.7,-1.5 0.1,-4.8 1.1,-4.2 1.9,-1.3 1,0.7 1,1.1 0.7,0.2 0.4,-0.4 -0.9,-2.7 v-2.2 l1.1,-1.4 2.5,-3.6 1.3,-1.5 2.2,0.5 2.1,-1.5 3,-3.3 2.2,-3.7 0.2,-5.4 0.5,-5 v-4.6 l-1.2,-3.2 1.2,-1.8 1.3,-1.2 -0.6,-2.8 -4.3,-25.6 -6.2,3.7 -3.9,2.3 -3.4,3.7 -4,3.9 -3.2,0.8 -2.9,0.5 -5.5,2.6 -2.1,0.2 -3.4,-3.1 -5.2,0.6 -2.6,-1.5 -2.2,-1.3z" />
    <path
       id="OK"
       fill="#D3D3D3"
       d="M411.9,334.9 l-1.8,24.3 -0.9,18 0.2,1.6 4,3.6 1.7,0.9 h0.9 l0.9,-2.1 1.5,1.9 1.6,0.1 0.3,-0.2 0.2,-1.1 2.8,1.4 -0.4,3.5 3.8,0.5 2.5,1 4.2,0.6 2.3,1.6 2.5,-1.7 3.5,0.7 2.2,3.1 1.2,0.1 v2.3 l2.1,0.7 2.5,-2.1 1.8,0.6 2.7,0.1 0.7,2.3 4.4,1.8 1.7,-0.3 1.9,-4.2 h1.3 l1.1,2.1 4.2,0.8 3.4,1.3 3,0.8 1.6,-0.7 0.7,-2.7 h4.5 l1.9,0.9 2.7,-1.9 h1.4 l0.6,1.4 h3.6 l2,-1.8 2.3,0.6 1.7,2.2 3,1.7 3.4,0.9 1.9,1.2 -0.3,-37.6 -1.4,-10.9 -0.1,-8.6 -1.5,-6.6 -0.6,-6.8 0.1,-4.3 -12.6,0.3 -46.3,-0.5 -44.7,-2.1 -41.5,-1.8 -0.4,10.7z" />
    <path
       id="OR"
       fill="#D3D3D3"
       d="M67.44,158.9 l28.24,7.2 27.52,6.5 17,3.7 8.8,-35.1 1.2,-4.4 2.4,-5.5 -0.7,-1.3 -2.5,0.1 -1.3,-1.8 0.6,-1.5 0.4,-3.3 4.7,-5.7 1.9,-0.9 0.9,-0.8 0.7,-2.7 0.8,-1.1 3.9,-5.7 3.7,-4 0.2,-3.26 -3.4,-2.49 -1.2,-4.55 -13.1,-3.83 -15.3,-3.47 -14.8,0.37 -1.1,-1.31 -5.1,1.84 -4.5,-0.48 -2.4,-1.58 -1.3,0.54 -4.68,-0.29 -1.96,-1.43 -4.84,-1.77 -1.1,-0.07 -4.45,-1.27 -1.76,1.52 -6.26,-0.24 -5.31,-3.85 0.21,-9.28 -2.05,-3.5 -4.1,-0.6 -0.7,-2.5 -2.4,-0.5 -5.8,2.1 -2.3,6.5 -3.2,10 -3.2,6.5 -5,14.1 -6.5,13.6 -8.1,12.6 -1.9,2.9 -0.8,8.6 -1.3,6 2.71,3.5z" />
    <path
       id="PA"
       fill="#D3D3D3"
       d="M736.6,192.2 l1.3,-0.5 5.7,-5.5 0.7,6.9 33.5,-6.5 36.9,-7.8 2.3,2.3 3.1,0.4 2,5.6 2.4,1.9 2.8,0.4 0.1,0.1 -2.6,3.2 v3.1 l-1.9,3.1 -0.2,1.9 1.3,1.3 -0.2,1.9 -2.4,1.1 1,3.4 0.2,1.1 2.8,0.3 0.9,2.5 5.9,3.9 v0.4 l-3.1,3 -1.5,2.2 -1.7,2.8 -2.7,1.2 -1.4,0.3 -2.1,1.3 -1.6,1.4 -22.4,4.3 -38.7,7.8 -11.3,1.4 -3.9,0.7 -5.1,-22.4 -4.3,-25.9z" />
    <path
       id="RI"
       fill="#D3D3D3"
       d="M873.6,175.7 l-0.8,-4.4 -1.6,-6 5.7,-1.5 1.5,1.3 3.4,4.3 2.8,4.4 -2.8,1.4 -1.3,-0.2 -1.1,1.8 -2.4,1.9 -2.8,1.1z" />
    <path
       id="SC"
       fill="#D3D3D3"
       d="M759,413.6 l-2.1,-1 -1.9,-5.6 -2.5,-2.3 -2.5,-0.5 -1.5,-4.6 -3,-6.5 -4.2,-1.8 -1.9,-1.8 -1.2,-2.6 -2.4,-2 -2.3,-1.3 -2.2,-2.9 -3.2,-2.4 -4.4,-1.7 -0.4,-1.4 -2.3,-2.8 -0.5,-1.5 -3.8,-5.4 -3.4,0.1 -3.9,-2.5 -1.2,-1.2 -0.2,-1.4 0.6,-1.6 2.7,-1.3 -0.8,-2 6.4,-2.7 9.2,-4.5 7.1,-0.9 16.4,-0.5 2.3,1.9 1.8,3.5 4.6,-0.8 12.6,-1.5 2.7,0.8 12.5,7.4 10.1,8.3 -5.3,5.4 -2.6,6.1 -0.5,6.3 -1.6,0.8 -1.1,2.7 -2.4,0.6 -2.1,3.6 -2.7,2.7 -2.3,3.4 -1.6,0.8 -3.6,3.4 -2.9,0.2 1,3.2 -5,5.3 -2.3,1.6z" />
    <path
       id="SD"
       fill="#D3D3D3"
       d="M471,181.1 l-0.9,3.2 0.4,3 2.6,2 -1.2,5.4 -1.8,4.1 1.5,3.3 0.7,1.1 -1.3,0.1 -0.7,-1.6 -0.6,-2 -3.3,-1.8 -4.8,-1.5 -2.5,-1.3 -2.9,0.1 -3.9,0.4 -3.8,1.2 -5.3,-3.8 -2.7,-2.4 -10.9,0.8 -41.5,-2.4 -35.6,-2.2 1.5,-24.8 2.8,-34 0.4,-5 56.9,3.9 56.9,1.7 v2.7 l-1.3,1.5 -2,1.5 -0.1,2.2 1.1,2.2 4.1,3.4 0.5,2.7 v35.9z" />
    <path
       id="TN"
       fill="#D3D3D3"
       d="M670.8,359.6 l-13.1,1.2 -23.3,2.2 -37.6,2.7 -11.8,0.4 0.9,-0.6 0.9,-4.5 -1.2,-3.6 3.9,-2.3 0.4,-2.5 1.2,-4.3 3,-9.5 0.5,-5.6 0.3,-0.2 12.3,-0.2 13.6,-0.8 0.1,-3.9 3.5,-0.1 30.4,-3.3 54,-5.2 10.3,-1.5 7.6,-0.2 2.4,-1.9 1.3,0.3 -0.1,3.3 -0.4,1.6 -2.4,2.2 -1.6,3.6 -2,-0.4 -2.4,0.9 -2.2,3.3 -1.4,-0.2 -0.8,-1.2 -1.1,0.4 -4.3,4 -0.8,3.1 -4.2,2.2 -4.3,3.6 -3.8,1.5 -4.4,2.8 -0.6,3.6 -2.5,0.5 -2,1.7 -0.2,4.8z" />
    <path
       id="TX"
       fill="#D3D3D3"
       d="M282.8,425.6 l37,3.6 29.3,1.9 7.4,-97.7 54.4,2.4 -1.7,23.3 -1,18 0.2,2 4.4,4.1 2,1.1 h1.8 l0.5,-1.2 0.7,0.9 2.4,0.2 1.1,-0.6 v-0.2 l1,0.5 -0.4,3.7 4.5,0.7 2.4,0.9 4.2,0.7 2.6,1.8 2.8,-1.9 2.7,0.6 2.2,3.1 0.8,0.1 v2.1 l3.3,1.1 2.5,-2.1 1.5,0.5 2.1,0.1 0.6,2.1 5.2,2 2.3,-0.5 1.9,-4 h0.1 l1.1,1.9 4.6,0.9 3.4,1.3 3.2,1 2.4,-1.2 0.7,-2.3 h3.6 l2.1,1 3,-2 h0.4 l0.5,1.4 h4.7 l1.9,-1.8 1.3,0.4 1.7,2.1 3.3,1.9 3.4,1 2.5,1.4 2.7,2 3.1,-1.2 2.1,0.8 0.7,20 0.7,9.5 0.6,4.1 2.6,4.4 0.9,4.5 4.2,5.9 0.3,3.1 0.6,0.8 -0.7,7.7 -2.9,4.8 1.3,2.6 -0.5,2.4 -0.8,7.2 -1.3,3 0.3,4.2 -5.6,1.6 -9.9,4.5 -1,1.9 -2.6,1.9 -2.1,1.5 -1.3,0.8 -5.7,5.3 -2.7,2.1 -5.3,3.2 -5.7,2.4 -6.3,3.4 -1.8,1.5 -5.8,3.6 -3.4,0.6 -3.9,5.5 -4,0.3 -1,1.9 2.3,1.9 -1.5,5.5 -1.3,4.5 -1.1,3.9 -0.8,4.5 0.8,2.4 1.8,7 1,6.1 1.8,2.7 -1,1.5 -3.1,1.9 -5.7,-3.9 -5.5,-1.1 -1.3,0.5 -3.2,-0.6 -4.2,-3.1 -5.2,-1.1 -7.6,-3.4 -2.1,-3.9 -1.3,-6.5 -3.2,-1.9 -0.6,-2.3 0.6,-0.6 0.3,-3.4 -1.3,-0.6 -0.6,-1 1.3,-4.4 -1.6,-2.3 -3.2,-1.3 -3.4,-4.4 -3.6,-6.6 -4.2,-2.6 0.2,-1.9 -5.3,-12.3 -0.8,-4.2 -1.8,-1.9 -0.2,-1.5 -6,-5.3 -2.6,-3.1 v-1.1 l-2.6,-2.1 -6.8,-1.1 -7.4,-0.6 -3.1,-2.3 -4.5,1.8 -3.6,1.5 -2.3,3.2 -1,3.7 -4.4,6.1 -2.4,2.4 -2.6,-1 -1.8,-1.1 -1.9,-0.6 -3.9,-2.3 v-0.6 l-1.8,-1.9 -5.2,-2.1 -7.4,-7.8 -2.3,-4.7 v-8.1 l-3.2,-6.5 -0.5,-2.7 -1.6,-1 -1.1,-2.1 -5,-2.1 -1.3,-1.6 -7.1,-7.9 -1.3,-3.2 -4.7,-2.3 -1.5,-4.4 -2.6,-2.9 -1.7,-0.5z m174.4,141.7 -0.6,-7.1 -2.7,-7.2 -0.6,-7 1.5,-8.2 3.3,-6.9 3.5,-5.4 3.2,-3.6 0.6,0.2 -4.8,6.6 -4.4,6.5 -2,6.6 -0.3,5.2 0.9,6.1 2.6,7.2 0.5,5.2 0.2,1.5z" />
    <path
       id="UT"
       fill="#D3D3D3"
       d="M228.4,305.9 l24.6,3.6 1.9,-13.7 7,-50.5 2.3,-22 -32.2,-3.5 2.2,-13.1 1.8,-10.6 -34.7,-6.1 -12.5,-2.5 -10.6,52.9 -5.4,30 -3.3,15.4 -1.7,9.2z" />
    <path
       id="VA"
       fill="#D3D3D3"
       d="M834.7,265.2 l-0.2,2.8 -2.9,3.8 -0.4,4.6 0.5,3.4 -1.8,5 -2.2,1.9 -1.5,-4.6 0.4,-5.4 1.6,-4.2 0.7,-3.3 -0.1,-1.7z m-60.3,44.6 -38.6,5.6 -4.8,-0.1 -2.2,-0.3 -2.5,1.9 -7.3,0.1 -10.3,1.6 -6.7,0.6 4.1,-2.6 4.1,-2.3 v-2.1 l5.7,-7.3 4.1,-3.7 2.2,-2.5 3.6,4.3 3.8,0.9 2.7,-1 2,-1.5 2.4,1.2 4.6,-1.3 1.7,-4.4 2.4,0.7 3.2,-2.3 1.6,0.4 2.8,-3.2 0.2,-2.7 -0.8,-1.2 4.8,-10.5 1.8,-5.2 0.5,-4.7 0.7,-0.2 1.1,1.7 1.5,1.2 3.9,-0.2 1.7,-8.1 3,-0.6 0.8,-2.6 2.8,-2.2 1.1,-2.1 1.8,-4.3 0.1,-4.6 3.6,1.4 6.6,3.1 0.3,-5.2 3.4,1.2 -0.6,2.9 8.6,3.1 1.4,1.8 -0.8,3.3 -1.3,1.3 -0.5,1.7 0.5,2.4 2,1.3 3.9,1.4 2.9,1 4.9,0.9 2.2,2.1 3.2,0.4 0.9,1.2 -0.4,4.7 1.4,1.1 -0.5,1.9 1.2,0.8 -0.2,1.4 -2.7,-0.1 0.1,1.6 2.3,1.5 0.1,1.4 1.8,1.8 0.5,2.5 -2.6,1.4 1.6,1.5 5.8,-1.7 3.7,6.2z" />
    <path
       id="VT"
       fill="#D3D3D3"
       d="M832.7,111.3 l2.4,6.5 0.8,5.3 -1,3.9 2.5,4.4 0.9,2.3 -0.7,2.6 3.3,1.5 2.9,10.8 v5.3 l11.5,-2.1 -1,-1.1 0.6,-1.9 0.2,-4.3 -1,-1.4 0.2,-4.7 0.8,-9.3 v-8.5 l-1.1,-1.8 v-1.6 l2.8,-1.1 3.5,-4.4 v-3.6 l-1.9,-2.7 -0.3,-5.79 -26.1,6.79z" />
    <path
       id="WA"
       fill="#D3D3D3"
       d="M74.5,67.7 l-2.3,-4.3 -4.1,-0.7 -0.4,-2.4 -2.5,-0.6 -2.9,-0.5 -1.8,1 -2.3,-2.9 0.3,-2.9 2.7,-0.3 1.6,-4 -2.6,-1.1 0.2,-3.7 4.4,-0.6 -2.7,-2.7 -1.5,-7.1 0.6,-2.9 v-7.9 l-1.8,-3.2 2.3,-9.4 2.1,0.5 2.4,2.9 2.7,2.6 3.2,1.9 4.5,2.1 3.1,0.6 2.9,1.5 3.4,1 2.3,-0.2 v-2.4 l1.3,-1.1 2.1,-1.3 0.3,1.1 0.3,1.8 -2.3,0.5 -0.3,2.1 1.8,1.5 1.1,2.4 0.6,1.9 1.5,-0.2 0.2,-1.3 -1,-1.3 -0.5,-3.2 0.8,-1.8 -0.6,-1.5 v-2.6 l1.8,-3.6 -1.1,-2.6 -2.4,-4.8 0.3,-0.8 1.4,-0.8 4.4,1.5 9.7,2.7 8.6,1.9 20,5.7 23,5.7 15,3.49 -4.8,17.56 -4.5,20.83 -3.4,16.25 -0.4,9.18 v0 l-12.9,-3.72 -15.3,-3.47 -14.5,0.32 -1.1,-1.53 -5.7,2.09 -3.9,-0.42 -2.6,-1.79 -1.7,0.65 -4.15,-0.25 -1.72,-1.32 -5.16,-1.82 -1.18,-0.16 -4.8,-1.39 -1.92,1.65 -5.65,-0.25 -4.61,-3.35z m9.6,-55.4 2,-0.2 0.5,1.4 1.5,-1.6 h2.3 l0.8,1.5 -1.5,1.7 0.6,0.8 -0.7,2 -1.4,0.4 c0,0 -0.9,0.1 -0.9,-0.2 0,-0.3 1.5,-2.6 1.5,-2.6 l-1.7,-0.6 -0.3,1.5 -0.7,0.6 -1.5,-2.3z" />
    <path
       id="WI"
       fill="#D3D3D3"
       d="M541.4,109.9 l2.9,0.5 2.9,-0.6 7.4,-3.2 2.9,-1.9 2.1,-0.8 1.9,1.5 -1.1,1.1 -1.9,3.1 -0.6,1.9 1,0.6 1.8,-1 1.1,-0.2 2.7,0.8 0.6,1.1 1.1,0.2 0.6,-1.1 4,5.3 8.2,1.2 8.2,2.2 2.6,1.1 12.3,2.6 1.6,2.3 3.6,1.2 1.7,10.2 1.6,1.4 1.5,0.9 -1.1,2.3 -1.8,1.6 -2.1,4.7 -1.3,2.4 0.2,1.8 1.5,0.3 1.1,-1.9 1.5,-0.8 0.8,-2.3 1.9,-1.8 2.7,-4 4.2,-6.3 0.8,-0.5 0.3,1 -0.2,2.3 -2.9,6.8 -2.7,5.7 -0.5,3.2 -0.6,2.6 0.8,1.3 -0.2,2.7 -1.9,2.4 -0.5,1.8 0.6,3.6 0.6,3.4 -1.5,2.6 -0.8,2.9 -1,3.1 1.1,2.4 0.6,6.1 1.6,4.5 -0.2,3 -15.9,1.8 -17.5,1 h-12.7 l-0.7,-1.5 -2.9,-0.4 -2.6,-1.3 -2.3,-3.7 -0.3,-3.6 2,-2.9 -0.5,-1.4 -2.1,-2.2 -0.8,-3.3 -0.6,-6.8 -2.1,-2.5 -7,-4.5 -3.8,-5.4 -3.4,-1 -2.2,-2.8 h-3.2 l-2.9,-3.3 -0.5,-6.5 0.1,-3.8 1.5,-3.1 -0.8,-3.2 -2.5,-2.8 1.8,-5.4 5.2,-3.8 1.6,-1.9 -0.2,-8.1 0.2,-2.8 2.4,-2.8z" />
    <path
       id="WV"
       fill="#D3D3D3"
       d="M758.9,254.3 l5.8,-6 2.6,-0.8 1.6,-1.5 1.5,-2.2 1.1,0.3 3.1,-0.2 4.6,-3.6 1.5,-0.5 1.3,1 2.6,1.2 3,3 -0.4,4.3 -5.4,-2.6 -4.8,-1.8 -0.1,5.9 -2.6,5.7 -2.9,2.4 -0.8,2.3 -3,0.5 -1.7,8.1 -2.8,0.2 -1.1,-1 -1.2,-2 -2.2,0.5 -0.5,5.1 -1.8,5.1 -5,11 0.9,1.4 -0.1,2 -2.2,2.5 -1.6,-0.4 -3.1,2.3 -2.8,-0.8 -1.8,4.9 -3.8,1 -2.5,-1.3 -2.5,1.9 -2.3,0.7 -3.2,-0.8 -3.8,-4.5 -3.5,-2.2 -2.5,-2.5 -2.9,-3.7 -0.5,-2.3 -2.8,-1.7 -0.6,-1.3 -0.2,-5.6 0.3,0.1 2.4,-0.2 1.8,-1 v-2.2 l1.7,-1.5 0.1,-5.2 0.9,-3.6 1.1,-0.7 0.4,0.3 1,1.1 1.7,0.5 1.1,-1.3 -1,-3.1 v-1.6 l3.1,-4.6 1.2,-1.3 2,0.5 2.6,-1.8 3.1,-3.4 2.4,-4.1 0.2,-5.6 0.5,-4.8 v-4.9 l-1.1,-3 0.9,-1.3 0.8,-0.7 4.3,19.3 4.3,-0.8 11.2,-1.3z" />
    <path
       id="WY"
       fill="#D3D3D3"
       d="M353,161.9 l-1.5,25.4 -4.4,44 -2.7,-0.3 -83.3,-9.1 -27.9,-3 2,-12 6.9,-41 3.8,-24.2 1.3,-11.2 48.2,7 59.1,6.5z" />
    <g
       id="DC">
      <path
         id="DC1"
         fill="#D3D3D3"
         d="M801.8,253.8 l-1.1-1.6 -1-0.8 1.1-1.6 2.2,1.5z" />
      <circle
         id="DC2"
         fill="#D3D3D3"
         stroke="#FFFFFF"
         stroke-width="1.5"
         cx="801.3"
         cy="251.8"
         r="5"
         opacity="1" />
      <!-- Set opacity to "0" to hide DC circle -->
    </g>
  </g>
  <path
     id="frames"
     fill="none"
     stroke="#A9A9A9"
     stroke-width="2"
     d="M215,493v55l36,45 M0,425h147l68,68h85l54,54v46" />
  <path
     style="fill:none;stroke:#000000;stroke-width:1px;stroke-linecap:butt;stroke-linejoin:miter;stroke-opacity:1"
     d="m 800.7,252.2 c -0.0291,-1.04248 -0.0649,-2.08479 -0.0872,-3.12744 -0.0202,-0.94124 0,-1.88519 0,-2.8268 0,-0.22124 -0.0553,-1.37691 0,-1.57044 0.63283,-2.21492 0.61062,-0.83691 0.94227,-2.8268 0.0691,-0.41475 0,-1.40118 0,-1.88454 0,-0.20939 0,-0.41878 0,-0.62818 0,-0.10469 -0.0468,-0.22044 0,-0.31408 0.17139,-0.3428 0.66901,-0.46423 0.94226,-0.62818 0.3237,-0.19422 0.61858,-0.43396 0.94227,-0.62818 0.20075,-0.12045 0.43339,-0.18423 0.62818,-0.31409 0.12319,-0.0821 0.20939,-0.20939 0.31409,-0.31409 0.10469,-0.10469 0.23196,-0.19089 0.31409,-0.31409 0.12986,-0.19479 0.14855,-0.46264 0.31408,-0.62818 0.074,-0.074 0.24006,0.074 0.31409,0 0.19241,-0.1924 0.26739,-0.822 0.62818,-0.94226 0.50646,-0.16882 1.04697,-0.20939 1.57045,-0.31409 1.04696,-0.20939 2.08143,-0.49575 3.14089,-0.62818 0.31166,-0.039 0.62817,0 0.94226,0 0.1047,0 0.21477,0.0331 0.31409,0 0.2221,-0.074 0.40609,-0.24006 0.62818,-0.31409 0.19865,-0.0662 0.48012,0.14806 0.62818,0 0.074,-0.074 -0.0838,-0.25127 0,-0.31409 0.37457,-0.28093 0.85486,-0.38728 1.25635,-0.62818 0.12697,-0.0762 0.18166,-0.24787 0.31409,-0.31408 0.0937,-0.0468 0.24006,0.074 0.31409,0 0.074,-0.074 -0.074,-0.24006 0,-0.31409 0.16554,-0.16554 0.43339,-0.18423 0.62818,-0.31409 0.72158,-0.48105 -0.13468,-0.17941 0.62818,-0.94227 0.16554,-0.16554 0.46264,-0.14855 0.62818,-0.31409 0.14806,-0.14806 -0.14807,-0.48011 0,-0.62818 0.16554,-0.16554 0.44833,-0.16421 0.62817,-0.31408 0.45498,-0.37916 0.83757,-0.83758 1.25636,-1.25636 0.52348,-0.31409 1.07368,-0.58743 1.57045,-0.94227 1.97683,-1.41202 -0.43959,0.1255 0.94226,-1.25635 0.16554,-0.16554 0.43339,-0.18423 0.62818,-0.31409 0.28592,-0.19062 0.66388,-0.80308 0.94227,-0.94227 0.0936,-0.0468 0.22044,0.0468 0.31409,0 0.84764,-0.42382 -0.0109,-0.14078 0.31408,-0.62818 0.16427,-0.24639 0.39695,-0.44319 0.62818,-0.62818 2.18643,-1.74913 -0.35376,0.66785 1.88454,-1.57044 0.31409,-0.31409 0.62817,-0.62818 0.94226,-0.94227 0.1047,-0.10469 0.2094,-0.20939 0.31409,-0.31409 0.2094,-0.20939 0.37425,-0.47582 0.62818,-0.62817 0.2839,-0.17034 0.65837,-0.14375 0.94227,-0.31409 1.41202,-0.84722 0.007,-0.32103 0.94226,-1.25636 0.16554,-0.16554 0.43339,-0.18423 0.62818,-0.31409 0.24639,-0.16426 0.39128,-0.4505 0.62818,-0.62818 0.30199,-0.22649 0.64028,-0.40168 0.94227,-0.62817 0.4801,-0.36008 0.24712,-0.37069 0.62818,-0.94227 0.48105,-0.72158 0.1794,0.13468 0.94226,-0.62818 0.074,-0.074 0,-0.20939 0,-0.31409 0.1047,-0.20939 0.14855,-0.46264 0.31409,-0.62818 0.26693,-0.26692 0.64028,-0.40168 0.94227,-0.62817 0.0957,-0.0718 0.90239,-0.86252 0.94227,-0.94227 0.0468,-0.0936 -0.074,-0.24006 0,-0.31409 0.16553,-0.16554 0.44537,-0.16784 0.62817,-0.31409 0.34686,-0.27748 0.62818,-0.62818 0.94227,-0.94227 0.1047,-0.10469 0.22159,-0.19847 0.31409,-0.31409 0.55516,-0.69394 1.13799,-1.63871 1.88453,-2.19862 0.18729,-0.14046 0.41879,-0.20939 0.62818,-0.31409 1.52053,-0.76026 -0.33108,0.24831 1.25636,-0.94226 1.13132,-0.8485 0.2618,0.4885 1.57044,-1.25636 0.0628,-0.0838 0,-0.20939 0,-0.31409 0.20939,-0.31409 0.40169,-0.64028 0.62818,-0.94227 0.66257,-0.88342 0.024,0.5801 0.94227,-1.25635 0.74461,-1.48922 0.42375,-1.49464 1.25635,-2.8268 0.27745,-0.44391 0.68255,-0.80185 0.94227,-1.25636 0.95768,-0.22235 0.12104,-0.87025 0.31409,-1.25635 0.0662,-0.13244 0.24787,-0.18166 0.31409,-0.31409 0.0835,-0.16708 -0.0547,-1.22699 0,-1.25636 0.14411,-0.0774 0.32528,0.0348 0.48792,0.0521"
     id="path86"
     inkscape:connector-curvature="0" />
  <path
     style="fill:none;stroke:#000000;stroke-width:1px;stroke-linecap:butt;stroke-linejoin:miter;stroke-opacity:1"
     d="m 38.318856,271.05879 c 6.023491,2.4094 0.190599,-0.10233 6.909958,3.45498 0.498285,0.2638 1.077589,0.35437 1.570445,0.62818 4.734521,2.63029 -2.679182,-0.86846 2.8268,1.88453 1.548319,0.77416 1.591221,0.33487 2.826801,1.57045 0.786966,0.78696 1.411658,1.72574 2.198623,2.51271 0.370158,0.37016 0.858899,0.60159 1.256356,0.94227 0.337253,0.28907 0.601032,0.6579 0.942267,0.94226 0.289994,0.24167 0.720239,0.32289 0.942267,0.62818 0.633999,0.87175 0.994846,1.91544 1.570445,2.8268 0.682433,1.08052 1.489726,2.07755 2.198623,3.14089 0.523481,0.83757 1.046963,1.67514 1.570445,2.51271 0.209392,0.41879 0.382787,0.8576 0.628178,1.25636 0.593521,0.96447 1.231461,1.90161 1.884534,2.8268 0.603766,0.85534 1.303783,1.64159 1.884533,2.51271 0.468217,0.70233 0.878868,1.44365 1.256356,2.19863 0.148063,0.29612 0.110827,0.68092 0.314089,0.94226 0.545412,0.70125 1.32198,1.19697 1.884534,1.88454 0.386579,0.47248 0.603634,1.06249 0.942267,1.57044 3.367556,5.05133 -2.411481,-4.22853 2.198623,3.45498 0.194216,0.32369 0.45936,0.60463 0.628178,0.94227 0.252142,0.50428 0.358198,1.07548 0.628178,1.57044 1.407493,2.58041 0.899915,1.10006 2.198623,3.14089 0.453171,0.71213 0.852162,1.4576 1.256356,2.19862 0.224206,0.41105 0.356033,0.87536 0.628178,1.25636 0.258179,0.36145 0.684087,0.58082 0.942267,0.94227 2.916283,4.08279 -1.340166,-1.13976 1.256356,2.19862 0.502022,0.64546 1.027191,1.27337 1.570445,1.88453 0.295103,0.332 0.695875,0.57268 0.942267,0.94227 0.183649,0.27548 0.130439,0.66679 0.314089,0.94227 0.45358,0.68037 1.116864,1.20416 1.570444,1.88453 0.38958,0.58437 0.628178,1.25636 0.942267,1.88454 0.314089,0.62817 0.681431,1.23244 0.942267,1.88453 0.16032,0.4008 0.121039,0.87025 0.314089,1.25636 0.337636,0.67527 0.898422,1.2198 1.256356,1.88453 0.994999,1.84785 1.111818,3.01636 1.884534,5.02542 0.108114,0.90435 0.923853,1.42279 1.256356,2.19863 0.170045,0.39677 0.195499,0.84129 0.314089,1.25635 0.09095,0.31834 0.223135,0.62393 0.314089,0.94227 0.11859,0.41506 0.195499,0.84129 0.314089,1.25636 1.06059,3.71206 -0.788886,-3.54999 0.628178,2.8268 0.07182,0.32319 0.267267,0.61451 0.314089,0.94226 0.05922,0.41458 0,0.83757 0,1.25636 0,0.73287 0,1.46575 0,2.19862 0,2.09393 0,4.18785 0,6.28178 0,6.17708 0,12.35417 0,18.53125 0,1.36105 0,2.72211 0,4.08316 0,0.20939 0,0.41878 0,0.62818 0,0.10469 0.09508,0.27027 0,0.31409 C 94.059181,381.52597 93.513595,381.56801 93,381.7"
     id="path88"
     inkscape:connector-curvature="0" />
  <path
     style="fill:none;stroke:#000000;stroke-width:1px;stroke-linecap:butt;stroke-linejoin:miter;stroke-opacity:1"
     d="m 843.9,197.3 c -0.0857,-1.27373 -0.40138,-2.55277 -0.25699,-3.82119 0.12272,-1.07806 2.01684,-4.03515 2.51271,-4.71133 0.47932,-1.45376 1.98168,-2.01406 2.8268,-3.14089 0.36629,-0.48839 0.60364,-1.0625 0.94227,-1.57045 0.15694,-0.93117 1.11686,-1.20416 1.57044,-1.88453 0.0581,-0.0871 -0.074,-0.24006 0,-0.31409 0.074,-0.074 0.24006,0.074 0.31409,0 0.16554,-0.16554 0.17363,-0.44089 0.31409,-0.62818 0.17768,-0.2369 0.43861,-0.40069 0.62818,-0.62818 0.33513,-0.40215 0.57211,-0.88619 0.94227,-1.25635 0.33108,-0.33108 0.92527,-0.2971 1.25635,-0.62818 0.16554,-0.16554 0.16785,-0.44537 0.31409,-0.62818 0.27748,-0.34685 0.64977,-0.60798 0.94227,-0.94226 0.44145,-0.50452 0.83757,-1.04697 1.25636,-1.57045 0.41878,-0.52348 0.70715,-1.186 1.25635,-1.57044 0.54246,-0.37973 1.27331,-0.37351 1.88453,-0.62818 3.16114,-1.31714 0.79549,-0.44194 2.82681,-1.57045 0.61394,-0.34108 1.24516,-0.65164 1.88453,-0.94226 0.88472,-0.8327 2.13621,-0.51169 3.14089,-0.94227 0.27218,-0.11665 0.39694,-0.44319 0.62818,-0.62818 0.29477,-0.23581 0.61857,-0.43396 0.94226,-0.62818 0.60224,-0.36134 1.25636,-0.62817 1.88454,-0.94226 0.20939,-0.1047 0.43339,-0.18423 0.62818,-0.31409 0.12319,-0.0821 0.19089,-0.23196 0.31409,-0.31409 2.27732,-1.13867 -0.49662,0.33108 0.94226,-0.62818 0.38958,-0.25972 0.86678,-0.36846 1.25636,-0.62818 0.12319,-0.0821 0.19847,-0.22159 0.31409,-0.31409 4.70512,-3.52884 -1.73865,1.39653 2.19862,-1.88453 0.28999,-0.24166 0.64028,-0.40169 0.94227,-0.62818 0.41161,-0.30871 0.66385,-0.88514 0.94226,-1.25635 0.26652,-0.35536 0.62818,-0.62818 0.94227,-0.94227 0.31409,-0.31409 0.59541,-0.66479 0.94227,-0.94227 0.18281,-0.14624 0.46264,-0.14855 0.62818,-0.31409 0.074,-0.074 -0.0468,-0.22044 0,-0.31409 0.0662,-0.13243 0.24787,-0.18165 0.31408,-0.31409 0.14807,-0.29612 0.16603,-0.64614 0.31409,-0.94226 0.28913,-0.57824 0.65315,-0.0499 0.94227,-0.62818 0.0468,-0.0936 -0.0331,-0.21477 0,-0.31409 0.074,-0.22209 0.20939,-0.41878 0.31409,-0.62818 0.1047,-0.20939 0.18423,-0.43339 0.31409,-0.62818 0.16426,-0.24639 0.49575,-0.36331 0.62818,-0.62817 0.0468,-0.0937 0.0259,-0.41554 0,-0.31409 -0.0882,0.3459 -0.12578,0.70275 -0.18867,1.05413"
     id="path90"
     inkscape:connector-curvature="0" />
  <path
     style="fill:none;stroke:#000000;stroke-width:1px;stroke-linecap:butt;stroke-linejoin:miter;stroke-opacity:1"
     d="m 462.96716,417.42426 c 0,0.73287 -0.35591,1.55797 0,2.19862 1.27113,2.28803 3.15176,4.17975 4.71134,6.28178 0.73267,0.98752 5.27671,7.25998 5.6536,7.85223 0.50275,0.79003 0.81568,1.68644 1.25635,2.51271 0.39722,0.74478 0.90707,1.43019 1.25636,2.19862 0.17863,0.39298 0.12104,0.87026 0.31409,1.25636 0.33763,0.67527 0.89483,1.22174 1.25635,1.88453 0.26999,0.49496 0.37604,1.06616 0.62818,1.57044 0.27302,0.54603 0.69175,1.01374 0.94227,1.57045 0.70657,1.57015 1.90708,4.5771 2.51271,6.59587 0.12404,0.41347 0.17758,0.84683 0.31409,1.25635 0.17829,0.53488 0.43021,1.04254 0.62818,1.57045 0.11625,0.31 0.18367,0.63796 0.31409,0.94227 0.18444,0.43035 0.44374,0.82599 0.62818,1.25635 0.44418,1.03644 0.82701,2.09821 1.25635,3.14089 0.30359,0.73729 0.64614,1.45831 0.94227,2.19862 0.33222,0.83055 0.61005,1.68217 0.94227,2.51272 0.54561,1.36404 2.27333,5.36024 2.8268,6.90995 0.14518,0.40653 0.12103,0.87026 0.31409,1.25636 0.2341,0.46822 0.70815,0.78814 0.94226,1.25636 0.0937,0.18728 -0.0508,0.42503 0,0.62817 0.0568,0.22712 0.20939,0.41879 0.31409,0.62818 0.20939,0.41879 0.46378,0.81795 0.62818,1.25636 0.15157,0.40419 0.12104,0.87025 0.31409,1.25635 0.13243,0.26487 0.46392,0.38179 0.62818,0.62818 1.38398,0.31635 0.33205,1.29228 0.62817,1.88454 0.0468,0.0936 0.22045,-0.0468 0.31409,0 0.13243,0.0662 0.24788,0.18165 0.31409,0.31408 0.25214,0.50429 0.37604,1.06617 0.62818,1.57045 0.0662,0.13243 0.22525,0.19564 0.31409,0.31409 0.22649,0.30199 0.45936,0.60463 0.62818,0.94227 0.14806,0.29612 0.13044,0.66679 0.31409,0.94226 0.24639,0.36959 0.6579,0.60103 0.94226,0.94227 1.29778,1.55733 0.12463,0.34399 0.94227,1.57044 0.47915,0.71874 0.24862,-0.19639 0.62818,0.94227 0.0331,0.0993 0,0.20939 0,0.31409 0.10469,0.20939 0.20939,0.41879 0.31409,0.62818"
     id="path92"
     inkscape:connector-curvature="0" />
  <path
     style="fill:none;stroke:#000000;stroke-width:1px;stroke-linecap:butt;stroke-linejoin:miter;stroke-opacity:1"
     d="m 692.8803,381.9322 c 0.83757,0 1.68488,0.12736 2.51271,0 1.54013,-0.23694 1.59882,-0.83365 2.8268,-1.57044 0.0898,-0.0539 0.21688,0.0389 0.31409,0 1.35185,-0.54074 2.76218,-1.58973 3.76907,-2.51271 0.49417,-0.453 0.78232,-1.09642 1.25635,-1.57045 0.74032,-0.74031 1.7178,-1.20318 2.51272,-1.88453 0.33725,-0.28908 0.58081,-0.68409 0.94226,-0.94227 0.38101,-0.27214 0.89666,-0.32843 1.25636,-0.62818 0.28999,-0.24166 0.36125,-0.67534 0.62818,-0.94226 0.52339,-0.5234 1.60739,-0.91148 2.19862,-1.25636 0.85316,-0.49768 1.65955,-1.07277 2.51271,-1.57045 0.40444,-0.23592 0.86678,-0.36845 1.25636,-0.62817 0.55779,-0.37187 1.00196,-0.90106 1.57044,-1.25636 0.28076,-0.17547 0.62818,-0.20939 0.94227,-0.31409 0.83757,-0.52348 1.70898,-0.99635 2.51271,-1.57044 0.66539,-0.47528 1.21222,-1.105 1.88453,-1.57045 3.25948,-2.25656 1.07463,-0.35272 4.39725,-2.19862 0.25886,-0.14381 0.37706,-0.47123 0.62818,-0.62818 0.66758,-1.03815 1.93152,-0.74477 2.8268,-1.25635 0.45451,-0.25972 0.80185,-0.68255 1.25635,-0.94227 0.28746,-0.16426 0.6668,-0.13044 0.94227,-0.31409 0.36959,-0.24639 0.58082,-0.68409 0.94227,-0.94227 0.381,-0.27214 0.83757,-0.41878 1.25635,-0.62818 0.41879,-0.20939 0.83011,-0.43442 1.25636,-0.62817 0.72588,-0.32995 1.47275,-0.61233 2.19862,-0.94227 0.42625,-0.19375 0.81795,-0.46378 1.25636,-0.62818 0.40419,-0.15157 0.85958,-0.14404 1.25636,-0.31409 0.34696,-0.1487 0.60463,-0.45936 0.94226,-0.62818 0.50429,-0.25214 1.07548,-0.35819 1.57045,-0.62817 0.66279,-0.36153 1.24759,-0.85103 1.88453,-1.25636 0.51504,-0.32775 1.0625,-0.60363 1.57045,-0.94227 1.0789,-0.71926 2.39344,-1.85512 3.14089,-2.8268 0.51465,-0.66904 0.77589,-1.50462 1.25635,-2.19862 1.67729,-2.42275 1.08867,-1.19932 2.51271,-2.8268 0.44145,-0.50452 0.80541,-1.0744 1.25636,-1.57045 0.59759,-0.65734 1.33912,-1.18329 1.88453,-1.88453 0.20327,-0.26134 0.10727,-0.68374 0.31409,-0.94227 0.47163,-0.58953 1.35069,-0.7225 1.88454,-1.25635 0.16554,-0.16554 0.16421,-0.44833 0.31409,-0.62818 2.41732,-2.90079 0.33315,-0.40691 1.88453,-1.57045 0.2369,-0.17767 0.39694,-0.44319 0.62818,-0.62817 0.29477,-0.23582 0.64027,-0.40169 0.94226,-0.62818 0.5863,-0.43973 0.98415,-1.13072 1.57045,-1.57045 0.37457,-0.28093 0.86678,-0.36845 1.25635,-0.62817 0.2464,-0.16427 0.40335,-0.43547 0.62818,-0.62818 0.0182,-0.0156 3.13568,-2.5075 3.14089,-2.51271 0.26693,-0.26693 0.34157,-0.69661 0.62818,-0.94227 0.46351,-0.3973 1.08856,-0.56747 1.57045,-0.94227 0.46749,-0.36361 0.8137,-0.86288 1.25635,-1.25635 0.50105,-0.44538 1.13417,-0.74737 1.57045,-1.25636 0.21546,-0.25137 0.10726,-0.68374 0.31409,-0.94227 2.76845,-3.46057 -0.56396,1.7318 1.57044,-1.25635 0.35483,-0.49677 0.57598,-1.08206 0.94227,-1.57045 0.26651,-0.35535 0.69587,-0.57268 0.94226,-0.94226 0.18365,-0.27548 0.13044,-0.6668 0.31409,-0.94227 0.24639,-0.36959 0.69588,-0.57268 0.94227,-0.94227 0.38958,-0.58437 0.60596,-1.26797 0.94227,-1.88453 2.09019,-3.83203 -0.17742,0.47231 1.88453,-2.8268 0.24816,-0.39705 0.38002,-0.85931 0.62818,-1.25636 1.93338,-3.09341 -0.0427,0.37107 1.88453,-2.19862 1.28644,-1.71525 0.78807,-1.7132 1.88454,-3.76907 0.4648,-0.8715 1.07277,-1.65955 1.57044,-2.51271 0.71696,-1.22908 1.25804,-2.91967 1.88454,-4.08316 0.24818,-0.46091 0.68804,-0.79875 0.94226,-1.25635 0.81339,-1.4641 0.41334,-1.27854 0.94227,-2.51272 0.18444,-0.43036 0.40079,-0.84706 0.62818,-1.25635 0.63138,-1.13649 0.91596,-1.53099 1.57044,-2.51271 0.2094,-0.31409 0.45936,-0.60464 0.62818,-0.94227 0.14806,-0.29613 0.14983,-0.65481 0.31409,-0.94227 0.25972,-0.45451 0.66482,-0.81244 0.94227,-1.25635 0.75503,-1.20806 2.09612,-5.03201 2.19862,-5.33952 0.97939,-2.93816 0.42525,-2.37918 0.94227,-5.6536 0.15054,-0.95344 0.43887,-1.88029 0.62817,-2.8268 0.1249,-0.62448 0.22403,-1.25409 0.31409,-1.88453 0.0148,-0.10365 -0.0389,-0.21688 0,-0.31409 0.17389,-0.43473 0.45429,-0.82163 0.62818,-1.25636 0.0389,-0.0972 0,-0.20939 0,-0.31409 0,-0.20488 -0.0619,-1.00888 0,-1.25635 0.0803,-0.3212 0.20939,-0.62818 0.31409,-0.94227 0.1047,-0.31409 0.20939,-0.62818 0.31409,-0.94227 0.1047,-0.10469 0.26727,-0.17362 0.31409,-0.31409 0.06,-0.17997 0,-1.27557 0,-1.57044 0,-1.15166 0,-2.30332 0,-3.45498 0,-0.20633 -0.0369,-1.1825 0,-1.25636 0.0468,-0.0936 0.24006,0.074 0.31409,0 0.074,-0.074 0,-0.20939 0,-0.31408 0,-0.1047 0,-0.2094 0,-0.31409 0,-0.2094 0,-0.41879 0,-0.62818 0,-0.1047 0,-0.41879 0,-0.31409 0,0.20939 0,0.83757 0,0.62818 0,-0.41879 0,-0.83757 0,-1.25636 0,-0.85848 -0.074,0.46215 0.62817,-0.94227 0.0667,-0.13349 0,-1.30723 0,-1.57044 0,-0.1047 -0.10469,-0.31409 0,-0.31409 0.1047,0 0,0.41879 0,0.31409 0,-0.20939 0,-0.41879 0,-0.62818 0,-0.10469 0,-0.20939 0,-0.31409 0,-0.10469 -0.10469,-0.31409 0,-0.31409 0.1047,0 0,0.41879 0,0.31409 0,-0.41878 0,-0.83757 0,-1.25635 0,-0.1047 0,-0.2094 0,-0.31409 0,-0.1047 0.10198,-0.33783 0,-0.31409 -0.10952,0.0255 -0.0461,0.22013 -0.0692,0.33019"
     id="path94"
     inkscape:connector-curvature="0" />
  <path
     style="fill:none;stroke:#000000;stroke-width:1px;stroke-linecap:butt;stroke-linejoin:miter;stroke-opacity:1"
     d="m 616.6,208 c -0.0144,1.33669 -0.28207,2.69479 -0.0433,4.01006 0.0793,0.43705 0.62818,0.62818 0.94227,0.94227 0.41879,0.41879 0.83757,0.83757 1.25636,1.25636 0.20939,0.20939 0.46391,0.38178 0.62818,0.62817 0.11615,0.17423 -0.14807,0.48012 0,0.62818 0.074,0.074 0.22044,-0.0468 0.31408,0 0.13244,0.0662 0.2094,0.20939 0.31409,0.31409 0.41879,0.31409 0.78814,0.70816 1.25636,0.94227 0.3861,0.19305 0.87025,0.12104 1.25636,0.31409 0.26486,0.13243 0.39127,0.4505 0.62817,0.62817 0.53718,0.40289 0.71918,0.2253 1.25636,0.62818 0.2369,0.17768 0.36331,0.49575 0.62818,0.62818 0.18728,0.0936 0.41878,0 0.62818,0 0.62817,0 1.25635,0 1.88453,0 0.62818,0 1.25636,0 1.88453,0 0.1047,0 0.31409,-0.1047 0.31409,0 0,0.1047 -0.41878,0 -0.31409,0 0.2094,0 0.41879,0 0.62818,0 1.37838,0 1.34835,0.0444 3.14089,-0.31409 0.32465,-0.0649 0.62393,-0.22313 0.94227,-0.31409 0.41506,-0.11859 0.87025,-0.12104 1.25635,-0.31409 0.26487,-0.13243 0.39128,-0.4505 0.62818,-0.62817 0.18729,-0.14047 0.43339,-0.18423 0.62818,-0.31409 0.1232,-0.0821 0.17362,-0.26727 0.31409,-0.31409 0.19865,-0.0662 0.44089,0.0936 0.62818,0 0.0936,-0.0468 -0.074,-0.24006 0,-0.31409 0.074,-0.074 0.22044,0.0468 0.31409,0 0.13243,-0.0662 0.18165,-0.24787 0.31408,-0.31409 0.0937,-0.0468 0.2094,0 0.31409,0 0.41879,-0.20939 0.84531,-0.40397 1.25636,-0.62818 0.74102,-0.40419 1.44365,-0.87887 2.19862,-1.25635 1.00857,-0.50429 2.15518,-0.70874 3.14089,-1.25636 0.45761,-0.25423 0.8208,-0.65189 1.25636,-0.94227 0.11199,-0.77156 0.66679,-0.13044 0.94227,-0.31409 0.24639,-0.16426 0.41878,-0.41878 0.62817,-0.62817 0.1047,-0.1047 0.18166,-0.24788 0.31409,-0.31409 0.0936,-0.0468 0.20939,0 0.31409,0 0.14209,0 1.80083,0.0418 1.88453,0 0.26487,-0.13243 0.36332,-0.49575 0.62818,-0.62818 0.0937,-0.0468 0.24006,0.074 0.31409,0 0.64986,-0.64986 -0.99307,0.0254 0.31409,-0.62818 0.29613,-0.14806 0.63666,-0.18675 0.94227,-0.31409 0.95182,-0.39659 1.87903,-0.85017 2.8268,-1.25635 0.51822,-0.2221 1.06616,-0.37604 1.57044,-0.62818 0.13244,-0.0662 0.1909,-0.23196 0.31409,-0.31409 0.19479,-0.12986 0.43339,-0.18423 0.62818,-0.31409 0.24639,-0.16426 0.36332,-0.49575 0.62818,-0.62818 0.17528,-0.0876 0.78532,0.0942 0.94227,0 0.44888,-0.26933 0.82079,-0.65189 1.25635,-0.94226 0.19479,-0.12986 0.43339,-0.18423 0.62818,-0.31409 0.1232,-0.0821 0.18166,-0.24788 0.31409,-0.31409 0.29612,-0.14807 0.6774,-0.11544 0.94227,-0.31409 0.18728,-0.14047 0.11929,-0.49832 0.31408,-0.62818 0.17423,-0.11615 0.42504,0.0508 0.62818,0 0.64239,-0.1606 1.25636,-0.41878 1.88454,-0.62818 0.73287,-0.10469 1.47798,-0.14453 2.19862,-0.31409 1.064,-0.25035 2.08473,-0.66062 3.14089,-0.94226 0.5221,-0.13923 2.24251,-0.39446 2.8268,-0.62818 0.13747,-0.055 0.18166,-0.24787 0.31409,-0.31409 0.0704,-0.0352 1.18172,0 1.25635,0 0.82884,0 1.69401,0.0512 2.51272,0 1.15415,-0.0721 2.30035,-0.24994 3.45498,-0.31409 1.23697,-0.0687 2.52256,0 3.76906,0 0.52348,0 1.04697,0 1.57045,0 0.10469,0 0.31409,-0.1047 0.31409,0 0,0.1047 -0.31409,0.1047 -0.31409,0 0,-0.14806 0.18382,-0.38447 0.31409,-0.31409 0.47976,0.25921 0.79159,0.75021 1.18739,1.12532"
     id="path96"
     inkscape:connector-curvature="0" />
  <path
     style="fill:none;stroke:#000000;stroke-width:1px;stroke-linecap:butt;stroke-linejoin:miter;stroke-opacity:1"
     d="m 191.59428,388.21398 c -1.67514,0 -3.35028,0 -5.02542,0 -0.83757,0 -1.68356,0.11845 -2.51272,0 -2.06148,-0.2945 -1.94846,-0.91354 -3.76906,-1.88453 -1.04416,-0.55688 -2.90827,-1.19918 -4.08316,-1.88454 -0.85316,-0.49767 -1.60487,-1.18136 -2.51271,-1.57044 -0.58535,-0.25086 -1.29324,-0.0776 -1.88454,-0.31409 -0.48604,-0.19442 -0.78814,-0.70816 -1.25635,-0.94227 -0.59225,-0.29612 -1.26454,-0.39567 -1.88454,-0.62817 -1.05581,-0.39594 -2.10444,-0.81217 -3.14089,-1.25636 -0.43035,-0.18444 -0.82849,-0.43802 -1.25635,-0.62818 -0.51521,-0.22898 -1.07759,-0.35437 -1.57045,-0.62818 -0.4576,-0.25422 -0.78814,-0.70815 -1.25635,-0.94226 -0.59225,-0.29613 -1.27592,-0.36734 -1.88454,-0.62818 -0.86071,-0.36888 -1.63869,-0.9202 -2.51271,-1.25636 -0.49826,-0.19164 -1.06399,-0.14527 -1.57044,-0.31409 -0.75643,-0.25214 -1.46575,-0.62817 -2.19863,-0.94226 -0.94226,-0.31409 -1.87966,-0.64317 -2.8268,-0.94227 -3.0896,-0.97566 -3.81904,-0.96726 -6.90995,-2.51271 -1.66889,-0.33157 -2.68018,-1.74745 -4.08316,-2.51271 -1.43866,-0.78473 -2.9315,-1.46575 -4.39725,-2.19863 -0.62818,-0.31409 -1.21825,-0.72017 -1.88453,-0.94226 -0.29797,-0.0993 -0.6443,0.0993 -0.94227,0 -2.77943,-0.92648 0.78554,-0.40826 -1.88453,-0.94227 -0.20533,-0.0411 -0.42285,0.0411 -0.62818,0 -0.84658,-0.16932 -1.66329,-0.47374 -2.51271,-0.62818 -0.30902,-0.0562 -0.63756,0.0762 -0.94227,0 -0.54697,-0.13674 -1.03557,-0.44988 -1.57044,-0.62818 -0.40953,-0.1365 -0.86189,-0.13877 -1.25636,-0.31408 -0.55786,-0.24794 -0.99553,-0.73695 -1.57044,-0.94227 -0.90902,-0.32465 -1.90078,-0.35582 -2.82681,-0.62818 -0.80307,-0.2362 -3.87987,-1.46881 -4.71133,-1.88453 -0.54603,-0.27302 -1.01469,-0.68965 -1.57044,-0.94227 -0.32692,-1.46911 -1.77776,-0.38319 -2.51272,-0.62818 -0.14046,-0.0468 -0.18165,-0.24787 -0.31409,-0.31409 -0.0936,-0.0468 -0.21688,0.0389 -0.31408,0 -0.43473,-0.17389 -0.80212,-0.51462 -1.25636,-0.62818 -0.40628,-0.10157 -0.83757,0 -1.25636,0 -0.31409,0 -0.62817,0 -0.94226,0 -0.2094,0 -0.42504,0.0508 -0.62818,0 -0.22712,-0.0568 -0.39726,-0.2756 -0.62818,-0.31408 -0.61963,-0.10328 -1.25636,0 -1.88453,0 -1.25636,0 -2.51272,0 -3.769071,0 -2.722105,0 -5.444209,0 -8.166314,0"
     id="path98"
     inkscape:connector-curvature="0" />
  <path
     style="fill:none;stroke:#000000;stroke-width:1px;stroke-linecap:butt;stroke-linejoin:miter;stroke-opacity:1"
     d="m 616.6,208 c 0.0902,-0.54785 0.37049,-1.09734 0.27076,-1.64354 -0.042,-0.2303 -0.43338,-0.18423 -0.62817,-0.31409 -0.1232,-0.0821 -0.24788,-0.18166 -0.31409,-0.31409 -0.12564,-0.25127 0.12563,-0.69099 0,-0.94226 -0.16882,-0.33764 -0.45936,-0.60464 -0.62818,-0.94227 -0.14806,-0.29613 -0.16603,-0.64614 -0.31409,-0.94227 -0.0662,-0.13243 -0.23196,-0.19089 -0.31409,-0.31409 -0.12986,-0.19479 -0.14855,-0.46264 -0.31409,-0.62817 -0.074,-0.074 -0.24006,0.074 -0.31409,0 -0.074,-0.074 0.0581,-0.22698 0,-0.31409 -0.16426,-0.2464 -0.4505,-0.39128 -0.62818,-0.62818 -1.14091,-1.52122 0.33251,0.0184 -0.62817,-0.94227 -0.16536,-0.16536 -0.8584,-0.77452 -0.94227,-0.94227 -0.0468,-0.0936 0.0628,-0.23033 0,-0.31408 -0.0615,-1.03438 -1.09641,-0.78233 -1.57044,-1.25636 -0.16554,-0.16554 -0.17363,-0.44089 -0.31409,-0.62818 -0.26652,-0.35535 -0.62818,-0.62818 -0.94227,-0.94227 -0.41879,-0.41878 -0.79389,-0.88637 -1.25636,-1.25635 -0.29477,-0.23582 -0.67534,-0.36125 -0.94226,-0.62818 -0.074,-0.074 0.074,-0.24006 0,-0.31409 -0.77867,-0.77866 -0.8269,-0.44657 -1.57045,-0.94227 -0.76441,-0.5096 0.23562,-0.37293 -0.94227,-1.25635 -0.16751,-0.12564 -0.45395,0.11615 -0.62817,0 -0.38958,-0.25972 -0.2386,-0.99664 -0.62818,-1.25636 -0.17423,-0.11615 -0.42953,0.0662 -0.62818,0 -0.14046,-0.0468 -0.19089,-0.23196 -0.31409,-0.31409 -0.58437,-0.38958 -1.28229,-0.58092 -1.88453,-0.94226 -0.12697,-0.0762 -0.18166,-0.24788 -0.31409,-0.31409 -0.29613,-0.14806 -0.67741,-0.11544 -0.94227,-0.31409 -0.18728,-0.14047 -0.14855,-0.46264 -0.31409,-0.62818 -2.08717,-2.08717 -0.40179,-0.17826 -2.19862,-1.25635 -0.25393,-0.15236 -0.41879,-0.41879 -0.62818,-0.62818 -0.41878,-0.41879 -0.79798,-0.88132 -1.25635,-1.25636 -0.51339,-0.42004 -3.37694,-2.40306 -4.08316,-2.8268 -0.40149,-0.24089 -0.8576,-0.38279 -1.25636,-0.62818 -0.96447,-0.59352 -1.85572,-1.30188 -2.8268,-1.88453 -3.4774,-2.08644 -0.31377,0.31431 -3.76907,-2.19862 -0.54216,-0.3943 -1.02984,-0.85992 -1.57044,-1.25636 -0.72873,-0.5344 -3.4362,-2.50332 -4.71134,-3.14089 -0.50428,-0.25214 -1.06616,-0.37604 -1.57044,-0.62818 -0.54603,-0.27301 -1.03679,-0.64579 -1.57045,-0.94226 -0.40929,-0.22739 -0.84322,-0.40785 -1.25635,-0.62818 -1.15751,-0.61734 -2.29559,-1.27074 -3.45498,-1.88454 -0.62071,-0.32861 -1.24516,-0.65164 -1.88453,-0.94226 -0.51327,-0.23331 -1.07759,-0.35437 -1.57045,-0.62818 -0.4576,-0.25423 -0.78814,-0.70816 -1.25635,-0.94227 -1.00857,-0.50428 -2.09393,-0.83757 -3.14089,-1.25635 -1.04697,-0.41879 -2.09393,-0.83758 -3.14089,-1.25636 -1.04697,-0.41879 -2.07897,-0.8771 -3.14089,-1.25636 -0.40653,-0.14518 -0.85068,-0.16656 -1.25636,-0.31409 -4.36929,-1.58883 0.16352,-0.41705 -5.33951,-1.88453 -0.51583,-0.13755 -1.04931,-0.19828 -1.57045,-0.31409 -0.42139,-0.0936 -0.83306,-0.22943 -1.25635,-0.31409 -0.62448,-0.12489 -1.26671,-0.15963 -1.88454,-0.31409 -0.22712,-0.0568 -0.39725,-0.2756 -0.62818,-0.31409 -0.41308,-0.0688 -0.83757,0 -1.25635,0 -0.31409,0 -0.62818,0 -0.94227,0 -1.04696,0 -2.09392,0 -3.14089,0 -1.88453,0 -3.76907,0 -5.6536,0 -0.73287,0 -1.46575,0 -2.19862,0 -0.0746,0 -1.18596,0.0352 -1.25636,0 -0.13243,-0.0662 -0.18166,-0.24787 -0.31409,-0.31408 -0.19455,-0.0973 -1.16342,0.0929 -1.25635,0 -0.074,-0.074 0.0468,-0.22045 0,-0.31409 -0.0662,-0.13243 -0.2094,-0.2094 -0.31409,-0.31409 -0.2094,-0.20939 -0.41879,-0.41879 -0.62818,-0.62818"
     id="path102"
     inkscape:connector-curvature="0" />
  <path
     style="fill:none;stroke:#000000;stroke-width:1px;stroke-linecap:butt;stroke-linejoin:miter;stroke-opacity:1"
     d="m 688.1,201.2 c -0.13236,0.37303 -3.17073,-10e-4 -3.7001,0.13104 -0.14365,0.0359 -0.18166,0.24787 -0.31409,0.31409 -0.0937,0.0468 -0.26727,-0.0936 -0.31409,0 -0.0936,0.18728 0.0936,0.44089 0,0.62817 -0.0468,0.0936 -0.22045,-0.0468 -0.31409,0 -0.13243,0.0662 -0.20939,0.2094 -0.31409,0.31409 -0.20939,0.2094 -0.4505,0.39128 -0.62818,0.62818 -0.14046,0.18729 -0.1268,0.48771 -0.31409,0.62818 -0.26486,0.19865 -0.64614,0.16603 -0.94226,0.31409 -0.13244,0.0662 -0.2094,0.20939 -0.31409,0.31409 -0.2094,0.20939 -0.46392,0.38178 -0.62818,0.62818 -0.0581,0.0871 0,0.20939 0,0.31408 0,0.31409 0,0.62818 0,0.94227 0,0.62818 0,1.25636 0,1.88454 0,0.83757 0,1.67514 0,2.51271 0,0.10469 0,0.20939 0,0.31409 0,0.10469 -0.074,0.24005 0,0.31408 0.074,0.074 0.22431,-0.0539 0.31409,0 0.44888,0.26933 0.79875,0.68805 1.25635,0.94227 0.0487,0.027 2.10972,0.8751 2.51272,0.94227 0.30981,0.0516 0.62817,0 0.94226,0 0.52348,0 1.04697,0 1.57045,0 1.67514,0 3.35028,0 5.02542,0 5.44421,0 10.88842,0 16.33263,0 0.31409,0 0.62818,0 0.94226,0 0.31409,0 0.64027,0.0863 0.94227,0 0.4502,-0.12863 0.82163,-0.45429 1.25636,-0.62818 0.2359,-0.0944 1.05208,0.10214 1.25635,0 0.13244,-0.0662 0.18166,-0.24787 0.31409,-0.31409 0.0937,-0.0468 0.26727,0.0936 0.31409,0 0.0936,-0.18728 -0.0434,-0.42333 0,-0.62818 C 713.48849,210.78734 713.76536,209.89866 714,209"
     id="path104"
     inkscape:connector-curvature="0" />
  <path
     style="fill:none;stroke:#000000;stroke-width:1px;stroke-linecap:butt;stroke-linejoin:miter;stroke-opacity:1"
     d="m 74.439089,81.663135 c 0.523482,-1.361052 0.918295,-2.778858 1.570445,-4.083157 0.714701,-1.429402 1.711996,-2.700102 2.512712,-4.083157 0.586483,-1.013016 0.968207,-2.137159 1.570445,-3.14089 0.07618,-0.126963 0.231958,-0.190893 0.314089,-0.314089 0.12986,-0.194789 0.173624,-0.440891 0.314089,-0.628178 0.177675,-0.2369 0.495746,-0.363314 0.628178,-0.628178 0.296126,-0.592251 0.418785,-1.256355 0.628178,-1.884533 0.209392,-0.628178 0.382258,-1.269736 0.628178,-1.884534 0.08695,-0.217364 0.240057,-0.406084 0.314089,-0.628178 0.315719,-0.947159 -1.327138,0.617857 0.314089,-1.570445 0.125635,-0.167514 0.440891,0.09364 0.628178,0 0.09364,-0.04682 -0.04682,-0.220446 0,-0.314089 0.06621,-0.132432 0.247873,-0.181658 0.314089,-0.314089 0.04682,-0.09364 -0.05808,-0.226977 0,-0.314089 0.164261,-0.246392 0.418785,-0.418785 0.628178,-0.628178 0.314089,-1.046963 0.516366,-2.134216 0.942267,-3.14089 0.729743,-1.724847 1.704654,-3.335848 2.512711,-5.025424 0.344019,-0.719311 0.532037,-1.514906 0.942267,-2.198623 0.228534,-0.380888 0.695876,-0.572679 0.942267,-0.942267 0.18365,-0.275474 0.209393,-0.628178 0.314089,-0.942267 0.104697,-0.314088 0.209393,-0.628177 0.314089,-0.942266 0.104697,-0.314089 0.143751,-0.65837 0.314089,-0.942267 0.152356,-0.253926 0.5182,-0.353232 0.628178,-0.628178 0.11665,-0.291625 -0.0616,-0.634278 0,-0.942267 0.07835,-0.391763 0.836553,-1.359018 0.942267,-1.570445 0.296126,-0.592252 0.332052,-1.292282 0.628178,-1.884534 0.06622,-0.132432 0.225251,-0.195639 0.314089,-0.314089 0.226493,-0.301991 0.361254,-0.675343 0.628178,-0.942267 0.165539,-0.16554 0.462639,-0.14855 0.628178,-0.314089 0.07403,-0.07403 -0.07403,-0.240058 0,-0.314089 0.07403,-0.07403 0.209393,0 0.314089,0 0.104696,-0.209393 0.14855,-0.462639 0.314089,-0.628178 0.165539,-0.165539 0.462639,-0.14855 0.628178,-0.314089 0.07403,-0.07403 -0.03311,-0.214765 0,-0.314089 0.758359,-2.275077 -0.09055,0.495195 0.628178,-0.942267 0.04682,-0.09364 -0.03311,-0.214765 0,-0.314089 0.07403,-0.222094 0.240057,-0.406083 0.314089,-0.628178 0.09291,-0.278733 -0.102835,-1.364774 0,-1.570445 0.06622,-0.132431 0.209393,-0.209392 0.314089,-0.314089"
     id="path106"
     inkscape:connector-curvature="0" />
  <path
     style="fill:none;stroke:#000000;stroke-width:1px;stroke-linecap:butt;stroke-linejoin:miter;stroke-opacity:1"
     d="m 761.66579,488.72246 c 0.10469,1.04696 -0.13634,2.18999 0.31408,3.14089 0.99199,2.09418 2.80308,2.69047 4.08316,4.39724 0.19865,0.26487 0.14983,0.65481 0.31409,0.94227 2.01022,3.51788 -0.23411,-1.13638 2.19862,2.51271 0.31275,0.46912 0.41133,1.05001 0.62818,1.57045 0.30667,0.73601 0.55504,1.50162 0.94227,2.19862 0.14381,0.25886 0.46391,0.38179 0.62818,0.62818 0.0581,0.0871 -0.0331,0.21476 0,0.31409 0.074,0.22209 0.20939,0.41878 0.31408,0.62817 0.2094,0.41879 0.45429,0.82163 0.62818,1.25636 0.24592,0.6148 0.39568,1.26454 0.62818,1.88453 0.36806,0.98149 0.87181,1.15068 1.57045,2.19863 0.25972,0.38958 0.40079,0.84706 0.62817,1.25635 0.29648,0.53366 0.6458,1.03679 0.94227,1.57045 0.45477,0.81859 0.79176,1.69966 1.25636,2.51271 0.18728,0.32775 0.43396,0.61857 0.62817,0.94227 0.43428,0.7238 0.80319,1.48649 1.25636,2.19862 2.77675,4.36347 -0.28354,-0.28354 1.57045,1.57044 0.26692,0.26693 0.43396,0.61858 0.62817,0.94227 0.12045,0.20075 0.14855,0.46264 0.31409,0.62818 0.074,0.074 0.24006,-0.074 0.31409,0 0.26693,0.26692 0.36125,0.67534 0.62818,0.94227 0.26692,0.26692 0.67534,0.36125 0.94227,0.62817 0.37015,0.37016 0.60714,0.85421 0.94226,1.25636 0.71249,0.85498 1.41166,1.72575 2.19863,2.51271 0.16554,0.16554 0.46263,0.14855 0.62817,0.31409 0.26693,0.26693 0.40169,0.64028 0.62818,0.94227 0.26652,0.35535 0.67576,0.58691 0.94227,0.94227 0.14046,0.18728 0.19001,0.42965 0.31409,0.62817 1.89509,3.03215 0.68366,0.73915 1.88453,3.14089 0.20939,0.41879 0.4601,0.81935 0.62818,1.25636 0.35655,0.92703 0.6082,1.89143 0.94227,2.8268 0.18963,0.53096 0.47983,1.0265 0.62817,1.57044 0.16757,0.61441 0.15964,1.26671 0.31409,1.88454 0.0568,0.22712 0.24006,0.40608 0.31409,0.62818 0.24103,0.72308 0.34511,1.49093 0.62818,2.19862 0.1402,0.35049 0.50881,0.58415 0.62818,0.94227 0.0993,0.29797 0,0.62817 0,0.94226 0,0.94227 0,1.88454 0,2.8268 0,1.15166 0,2.30332 0,3.45498 0,0.0633 -0.008,0.94174 0,0.94227 0.13005,0.009 0.16991,-0.19774 0.25487,-0.29661"
     id="path108"
     inkscape:connector-curvature="0" />
  <path
     style="fill:none;stroke:#000000;stroke-width:1px;stroke-linecap:butt;stroke-linejoin:miter;stroke-opacity:1"
     d="m 616.6,208 c -0.22383,0.39442 -0.48593,0.76946 -0.6715,1.18326 -0.0428,0.0955 0,0.20939 0,0.31409 0,0.20939 0,0.41879 0,0.62818 0,0.41878 0,0.83757 0,1.25635 0,0.83758 0,1.67515 0,2.51272 0,1.69801 0.10327,2.09962 -0.31409,3.76906 -0.0568,0.22712 -0.20939,0.41879 -0.31409,0.62818 -0.20939,0.41879 -0.39588,0.84983 -0.62818,1.25636 -0.18729,0.32775 -0.5088,0.58415 -0.62818,0.94227 -0.0993,0.29797 0.0762,0.63755 0,0.94226 -0.0359,0.14364 -0.23196,0.1909 -0.31409,0.31409 -0.12986,0.19479 -0.20939,0.41879 -0.31409,0.62818 -0.10469,0.20939 -0.2573,0.40106 -0.31408,0.62818 -0.10157,0.40628 0.0821,0.8457 0,1.25635 0.0721,0.63074 -0.49144,1.02348 -0.62818,1.57045 -0.0508,0.20314 0.0411,0.42285 0,0.62818 -0.52891,2.64452 -0.005,0.01 -0.62818,1.25635 -0.0468,0.0936 0.0468,0.22045 0,0.31409 -0.0662,0.13243 -0.22525,0.19564 -0.31409,0.31409 -0.22649,0.30199 -0.45936,0.60463 -0.62818,0.94227 -0.0468,0.0936 0.0254,0.21252 0,0.31409 -0.0803,0.32119 -0.18367,0.63795 -0.31409,0.94226 -0.61869,1.44362 -0.76933,1.20338 -1.25635,2.8268 -0.1534,0.51134 -0.12664,1.07059 -0.31409,1.57045 -0.004,0.0104 -1.22948,1.83974 -1.25636,1.88453 -0.73075,1.21793 0.21542,0.0269 -0.94226,1.57045 -0.0888,0.11845 -0.23196,0.19089 -0.31409,0.31409 -0.12986,0.19479 -0.18423,0.43338 -0.31409,0.62817 -0.0821,0.1232 -0.20939,0.2094 -0.31409,0.31409 -0.31409,0.31409 -0.65319,0.60502 -0.94227,0.94227 -0.31409,0.41879 -0.62818,0.83757 -0.94226,1.25636 0,0.20939 0.11615,0.45395 0,0.62817 -0.12986,0.19479 -0.46264,0.14855 -0.62818,0.31409 -0.008,0.008 -0.59825,1.20399 -0.62818,1.25636 -0.30288,0.53004 -0.60363,1.06249 -0.94227,1.57044 -0.29037,0.43557 -0.638,0.83039 -0.94226,1.25636 -0.21941,0.30717 -0.38652,0.65227 -0.62818,0.94227 -0.66352,0.79621 -1.53511,1.4024 -2.19863,2.19862 -0.34305,0.41166 -0.40848,1.13107 -0.62817,1.57044 -0.16882,0.33764 -0.43397,0.61858 -0.62818,0.94227 -0.12045,0.20075 -0.14855,0.46264 -0.31409,0.62818 -0.16554,0.16554 -0.43339,0.18423 -0.62818,0.31409 -0.43209,0.28806 -0.32303,0.48455 -0.62818,0.94227 -0.0821,0.12319 -0.20939,0.20939 -0.31409,0.31408 -0.31408,0.31409 -0.66478,0.59542 -0.94226,0.94227 -0.14625,0.18281 -0.18423,0.43339 -0.31409,0.62818 -0.0821,0.1232 -0.23196,0.19089 -0.31409,0.31409 -0.12986,0.19479 -0.14855,0.46264 -0.31409,0.62818 -0.16554,0.16554 -0.44089,0.17362 -0.62818,0.31409 -1.24407,0.93305 -0.13971,0.25316 -0.94226,1.25635 -0.27749,0.34685 -0.62818,0.62818 -0.94227,0.94227 -0.31409,0.31409 -0.58692,0.67575 -0.94227,0.94227 -0.0838,0.0628 -0.23033,-0.0628 -0.31409,0 -0.35535,0.26651 -0.62817,0.62817 -0.94226,0.94226 -0.41879,0.41879 -0.80138,0.87721 -1.25636,1.25636 -0.17985,0.14987 -0.44537,0.16784 -0.62818,0.31409 -0.34685,0.27748 -0.60103,0.6579 -0.94226,0.94226 -0.29,0.24167 -0.6475,0.39237 -0.94227,0.62818 -0.68953,0.55163 -1.20602,1.31911 -1.88454,1.88454 -0.40215,0.33512 -0.84758,0.61525 -1.25635,0.94226 -0.23124,0.18499 -0.38179,0.46392 -0.62818,0.62818 -0.19479,0.12986 -0.48771,0.1268 -0.62818,0.31409 -0.19864,0.26486 -0.10726,0.68374 -0.31409,0.94227 -0.23581,0.29477 -0.67534,0.36125 -0.94226,0.62817 -0.16554,0.16554 -0.18423,0.43339 -0.31409,0.62818 -0.88342,1.32513 0.53903,-1.70624 -0.94227,1.25636 -0.14806,0.29612 -0.16603,0.64614 -0.31409,0.94227 -0.24052,0.48105 -0.55971,0.24562 -0.94227,0.62817 -0.16553,0.16554 -0.14854,0.46264 -0.31408,0.62818 -0.16554,0.16554 -0.46264,0.14855 -0.62818,0.31409 -0.074,0.074 0,0.20939 0,0.31409 0,0.31409 0.0762,0.63756 0,0.94227 -0.0359,0.14364 -0.23196,0.19089 -0.31409,0.31409 -0.69199,0.15817 -0.16603,0.64614 -0.31409,0.94226 -0.0662,0.13243 -0.24787,0.18166 -0.31409,0.31409 -0.14806,0.29613 -0.16603,0.64614 -0.31409,0.94227 -0.71873,1.43746 0.13018,-1.33281 -0.62818,0.94227 -0.0331,0.0993 0,0.20939 0,0.31408 0,0.62818 0,1.25636 0,1.88454 0,0.10469 0.1047,0.31409 0,0.31409 -0.10469,0 0.074,-0.38812 0,-0.31409 -0.16554,0.16554 -0.0894,0.69407 -0.31409,0.62818 C 572.50783,281.84525 572.00413,281.2173 571.4,280.8"
     id="path110"
     inkscape:connector-curvature="0" />
  <path
     style="fill:none;stroke:#000000;stroke-width:1px;stroke-linecap:butt;stroke-linejoin:miter;stroke-opacity:1"
     d="m 761.66579,488.72246 c 0.36617,3.66177 0.31408,2.0887 0.31408,4.71133 0,0.31409 0.14047,0.66134 0,0.94227 -0.19864,0.39729 -0.66478,0.59541 -0.94226,0.94227 -0.14625,0.1828 -0.2094,0.41878 -0.31409,0.62817 -0.41879,0.31409 -0.91164,0.54831 -1.25636,0.94227 -0.402,0.45943 -0.59218,1.07032 -0.94226,1.57045 -0.38444,0.5492 -0.86671,1.02493 -1.25636,1.57044 -0.13607,0.1905 -0.14855,0.46264 -0.31409,0.62818 -0.16554,0.16554 -0.49832,0.1193 -0.62818,0.31409 -0.11615,0.17422 0.14807,0.48011 0,0.62818 -0.23411,0.2341 -0.6774,0.11544 -0.94226,0.31408 -0.18729,0.14047 -0.16785,0.44538 -0.31409,0.62818 -0.44539,0.55673 -1.34508,1.34508 -1.88454,1.88454 -0.10469,0.10469 -0.22525,0.19564 -0.31409,0.31409 -0.22649,0.30199 -0.38651,0.65227 -0.62817,0.94226 -0.56873,0.68247 -1.25636,1.25636 -1.88454,1.88454 -0.31409,0.31409 -0.57268,0.69587 -0.94227,0.94226 -0.27547,0.18365 -0.6774,0.11545 -0.94226,0.31409 -0.19072,0.38143 -0.26846,0.70246 -0.62818,0.94227 -0.19479,0.12986 -0.44089,0.17362 -0.62818,0.31409 -0.2369,0.17767 -0.41878,0.41878 -0.62818,0.62818 -0.10469,0.10469 -0.18165,0.24787 -0.31409,0.31409 -0.43324,0.21662 -0.28094,-0.38038 -0.62817,0.31408 -0.0468,0.0937 0.0468,0.22045 0,0.31409 -0.34724,0.69447 -0.19494,0.0975 -0.62818,0.31409 -0.13243,0.0662 -0.18166,0.24788 -0.31409,0.31409 -0.0936,0.0468 -0.20939,0 -0.31409,0 -0.3163,0 -1.71084,-0.0579 -1.88453,0 -0.36079,0.12026 -0.43578,0.74987 -0.62818,0.94227 -0.074,0.074 -0.22045,-0.0468 -0.31409,0 -0.13243,0.0662 -0.20939,0.20939 -0.31409,0.31409 -0.1047,0.10469 -0.24787,0.18165 -0.31409,0.31409 -0.0468,0.0936 0.0468,0.22044 0,0.31409 -0.0662,0.13243 -0.29184,0.1677 -0.31409,0.31408 -0.0145,0.0952 0.18545,-0.0518 0.27818,-0.0778"
     id="path112"
     inkscape:connector-curvature="0" />
  <path
     style="fill:none;stroke:#000000;stroke-width:1px;stroke-linecap:butt;stroke-linejoin:miter;stroke-opacity:1"
     d="m 714,209 c 0.49823,1.31744 0.72811,2.77071 1.4947,3.95233 0.41091,0.63336 1.24759,0.85103 1.88454,1.25636 0.8224,0.52334 2.10841,1.16614 2.8268,1.88453 0.37016,0.37016 0.53711,0.92487 0.94227,1.25636 0.76444,0.62545 1.69089,1.02256 2.51271,1.57044 3.20721,2.13814 -0.0834,-0.004 1.88453,1.57045 0.58954,0.47163 1.31132,0.76502 1.88454,1.25635 0.44967,0.38543 0.80668,0.87092 1.25635,1.25636 0.28661,0.24566 0.6475,0.39236 0.94227,0.62818 0.23123,0.18498 0.39128,0.4505 0.62818,0.62817 0.18728,0.14047 0.43767,0.17802 0.62817,0.31409 0.54552,0.38965 1.01266,0.8845 1.57045,1.25636 0.89179,0.59453 1.90414,0.75309 2.8268,1.25635 0.9463,0.51617 1.87773,1.05941 2.8268,1.57045 0.41225,0.22198 0.81217,0.48011 1.25636,0.62818 0.19864,0.0662 0.42503,-0.0508 0.62818,0 0.22711,0.0568 0.41878,0.20939 0.62817,0.31409 0.64986,0.32493 0.79421,0.43411 1.57045,0.62817 0.26977,0.0675 1.0424,-0.0856 1.25635,0 0.43473,0.1739 0.80212,0.51462 1.25636,0.62818 0.40628,0.10157 0.85523,-0.12034 1.25636,0 0.6727,0.20181 1.25635,0.62818 1.88453,0.94227 0.41879,0.20939 0.84983,0.39588 1.25636,0.62818 0.32775,0.18728 0.59177,0.48798 0.94226,0.62817 0.11783,0.0471 1.31568,0 1.57045,0"
     id="path114"
     inkscape:connector-curvature="0" />
  <path
     style="fill:none;stroke:#000000;stroke-width:1px;stroke-linecap:butt;stroke-linejoin:miter;stroke-opacity:1"
     d="m 35.1,268.7 c 2.59694,-0.0893 4.533355,-0.0217 6.987924,-0.46801 1.437879,-0.26143 0.452734,-0.25561 1.570445,-0.62818 0.09932,-0.0331 0.216881,0.0389 0.314089,0 0.434728,-0.17389 0.812167,-0.48011 1.256356,-0.62817 1.132464,-0.37749 2.315595,-0.58621 3.454978,-0.94227 0.538143,-0.16817 1.030416,-0.46617 1.570445,-0.62818 0.511335,-0.1534 1.046964,-0.20939 1.570445,-0.31409 0.523482,-0.1047 1.046964,-0.20939 1.570445,-0.31409 0.523482,-0.10469 1.063992,-0.14527 1.570445,-0.31409 1.069749,-0.35658 2.093927,-0.83757 3.14089,-1.25635 1.046963,-0.41879 2.132321,-0.75207 3.14089,-1.25636 0.675271,-0.33763 1.24759,-0.85103 1.884534,-1.25635 0.515038,-0.32776 1.052759,-0.61872 1.570445,-0.94227 0.320109,-0.20007 0.618573,-0.43396 0.942267,-0.62818 0.121309,-0.0728 1.243072,-0.60825 1.256355,-0.62818 0.116151,-0.17422 -0.148062,-0.48011 0,-0.62818 0.234109,-0.2341 0.672857,-0.12165 0.942267,-0.31408 0.481936,-0.34424 0.774421,-0.91212 1.256356,-1.25636 0.26941,-0.19244 0.646141,-0.16603 0.942267,-0.31409 0.132432,-0.0662 0.190893,-0.23196 0.314089,-0.31409 0.209393,-0.10469 0.418786,-0.20939 0.628178,-0.31409 0.104697,0 0.220446,0.0468 0.314089,0 0.16775,-0.0839 0.776911,-0.77691 0.942267,-0.94226"
     id="path116"
     inkscape:connector-curvature="0" />
  <path
     style="fill:none;stroke:#000000;stroke-width:1px;stroke-linecap:butt;stroke-linejoin:miter;stroke-opacity:1"
     d="m 572,279.9 c 0.29944,0.29852 1.19682,0.59612 0.89831,0.89555 C 572.59979,281.09499 572.42282,279.9 572,279.9 c -0.90299,0 -1.6776,0.68909 -2.55667,0.89555 -0.40769,0.0958 -0.83757,0 -1.25636,0 -0.41878,0 -0.83757,0 -1.25635,0 -0.52349,0 -1.04697,0 -1.57045,0 -0.41878,0 -0.83965,-0.0417 -1.25636,0 -0.63368,0.0634 -1.25796,0.20017 -1.88453,0.31409 -2.6947,0.48995 -0.51908,0.12977 -3.76907,0.94227 -0.51791,0.12947 -1.05253,0.18461 -1.57044,0.31409 -1.49365,0.37341 -0.43611,0.33442 -2.19863,0.62817 -0.8326,0.13877 -1.68501,0.14855 -2.51271,0.31409 -0.7474,0.14948 -1.44408,0.52039 -2.19862,0.62818 -0.72551,0.10364 -1.46575,0 -2.19862,0 -0.73288,0 -1.46575,0 -2.19863,0 -2.93149,0 -5.86299,0 -8.79449,0 -8.89918,0 -17.79837,0 -26.69756,0 -1.25636,0 -2.51271,0 -3.76907,0 -0.41878,0 -0.83757,0 -1.25635,0 -0.2094,0 -0.42286,0.0411 -0.62818,0 -0.32465,-0.0649 -0.65837,-0.14375 -0.94227,-0.31409 -1.17035,-0.70221 -0.16654,-0.62818 -0.94227,-0.62818 -0.25708,0 -1.79263,0.046 -1.88453,0 -0.0936,-0.0468 0,-0.20939 0,-0.31409"
     id="path118"
     inkscape:connector-curvature="0" />
  <path
     style="fill:none;stroke:#000000;stroke-width:1px;stroke-linecap:butt;stroke-linejoin:miter;stroke-opacity:1"
     d="m 220.49047,233.36811 c 2.56016,1.28009 1.38544,0.77493 4.39724,1.88454 1.14988,0.42364 2.28642,0.88734 3.45498,1.25635 0.82327,0.25998 1.67514,0.41879 2.51271,0.62818 0.83757,0.20939 1.67284,0.42821 2.51271,0.62818 4.43494,1.05594 2.89625,0.77271 6.28178,1.25636 5.92748,0.84678 -3.27044,-0.36145 7.53814,0.31408 1.58126,0.0988 3.13601,0.4594 4.71133,0.62818 0.62775,0.0673 8.01848,0.60387 8.48041,0.62818 0.52276,0.0275 1.04696,0 1.57044,0 1.04697,0.1047 2.09076,0.24846 3.14089,0.31409 0.83594,0.0522 1.67514,0 2.51271,0 0.2094,0 0.42504,-0.0508 0.62818,0 8.74412,2.18603 0.74109,0.34635 7.22405,2.19862 5.5532,1.58663 -2.36547,-0.83307 3.14089,0.31409 18.40892,3.83519 -0.99252,-0.0377 8.4804,2.51271 1.86413,0.50188 3.78488,0.77188 5.6536,1.25636 0.96145,0.24926 1.87967,0.64317 2.8268,0.94227 1.04233,0.32915 2.08542,0.6581 3.14089,0.94226 1.66733,0.4489 3.35029,0.83757 5.02543,1.25636 1.25635,0.31409 2.53015,0.56521 3.76906,0.94227 2.34086,0.71243 4.58806,1.73874 6.90996,2.51271 0.31409,0.10469 0.62286,0.22697 0.94227,0.31409 0.83293,0.22716 1.66111,0.48624 2.51271,0.62817 3.07975,0.5133 -1.13305,-1.08651 3.76907,0.31409 0.6753,0.19295 1.23244,0.68143 1.88453,0.94227 0.4008,0.16032 0.84983,0.1689 1.25636,0.31409 1.06192,0.37926 2.07114,0.89977 3.14089,1.25636 0.50645,0.16881 1.07059,0.12664 1.57044,0.31408 0.35346,0.13255 0.5953,0.47948 0.94227,0.62818 0.39677,0.17005 0.85959,0.14405 1.25636,0.31409 0.55306,0.36871 0.96681,0.70082 1.57044,0.94227 0.3074,0.12296 0.66679,0.13044 0.94227,0.31409 0.0871,0.0581 -0.0936,0.26726 0,0.31409 0.18728,0.0936 0.42163,-0.0344 0.62818,0 0.4258,0.071 0.85067,0.16656 1.25635,0.31409 0.74934,0.27248 1.47275,0.61232 2.19863,0.94226 0.42624,0.19375 0.80788,0.49364 1.25635,0.62818 0.60999,0.183 1.27013,0.14652 1.88454,0.31409 0.54394,0.14835 1.04253,0.43021 1.57044,0.62818 0.31,0.11625 0.62107,0.23379 0.94227,0.31409 0.10157,0.0254 0.24005,-0.074 0.31409,0 0.41878,0.41878 -0.52349,0.31409 0.31408,0.31409"
     id="path120"
     inkscape:connector-curvature="0" />
  <path
     style="fill:none;stroke:#000000;stroke-width:1px;stroke-linecap:butt;stroke-linejoin:miter;stroke-opacity:1"
     d="m 714,209 c -0.47477,1.63974 -0.38983,3.229 -0.38983,4.8946 0,0.52348 0.0521,1.04956 0,1.57044 -0.0531,0.5312 -0.19828,1.04931 -0.31409,1.57045 -0.0936,0.42139 -0.14404,0.85958 -0.31409,1.25635 -0.1487,0.34697 -0.49563,0.58882 -0.62818,0.94227 -0.18744,0.49986 -0.14527,1.06399 -0.31408,1.57044 -0.29613,0.88838 -0.88748,1.652 -1.25636,2.51272 -0.13042,0.30431 -0.14375,0.65837 -0.31409,0.94226 -0.15235,0.25393 -0.49575,0.36332 -0.62818,0.62818 -0.0936,0.18729 0,0.41879 0,0.62818 -0.10469,0.31409 -0.14375,0.65837 -0.31409,0.94227 -0.15235,0.25392 -0.4505,0.39127 -0.62817,0.62817 -0.14047,0.18729 -0.2094,0.41879 -0.31409,0.62818 -0.2094,0.20939 -0.44319,0.39694 -0.62818,0.62818 -0.59431,0.34839 -0.5609,1.09374 -0.94227,1.57045 -0.27748,0.34685 -0.66478,0.59541 -0.94226,0.94226 -0.14625,0.18281 -0.19794,0.42492 -0.31409,0.62818 -0.30289,0.53004 -0.58744,1.07368 -0.94227,1.57044 -0.17212,0.24097 -0.47582,0.37426 -0.62818,0.62818 -0.17034,0.2839 -0.16602,0.64614 -0.31409,0.94227 -0.0662,0.13243 -0.2591,0.17662 -0.31409,0.31409 -0.16032,0.4008 -0.14404,0.85958 -0.31409,1.25635 -0.88878,2.07382 -0.29125,0.27984 -0.94226,1.25636 -0.12986,0.19479 -0.18423,0.43339 -0.31409,0.62818 -0.0821,0.12319 -0.26727,0.17362 -0.31409,0.31409 -0.0968,0.29029 0.0977,1.27746 0,1.57044 -0.074,0.2221 -0.24006,0.40609 -0.31409,0.62818 -0.0624,0.18728 0,1.58022 0,1.88453 0,0.1047 0,0.2094 0,0.31409 0,0.1047 0.074,0.24006 0,0.31409 -0.074,0.074 -0.20939,0 -0.31409,0 -0.20939,0 -0.41878,0 -0.62818,0"
     id="path417"
     inkscape:connector-curvature="0" />
  <path
     style="fill:none;stroke:#000000;stroke-width:1px;stroke-linecap:butt;stroke-linejoin:miter;stroke-opacity:1"
     d="m 616.6,208 c -0.11914,1.12729 -0.28881,2.25039 -0.35741,3.38188 -0.0507,0.83604 0,1.67515 0,2.51272 0,2.09392 0,4.18785 0,6.28178 0,0.79506 -0.16427,3.12645 0.31408,4.08315 0.40278,0.80555 1.05397,1.4608 1.57045,2.19863 0.21647,0.30925 0.40168,0.64027 0.62818,0.94226 0.41502,0.55337 1.13435,1.02533 1.57044,1.57045 0.65404,0.81754 1.26874,1.66599 1.88454,2.51271 0.22202,0.30529 0.43396,0.61857 0.62817,0.94227 0.12045,0.20074 0.17363,0.44089 0.31409,0.62817 0.35198,0.46931 0.88036,0.80516 1.25636,1.25636 0.42917,0.515 0.78232,1.09641 1.25636,1.57045 0.37015,0.37015 0.86239,0.59755 1.25635,0.94226 2.15183,1.88286 0.30259,0.80973 3.14089,2.51271 2.30042,1.38026 0.29724,-0.10177 2.19862,1.25636 0.42598,0.30427 0.8589,0.60159 1.25636,0.94227 0.33725,0.28907 0.58082,0.68408 0.94227,0.94226 0.381,0.27215 0.86677,0.36846 1.25635,0.62818 0.62077,0.41385 1.26377,1.47069 1.88454,1.88454 4.3381,2.16905 -1.62142,-0.97625 2.19862,1.57044 0.27547,0.18365 0.64614,0.16603 0.94227,0.31409 0.13243,0.0662 0.18712,0.23791 0.31409,0.31409 0.40149,0.24089 0.85486,0.38728 1.25635,0.62818 0.12696,0.0762 0.20939,0.20939 0.31409,0.31409 0.41879,0.41878 0.83757,0.83757 1.25636,1.25635 0.10469,0.1047 0.20939,0.20939 0.31409,0.31409 0,0.1047 -0.074,0.24006 0,0.31409 0.074,0.074 0.24005,-0.074 0.31408,0 0.074,0.074 0.1047,0.31409 0,0.31409 -0.10469,0 0,-0.41879 0,-0.31409 0,0.83757 0,1.67514 0,2.51271 0,0.1047 -0.074,0.24006 0,0.31409 0.074,0.074 0.31409,-0.1047 0.31409,0 0,0.1047 -0.41878,0 -0.31409,0 0.31409,0 0.62818,0 0.94227,0"
     id="path419"
     inkscape:connector-curvature="0" />
  <path
     style="fill:none;stroke:#000000;stroke-width:1px;stroke-linecap:butt;stroke-linejoin:miter;stroke-opacity:1"
     d="m 91.085805,356.491 c -0.314089,-0.1047 -0.708159,-0.08 -0.942267,-0.31409 -0.148062,-0.14807 0,-0.41879 0,-0.62818 0,-0.67097 -0.148063,-0.83838 0.628178,-1.25636 1.662252,-0.89506 3.673724,-1.541 5.339513,-2.51271 0.652132,-0.38041 1.199046,-0.93998 1.884534,-1.25636 0.692047,-0.3194 1.504741,-0.31277 2.198627,-0.62817 0.47656,-0.21662 0.81601,-0.65919 1.25635,-0.94227 1.02705,-0.66024 2.0808,-1.27877 3.14089,-1.88453 0.062,-0.0354 5.87373,-3.19095 6.28178,-3.45498 0.879,-0.56877 1.67514,-1.25636 2.51271,-1.88454 0.83757,-0.62817 1.70241,-1.22155 2.51271,-1.88453 0.34379,-0.28128 0.60104,-0.6579 0.94227,-0.94227 1.43202,-1.19334 2.94166,-2.2905 4.39725,-3.45498 0.52348,-0.41878 1.06939,-0.81097 1.57044,-1.25635 0.44266,-0.39347 0.78886,-0.89275 1.25636,-1.25636 0.48188,-0.3748 1.08206,-0.57598 1.57044,-0.94227 0.77221,-0.57915 1.45156,-1.27329 2.19863,-1.88453 0.40515,-0.33149 0.8542,-0.60714 1.25635,-0.94227 0.22749,-0.18957 0.38179,-0.46391 0.62818,-0.62817 0.38958,-0.25972 0.84983,-0.39588 1.25636,-0.62818 1.46172,-0.83527 1.00084,-0.92046 2.8268,-2.19862 0.38357,-0.26851 0.86677,-0.36846 1.25635,-0.62818 0.24639,-0.16426 0.41879,-0.41879 0.62818,-0.62818 0.52348,-0.41879 1.00196,-0.90105 1.57045,-1.25636 0.28075,-0.17547 0.63795,-0.18367 0.94226,-0.31409 0.43036,-0.18444 0.85931,-0.38002 1.25636,-0.62817 0.56908,-0.35568 1.53416,-1.23822 2.19862,-1.57045 0.29613,-0.14806 0.64614,-0.16602 0.94227,-0.31409 0.33763,-0.16882 0.60463,-0.45936 0.94227,-0.62818 3.46769,-1.73384 -0.35359,0.6136 3.14089,-1.57044 0.3201,-0.20007 0.67534,-0.36125 0.94226,-0.62818 0.76286,-0.76286 -0.0934,-0.46121 0.62818,-0.94227 0.93681,-0.62453 0.40728,0.0766 1.25636,-0.94226 0.33512,-0.40215 0.61525,-0.84759 0.94226,-1.25636 0.44579,-0.55723 1.05898,-1.05897 1.57045,-1.57044 0.10469,-0.1047 0.23196,-0.1909 0.31409,-0.31409 0.19127,-0.28692 0.2681,-0.76223 0.62817,-0.94227 0.0936,-0.0468 0.31409,-0.1047 0.31409,0 0,0.1047 -0.20939,0 -0.31409,0 0.14623,0.17458 0.29245,0.34915 0.43867,0.52373"
     id="path421"
     inkscape:connector-curvature="0" />
  <path
     style="fill:none;stroke:#000000;stroke-width:1px;stroke-linecap:butt;stroke-linejoin:miter;stroke-opacity:1"
     d="m 498.14513,487.78019 c -0.41879,-0.31409 -0.76337,-0.7662 -1.25636,-0.94227 -1.38593,-0.49497 -4.82471,-0.85655 -6.28178,-0.94226 -0.73161,-0.043 -1.46876,0.0663 -2.19862,0 -1.57784,-0.14344 -3.1354,-0.46515 -4.71134,-0.62818 -1.46168,-0.15121 -2.93675,-0.15181 -4.39724,-0.31409 -0.42903,-0.0477 -0.82683,-0.27114 -1.25636,-0.31409 -5.36289,-0.53629 2.27849,0.79853 -4.39724,-0.31409 -0.4258,-0.071 -0.82732,-0.26642 -1.25636,-0.31409 -0.52028,-0.0578 -1.04696,0 -1.57044,0 -0.52349,0 -1.04697,0 -1.57045,0 -1.77984,0 -3.55967,0 -5.33951,0 -5.23482,0 -10.46963,0 -15.70445,0 -1.88453,0 -3.76907,0 -5.6536,0 -0.31409,0 -0.62818,0 -0.94227,0 -0.31409,0 -0.65064,-0.11665 -0.94227,0 -0.27494,0.10998 -0.37425,0.47583 -0.62817,0.62818 -0.75757,0.45454 -1.67562,0.31409 -2.51272,0.31409 -0.10469,0 -0.20939,0 -0.31408,0 -0.1047,0 -0.31409,0.1047 -0.31409,0 0,-0.1047 0.20939,0 0.31409,0"
     id="path423"
     inkscape:connector-curvature="0" />
  <path
     style="fill:none;stroke:#000000;stroke-width:1px;stroke-linecap:butt;stroke-linejoin:miter;stroke-opacity:1"
     d="m 700.41843,243.10487 c -1.13798,-1.65579 -0.72541,-1.57044 -1.88453,-1.57044 -0.20939,0 -0.44089,-0.0936 -0.62818,0 -0.41273,0.20636 -1.07882,1.25975 -1.25635,1.57044 -0.2323,0.40653 -0.35604,0.87536 -0.62818,1.25636 -0.25818,0.36145 -0.64977,0.60798 -0.94227,0.94227 -0.44145,0.50451 -0.82008,1.06145 -1.25636,1.57044 -0.57814,0.67451 -1.25635,1.25636 -1.88453,1.88453 -0.31409,0.31409 -0.59541,0.66479 -0.94227,0.94227 -0.1828,0.14625 -0.46263,0.14855 -0.62817,0.31409 -0.37016,0.37016 -0.6519,0.82079 -0.94227,1.25636 -0.12986,0.19479 -0.14855,0.46263 -0.31409,0.62817 -0.16554,0.16554 -0.43339,0.18423 -0.62818,0.31409 -0.12319,0.0821 -0.20939,0.2094 -0.31409,0.31409 -0.20939,0.20939 -0.4505,0.39128 -0.62818,0.62818 -0.0893,0.11909 -0.33258,0.86837 -0.62817,0.94227 -0.30471,0.0762 -0.66134,-0.14047 -0.94227,0 -0.20939,0.10469 -0.18423,0.43339 -0.31409,0.62817 -0.0821,0.1232 -0.20939,0.2094 -0.31409,0.31409 -0.73287,0.73288 -1.46575,1.46575 -2.19862,2.19863 -0.20939,0.20939 -0.4505,0.39127 -0.62818,0.62817 -1.08353,1.44471 0.6387,-0.32987 -0.62818,1.57045 -2.39607,2.39607 0.10731,-0.38824 -1.25635,1.88453 -0.0548,0.0914 -1.20994,1.11709 -1.25636,1.25636 -0.0662,0.19865 0.0662,0.42953 0,0.62818 -0.0468,0.14046 -0.23196,0.19089 -0.31409,0.31409 -0.12986,0.19479 -0.18423,0.43338 -0.31409,0.62817 0.0314,0.62223 -0.46264,0.14855 -0.62817,0.31409 -0.16554,0.16554 -0.14855,0.46264 -0.31409,0.62818 -0.16554,0.16554 -0.49832,0.1193 -0.62818,0.31409 -0.11615,0.17423 0.0662,0.42953 0,0.62818 -0.0468,0.14046 -0.26727,0.17362 -0.31409,0.31409 -0.0993,0.29797 0,0.62818 0,0.94226 0,0.1047 0.1047,0.31409 0,0.31409 -0.1047,0 -0.1047,-0.31409 0,-0.31409 0.1047,0 0.0606,0.22868 0,0.31409 -0.0793,0.11191 -0.24117,0.13079 -0.36176,0.19619"
     id="path425"
     inkscape:connector-curvature="0" />
  <path
     style="fill:none;stroke:#000000;stroke-width:1px;stroke-linecap:butt;stroke-linejoin:miter;stroke-opacity:1"
     d="m 692.8803,381.9322 c -0.37424,-1.36965 -0.31409,-2.69832 -0.31409,-4.08315 0,-0.2094 0.0936,-0.4409 0,-0.62818 -0.54432,-1.08863 -1.55823,-1.83094 -2.51271,-2.51271 -6.60049,-4.71464 -0.0953,0.0412 -4.39725,-2.8268 -0.43556,-0.29038 -0.83038,-0.638 -1.25635,-0.94227 -1.03994,-0.74281 -2.08617,-1.47697 -3.14089,-2.19862 -0.93464,-0.63949 -1.89361,-1.24296 -2.82681,-1.88454 -0.74215,-0.51023 -1.43159,-1.09842 -2.19862,-1.57044 -0.59814,-0.36809 -1.31654,-0.52918 -1.88453,-0.94227 -0.59872,-0.43543 -1.0133,-1.08294 -1.57045,-1.57044 -0.28409,-0.24858 -0.6966,-0.34157 -0.94226,-0.62818 -0.3973,-0.46351 -0.5106,-1.13877 -0.94227,-1.57045 -0.43168,-0.43167 -1.07368,-0.58743 -1.57045,-0.94226 -0.21551,-0.15394 -1.71895,-1.66376 -1.88453,-1.88454 -0.14046,-0.18729 -0.14855,-0.46264 -0.31409,-0.62818 -0.26692,-0.26692 -0.65566,-0.38251 -0.94227,-0.62817 -0.44967,-0.38544 -0.78255,-0.90101 -1.25635,-1.25636 -0.37457,-0.28093 -0.87535,-0.35603 -1.25636,-0.62818 -0.36145,-0.25818 -0.58691,-0.67575 -0.94226,-0.94227 -3.61942,-2.71456 0.29,0.71281 -2.82681,-1.88453 -0.22749,-0.18957 -0.38721,-0.45606 -0.62817,-0.62818 -1.84863,-1.32044 -1.39723,-0.64988 -3.45498,-1.88453 -0.44888,-0.26933 -0.80185,-0.68255 -1.25636,-0.94227 -0.28746,-0.16426 -0.64614,-0.16602 -0.94227,-0.31409 -0.33763,-0.16881 -0.60463,-0.45936 -0.94226,-0.62818 -0.29613,-0.14806 -0.66679,-0.13043 -0.94227,-0.31408 0,-0.37068 0.074,-0.36944 -0.31409,-0.62818 -0.19479,-0.12986 -0.43339,-0.18423 -0.62818,-0.31409 -0.12319,-0.0821 -0.19089,-0.23196 -0.31409,-0.31409 -0.19478,-0.12986 -0.44537,-0.16784 -0.62817,-0.31409 -0.53878,-0.43102 -1.06559,-1.06559 -1.57045,-1.57044 -0.20939,-0.2094 -0.38178,-0.46392 -0.62818,-0.62818 -0.52037,-0.34692 -0.71335,-0.31409 -1.25635,-0.31409 -0.1047,0 -0.20939,0 -0.31409,0 -0.1047,0 -0.31409,0.1047 -0.31409,0 0,-0.1047 0.20939,0 0.31409,0"
     id="path427"
     inkscape:connector-curvature="0" />
  <path
     style="fill:none;stroke:#000000;stroke-width:1px;stroke-linecap:butt;stroke-linejoin:miter;stroke-opacity:1"
     d="m 437.21187,484.95339 c -0.1047,-0.52348 -0.26097,-1.03925 -0.31409,-1.57045 -0.0521,-0.52088 0,-1.04696 0,-1.57044 0,-1.57045 0,-3.14089 0,-4.71133 0,-0.52349 0,-1.04697 0,-1.57045 0,-0.1047 -0.0331,-0.21477 0,-0.31409 0.074,-0.22209 0.24005,-0.40608 0.31409,-0.62818 0.0331,-0.0993 -0.074,-0.24005 0,-0.31409 0.074,-0.074 0.26726,0.0937 0.31408,0 0.0519,-0.10386 0,-1.32871 0,-1.57044 0,-0.1047 -0.074,-0.24006 0,-0.31409 0.16554,-0.16554 0.46264,-0.14855 0.62818,-0.31409 0.074,-0.074 0,-0.20939 0,-0.31409 0,-0.10469 0,-0.20939 0,-0.31409 0,-0.28311 -0.0659,-1.37275 0,-1.57044 0.074,-0.2221 0.24006,-0.40609 0.31409,-0.62818 0.0331,-0.0993 -0.0581,-0.22698 0,-0.31409 0.16426,-0.24639 0.43318,-0.40532 0.62818,-0.62818 0.53846,-0.61538 1.03829,-1.26368 1.57044,-1.88453 0.83757,-0.97717 -0.41878,0.83757 1.25636,-1.25636 0.14625,-0.1828 0.18423,-0.43338 0.31409,-0.62817 0.0821,-0.1232 0.20939,-0.2094 0.31409,-0.31409 0.10469,-0.1047 0.18166,-0.24788 0.31409,-0.31409 0.0936,-0.0468 0.24005,0.074 0.31409,0 0.0101,-0.0101 0,-0.86609 0,-0.94227"
     id="path429"
     inkscape:connector-curvature="0" />
  <path
     style="fill:none;stroke:#000000;stroke-width:1px;stroke-linecap:butt;stroke-linejoin:miter;stroke-opacity:1"
     d="m 796.52966,287.70551 c 0.41879,0.10469 0.83307,0.22943 1.25636,0.31409 0.20532,0.0411 0.4204,-0.026 0.62818,0 0.73459,0.0918 1.47844,0.14261 2.19862,0.31409 5.29053,1.25965 2.83961,0.85188 6.28178,1.88453 0.41347,0.12404 0.84683,0.17758 1.25635,0.31409 0.53488,0.17829 1.03558,0.44989 1.57045,0.62818 0.48418,0.16139 2.4285,0.57839 2.8268,0.62817 0.57863,0.0723 1.57216,0 2.19862,0 0.2094,0 0.41879,0 0.62818,0 0.1047,0 0.21477,-0.0331 0.31409,0 4.22134,1.40712 -2.14134,-0.25693 4.71134,1.57045 0.51582,0.13755 1.05253,0.18461 1.57044,0.31409 0.32119,0.0803 0.61762,0.24916 0.94227,0.31409 0.20532,0.0411 0.42503,-0.0508 0.62817,0 0.22712,0.0568 0.39862,0.26817 0.62818,0.31409 0.36725,0.0734 1.40009,0 1.88454,0"
     id="path431"
     inkscape:connector-curvature="0" />
</svg>
