<?xml version="1.0" encoding="UTF-8" standalone="no"?>
<svg
   xmlns:dc="http://purl.org/dc/elements/1.1/"
   xmlns:cc="http://creativecommons.org/ns#"
   xmlns:rdf="http://www.w3.org/1999/02/22-rdf-syntax-ns#"
   xmlns:svg="http://www.w3.org/2000/svg"
   xmlns="http://www.w3.org/2000/svg"
   xmlns:sodipodi="http://sodipodi.sourceforge.net/DTD/sodipodi-0.dtd"
   xmlns:inkscape="http://www.inkscape.org/namespaces/inkscape"
   width="959"
   height="593"
   version="1.1"
   id="svg3328"
   sodipodi:docname="cost under 1000.svg"
   inkscape:version="0.92.1 r15371"
   inkscape:export-filename="/home/matthew/Documents/poliecon/AMTRAK/cost under 1000.svg.png"
   inkscape:export-xdpi="500"
   inkscape:export-ydpi="500">
  <metadata
     id="metadata3334">
    <rdf:RDF>
      <cc:Work
         rdf:about="">
        <dc:format>image/svg+xml</dc:format>
        <dc:type
           rdf:resource="http://purl.org/dc/dcmitype/StillImage" />
        <dc:title>Blank US states map</dc:title>
      </cc:Work>
    </rdf:RDF>
  </metadata>
  <defs
     id="defs3332" />
  <sodipodi:namedview
     pagecolor="#ffffff"
     bordercolor="#666666"
     borderopacity="1"
     objecttolerance="10"
     gridtolerance="10"
     guidetolerance="10"
     inkscape:pageopacity="0"
     inkscape:pageshadow="2"
     inkscape:window-width="3775"
     inkscape:window-height="2136"
     id="namedview3330"
     showgrid="false"
     inkscape:zoom="2.92805"
     inkscape:cx="409.75277"
     inkscape:cy="289.43421"
     inkscape:window-x="65"
     inkscape:window-y="24"
     inkscape:window-maximized="1"
     inkscape:current-layer="svg3328" />
  <title
     id="title3271">Blank US states map</title>
  <g
     id="outlines">
    <path
       id="AK"
       fill="#D3D3D3"
       d="M161.1,453.7 l-0.3,85.4 1.6,1 3.1,0.2 1.5,-1.1 h2.6 l0.2,2.9 7,6.8 0.5,2.6 3.4,-1.9 0.6,-0.2 0.3,-3.1 1.5,-1.6 1.1,-0.2 1.9,-1.5 3.1,2.1 0.6,2.9 1.9,1.1 1.1,2.4 3.9,1.8 3.4,6 2.7,3.9 2.3,2.7 1.5,3.7 5,1.8 5.2,2.1 1,4.4 0.5,3.1 -1,3.4 -1.8,2.3 -1.6,-0.8 -1.5,-3.1 -2.7,-1.5 -1.8,-1.1 -0.8,0.8 1.5,2.7 0.2,3.7 -1.1,0.5 -1.9,-1.9 -2.1,-1.3 0.5,1.6 1.3,1.8 -0.8,0.8 c0,0 -0.8,-0.3 -1.3,-1 -0.5,-0.6 -2.1,-3.4 -2.1,-3.4 l-1,-2.3 c0,0 -0.3,1.3 -1,1 -0.6,-0.3 -1.3,-1.5 -1.3,-1.5 l1.8,-1.9 -1.5,-1.5 v-5 h-0.8 l-0.8,3.4 -1.1,0.5 -1,-3.7 -0.6,-3.7 -0.8,-0.5 0.3,5.7 v1.1 l-1.5,-1.3 -3.6,-6 -2.1,-0.5 -0.6,-3.7 -1.6,-2.9 -1.6,-1.1 v-2.3 l2.1,-1.3 -0.5,-0.3 -2.6,0.6 -3.4,-2.4 -2.6,-2.9 -4.8,-2.6 -4,-2.6 1.3,-3.2 v-1.6 l-1.8,1.6 -2.9,1.1 -3.7,-1.1 -5.7,-2.4 h-5.5 l-0.6,0.5 -6.5,-3.9 -2.1,-0.3 -2.7,-5.8 -3.6,0.3 -3.6,1.5 0.5,4.5 1.1,-2.9 1,0.3 -1.5,4.4 3.2,-2.7 0.6,1.6 -3.9,4.4 -1.3,-0.3 -0.5,-1.9 -1.3,-0.8 -1.3,1.1 -2.7,-1.8 -3.1,2.1 -1.8,2.1 -3.4,2.1 -4.7,-0.2 -0.5,-2.1 3.7,-0.6 v-1.3 l-2.3,-0.6 1,-2.4 2.3,-3.9 v-1.8 l0.2,-0.8 4.4,-2.3 1,1.3 h2.7 l-1.3,-2.6 -3.7,-0.3 -5,2.7 -2.4,3.4 -1.8,2.6 -1.1,2.3 -4.2,1.5 -3.1,2.6 -0.3,1.6 2.3,1 0.8,2.1 -2.7,3.2 -6.5,4.2 -7.8,4.2 -2.1,1.1 -5.3,1.1 -5.3,2.3 1.8,1.3 -1.5,1.5 -0.5,1.1 -2.7,-1 -3.2,0.2 -0.8,2.3 h-1 l0.3,-2.4 -3.6,1.3 -2.9,1 -3.4,-1.3 -2.9,1.9 h-3.2 l-2.1,1.3 -1.6,0.8 -2.1,-0.3 -2.6,-1.1 -2.3,0.6 -1,1 -1.6,-1.1 v-1.9 l3.1,-1.3 6.3,0.6 4.4,-1.6 2.1,-2.1 2.9,-0.6 1.8,-0.8 2.7,0.2 1.6,1.3 1,-0.3 2.3,-2.7 3.1,-1 3.4,-0.6 1.3,-0.3 0.6,0.5 h0.8 l1.3,-3.7 4,-1.5 1.9,-3.7 2.3,-4.5 1.6,-1.5 0.3,-2.6 -1.6,1.3 -3.4,0.6 -0.6,-2.4 -1.3,-0.3 -1,1 -0.2,2.9 -1.5,-0.2 -1.5,-5.8 -1.3,1.3 -1.1,-0.5 -0.3,-1.9 -4,0.2 -2.1,1.1 -2.6,-0.3 1.5,-1.5 0.5,-2.6 -0.6,-1.9 1.5,-1 1.3,-0.2 -0.6,-1.8 v-4.4 l-1,-1 -0.8,1.5 h-6.1 l-1.5,-1.3 -0.6,-3.9 -2.1,-3.6 v-1 l2.1,-0.8 0.2,-2.1 1.1,-1.1 -0.8,-0.5 -1.3,0.5 -1.1,-2.7 1,-5 4.5,-3.2 2.6,-1.6 1.9,-3.7 2.7,-1.3 2.6,1.1 0.3,2.4 2.4,-0.3 3.2,-2.4 1.6,0.6 1,0.6 h1.6 l2.3,-1.3 0.8,-4.4 c0,0 0.3,-2.9 1,-3.4 0.6,-0.5 1,-1 1,-1 l-1.1,-1.9 -2.6,0.8 -3.2,0.8 -1.9,-0.5 -3.6,-1.8 -5,-0.2 -3.6,-3.7 0.5,-3.9 0.6,-2.4 -2.1,-1.8 -1.9,-3.7 0.5,-0.8 6.8,-0.5 h2.1 l1,1 h0.6 l-0.2,-1.6 3.9,-0.6 2.6,0.3 1.5,1.1 -1.5,2.1 -0.5,1.5 2.7,1.6 5,1.8 1.8,-1 -2.3,-4.4 -1,-3.2 1,-0.8 -3.4,-1.9 -0.5,-1.1 0.5,-1.6 -0.8,-3.9 -2.9,-4.7 -2.4,-4.2 2.9,-1.9 h3.2 l1.8,0.6 4.2,-0.2 3.7,-3.6 1.1,-3.1 3.7,-2.4 1.6,1 2.7,-0.6 3.7,-2.1 1.1,-0.2 1,0.8 4.5,-0.2 2.7,-3.1 h1.1 l3.6,2.4 1.9,2.1 -0.5,1.1 0.6,1.1 1.6,-1.6 3.9,0.3 0.3,3.7 1.9,1.5 7.1,0.6 6.3,4.2 1.5,-1 5.2,2.6 2.1,-0.6 1.9,-0.8 4.8,1.9z m-115.1,28.9 2.1,5.3 -0.2,1 -2.9,-0.3 -1.8,-4 -1.8,-1.5 h-2.4 l-0.2,-2.6 1.8,-2.4 1.1,2.4 1.5,1.5z m-2.6,33.5 3.7,0.8 3.7,1 0.8,1 -1.6,3.7 -3.1,-0.2 -3.4,-3.6z m-20.7,-14.1 1.1,2.6 1.1,1.6 -1.1,0.8 -2.1,-3.1 v-1.9z m-13.7,73.1 3.4,-2.3 3.4,-1 2.6,0.3 0.5,1.6 1.9,0.5 1.9,-1.9 -0.3,-1.6 2.7,-0.6 2.9,2.6 -1.1,1.8 -4.4,1.1 -2.7,-0.5 -3.7,-1.1 -4.4,1.5 -1.6,0.3z m48.9,-4.5 1.6,1.9 2.1,-1.6 -1.5,-1.3z m2.9,3 1.1,-2.3 2.1,0.3 -0.8,1.9 h-2.4z m23.6,-1.9 1.5,1.8 1,-1.1 -0.8,-1.9z m8.8,-12.5 1.1,5.8 2.9,0.8 5,-2.9 4.4,-2.6 -1.6,-2.4 0.5,-2.4 -2.1,1.3 -2.9,-0.8 1.6,-1.1 1.9,0.8 3.9,-1.8 0.5,-1.5 -2.4,-0.8 0.8,-1.9 -2.7,1.9 -4.7,3.6 -4.8,2.9z m42.3,-19.8 2.4,-1.5 -1,-1.8 -1.8,1z" />
    <path
       id="HI"
       fill="#D3D3D3"
       d="M233.1,519.3 l1.9,-3.6 2.3,-0.3 0.3,0.8 -2.1,3.1z m10.2,-3.7 6.1,2.6 2.1,-0.3 1.6,-3.9 -0.6,-3.4 -4.2,-0.5 -4,1.8z m30.7,10 3.7,5.5 2.4,-0.3 1.1,-0.5 1.5,1.3 3.7,-0.2 1,-1.5 -2.9,-1.8 -1.9,-3.7 -2.1,-3.6 -5.8,2.9z m20.2,8.9 1.3,-1.9 4.7,1 0.6,-0.5 6.1,0.6 -0.3,1.3 -2.6,1.5 -4.4,-0.3z m5.3,5.2 1.9,3.9 3.1,-1.1 0.3,-1.6 -1.6,-2.1 -3.7,-0.3z m7,-1.2 2.3,-2.9 4.7,2.4 4.4,1.1 4.4,2.7 v1.9 l-3.6,1.8 -4.8,1 -2.4,-1.5z m16.6,15.6 1.6,-1.3 3.4,1.6 7.6,3.6 3.4,2.1 1.6,2.4 1.9,4.4 4,2.6 -0.3,1.3 -3.9,3.2 -4.2,1.5 -1.5,-0.6 -3.1,1.8 -2.4,3.2 -2.3,2.9 -1.8,-0.2 -3.6,-2.6 -0.3,-4.5 0.6,-2.4 -1.6,-5.7 -2.1,-1.8 -0.2,-2.6 2.3,-1 2.1,-3.1 0.5,-1 -1.6,-1.8z" />
    <path
       id="AL"
       fill="#D3D3D3"
       d="M628.5,466.4 l0.6,0.2 1.3,-2.7 1.5,-4.4 2.3,0.6 3.1,6 v1 l-2.7,1.9 2.7,0.3 5.2,-2.5 -0.3,-7.6 -2.5,-1.8 -2,-2 0.4,-4 10.5,-1.5 25.7,-2.9 6.7,-0.6 5.6,0.1 -0.5,-2.2 -1.5,-0.8 -0.9,-1.1 1,-2.6 -0.4,-5.2 -1.6,-4.5 0.8,-5.1 1.7,-4.8 -0.2,-1.7 -1.8,-0.7 -0.5,-3.6 -2.7,-3.4 -2,-6.5 -1.4,-6.7 -1.8,-5 -3.8,-16 -3.5,-7.9 -0.8,-5.6 0.1,-2.2 -9,0.8 -23.4,2.2 -12.2,0.8 -0.2,6.4 0.2,16.7 -0.7,31 -0.3,14.1 2.8,18.8 1.6,14.7z" />
    <path
       id="AR"
       fill="#D3D3D3"
       d="M587.3,346.1 l-6.4,-0.7 0.9,-3.1 3.1,-2.6 0.6,-2.3 -1.8,-2.9 -31.9,1.2 -23.3,0.7 -23.6,0.3 1.5,6.9 0.1,8.5 1.4,10.9 0.3,38.2 2.1,1.6 3,-1.2 2.9,1.2 0.4,10.1 25.2,-0.2 26.8,-0.8 0.9,-1.9 -0.3,-3.8 -1.7,-3.1 1.5,-1.4 -1.4,-2.2 0.7,-2.4 1.1,-5.9 2.7,-2.3 -0.8,-2.2 4,-5.6 2.5,-1.1 -0.1,-1.7 -0.5,-1.7 2.9,-5.8 2.5,-1.1 0.2,-3.3 2.1,-1.4 0.9,-4.1 -1.4,-4 4.2,-2.4 0.3,-2.1 1.2,-4.2 0.9,-3.1z" />
    <path
       id="AZ"
       fill="#D3D3D3"
       d="M135.1,389.7 l-0.3,1.5 0.5,1 18.9,10.7 12.1,7.6 14.7,8.6 16.8,10 12.3,2.4 25.4,2.7 6,-39.6 7,-53.1 4.4,-31 -24.6,-3.6 -60.7,-11 -0.2,1.1 -2.6,16.5 -2.1,3.8 -2.8,-0.2 -1.2,-2.6 -2.6,-0.4 -1.2,-1.1 -1.1,0.1 -2.1,1.7 -0.3,6.8 -0.3,1.5 -0.5,12.5 -1.5,2.4 -0.4,3.3 2.8,5 1.1,5.5 0.7,1.1 1.1,0.9 -0.4,2.4 -1.7,1.2 -3.4,1.6 -1.6,1.8 -1.6,3.6 -0.5,4.9 -3,2.9 -1.9,0.9 -0.1,5.8 -0.6,1.6 0.5,0.8 3.9,0.4 -0.9,3 -1.7,2.4 -3.7,0.4z" />
    <path
       id="CA"
       fill="#D3D3D3"
       d="M122.7,385.9 l-19.7,-2.7 -10,-1.5 -0.5,-1.8 v-9.4 l-0.3,-3.2 -2.6,-4.2 -0.8,-2.3 -3.9,-4.2 -2.9,-4.7 -2.7,-0.2 -3.2,-0.8 -0.3,-1 1.5,-0.6 -0.6,-3.2 -1.5,-2.1 -4.8,-0.8 -3.9,-2.1 -1.1,-2.3 -2.6,-4.8 -2.9,-3.1 h-2.9 l-3.9,-2.1 -4.5,-1.8 -4.2,-0.5 -2.4,-2.7 0.5,-1.9 1.8,-7.1 0.8,-1.9 v-2.4 l-1.6,-1 -0.5,-2.9 -1.5,-2.6 -3.4,-5.8 -1.3,-3.1 -1.5,-4.7 -1.6,-5.3 -3.2,-4.4 -0.5,-2.9 0.8,-3.9 h1.1 l2.1,-1.6 1.1,-3.6 -1,-2.7 -2.7,-0.5 -1.9,-2.6 -2.1,-3.7 -0.2,-8.2 0.6,-1.9 0.6,-2.3 0.5,-2.4 -5.7,-6.3 v-2.1 l0.3,-0.5 0.3,-3.2 -1.3,-4 -2.3,-4.8 -2.7,-4.5 -1.8,-3.9 1,-3.7 0.6,-5.8 1.8,-3.1 0.3,-6.5 -1.1,-3.6 -1.6,-4.2 -2.7,-4.2 0.8,-3.2 1.5,-4.2 1.8,-0.8 0.3,-1.1 3.1,-2.6 5.2,-11.8 0.2,-7.4 1.69,-4.9 38.69,11.8 25.6,6.6 -8,31.3 -8.67,33.1 12.63,19.2 42.16,62.3 17.1,26.1 -0.4,3.1 2.8,5.2 1.1,5.4 1,1.5 0.7,0.6 -0.2,1.4 -1.4,1 -3.4,1.6 -1.9,2.1 -1.7,3.9 -0.5,4.7 -2.6,2.5 -2.3,1.1 -0.1,6.2 -0.6,1.9 1,1.7 3,0.3 -0.4,1.6 -1.4,2 -3.9,0.6z m-73.9,-48.9 1.3,1.5 -0.2,1.3 -3.2,-0.1 -0.6,-1.2 -0.6,-1.5z m1.9,0 1.2,-0.6 3.6,2.1 3.1,1.2 -0.9,0.6 -4.5,-0.2 -1.6,-1.6z m20.7,19.8 1.8,2.3 0.8,1 1.5,0.6 0.6,-1.5 -1,-1.8 -2.7,-2 -1.1,0.2 v1.2z m-1.4,8.7 1.8,3.2 1.2,1.9 -1.5,0.2 -1.3,-1.2 c0,0 -0.7,-1.5 -0.7,-1.9 0,-0.4 0,-2.2 0,-2.2z" />
    <path
       id="CO"
       fill="#D3D3D3"
       d="M380.2,235.5 l-36,-3.5 -79.1,-8.6 -2.2,22.1 -7,50.4 -1.9,13.7 34,3.9 37.5,4.4 34.7,3 14.3,0.6z" />
    <path
       id="CT"
       fill="#D3D3D3"
       d="M852,190.9 l3.6,-3.2 1.9,-2.1 0.8,0.6 2.7,-1.5 5.2,-1.1 7,-3.5 -0.6,-4.2 -0.8,-4.4 -1.6,-6 -4.3,1.1 -21.8,4.7 0.6,3.1 1.5,7.3 v8.3 l-0.9,2.1 1.7,2.2z" />
    <path
       id="DE"
       fill="#D3D3D3"
       d="M834.4,247.2 l-1,0.5 -3.6,-2.4 -1.8,-4.7 -1.9,-3.6 -2.3,-1 -2.1,-3.6 0.5,-2 0.5,-2.3 0.1,-1.1 -0.6,0.1 -1.7,1 -2,1.7 -0.2,0.3 1.4,4.1 2.3,5.6 3.7,16.1 5,-0.3 6,-1.1z" />
    <path
       id="FL"
       fill="#D3D3D3"
       d="M750.2,445.2 l-5.2,-0.7 -0.7,0.8 1.5,4.4 -0.4,5.2 -4.1,-1 -0.2,-2.8 h-4.1 l-5.3,0.7 -32.4,1.9 -8.2,-0.3 -1.7,-1.7 -2.5,-4.2 h-5.9 l-6.6,0.5 -35.4,4.2 -0.3,2.8 1.6,1.6 2.9,2 0.3,8.4 3.3,-0.6 6,-2.1 6,-0.5 4.4,-0.6 7.6,1.8 8.1,3.9 1.6,1.5 2.9,1.1 1.6,1.9 0.3,2.7 3.2,-1.3 h3.9 l3.6,-1.9 3.7,-3.6 3.1,0.2 0.5,-1.1 -0.8,-1 0.2,-1.9 4,-0.8 h2.6 l2.9,1.5 4.2,1.5 2.4,3.7 2.7,1 1.1,3.4 3.4,1.6 1.6,2.6 1.9,0.6 5.2,1.3 1.3,3.1 3,3.7 v9.5 l-1.5,4.7 0.3,2.7 1.3,4.8 1.8,4 0.8,-0.5 1.5,-4.5 -2.6,-1 -0.3,-0.6 1.6,-0.6 4.5,1 0.2,1.6 -3.2,5.5 -2.1,2.4 3.6,3.7 2.6,3.1 2.9,5.3 2.9,3.9 2.1,5 1.8,0.3 1.6,-2.1 1.8,1.1 2.6,4 0.6,3.6 3.1,4.4 0.8,-1.3 3.9,0.3 3.6,2.3 3.4,5.2 0.8,3.4 0.3,2.9 1.1,1 1.3,0.5 2.4,-1 1.5,-1.6 3.9,-0.2 3.1,-1.5 2.7,-3.2 -0.5,-1.9 -0.3,-2.4 0.6,-1.9 -0.3,-1.9 2.4,-1.3 0.3,-3.4 -0.6,-1.8 -0.5,-12 -1.3,-7.6 -4.5,-8.2 -3.6,-5.8 -2.6,-5.3 -2.9,-2.9 -2.9,-7.4 0.7,-1.4 1.1,-1.3 -1.6,-2.9 -4,-3.7 -4.8,-5.5 -3.7,-6.3 -5.3,-9.4 -3.7,-9.7 -2.3,-7.3z m17.7,132.7 2.4,-0.6 1.3,-0.2 1.5,-2.3 2.3,-1.6 1.3,0.5 1.7,0.3 0.4,1.1 -3.5,1.2 -4.2,1.5 -2.3,1.2z m13.5,-5 1.2,1.1 2.7,-2.1 5.3,-4.2 3.7,-3.9 2.5,-6.6 1,-1.7 0.2,-3.4 -0.7,0.5 -1,2.8 -1.5,4.6 -3.2,5.3 -4.4,4.2 -3.4,1.9z" />
    <path
       id="GA"
       fill="#D3D3D3"
       d="M750.2,444.2 l-5.6,-0.7 -1.4,1.6 1.6,4.7 -0.3,3.9 -2.2,-0.6 -0.2,-3 h-5.2 l-5.3,0.7 -32.3,1.9 -7.7,-0.3 -1.4,-1.2 -2.5,-4.3 -0.8,-3.3 -1.6,-0.9 -0.5,-0.5 0.9,-2.2 -0.4,-5.5 -1.6,-4.5 0.8,-4.9 1.7,-4.8 -0.2,-2.5 -1.9,-0.7 -0.4,-3.2 -2.8,-3.5 -1.9,-6.2 -1.5,-7 -1.7,-4.8 -3.8,-16 -3.5,-8 -0.8,-5.3 0.1,-2.3 3.3,-0.3 13.6,-1.6 18.6,-2 6.3,-1.1 0.5,1.4 -2.2,0.9 -0.9,2.2 0.4,2 1.4,1.6 4.3,2.7 3.2,-0.1 3.2,4.7 0.6,1.6 2.3,2.8 0.5,1.7 4.7,1.8 3,2.2 2.3,3 2.3,1.3 2,1.8 1.4,2.7 2.1,1.9 4.1,1.8 2.7,6 1.7,5.1 2.8,0.7 2.1,1.9 2,5.7 2.9,1.6 1.7,-0.8 0.4,1.2 -3.3,6.2 0.5,2.6 -1.5,4.2 -2.3,10 0.8,6.3z" />
    <path
       id="IA"
       fill="#D3D3D3"
       d="M556.8,183.6 l2.1,2.1 0.3,0.7 -2,3 0.3,4 2.6,4.1 3.1,1.6 2.4,0.3 0.9,1.8 0.2,2.4 2.5,1 0.9,1.1 0.5,1.6 3.8,3.3 0.6,1.9 -0.7,3 -1.7,3.7 -0.6,2.4 -2.1,1.6 -1.6,0.5 -5.7,1.5 -1.6,4.8 0.8,1.8 1.7,1.5 -0.2,3.5 -1.9,1.4 -0.7,1.8 v2.4 l-1.4,0.4 -1.7,1.4 -0.5,1.7 0.4,1.7 -1.3,1 -2.3,-2.7 -1.4,-2.8 -8.3,0.8 -10,0.6 -49.2,1.2 -1.6,-4.3 -0.4,-6.7 -1.4,-4.2 -0.7,-5.2 -2.2,-3.7 -1,-4.6 -2.7,-7.8 -1.1,-5.6 -1.4,-1.9 -1.3,-2.9 1.7,-3.8 1.2,-6.1 -2.7,-2.2 -0.3,-2.4 0.7,-2.4 1.8,-0.3 61.1,-0.6 21.2,-0.7z" />
    <path
       id="ID"
       fill="#D3D3D3"
       d="M175.3,27.63 l-4.8,17.41 -4.5,20.86 -3.4,16.22 -0.4,9.67 1.2,4.44 3.5,2.66 -0.2,3.91 -3.9,4.4 -4.5,6.6 -0.9,2.9 -1.2,1.1 -1.8,0.8 -4.3,5.3 -0.4,3.1 -0.4,1.1 0.6,1 2.6,-0.1 1.1,2.3 -2.4,5.8 -1.2,4.2 -8.8,35.3 20.7,4.5 39.5,7.9 34.8,6.1 4.9,-29.2 3.8,-24.1 -2.7,-2.4 -0.4,-2.6 -0.8,-1.1 -2.1,1 -0.7,2.6 -3.2,0.5 -3.9,-1.6 -3.8,0.1 -2.5,0.7 -3.4,-1.5 -2.4,0.2 -2.4,2 -2,-1.1 -0.7,-4 0.7,-2.9 -2.5,-2.9 -3.3,-2.6 -2.7,-13.1 -0.1,-4.7 -0.3,-0.1 -0.2,0.4 -5.1,3.5 -1.7,-0.2 -2.9,-3.4 -0.2,-3.1 7,-17.13 -0.4,-1.94 -3.4,-1.15 -0.6,-1.18 -2.6,-3.46 -4.6,-10.23 -3.2,-1.53 -2,-4.95 1.3,-4.63 -3.2,-7.58 4.4,-21.52z" />
    <path
       id="IL"
       fill="#D3D3D3"
       d="M618.7,214.3 l-0.8,-2.6 -1.3,-3.7 -1.6,-1.8 -1.5,-2.6 -0.4,-5.5 -15.9,1.8 -17.4,1 h-12.3 l0.2,2.1 2.2,0.9 1.1,1.4 0.4,1.4 3.9,3.4 0.7,2.4 -0.7,3.3 -1.7,3.7 -0.8,2.7 -2.4,1.9 -1.9,0.6 -5.2,1.3 -1.3,4.1 0.6,1.1 1.9,1.8 -0.2,4.3 -2.1,1.6 -0.5,1.3 v2.8 l-1.8,0.6 -1.4,1.2 -0.4,1.2 0.4,2 -1.6,1.3 -0.9,2.8 0.3,3.9 2.3,7 7,7.6 5.7,3.7 v4.4 l0.7,1.2 6.6,0.6 2.7,1.4 -0.7,3.5 -2.2,6.2 -0.8,3 2,3.7 6.4,5.3 4.8,0.8 2.2,5.1 2,3.4 -0.9,2.8 1.5,3.8 1.7,2.1 1.6,-0.3 1,-2.2 2.4,-1.7 2.8,-1 6.1,2.5 0.5,-0.2 v-1.1 l-1.2,-2.7 0.4,-2.8 2.4,-1.6 3.4,-1.2 -0.5,-1.3 -0.8,-2 1.2,-1.3 1,-2.7 v-4 l0.4,-4.9 2.5,-3 1.8,-3.8 2.5,-4 -0.5,-5.3 -1.8,-3.2 -0.3,-3.3 0.8,-5.3 -0.7,-7.2 -1.1,-15.8 -1.4,-15.3 -0.9,-11.7z" />
    <path
       id="IN"
       fill="#D3D3D3"
       d="M622.9,216.1 l1.5,1 1.1,-0.3 2.1,-1.9 2.5,-1.8 14.3,-1.1 18.4,-1.8 1.6,15.5 4.9,42.6 -0.6,2.9 1.3,1.6 0.2,1.3 -2.3,1.6 -3.6,1.7 -3.2,0.4 -0.5,4.8 -4.7,3.6 -2.9,4 0.2,2.4 -0.5,1.4 h-3.5 l-1.4,-1.7 -5.2,3 0.2,3.1 -0.9,0.2 -0.5,-0.9 -2.4,-1.7 -3.6,1.5 -1.4,2.9 -1.2,-0.6 -1.6,-1.8 -4.4,0.5 -5.7,1 -2.5,1.3 v-2.6 l0.4,-4.7 2.3,-2.9 1.8,-3.9 2.7,-4.2 -0.5,-5.8 -1.8,-3.1 -0.3,-3.2 0.8,-5.3 -0.7,-7.1 -0.9,-12.6 -2.5,-30.1z" />
    <path
       id="KS"
       fill="#D3D3D3"
       d="M485.9,259.5 l-43.8,-0.6 -40.6,-1.2 -21.7,-0.9 -4.3,64.8 24.3,1 44.7,2.1 46.3,0.6 12.6,-0.3 0.7,-35 -1.2,-11.1 -2.5,-2 -2.4,-3 -2.3,-3.6 0.6,-3 1.7,-1.4 v-2.1 l-0.8,-0.7 -2.6,-0.2 -3.5,-3.4z" />
    <path
       id="KY"
       fill="#D3D3D3"
       d="M607.2,331.8 l12.6,-0.7 0.1,-4.1 h4.3 l30.4,-3.2 45.1,-4.3 5.6,-3.6 3.9,-2.1 0.1,-1.9 6,-7.8 4.1,-3.6 2.1,-2.4 -3.3,-2 -2.5,-2.7 -3,-3.8 -0.5,-2.2 -2.6,-1.4 -0.9,-1.9 -0.2,-6.1 -2.6,-2 -1.9,-1.1 -0.5,-2.3 -1.3,0.2 -2,1.2 -2.5,2.7 -1.9,-1.7 -2.5,-0.5 -2.4,1.4 h-2.3 l-1.8,-2 -5.6,-0.1 -1.8,-4.5 -2.9,-1.5 -2.1,0.8 -4.2,0.2 -0.5,2.1 1.2,1.5 0.3,2.1 -2.8,2 -3.8,1.8 -2.6,0.4 -0.5,4.5 -4.9,3.6 -2.6,3.7 0.2,2.2 -0.9,2.3 -4.5,-0.1 -1.3,-1.3 -3.9,2.2 0.2,3.3 -2.4,0.6 -0.8,-1.4 -1.7,-1.2 -2.7,1.1 -1.8,3.5 -2.2,-1 -1.4,-1.6 -3.7,0.4 -5.6,1 -2.8,1.3 -1.2,3.4 -1,1 1.5,3.7 -4.2,1.4 -1.9,1.4 -0.4,2.2 1.2,2.4 v2.2 l-1.6,0.4 -6.1,-2.5 -2.3,0.9 -2,1.4 -0.8,1.8 1.7,2.4 -0.9,1.8 -0.1,3.3 -2.4,1.3 -2.1,1.7z" />
    <path
       id="LA"
       fill="#D3D3D3"
       d="M526.9,485.9 l8.1,-0.3 10.3,3.6 6.5,1.1 3.7,-1.5 3.2,1.1 3.2,1 0.8,-2.1 -3.2,-1.1 -2.6,0.5 -2.7,-1.6 0.8,-1.5 3.1,-1 1.8,1.5 1.8,-1 3.2,0.6 1.5,2.4 0.3,2.3 4.5,0.3 1.8,1.8 -0.8,1.6 -1.3,0.8 1.6,1.6 8.4,3.6 3.6,-1.3 1,-2.4 2.6,-0.6 1.8,-1.5 1.3,1 0.8,2.9 -2.3,0.8 0.6,0.6 3.4,-1.3 2.3,-3.4 0.8,-0.5 -2.1,-0.3 0.8,-1.6 -0.2,-1.5 2.1,-0.5 1.1,-1.3 0.6,0.8 0.6,3.1 4.2,0.6 4,1.9 1,1.5 h2.9 l1.1,1 2.3,-3.1 v-1.5 h-1.3 l-3.4,-2.7 -5.8,-0.8 -3.2,-2.3 1.1,-2.7 2.3,0.3 0.2,-0.6 -1.8,-1 v-0.5 h3.2 l1.8,-3.1 -1.3,-1.9 -0.3,-2.7 -1.5,0.2 -1.9,2.1 -0.6,2.6 -3.1,-0.6 -1,-1.8 1.8,-1.9 1.9,-1.7 -2.2,-6.5 -3.4,-3.4 1,-7.3 -0.2,-0.5 -1.3,0.2 -33.1,1.4 -0.8,-2.4 0.8,-8.5 8.6,-14.8 -0.9,-2.6 1.4,-0.4 0.4,-2 -2.2,-2 0.1,-1.9 -2,-4.5 -0.4,-5.1 0.1,-0.7 -26.4,0.8 -25.2,0.1 0.4,9.7 0.7,9.5 0.5,3.7 2.6,4.5 0.9,4.4 4.3,6 0.3,3.1 0.6,0.8 -0.7,8.3 -2.8,4.6 1.2,2.4 -0.5,2.6 -0.8,7.3 -1.3,3 0.2,3.7z" />
    <path
       id="MA"
       fill="#D3D3D3"
       d="M887.5,172.5 l-0.5,-2.3 0.8,-1.5 2.9,-1.5 0.8,3.1 -0.5,1.8 -2.4,1.5 v1 l1.9,-1.5 3.9,-4.5 3.9,-1.9 4.2,-1.5 -0.3,-2.4 -1,-2.9 -1.9,-2.4 -1.8,-0.8 -2.1,0.2 -0.5,0.5 1,1.3 1.5,-0.8 2.1,1.6 0.8,2.7 -1.8,1.8 -2.3,1 -3.6,-0.5 -3.9,-6 -2.3,-2.6 h-1.8 l-1.1,0.8 -1.9,-2.6 0.3,-1.5 2.4,-5.2 -2.9,-4.4 -3.7,1.8 -1.8,2.9 -18.3,4.7 -13.8,2.5 -0.6,10.6 0.7,4.9 22,-4.8 11.2,-2.8 2,1.6 3.4,4.3 2.9,4.7z m12.5,1.4 2.2,-0.7 0.5,-1.7 1,0.1 1,2.3 -1.3,0.5 -3.9,0.1z m-9.4,0.8 2.3,-2.6 h1.6 l1.8,1.5 -2.4,1 -2.2,1z" />
    <path
       id="MD"
       fill="#D3D3D3"
       d="M834.8,264.1 l1.7,-3.8 0.5,-4.8 -6.3,1.1 -5.8,0.3 -3.8,-16.8 -2.3,-5.5 -1.5,-4.6 -22.2,4.3 -37.6,7.6 2,10.4 4.8,-4.9 2.5,-0.7 1.4,-1.5 1.8,-2.7 1.6,0.7 2.6,-0.2 2.6,-2.1 2,-1.5 2.1,-0.6 1.5,1.1 2.7,1.4 1.9,1.8 1.3,1.4 4.8,1.6 -0.6,2.9 5.8,2.1 2.1,-2.6 3.7,2.5 -2.1,3.3 -0.7,3.3 -1.8,2.6 v2.1 l0.3,0.8 2,1.3 3.4,1.1 4.3,-0.1 3.1,1 2.1,0.3 1,-2.1 -1.5,-2.1 v-1.8 l-2.4,-2.1 -2.1,-5.5 1.3,-5.3 -0.2,-2.1 -1.3,-1.3 c0,0 1.5,-1.6 1.5,-2.3 0,-0.6 0.5,-2.1 0.5,-2.1 l1.9,-1.3 1.9,-1.6 0.5,1 -1.5,1.6 -1.3,3.7 0.3,1.1 1.8,0.3 0.5,5.5 -2.1,1 0.3,3.6 0.5,-0.2 1.1,-1.9 1.6,1.8 -1.6,1.3 -0.3,3.4 2.6,3.4 3.9,0.5 1.6,-0.8 3.2,4.2 1,0.4z m-14.5,0.2 1.1,2.5 0.2,1.8 1.1,1.9 c0,0 0.9,-0.9 0.9,-1.2 0,-0.3 -0.7,-3.1 -0.7,-3.1 l-0.7,-2.3z" />
    <path
       id="ME"
       fill="#D3D3D3"
       d="M865.8,91.9 l1.5,0.4 v-2.6 l0.8,-5.5 2.6,-4.7 1.5,-4 -1.9,-2.4 v-6 l0.8,-1 0.8,-2.7 -0.2,-1.5 -0.2,-4.8 1.8,-4.8 2.9,-8.9 2.1,-4.2 h1.3 l1.3,0.2 v1.1 l1.3,2.3 2.7,0.6 0.8,-0.8 v-1 l4,-2.9 1.8,-1.8 1.5,0.2 6,2.4 1.9,1 9.1,29.9 h6 l0.8,1.9 0.2,4.8 2.9,2.3 h0.8 l0.2,-0.5 -0.5,-1.1 2.8,-0.5 1.9,2.1 2.3,3.7 v1.9 l-2.1,4.7 -1.9,0.6 -3.4,3.1 -4.8,5.5 c0,0 -0.6,0 -1.3,0 -0.6,0 -1,-2.1 -1,-2.1 l-1.8,0.2 -1,1.5 -2.4,1.5 -1,1.5 1.6,1.5 -0.5,0.6 -0.5,2.7 -1.9,-0.2 v-1.6 l-0.3,-1.3 -1.5,0.3 -1.8,-3.2 -2.1,1.3 1.3,1.5 0.3,1.1 -0.8,1.3 0.3,3.1 0.2,1.6 -1.6,2.6 -2.9,0.5 -0.3,2.9 -5.3,3.1 -1.3,0.5 -1.6,-1.5 -3.1,3.6 1,3.2 -1.5,1.3 -0.2,4.4 -1.1,6.3 -2.2,-0.9 -0.5,-3.1 -4,-1.1 -0.2,-2.5 -11.7,-37.43z m36.5,15.6 1.5,-1.5 1.4,1.1 0.6,2.4 -1.7,0.9z m6.7,-5.9 1.8,1.9 c0,0 1.3,0.1 1.3,-0.2 0,-0.3 0.2,-2 0.2,-2 l0.9,-0.8 -0.8,-1.8 -2,0.7z" />
    <path
       id="MI"
       fill="#D3D3D3"
       d="M644.5,211 l19.1,-1.9 0.2,1.1 9.9,-1.5 12,-1.7 0.1,-0.6 0.2,-1.5 2.1,-3.7 2,-1.7 -0.2,-5.1 1.6,-1.6 1.1,-0.3 0.2,-3.6 1.5,-3 1.1,0.6 0.2,0.6 0.8,0.2 1.9,-1 -0.4,-9.1 -3.2,-8.2 -2.3,-9.1 -2.4,-3.2 -2.6,-1.8 -1.6,1.1 -3.9,1.8 -1.9,5 -2.7,3.7 -1.1,0.6 -1.5,-0.6 c0,0 -2.6,-1.5 -2.4,-2.1 0.2,-0.6 0.5,-5 0.5,-5 l3.4,-1.3 0.8,-3.4 0.6,-2.6 2.4,-1.6 -0.3,-10 -1.6,-2.3 -1.3,-0.8 -0.8,-2.1 0.8,-0.8 1.6,0.3 0.2,-1.6 -2.6,-2.2 -1.3,-2.6 h-2.6 l-4.5,-1.5 -5.5,-3.4 h-2.7 l-0.6,0.6 -1,-0.5 -3.1,-2.3 -2.9,1.8 -2.9,2.3 0.3,3.6 1,0.3 2.1,0.5 0.5,0.8 -2.6,0.8 -2.6,0.3 -1.5,1.8 -0.3,2.1 0.3,1.6 0.3,5.5 -3.6,2.1 -0.6,-0.2 v-4.2 l1.3,-2.4 0.6,-2.4 -0.8,-0.8 -1.9,0.8 -1,4.2 -2.7,1.1 -1.8,1.9 -0.2,1 0.6,0.8 -0.6,2.6 -2.3,0.5 v1.1 l0.8,2.4 -1.1,6.1 -1.6,4 0.6,4.7 0.5,1.1 -0.8,2.4 -0.3,0.8 -0.3,2.7 3.6,6 2.9,6.5 1.5,4.8 -0.8,4.7 -1,6 -2.4,5.2 -0.3,2.7 -3.2,3.1z m-33.3,-72.4 -1.3,-1.1 -1.8,-10.4 -3.7,-1.3 -1.7,-2.3 -12.6,-2.8 -2.8,-1.1 -8.1,-2.2 -7.8,-1 -3.9,-5.3 0.7,-0.5 2.7,-0.8 3.6,-2.3 v-1 l0.6,-0.6 6,-1 2.4,-1.9 4.4,-2.1 0.2,-1.3 1.9,-2.9 1.8,-0.8 1.3,-1.8 2.3,-2.3 4.4,-2.4 4.7,-0.5 1.1,1.1 -0.3,1 -3.7,1 -1.5,3.1 -2.3,0.8 -0.5,2.4 -2.4,3.2 -0.3,2.6 0.8,0.5 1,-1.1 3.6,-2.9 1.3,1.3 h2.3 l3.2,1 1.5,1.1 1.5,3.1 2.7,2.7 3.9,-0.2 1.5,-1 1.6,1.3 1.6,0.5 1.3,-0.8 h1.1 l1.6,-1 4,-3.6 3.4,-1.1 6.6,-0.3 4.5,-1.9 2.6,-1.3 1.5,0.2 v5.7 l0.5,0.3 2.9,0.8 1.9,-0.5 6.1,-1.6 1.1,-1.1 1.5,0.5 v7 l3.2,3.1 1.3,0.6 1.3,1 -1.3,0.3 -0.8,-0.3 -3.7,-0.5 -2.1,0.6 -2.3,-0.2 -3.2,1.5 h-1.8 l-5.8,-1.3 -5.2,0.2 -1.9,2.6 -7,0.6 -2.4,0.8 -1.1,3.1 -1.3,1.1 -0.5,-0.2 -1.5,-1.6 -4.5,2.4 h-0.6 l-1.1,-1.6 -0.8,0.2 -1.9,4.4 -1,4 -3.2,6.9z m-29.6,-56.5 1.8,-2.1 2.2,-0.8 5.4,-3.9 2.3,-0.6 0.5,0.5 -5.1,5.1 -3.3,1.9 -2.1,0.9z m86.2,32.1 0.6,2.5 3.2,0.2 1.3,-1.2 c0,0 -0.1,-1.5 -0.4,-1.6 -0.3,-0.2 -1.6,-1.9 -1.6,-1.9 l-2.2,0.2 -1.6,0.2 -0.3,1.1z" />
    <path
       id="MN"
       fill="#D3D3D3"
       d="M464.6,66.79 l-0.6,3.91 v10.27 l1.6,5.03 1.9,3.32 0.5,9.93 1.8,13.45 1.8,7.3 0.4,6.4 v5.3 l-1.6,1.8 -1.8,1.3 v1.5 l0.9,1.7 4.1,3.5 0.7,3.2 v35.9 l60.3,-0.6 21.2,-0.7 -0.5,-6 -1.8,-2.1 -7.2,-4.6 -3.6,-5.3 -3.4,-0.9 -2,-2.8 h-3.2 l-3.5,-3.8 -0.5,-7 0.1,-3.9 1.5,-3 -0.7,-2.7 -2.8,-3.1 2.2,-6.1 5.4,-4 1.2,-1.4 -0.2,-8 0.2,-3 2.6,-3 3.8,-2.9 1.3,-0.2 4.5,-5 1.8,-0.8 2.3,-3.9 2.4,-3.6 3.1,-2.6 4.8,-2 9.2,-4.1 3.9,-1.8 0.6,-2.3 -4.4,0.4 -0.7,1.1 h-0.6 l-1.8,-3.1 -8.9,0.3 -1,0.8 h-1 l-0.5,-1.3 -0.8,-1.8 -2.6,0.5 -3.2,3.2 -1.6,0.8 h-3.1 l-2.6,-1 v-2.1 l-1.3,-0.2 -0.5,0.5 -2.6,-1.3 -0.5,-2.9 -1.5,0.5 -0.5,1 -2.4,-0.5 -5.3,-2.4 -3.9,-2.6 h-2.9 l-1.3,-1 -2.3,0.6 -1.1,1.1 -0.3,1.3 h-4.8 v-2.1 l-6.3,-0.3 -0.3,-1.5 h-4.8 l-1.6,-1.6 -1.5,-6.1 -0.8,-5.5 -1.9,-0.8 -2.3,-0.5 -0.6,0.2 -0.3,8.2 -30.1,-0.03z" />
    <path
       id="MO"
       fill="#D3D3D3"
       d="M593.1,338.7 l0.5,-5.9 4.2,-3.4 1.9,-1 v-2.9 l0.7,-1.6 -1.1,-1.6 -2.4,0.3 -2.1,-2.5 -1.7,-4.5 0.9,-2.6 -2,-3.2 -1.8,-4.6 -4.6,-0.7 -6.8,-5.6 -2.2,-4.2 0.8,-3.3 2.2,-6 0.6,-3 -1.9,-1 -6.9,-0.6 -1.1,-1.9 v-4.1 l-5.3,-3.5 -7.2,-7.8 -2.3,-7.3 -0.5,-4.2 0.7,-2.4 -2.6,-3.1 -1.2,-2.4 -7.7,0.8 -10,0.6 -48.8,1.2 1.3,2.6 -0.1,2.2 2.3,3.6 3,3.9 3.1,3 2.6,0.2 1.4,1.1 v2.9 l-1.8,1.6 -0.5,2.3 2.1,3.2 2.4,3 2.6,2.1 1.3,11.6 -0.8,40 0.5,5.7 23.7,-0.2 23.3,-0.7 32.5,-1.3 2.2,3.7 -0.8,3.1 -3.1,2.5 -0.5,1.8 5.2,0.5 4.1,-1.1z" />
    <path
       id="MS"
       fill="#D3D3D3"
       d="M604.3,472.5 l2.6,-4.2 1.8,0.8 6.8,-1.9 2.1,0.3 1.5,0.8 h5.2 l0.4,-1.6 -1.7,-14.8 -2.8,-19 1,-45.1 -0.2,-16.7 0.2,-6.3 -4.8,0.3 -19.6,1.6 -13,0.4 -0.2,3.2 -2.8,1.3 -2.6,5.1 0.5,1.6 0.1,2.4 -2.9,1.1 -3.5,5.1 0.8,2.3 -3,2.5 -1,5.7 -0.6,1.9 1.6,2.5 -1.5,1.4 1.5,2.8 0.3,4.2 -1.2,2.5 -0.2,0.9 0.4,5 2,4.5 -0.1,1.7 2.3,2 -0.7,3.1 -0.9,0.3 0.6,1.9 -8.6,15 -0.8,8.2 0.5,1.5 24.2,-0.7 8.2,-0.7 1.9,-0.3 0.6,1.4 -1,7.1 3.3,3.3 2.2,6.4z" />
    <path
       id="MT"
       fill="#D3D3D3"
       d="M361.1,70.77 l-5.3,57.13 -1.3,15.2 -59.1,-6.6 -49,-7.1 -1.4,11.2 -1.9,-1.7 -0.4,-2.5 -1.3,-1.9 -3.3,1.5 -0.7,2.5 -2.3,0.3 -3.8,-1.6 -4.1,0.1 -2.4,0.7 -3.2,-1.5 -3,0.2 -2.1,1.9 -0.9,-0.6 -0.7,-3.4 0.7,-3.2 -2.7,-3.2 -3.3,-2.5 -2.5,-12.6 -0.1,-5.3 -1.6,-0.8 -0.6,1 -4.5,3.2 -1.2,-0.1 -2.3,-2.8 -0.2,-2.8 7,-17.15 -0.6,-2.67 -3.5,-1.12 -0.4,-0.91 -2.7,-3.5 -4.6,-10.41 -3.2,-1.58 -1.8,-4.26 1.3,-4.63 -3.2,-7.57 4.4,-21.29 32.7,6.89 18.4,3.4 32.3,5.3 29.3,4 29.2,3.5 30.8,3.07z" />
    <path
       id="NC"
       fill="#D3D3D3"
       d="M786.7,357.7 l-12.7,-7.7 -3.1,-0.8 -16.6,2.1 -1.6,-3 -2.8,-2.2 -16.7,0.5 -7.4,0.9 -9.2,4.5 -6.8,2.7 -6.5,1.2 -13.4,1.4 0.1,-4.1 1.7,-1.3 2.7,-0.7 0.7,-3.8 3.9,-2.5 3.9,-1.5 4.5,-3.7 4.4,-2.3 0.7,-3.2 4.1,-3.8 0.7,1 2.5,0.2 2.4,-3.6 1.7,-0.4 2.6,0.3 1.8,-4 2.5,-2.4 0.5,-1.8 0.1,-3.5 4.4,0.1 38.5,-5.6 57.5,-12.3 2,4.8 3.6,6.5 2.4,2.4 0.6,2.3 -2.4,0.2 0.8,0.6 -0.3,4.2 -2.6,1.3 -0.6,2.1 -1.3,2.9 -3.7,1.6 -2.4,-0.3 -1.5,-0.2 -1.6,-1.3 0.3,1.3 v1 h1.9 l0.8,1.3 -1.9,6.3 h4.2 l0.6,1.6 2.3,-2.3 1.3,-0.5 -1.9,3.6 -3.1,4.8 h-1.3 l-1.1,-0.5 -2.7,0.6 -5.2,2.4 -6.5,5.3 -3.4,4.7 -1.9,6.5 -0.5,2.4 -4.7,0.5 -5.1,1.5z m49.3,-26.2 2.6,-2.5 3.2,-2.6 1.5,-0.6 0.2,-2 -0.6,-6.1 -1.5,-2.3 -0.6,-1.9 0.7,-0.2 2.7,5.5 0.4,4.4 -0.2,3.4 -3.4,1.5 -2.8,2.4 -1.1,1.2z" />
    <path
       id="ND"
       fill="#D3D3D3"
       d="M471,126.4 l-0.4,-6.2 -1.8,-7.3 -1.8,-13.61 -0.5,-9.7 -1.9,-3.18 -1.6,-5.32 v-10.41 l0.6,-3.85 -1.8,-5.54 -28.6,-0.59 -18.6,-0.6 -26.5,-1.3 -25.2,-2.16 -0.9,14.42 -4.7,50.94 56.8,3.9 56.9,1.7z" />
    <path
       id="NE"
       fill="#D3D3D3"
       d="M470.3,204.3 l-1,-2.3 -0.5,-1.6 -2.9,-1.6 -4.8,-1.5 -2.2,-1.2 -2.6,0.1 -3.7,0.4 -4.2,1.2 -6,-4.1 -2.2,-2 -10.7,0.6 -41.5,-2.4 -35.6,-2.2 -4.3,43.7 33.1,3.3 -1.4,21.1 21.7,1 40.6,1.2 43.8,0.6 h4.5 l-2.2,-3 -2.6,-3.9 0.1,-2.3 -1.4,-2.7 -1.9,-5.2 -0.4,-6.7 -1.4,-4.1 -0.5,-5 -2.3,-3.7 -1,-4.7 -2.8,-7.9 -1,-5.3z" />
    <path
       id="NH"
       fill="#D3D3D3"
       d="M881.7,141.3 l1.1,-3.2 -2.7,-1.2 -0.5,-3.1 -4.1,-1.1 -0.3,-3 -11.7,-37.48 -0.7,0.08 -0.6,1.6 -0.6,-0.5 -1,-1 -1.5,1.9 -0.2,2.29 0.5,8.41 1.9,2.8 v4.3 l-3.9,4.8 -2.4,0.9 v0.7 l1.1,1.9 v8.6 l-0.8,9.2 -0.2,4.7 1,1.4 -0.2,4.7 -0.5,1.5 1,1.1 5.1,-1.2 13.8,-3.5 1.7,-2.9 4,-1.9z" />
    <path
       id="NJ"
       fill="#D3D3D3"
       d="M823.7,228.3 l0.1,-1.5 2.7,-1.3 1.7,-2.8 1.7,-2.4 3.3,-3.2 v-1.2 l-6.1,-4.1 -1,-2.7 -2.7,-0.3 -0.1,-0.9 -0.7,-2.2 2.2,-1.1 0.2,-2.9 -1.3,-1.3 0.2,-1.2 1.9,-3.1 v-3.1 l2.5,-3.1 5.6,2.5 6.4,1.9 2.5,1.2 0.1,1.8 -0.5,2.7 0.4,4.5 -2.1,1.9 -1.1,1 0.5,0.5 2.7,-0.3 1.1,-0.8 1.6,3.4 0.2,9.4 0.6,1.1 -1.1,5.5 -3.1,6.5 -2.7,4 -0.8,4.8 -2.1,2.4 h-0.8 l-0.3,-2.7 0.8,-1 -0.2,-1.5 -4,-0.6 -4.8,-2.3 -3.2,-2.9 -1,-2z" />
    <path
       id="NM"
       fill="#D3D3D3"
       d="M270.2,429.4 l-16.7,-2.6 -1.2,9.6 -15.8,-2 6,-39.7 7,-53.2 4.4,-30.9 34,3.9 37.4,4.4 32,2.8 -0.3,10.8 -1.4,-0.1 -7.4,97.7 -28.4,-1.8 -38.1,-3.7 0.7,6.3z" />
    <path
       id="NV"
       fill="#D3D3D3"
       d="M123.1,173.6 l38.7,8.5 26,5.2 -10.6,53.1 -5.4,29.8 -3.3,15.5 -2.1,11.1 -2.6,16.4 -1.7,3.1 -1.6,-0.1 -1.2,-2.6 -2.8,-0.5 -1.3,-1.1 -1.8,0.1 -0.9,0.8 -1.8,1.3 -0.3,7.3 -0.3,1.5 -0.5,12.4 -1.1,1.8 -16.7,-25.5 -42.1,-62.1 -12.43,-19 8.55,-32.6 8.01,-31.3z" />
    <path
       id="NY"
       fill="#D3D3D3"
       d="M843.4,200 l0.5,-2.7 -0.2,-2.4 -3,-1.5 -6.5,-2 -6,-2.6 -0.6,-0.4 -2.7,-0.3 -2,-1.5 -2.1,-5.9 -3.3,-0.5 -2.4,-2.4 -38.4,8.1 -31.6,6 -0.5,-6.5 1.6,-1.2 1.3,-1.1 1,-1.6 1.8,-1.1 1.9,-1.8 0.5,-1.6 2.1,-2.7 1.1,-1 -0.2,-1 -1.3,-3.1 -1.8,-0.2 -1.9,-6.1 2.9,-1.8 4.4,-1.5 4,-1.3 3.2,-0.5 6.3,-0.2 1.9,1.3 1.6,0.2 2.1,-1.3 2.6,-1.1 5.2,-0.5 2.1,-1.8 1.8,-3.2 1.6,-1.9 h2.1 l1.9,-1.1 0.2,-2.3 -1.5,-2.1 -0.3,-1.5 1.1,-2.1 v-1.5 h-1.8 l-1.8,-0.8 -0.8,-1.1 -0.2,-2.6 5.8,-5.5 0.6,-0.8 1.5,-2.9 2.9,-4.5 2.7,-3.7 2.1,-2.4 2.4,-1.8 3.1,-1.2 5.5,-1.3 3.2,0.2 4.5,-1.5 7.4,-2.2 0.7,4.9 2.4,6.5 0.8,5 -1,4.2 2.6,4.5 0.8,2 -0.9,3.2 3.7,1.7 2.7,10.2 v5.8 l-0.6,10.9 0.8,5.4 0.7,3.6 1.5,7.3 v8.1 l-1.1,2.3 2.1,2.7 0.5,0.9 -1.9,1.8 0.3,1.3 1.3,-0.3 1.5,-1.3 2.3,-2.6 1.1,-0.6 1.6,0.6 2.3,0.2 7.9,-3.9 2.9,-2.7 1.3,-1.5 4.2,1.6 -3.4,3.6 -3.9,2.9 -7.1,5.3 -2.6,1 -5.8,1.9 -4,1.1 -1,-0.4z" />
    <path
       id="OH"
       fill="#D3D3D3"
       d="M663.8,211.2 l1.7,15.5 4.8,41.1 3.9,-0.2 2.3,-0.8 3.6,1.8 1.7,4.2 5.4,0.1 1.8,2 h1.7 l2.4,-1.4 3.1,0.5 1.5,1.3 1.8,-2 2.3,-1.4 2.4,-0.4 0.6,2.7 1.6,1 2.6,2 0.8,0.2 2,-0.1 1.2,-0.6 v-2.1 l1.7,-1.5 0.1,-4.8 1.1,-4.2 1.9,-1.3 1,0.7 1,1.1 0.7,0.2 0.4,-0.4 -0.9,-2.7 v-2.2 l1.1,-1.4 2.5,-3.6 1.3,-1.5 2.2,0.5 2.1,-1.5 3,-3.3 2.2,-3.7 0.2,-5.4 0.5,-5 v-4.6 l-1.2,-3.2 1.2,-1.8 1.3,-1.2 -0.6,-2.8 -4.3,-25.6 -6.2,3.7 -3.9,2.3 -3.4,3.7 -4,3.9 -3.2,0.8 -2.9,0.5 -5.5,2.6 -2.1,0.2 -3.4,-3.1 -5.2,0.6 -2.6,-1.5 -2.2,-1.3z" />
    <path
       id="OK"
       fill="#D3D3D3"
       d="M411.9,334.9 l-1.8,24.3 -0.9,18 0.2,1.6 4,3.6 1.7,0.9 h0.9 l0.9,-2.1 1.5,1.9 1.6,0.1 0.3,-0.2 0.2,-1.1 2.8,1.4 -0.4,3.5 3.8,0.5 2.5,1 4.2,0.6 2.3,1.6 2.5,-1.7 3.5,0.7 2.2,3.1 1.2,0.1 v2.3 l2.1,0.7 2.5,-2.1 1.8,0.6 2.7,0.1 0.7,2.3 4.4,1.8 1.7,-0.3 1.9,-4.2 h1.3 l1.1,2.1 4.2,0.8 3.4,1.3 3,0.8 1.6,-0.7 0.7,-2.7 h4.5 l1.9,0.9 2.7,-1.9 h1.4 l0.6,1.4 h3.6 l2,-1.8 2.3,0.6 1.7,2.2 3,1.7 3.4,0.9 1.9,1.2 -0.3,-37.6 -1.4,-10.9 -0.1,-8.6 -1.5,-6.6 -0.6,-6.8 0.1,-4.3 -12.6,0.3 -46.3,-0.5 -44.7,-2.1 -41.5,-1.8 -0.4,10.7z" />
    <path
       id="OR"
       fill="#D3D3D3"
       d="M67.44,158.9 l28.24,7.2 27.52,6.5 17,3.7 8.8,-35.1 1.2,-4.4 2.4,-5.5 -0.7,-1.3 -2.5,0.1 -1.3,-1.8 0.6,-1.5 0.4,-3.3 4.7,-5.7 1.9,-0.9 0.9,-0.8 0.7,-2.7 0.8,-1.1 3.9,-5.7 3.7,-4 0.2,-3.26 -3.4,-2.49 -1.2,-4.55 -13.1,-3.83 -15.3,-3.47 -14.8,0.37 -1.1,-1.31 -5.1,1.84 -4.5,-0.48 -2.4,-1.58 -1.3,0.54 -4.68,-0.29 -1.96,-1.43 -4.84,-1.77 -1.1,-0.07 -4.45,-1.27 -1.76,1.52 -6.26,-0.24 -5.31,-3.85 0.21,-9.28 -2.05,-3.5 -4.1,-0.6 -0.7,-2.5 -2.4,-0.5 -5.8,2.1 -2.3,6.5 -3.2,10 -3.2,6.5 -5,14.1 -6.5,13.6 -8.1,12.6 -1.9,2.9 -0.8,8.6 -1.3,6 2.71,3.5z" />
    <path
       id="PA"
       fill="#D3D3D3"
       d="M736.6,192.2 l1.3,-0.5 5.7,-5.5 0.7,6.9 33.5,-6.5 36.9,-7.8 2.3,2.3 3.1,0.4 2,5.6 2.4,1.9 2.8,0.4 0.1,0.1 -2.6,3.2 v3.1 l-1.9,3.1 -0.2,1.9 1.3,1.3 -0.2,1.9 -2.4,1.1 1,3.4 0.2,1.1 2.8,0.3 0.9,2.5 5.9,3.9 v0.4 l-3.1,3 -1.5,2.2 -1.7,2.8 -2.7,1.2 -1.4,0.3 -2.1,1.3 -1.6,1.4 -22.4,4.3 -38.7,7.8 -11.3,1.4 -3.9,0.7 -5.1,-22.4 -4.3,-25.9z" />
    <path
       id="RI"
       fill="#D3D3D3"
       d="M873.6,175.7 l-0.8,-4.4 -1.6,-6 5.7,-1.5 1.5,1.3 3.4,4.3 2.8,4.4 -2.8,1.4 -1.3,-0.2 -1.1,1.8 -2.4,1.9 -2.8,1.1z" />
    <path
       id="SC"
       fill="#D3D3D3"
       d="M759,413.6 l-2.1,-1 -1.9,-5.6 -2.5,-2.3 -2.5,-0.5 -1.5,-4.6 -3,-6.5 -4.2,-1.8 -1.9,-1.8 -1.2,-2.6 -2.4,-2 -2.3,-1.3 -2.2,-2.9 -3.2,-2.4 -4.4,-1.7 -0.4,-1.4 -2.3,-2.8 -0.5,-1.5 -3.8,-5.4 -3.4,0.1 -3.9,-2.5 -1.2,-1.2 -0.2,-1.4 0.6,-1.6 2.7,-1.3 -0.8,-2 6.4,-2.7 9.2,-4.5 7.1,-0.9 16.4,-0.5 2.3,1.9 1.8,3.5 4.6,-0.8 12.6,-1.5 2.7,0.8 12.5,7.4 10.1,8.3 -5.3,5.4 -2.6,6.1 -0.5,6.3 -1.6,0.8 -1.1,2.7 -2.4,0.6 -2.1,3.6 -2.7,2.7 -2.3,3.4 -1.6,0.8 -3.6,3.4 -2.9,0.2 1,3.2 -5,5.3 -2.3,1.6z" />
    <path
       id="SD"
       fill="#D3D3D3"
       d="M471,181.1 l-0.9,3.2 0.4,3 2.6,2 -1.2,5.4 -1.8,4.1 1.5,3.3 0.7,1.1 -1.3,0.1 -0.7,-1.6 -0.6,-2 -3.3,-1.8 -4.8,-1.5 -2.5,-1.3 -2.9,0.1 -3.9,0.4 -3.8,1.2 -5.3,-3.8 -2.7,-2.4 -10.9,0.8 -41.5,-2.4 -35.6,-2.2 1.5,-24.8 2.8,-34 0.4,-5 56.9,3.9 56.9,1.7 v2.7 l-1.3,1.5 -2,1.5 -0.1,2.2 1.1,2.2 4.1,3.4 0.5,2.7 v35.9z" />
    <path
       id="TN"
       fill="#D3D3D3"
       d="M670.8,359.6 l-13.1,1.2 -23.3,2.2 -37.6,2.7 -11.8,0.4 0.9,-0.6 0.9,-4.5 -1.2,-3.6 3.9,-2.3 0.4,-2.5 1.2,-4.3 3,-9.5 0.5,-5.6 0.3,-0.2 12.3,-0.2 13.6,-0.8 0.1,-3.9 3.5,-0.1 30.4,-3.3 54,-5.2 10.3,-1.5 7.6,-0.2 2.4,-1.9 1.3,0.3 -0.1,3.3 -0.4,1.6 -2.4,2.2 -1.6,3.6 -2,-0.4 -2.4,0.9 -2.2,3.3 -1.4,-0.2 -0.8,-1.2 -1.1,0.4 -4.3,4 -0.8,3.1 -4.2,2.2 -4.3,3.6 -3.8,1.5 -4.4,2.8 -0.6,3.6 -2.5,0.5 -2,1.7 -0.2,4.8z" />
    <path
       id="TX"
       fill="#D3D3D3"
       d="M282.8,425.6 l37,3.6 29.3,1.9 7.4,-97.7 54.4,2.4 -1.7,23.3 -1,18 0.2,2 4.4,4.1 2,1.1 h1.8 l0.5,-1.2 0.7,0.9 2.4,0.2 1.1,-0.6 v-0.2 l1,0.5 -0.4,3.7 4.5,0.7 2.4,0.9 4.2,0.7 2.6,1.8 2.8,-1.9 2.7,0.6 2.2,3.1 0.8,0.1 v2.1 l3.3,1.1 2.5,-2.1 1.5,0.5 2.1,0.1 0.6,2.1 5.2,2 2.3,-0.5 1.9,-4 h0.1 l1.1,1.9 4.6,0.9 3.4,1.3 3.2,1 2.4,-1.2 0.7,-2.3 h3.6 l2.1,1 3,-2 h0.4 l0.5,1.4 h4.7 l1.9,-1.8 1.3,0.4 1.7,2.1 3.3,1.9 3.4,1 2.5,1.4 2.7,2 3.1,-1.2 2.1,0.8 0.7,20 0.7,9.5 0.6,4.1 2.6,4.4 0.9,4.5 4.2,5.9 0.3,3.1 0.6,0.8 -0.7,7.7 -2.9,4.8 1.3,2.6 -0.5,2.4 -0.8,7.2 -1.3,3 0.3,4.2 -5.6,1.6 -9.9,4.5 -1,1.9 -2.6,1.9 -2.1,1.5 -1.3,0.8 -5.7,5.3 -2.7,2.1 -5.3,3.2 -5.7,2.4 -6.3,3.4 -1.8,1.5 -5.8,3.6 -3.4,0.6 -3.9,5.5 -4,0.3 -1,1.9 2.3,1.9 -1.5,5.5 -1.3,4.5 -1.1,3.9 -0.8,4.5 0.8,2.4 1.8,7 1,6.1 1.8,2.7 -1,1.5 -3.1,1.9 -5.7,-3.9 -5.5,-1.1 -1.3,0.5 -3.2,-0.6 -4.2,-3.1 -5.2,-1.1 -7.6,-3.4 -2.1,-3.9 -1.3,-6.5 -3.2,-1.9 -0.6,-2.3 0.6,-0.6 0.3,-3.4 -1.3,-0.6 -0.6,-1 1.3,-4.4 -1.6,-2.3 -3.2,-1.3 -3.4,-4.4 -3.6,-6.6 -4.2,-2.6 0.2,-1.9 -5.3,-12.3 -0.8,-4.2 -1.8,-1.9 -0.2,-1.5 -6,-5.3 -2.6,-3.1 v-1.1 l-2.6,-2.1 -6.8,-1.1 -7.4,-0.6 -3.1,-2.3 -4.5,1.8 -3.6,1.5 -2.3,3.2 -1,3.7 -4.4,6.1 -2.4,2.4 -2.6,-1 -1.8,-1.1 -1.9,-0.6 -3.9,-2.3 v-0.6 l-1.8,-1.9 -5.2,-2.1 -7.4,-7.8 -2.3,-4.7 v-8.1 l-3.2,-6.5 -0.5,-2.7 -1.6,-1 -1.1,-2.1 -5,-2.1 -1.3,-1.6 -7.1,-7.9 -1.3,-3.2 -4.7,-2.3 -1.5,-4.4 -2.6,-2.9 -1.7,-0.5z m174.4,141.7 -0.6,-7.1 -2.7,-7.2 -0.6,-7 1.5,-8.2 3.3,-6.9 3.5,-5.4 3.2,-3.6 0.6,0.2 -4.8,6.6 -4.4,6.5 -2,6.6 -0.3,5.2 0.9,6.1 2.6,7.2 0.5,5.2 0.2,1.5z" />
    <path
       id="UT"
       fill="#D3D3D3"
       d="M228.4,305.9 l24.6,3.6 1.9,-13.7 7,-50.5 2.3,-22 -32.2,-3.5 2.2,-13.1 1.8,-10.6 -34.7,-6.1 -12.5,-2.5 -10.6,52.9 -5.4,30 -3.3,15.4 -1.7,9.2z" />
    <path
       id="VA"
       fill="#D3D3D3"
       d="M834.7,265.2 l-0.2,2.8 -2.9,3.8 -0.4,4.6 0.5,3.4 -1.8,5 -2.2,1.9 -1.5,-4.6 0.4,-5.4 1.6,-4.2 0.7,-3.3 -0.1,-1.7z m-60.3,44.6 -38.6,5.6 -4.8,-0.1 -2.2,-0.3 -2.5,1.9 -7.3,0.1 -10.3,1.6 -6.7,0.6 4.1,-2.6 4.1,-2.3 v-2.1 l5.7,-7.3 4.1,-3.7 2.2,-2.5 3.6,4.3 3.8,0.9 2.7,-1 2,-1.5 2.4,1.2 4.6,-1.3 1.7,-4.4 2.4,0.7 3.2,-2.3 1.6,0.4 2.8,-3.2 0.2,-2.7 -0.8,-1.2 4.8,-10.5 1.8,-5.2 0.5,-4.7 0.7,-0.2 1.1,1.7 1.5,1.2 3.9,-0.2 1.7,-8.1 3,-0.6 0.8,-2.6 2.8,-2.2 1.1,-2.1 1.8,-4.3 0.1,-4.6 3.6,1.4 6.6,3.1 0.3,-5.2 3.4,1.2 -0.6,2.9 8.6,3.1 1.4,1.8 -0.8,3.3 -1.3,1.3 -0.5,1.7 0.5,2.4 2,1.3 3.9,1.4 2.9,1 4.9,0.9 2.2,2.1 3.2,0.4 0.9,1.2 -0.4,4.7 1.4,1.1 -0.5,1.9 1.2,0.8 -0.2,1.4 -2.7,-0.1 0.1,1.6 2.3,1.5 0.1,1.4 1.8,1.8 0.5,2.5 -2.6,1.4 1.6,1.5 5.8,-1.7 3.7,6.2z" />
    <path
       id="VT"
       fill="#D3D3D3"
       d="M832.7,111.3 l2.4,6.5 0.8,5.3 -1,3.9 2.5,4.4 0.9,2.3 -0.7,2.6 3.3,1.5 2.9,10.8 v5.3 l11.5,-2.1 -1,-1.1 0.6,-1.9 0.2,-4.3 -1,-1.4 0.2,-4.7 0.8,-9.3 v-8.5 l-1.1,-1.8 v-1.6 l2.8,-1.1 3.5,-4.4 v-3.6 l-1.9,-2.7 -0.3,-5.79 -26.1,6.79z" />
    <path
       id="WA"
       fill="#D3D3D3"
       d="M74.5,67.7 l-2.3,-4.3 -4.1,-0.7 -0.4,-2.4 -2.5,-0.6 -2.9,-0.5 -1.8,1 -2.3,-2.9 0.3,-2.9 2.7,-0.3 1.6,-4 -2.6,-1.1 0.2,-3.7 4.4,-0.6 -2.7,-2.7 -1.5,-7.1 0.6,-2.9 v-7.9 l-1.8,-3.2 2.3,-9.4 2.1,0.5 2.4,2.9 2.7,2.6 3.2,1.9 4.5,2.1 3.1,0.6 2.9,1.5 3.4,1 2.3,-0.2 v-2.4 l1.3,-1.1 2.1,-1.3 0.3,1.1 0.3,1.8 -2.3,0.5 -0.3,2.1 1.8,1.5 1.1,2.4 0.6,1.9 1.5,-0.2 0.2,-1.3 -1,-1.3 -0.5,-3.2 0.8,-1.8 -0.6,-1.5 v-2.6 l1.8,-3.6 -1.1,-2.6 -2.4,-4.8 0.3,-0.8 1.4,-0.8 4.4,1.5 9.7,2.7 8.6,1.9 20,5.7 23,5.7 15,3.49 -4.8,17.56 -4.5,20.83 -3.4,16.25 -0.4,9.18 v0 l-12.9,-3.72 -15.3,-3.47 -14.5,0.32 -1.1,-1.53 -5.7,2.09 -3.9,-0.42 -2.6,-1.79 -1.7,0.65 -4.15,-0.25 -1.72,-1.32 -5.16,-1.82 -1.18,-0.16 -4.8,-1.39 -1.92,1.65 -5.65,-0.25 -4.61,-3.35z m9.6,-55.4 2,-0.2 0.5,1.4 1.5,-1.6 h2.3 l0.8,1.5 -1.5,1.7 0.6,0.8 -0.7,2 -1.4,0.4 c0,0 -0.9,0.1 -0.9,-0.2 0,-0.3 1.5,-2.6 1.5,-2.6 l-1.7,-0.6 -0.3,1.5 -0.7,0.6 -1.5,-2.3z" />
    <path
       id="WI"
       fill="#D3D3D3"
       d="M541.4,109.9 l2.9,0.5 2.9,-0.6 7.4,-3.2 2.9,-1.9 2.1,-0.8 1.9,1.5 -1.1,1.1 -1.9,3.1 -0.6,1.9 1,0.6 1.8,-1 1.1,-0.2 2.7,0.8 0.6,1.1 1.1,0.2 0.6,-1.1 4,5.3 8.2,1.2 8.2,2.2 2.6,1.1 12.3,2.6 1.6,2.3 3.6,1.2 1.7,10.2 1.6,1.4 1.5,0.9 -1.1,2.3 -1.8,1.6 -2.1,4.7 -1.3,2.4 0.2,1.8 1.5,0.3 1.1,-1.9 1.5,-0.8 0.8,-2.3 1.9,-1.8 2.7,-4 4.2,-6.3 0.8,-0.5 0.3,1 -0.2,2.3 -2.9,6.8 -2.7,5.7 -0.5,3.2 -0.6,2.6 0.8,1.3 -0.2,2.7 -1.9,2.4 -0.5,1.8 0.6,3.6 0.6,3.4 -1.5,2.6 -0.8,2.9 -1,3.1 1.1,2.4 0.6,6.1 1.6,4.5 -0.2,3 -15.9,1.8 -17.5,1 h-12.7 l-0.7,-1.5 -2.9,-0.4 -2.6,-1.3 -2.3,-3.7 -0.3,-3.6 2,-2.9 -0.5,-1.4 -2.1,-2.2 -0.8,-3.3 -0.6,-6.8 -2.1,-2.5 -7,-4.5 -3.8,-5.4 -3.4,-1 -2.2,-2.8 h-3.2 l-2.9,-3.3 -0.5,-6.5 0.1,-3.8 1.5,-3.1 -0.8,-3.2 -2.5,-2.8 1.8,-5.4 5.2,-3.8 1.6,-1.9 -0.2,-8.1 0.2,-2.8 2.4,-2.8z" />
    <path
       id="WV"
       fill="#D3D3D3"
       d="M758.9,254.3 l5.8,-6 2.6,-0.8 1.6,-1.5 1.5,-2.2 1.1,0.3 3.1,-0.2 4.6,-3.6 1.5,-0.5 1.3,1 2.6,1.2 3,3 -0.4,4.3 -5.4,-2.6 -4.8,-1.8 -0.1,5.9 -2.6,5.7 -2.9,2.4 -0.8,2.3 -3,0.5 -1.7,8.1 -2.8,0.2 -1.1,-1 -1.2,-2 -2.2,0.5 -0.5,5.1 -1.8,5.1 -5,11 0.9,1.4 -0.1,2 -2.2,2.5 -1.6,-0.4 -3.1,2.3 -2.8,-0.8 -1.8,4.9 -3.8,1 -2.5,-1.3 -2.5,1.9 -2.3,0.7 -3.2,-0.8 -3.8,-4.5 -3.5,-2.2 -2.5,-2.5 -2.9,-3.7 -0.5,-2.3 -2.8,-1.7 -0.6,-1.3 -0.2,-5.6 0.3,0.1 2.4,-0.2 1.8,-1 v-2.2 l1.7,-1.5 0.1,-5.2 0.9,-3.6 1.1,-0.7 0.4,0.3 1,1.1 1.7,0.5 1.1,-1.3 -1,-3.1 v-1.6 l3.1,-4.6 1.2,-1.3 2,0.5 2.6,-1.8 3.1,-3.4 2.4,-4.1 0.2,-5.6 0.5,-4.8 v-4.9 l-1.1,-3 0.9,-1.3 0.8,-0.7 4.3,19.3 4.3,-0.8 11.2,-1.3z" />
    <path
       id="WY"
       fill="#D3D3D3"
       d="M353,161.9 l-1.5,25.4 -4.4,44 -2.7,-0.3 -83.3,-9.1 -27.9,-3 2,-12 6.9,-41 3.8,-24.2 1.3,-11.2 48.2,7 59.1,6.5z" />
    <g
       id="DC">
      <path
         id="DC1"
         fill="#D3D3D3"
         d="M801.8,253.8 l-1.1-1.6 -1-0.8 1.1-1.6 2.2,1.5z" />
      <circle
         id="DC2"
         fill="#D3D3D3"
         stroke="#FFFFFF"
         stroke-width="1.5"
         cx="801.3"
         cy="251.8"
         r="5"
         opacity="1" />
      <!-- Set opacity to "0" to hide DC circle -->
    </g>
  </g>
  <path
     id="frames"
     fill="none"
     stroke="#A9A9A9"
     stroke-width="2"
     d="M215,493v55l36,45 M0,425h147l68,68h85l54,54v46" />
  <path
     style="fill:none;stroke:#000000;stroke-width:1px;stroke-linecap:butt;stroke-linejoin:miter;stroke-opacity:1"
     d="m 881.6,154.1 c 0.29953,0.92452 1.2055,1.85148 0.89858,2.77357 -0.22739,0.68315 -1.39121,0.39064 -2.04915,0.68305 -0.37508,0.16671 -0.65744,0.49949 -1.02457,0.68305 -0.10182,0.0509 -0.22923,-0.0187 -0.34153,0 -0.57258,0.0954 -1.13297,0.25943 -1.70762,0.34153 -0.33809,0.0483 -0.68304,0 -1.02457,0 -0.34152,0 -0.70747,-0.12684 -1.02457,0 -0.38111,0.15244 -0.67261,0.47186 -1.02457,0.68304 -0.21829,0.13097 -0.47125,0.20033 -0.68305,0.34153 -1.59782,1.06521 2.80591,-0.89067 -1.70762,1.3661 -0.20365,0.10182 -0.49361,-0.1263 -0.68305,0 -0.21181,0.1412 -0.16153,0.50304 -0.34153,0.68304 -0.0656,0.0656 -1.719,-0.0825 -2.04914,0 -0.15619,0.0391 -0.19204,0.28174 -0.34153,0.34153 -0.4358,0.17432 -0.9031,0.26436 -1.36609,0.34152 -0.22459,0.0374 -0.47941,-0.10182 -0.68305,0 -3.13597,1.56799 2.34175,-0.25365 -1.70762,1.3661 -0.30446,0.12178 -2.15276,-0.11896 -2.39067,0 -0.10182,0.0509 0.0805,0.26103 0,0.34152 -0.18,0.18 -0.4794,0.18879 -0.68305,0.34153 -0.79317,0.59487 -1.1293,1.27804 -1.70762,2.04914 -0.0966,0.1288 -0.29061,0.18879 -0.34153,0.34153 -0.21599,0.30647 0.108,0.70057 0,1.02457 -0.0805,0.24149 -0.24124,0.44907 -0.34152,0.68305 -0.24149,0.56348 -0.46779,1.1336 -0.68305,1.70762 -0.1264,0.33708 -0.15631,0.71588 -0.34152,1.02457 -0.92122,1.53536 -0.34907,0.008 -1.3661,1.02457 -0.40249,0.40249 -0.77001,0.85699 -1.02457,1.3661 -0.20992,0.41983 -0.2397,0.9079 -0.34153,1.3661 -0.12592,0.56665 -0.22768,1.13841 -0.34152,1.70762 -0.11384,0.56921 -0.26953,1.13162 -0.34152,1.70762 -0.0847,0.67777 0,1.3661 0,2.04915 0,0.96947 0.17917,2.97572 -0.34153,3.75676 -0.22768,0.34153 -0.70406,0.42664 -1.02457,0.68305 -0.22768,0.22768 -0.45537,0.45537 -0.68305,0.68305 0,0.11384 0.0631,0.2468 0,0.34152 -0.17861,0.26792 -0.45537,0.45537 -0.68305,0.68305 -0.11384,0.11384 -0.29061,0.18879 -0.34152,0.34153 -0.072,0.21599 0,0.45536 0,0.68304 0,0.34153 0,0.68305 0,1.02458 0,0.22768 0.18214,0.54644 0,0.68305 -0.37551,0.28162 -0.93029,0.1672 -1.3661,0.34152 -1.18445,0.47378 0.1976,0.14393 -0.34152,0.68305 -0.0805,0.0805 -0.29062,-0.10182 -0.34153,0 -0.10182,0.20364 0.10182,0.4794 0,0.68305 -0.0509,0.10182 -0.23352,-0.036 -0.34152,0 -0.2415,0.0805 -0.48427,0.1825 -0.68305,0.34152 -0.34152,0.34152 -0.68305,0.68305 -1.02457,1.02457 -0.11384,0.22769 -0.16153,0.50305 -0.34153,0.68305 -0.29024,0.29024 -0.73433,0.39281 -1.02457,0.68305 -2.10186,3.15279 0.10341,0.46058 -1.02457,1.02457 -0.144,0.072 -0.19753,0.26953 -0.34153,0.34153 -0.34152,0.17076 -0.68305,-0.34153 -1.02457,0 -0.161,0.16099 0.18944,0.55675 0,0.68305 -0.28416,0.18944 -0.70057,-0.108 -1.02457,0 -0.108,0.036 0.0805,0.26102 0,0.34152 -0.18,0.18 -0.50305,0.16152 -0.68305,0.34152 -0.0805,0.0805 0.11384,0.34153 0,0.34153 -0.11384,0 -0.0947,-0.40473 0,-0.34153 0.29696,0.19822 0.46752,0.53975 0.70128,0.80962"
     id="path3355"
     inkscape:connector-curvature="0" />
  <path
     style="fill:none;stroke:#000000;stroke-width:1px;stroke-linecap:butt;stroke-linejoin:miter;stroke-opacity:1"
     d="m 79.3,351.7 c 0.660921,-0.50791 1.195631,-1.24948 1.982764,-1.52372 0.752525,-0.26218 1.593779,0 2.390669,0 0.910731,0 1.821463,0 2.732194,0 0.910731,0 1.856504,0.2502 2.732194,0 1.567246,-0.44778 2.959876,-1.3661 4.439814,-2.04914 1.59378,-0.68305 3.109795,-1.58803 4.78134,-2.04915 1.660705,-0.45812 3.448225,-0.27882 5.122865,-0.68305 1.64512,-0.3971 3.16948,-1.19182 4.78134,-1.70762 1.23624,-0.39559 2.51902,-0.63371 3.75676,-1.02457 0.92752,-0.2929 1.81499,-0.70085 2.7322,-1.02457 1.01842,-0.35945 2.07097,-0.62348 3.07371,-1.02458 1.27717,-0.51086 2.48483,-1.18388 3.75677,-1.70762 3.22551,-1.32815 1.13842,0 5.12286,-1.70762 0.61014,-0.26148 1.14229,-0.67667 1.70763,-1.02457 0.40538,-0.24947 3.36204,-1.99594 4.09829,-2.73219 0.29024,-0.29024 0.42027,-0.70925 0.68304,-1.02458 0.30921,-0.37104 0.70653,-0.66108 1.02458,-1.02457 0.48001,-0.54858 0.82672,-1.21728 1.36609,-1.70762 0.72463,-0.65875 1.6982,-1.01515 2.39067,-1.70762 0.77359,-0.77359 0.93403,-1.95861 1.70762,-2.7322 0.40249,-0.40249 0.96361,-0.62208 1.3661,-1.02457 3.08161,-3.08161 -4.27312,2.26944 3.07372,-3.07372 0.41174,-0.29944 1.03477,-0.2965 1.3661,-0.68305 0.39897,-0.46546 0.35813,-1.18775 0.68304,-1.70762 0.25599,-0.40957 0.68305,-0.68304 1.02458,-1.02457 0.68305,-0.68305 1.41304,-1.32217 2.04914,-2.04914 0.16763,-0.19158 0.21523,-0.46204 0.34153,-0.68305 0.32934,-0.57635 0.69523,-1.13128 1.02457,-1.70762 0.1263,-0.22102 0.1825,-0.48428 0.34152,-0.68305 0.30172,-0.37715 0.61042,-0.77608 1.02458,-1.02457 0.19523,-0.11715 0.58122,0.20364 0.68305,0 0.20364,-0.4073 -0.144,-0.9341 0,-1.3661 0.10182,-0.30547 0.52667,-0.40158 0.68304,-0.68305 0.42105,-0.75789 0.63685,-1.61521 1.02458,-2.39067 0.43795,-0.87591 1.26966,-1.51476 1.70762,-2.39067 0.10182,-0.20364 0,-0.45536 0,-0.68305 0,-1.52709 -0.32199,-1.0441 0.34152,-1.70762"
     id="path3357"
     inkscape:connector-curvature="0" />
  <path
     style="fill:none;stroke:#000000;stroke-width:1px;stroke-linecap:butt;stroke-linejoin:miter;stroke-opacity:1"
     d="m 737.8,505.6 c 0.76099,-0.69311 1.57677,-1.33048 2.28298,-2.07934 0.0781,-0.0828 0,-0.22769 0,-0.34153 0,-0.34152 0,-0.68305 0,-1.02457 0,-2.04915 0,-4.09829 0,-6.14744 0,-0.34152 0,-0.68305 0,-1.02457 0,-0.34152 -0.18336,-0.73644 0,-1.02457 0.35468,-0.55736 3.24189,-3.72615 4.09829,-4.43982 0.75232,-0.62693 1.65873,-1.05701 2.39067,-1.70762 0.30678,-0.27269 0.42028,-0.70925 0.68305,-1.02457 0.3092,-0.37104 0.68305,-0.68305 1.02457,-1.02457 0.22768,-0.22769 0.43161,-0.48191 0.68305,-0.68305 0.40217,-0.32174 1.43275,-0.81636 1.70762,-1.3661 0.10182,-0.20365 -0.1263,-0.4936 0,-0.68305 0.0144,-0.0217 1.23419,-0.6039 1.3661,-0.68305 0.35196,-0.21118 0.69056,-0.44447 1.02457,-0.68304 2.13625,-1.5259 0.84675,-0.9653 4.09829,-2.04915 0.44529,-0.14843 0.94627,-0.13161 1.3661,-0.34152 0.28799,-0.144 0.42545,-0.48986 0.68304,-0.68305 0.20365,-0.15274 0.47125,-0.20032 0.68305,-0.34153 0.87453,-0.58302 -0.43785,-0.34152 1.3661,-0.34152 0.68305,0 1.3661,0 2.04915,0 0.34152,0 0.68304,0 1.02457,0 0.11384,0 0.34152,-0.11384 0.34152,0 0,0.11384 -0.22768,0 -0.34152,0"
     id="path3359"
     inkscape:connector-curvature="0" />
  <path
     style="fill:none;stroke:#000000;stroke-width:1px;stroke-linecap:butt;stroke-linejoin:miter;stroke-opacity:1"
     d="m 89.479345,351.20085 c 19.011515,0 38.023025,0 57.034545,0 2.73219,0 5.46439,0 8.19658,0 2.39067,0 4.78741,-0.17032 7.17201,0 7.99283,0.57092 5.41286,0.83342 11.95335,2.39067 1.84011,0.43813 2.62661,0.34153 4.43981,0.34153 0.23972,0 2.25105,-0.0635 2.39067,0 5.33222,2.42373 2.05193,0.9132 7.17201,5.46439 0.73194,0.65061 1.62063,1.10258 2.39067,1.70762 3.24243,2.54762 1.43469,1.44513 4.43981,3.75676 0.77622,0.59709 1.60723,1.12004 2.39067,1.70762 0.58291,0.43719 0.695,1.46044 1.02458,1.70763 0.28799,0.21599 0.80857,0.0535 1.02457,0.34152 0.17076,0.22768 -0.11384,1.3661 0,1.70762 0.0509,0.15273 0.29061,0.18879 0.34152,0.34152 0.108,0.324 0,0.68305 0,1.02458 0,1.02457 0,2.04914 0,3.07372 0,2.50451 0,5.00902 0,7.51353"
     id="path3363"
     inkscape:connector-curvature="0" />
  <path
     style="fill:none;stroke:#000000;stroke-width:1px;stroke-linecap:butt;stroke-linejoin:miter;stroke-opacity:1"
     d="m 436.46795,472.44195 c 20.03609,0 40.07217,0 60.10826,0 3.87061,0 7.74122,0 11.61182,0 0.79689,0 1.59378,0 2.39067,0 0.79689,0 1.61276,-0.17287 2.39067,0 0.31433,0.0698 0.39505,0.53905 0.68305,0.68305 0.30547,0.15273 0.68305,0 1.02458,0 0.68304,0 1.36609,0 2.04914,0"
     id="path3365"
     inkscape:connector-curvature="0" />
  <path
     style="fill:none;stroke:#000000;stroke-width:1px;stroke-linecap:butt;stroke-linejoin:miter;stroke-opacity:1"
     d="m 95.626781,38.364671 c 0,3.073718 0,6.147436 0,9.221154 0,2.959877 0,5.919753 0,8.87963 0,0.79689 0,1.59378 0,2.39067 0,0.227682 0.072,0.467049 0,0.683048 -0.428932,1.286796 -2.347213,3.798179 -2.732194,4.439815 -0.392906,0.654843 -0.631667,1.394302 -1.024573,2.049145 -0.292854,0.488091 -0.683048,0.910731 -1.024572,1.366097 -0.455366,0.79689 -0.916126,1.590721 -1.366097,2.390669 -0.57462,1.021547 -1.014502,2.128556 -1.707621,3.073718 -0.571244,0.778969 -1.366097,1.366097 -2.049146,2.049146 -0.455365,0.455365 -0.987323,0.845283 -1.366096,1.366097 -0.539835,0.742273 -0.856983,1.626998 -1.366097,2.390669 -0.178609,0.267914 -0.476914,0.435687 -0.683049,0.683049 -0.364397,0.437276 -0.708833,0.892488 -1.024572,1.366096 -1.589173,2.38376 1.515464,-1.679094 -1.024573,1.707621 -0.437364,0.583153 -0.979759,1.089481 -1.366097,1.707622 -0.190798,0.305277 -0.180528,0.70258 -0.341524,1.024572 -0.183564,0.367128 -0.479403,0.668193 -0.683049,1.024573 -0.252591,0.442035 -0.351721,0.979548 -0.683048,1.366097 -0.370435,0.432174 -1.010516,0.580096 -1.366097,1.024572 -0.12419,0.155239 0.0621,0.776192 0,1.024573 -0.413524,1.654095 -0.341524,0.403039 -0.341524,1.707621"
     id="path3367"
     inkscape:connector-curvature="0" />
  <path
     style="fill:none;stroke:#000000;stroke-width:1px;stroke-linecap:butt;stroke-linejoin:miter;stroke-opacity:1"
     d="m 844.8,197.6 c 0.15748,0.31318 0.39046,0.59871 0.47244,0.93953 0.0799,0.33205 0,0.68305 0,1.02457 0,0.22768 0,0.45537 0,0.68305 0,1.3661 0,2.73219 0,4.09829 0,1.13842 0,2.27683 0,3.41524 0,0.56921 0.11163,1.14947 0,1.70762 -0.0499,0.24962 -0.26103,0.44156 -0.34153,0.68305 -0.14843,0.4453 -0.13161,0.94627 -0.34152,1.3661 -0.144,0.288 -0.48985,0.42545 -0.68305,0.68305 -0.8085,1.07799 0.25666,0.42639 -1.02457,1.70762 -0.18,0.18 -0.47941,0.18879 -0.68305,0.34152 -0.25759,0.1932 -0.42546,0.48986 -0.68305,0.68305 -0.20364,0.15274 -0.44155,0.26103 -0.68305,0.34153 -0.108,0.036 -0.26102,-0.0805 -0.34152,0 -0.0805,0.0805 0.108,0.30552 0,0.34152 -0.324,0.108 -0.71066,-0.13453 -1.02457,0 -0.52319,0.22422 -0.92882,0.66018 -1.3661,1.02457 -0.24736,0.20614 -0.38409,0.56347 -0.68305,0.68305 -0.3171,0.12684 -0.73172,-0.17571 -1.02457,0 -0.35197,0.21118 -0.34153,0.79689 -0.68305,1.02457 -1.91242,1.27495 -0.74029,-0.27736 -2.39067,0.34153 -0.62154,0.23308 -1.07181,0.83383 -1.70762,1.02457 -0.5452,0.16356 -1.13842,0 -1.70762,0 -1.25226,0 -2.50451,0 -3.75677,0 -0.34152,0 -0.68305,0 -1.02457,0 -0.22768,0 -0.49361,-0.12629 -0.68305,0 -0.2118,0.1412 -0.13788,0.53031 -0.34152,0.68305 -0.288,0.216 -0.70258,0.18053 -1.02458,0.34152 -0.144,0.072 -0.18879,0.29062 -0.34152,0.34153 -0.52571,0.17523 -0.93992,-0.29774 -1.3661,0.34152 -0.12629,0.18945 0,0.45537 0,0.68305 0,0.3128 0.0553,1.96628 0,2.04915 -0.31574,0.4736 -1.05036,0.55096 -1.36609,1.02457 -0.17521,0.2628 0.10948,1.95275 0,2.39067 -0.11385,0.34152 -0.22769,0.68305 -0.34153,1.02457 -0.11384,0 -0.26103,-0.0805 -0.34152,0 -0.18,0.18 -0.20032,0.47124 -0.34153,0.68305 -0.31574,0.47361 -0.72289,0.88341 -1.02457,1.3661 -0.26983,0.43172 -0.36501,0.96854 -0.68305,1.36609 -0.15902,0.19878 -0.47124,0.20032 -0.68305,0.34153 -0.40059,0.26706 -0.8416,1.13738 -1.02457,1.36609 -0.14387,0.75802 -0.96361,0.62209 -1.3661,1.02458 -0.29024,0.29024 -0.47186,0.6726 -0.68304,1.02457 -0.13097,0.21828 -0.16153,0.50305 -0.34153,0.68305 -0.18,0.18 -0.4794,0.18879 -0.68305,0.34152 -0.25759,0.1932 -0.42545,0.48985 -0.68305,0.68305 -0.20364,0.15273 -0.48427,0.1825 -0.68304,0.34152 -0.37715,0.30172 -0.64743,0.72286 -1.02458,1.02458 -0.19877,0.15902 -0.50305,0.16152 -0.68305,0.34152 -0.17999,0.18 -0.16152,0.50305 -0.34152,0.68305 -0.29024,0.29024 -0.73433,0.39281 -1.02457,0.68305 -0.18,0.18 -0.18879,0.4794 -0.34153,0.68305 -0.19319,0.25759 -0.4819,0.43161 -0.68305,0.68304 -0.25641,0.32052 -0.3928,0.73434 -0.68304,1.02458 -0.40249,0.40249 -1.01052,0.58009 -1.3661,1.02457 -0.14223,0.17779 0.072,0.46705 0,0.68305 -0.0509,0.15273 -0.29061,0.18879 -0.34152,0.34152 -0.072,0.216 0.0845,0.47165 0,0.68305 -2.12358,3.18537 0.0459,-0.4794 -0.68305,1.70762 -0.0509,0.15274 -0.25222,0.20757 -0.34153,0.34153 -0.1412,0.2118 -0.20032,0.47124 -0.34152,0.68304 -0.0893,0.13396 -0.29061,0.18879 -0.34153,0.34153 -0.072,0.216 0.1263,0.4936 0,0.68305 -0.1412,0.2118 -0.54184,0.12972 -0.68304,0.34152 -0.1263,0.18945 0.10182,0.4794 0,0.68305 -0.0509,0.10182 -0.27838,-0.0947 -0.34153,0 -0.19969,0.29954 -0.15631,0.71588 -0.34152,1.02457 -0.10385,0.17308 -1.32964,1.25671 -1.3661,1.3661 -0.144,0.432 0,0.91073 0,1.3661 0,0.68305 0,1.36609 0,2.04914 0,0.34153 0,0.68305 0,1.02457 0,0.22769 0.072,0.46705 0,0.68305 -0.161,0.48299 -0.50429,0.8894 -0.68305,1.3661 -0.16481,0.43949 -0.0687,0.98415 -0.34152,1.3661 -0.33085,0.46318 -0.92882,0.66017 -1.3661,1.02457 -0.24736,0.20613 -0.47101,0.44072 -0.68305,0.68305 -5.10403,6.12483 1.38859,-1.38859 -3.41524,3.41524 -0.29024,0.29024 -0.39281,0.73433 -0.68305,1.02457 -0.40249,0.40249 -0.93392,0.65414 -1.36609,1.02458 -0.36672,0.31432 -0.615,0.76858 -1.02458,1.02457 -0.51987,0.32492 -1.20876,0.32672 -1.70762,0.68305 -0.66801,0.47715 -0.72506,1.53632 -1.3661,2.04914 -0.28111,0.22489 -0.70258,0.18053 -1.02457,0.34153 -0.36713,0.18356 -0.65744,0.49948 -1.02457,0.68304 -0.10182,0.0509 -0.26103,-0.0805 -0.34152,0 -0.18,0.18 -0.16153,0.50305 -0.34153,0.68305 -1.74532,1.74532 0.47634,-1.432 -1.3661,1.02458 -0.75243,0.17198 -0.18052,0.70258 -0.34152,1.02457 -0.18356,0.36713 -0.53061,0.64347 -0.68305,1.02457 -0.0846,0.2114 0.08,0.46986 0,0.68305 -0.26814,0.71505 -0.74095,1.34009 -1.02457,2.04914 -0.17432,0.43581 -0.0483,0.99958 -0.34153,1.3661 -0.22488,0.28111 -0.73657,0.12553 -1.02457,0.34153 -0.20364,0.15273 -0.16152,0.50304 -0.34152,0.68304 -0.0805,0.0805 -0.27322,-0.0911 -0.34153,0 -0.30547,0.4073 -0.42111,0.92954 -0.68305,1.3661 -0.0828,0.13805 -0.30247,0.18534 -0.34152,0.34153 -0.16566,0.66265 0.216,1.40114 0,2.04914 -0.1298,0.3894 -0.45536,0.68305 -0.68305,1.02457 -0.14691,0.22037 -0.91955,1.28755 -1.02457,1.70762 -0.0552,0.22089 0,0.45537 0,0.68305 -0.22768,0.56921 -0.48918,1.12603 -0.68305,1.70762 -0.036,0.108 0,0.22769 0,0.34153 0,0.22768 0,0.45536 0,0.68305 0,0.34152 0.13453,0.71066 0,1.02457 -0.22422,0.52318 -0.81317,0.8376 -1.02457,1.3661 -0.57314,1.43285 -0.34153,3.56066 -0.34153,5.12286 0,0.19304 0.0748,1.59538 0,1.70762 -0.1786,0.26791 -0.51738,0.40694 -0.68304,0.68305 -0.18522,0.30869 -0.25422,0.67532 -0.34153,1.02457 -0.25456,1.01823 -0.49529,2.04108 -0.68305,3.07372 -0.0407,0.22401 0.0447,0.45979 0,0.68305 -0.0706,0.353 -0.27092,0.67156 -0.34152,1.02457 -0.067,0.33489 0,0.68305 0,1.02457 0,0.56921 0,1.13842 0,1.70762 0,0.45537 0.0565,0.91425 0,1.3661 -0.0582,0.46576 -0.19309,0.9208 -0.34153,1.3661 -0.3046,0.91383 -0.54091,0.57055 -0.68304,1.70762 -0.0706,0.56481 0.0515,1.14075 0,1.70762 -0.0627,0.68963 -0.25564,1.36202 -0.34153,2.04915 -0.0474,0.37947 0.0711,1.42301 0,1.70762 -0.14869,0.59475 -0.51463,1.11815 -0.68305,1.70762 -0.0625,0.21892 0,0.45536 0,0.68305 0,0.34152 0,0.68304 0,1.02457 0,0.68305 0.16567,1.38649 0,2.04914 -0.29737,1.1895 -0.92595,2.27086 -1.36609,3.41525 -0.12923,0.336 -0.19532,0.6956 -0.34153,1.02457 -0.31015,0.69785 -0.75043,1.33637 -1.02457,2.04914 -0.29751,0.77354 -0.4043,1.61018 -0.68305,2.39067 -2.71806,7.61057 0.74989,-3.27424 -2.04914,5.12287 -0.14843,0.44529 -0.22769,0.91073 -0.34153,1.36609 -0.45536,1.47994 -0.85458,2.97834 -1.36609,4.43982 -0.28642,0.81831 -0.58773,1.64178 -1.02458,2.39067 -0.0642,0.11005 -2.26472,2.77143 -2.39067,3.07372 -1.82121,7.28486 0.49091,-0.83665 -1.70762,4.43981 -0.31876,0.76503 -0.25664,1.68 -0.68305,2.39067 -0.29285,0.48809 -0.92162,0.66899 -1.36609,1.02457 -0.12572,0.10058 -0.22769,0.22769 -0.34153,0.34153 -2.12723,2.12723 0.74882,-0.95246 -1.02457,1.70762 -0.0631,0.0947 -0.27322,-0.0911 -0.34152,0 -0.30547,0.40729 -0.42112,0.92953 -0.68305,1.3661 -0.0828,0.13805 -0.26953,0.19752 -0.34153,0.34152 -0.16099,0.32199 -0.18053,0.70258 -0.34152,1.02457 -1.95752,2.93629 0.3894,-0.77879 -1.02457,2.04915 -0.29687,0.59372 -0.72771,1.11389 -1.02458,1.70762 -0.13661,0.27322 0.13661,0.75135 0,1.02457 -0.144,0.288 -0.56346,0.38409 -0.68305,0.68305 -0.12683,0.3171 0.15274,0.7191 0,1.02457 -0.43795,0.87592 -1.51556,1.43039 -1.70762,2.39067 -0.067,0.33489 0,0.68305 0,1.02457 0,0.34153 0,0.68305 0,1.02458 0,0.22768 0.0846,0.47165 0,0.68305 -1.04303,2.60759 -0.29331,-0.76018 -2.04914,2.04914 -0.30766,0.49225 -0.0819,1.18842 -0.34153,1.70762 -0.21599,0.432 -0.76859,0.615 -1.02457,1.02457 -0.32492,0.51987 -0.44155,1.14414 -0.68305,1.70763 -1.78844,4.17302 -0.6988,1.82058 -2.39067,4.78133 -0.12629,0.22102 -0.20032,0.47125 -0.34152,0.68305 -0.0893,0.13396 -0.22768,0.22769 -0.34152,0.34153 -0.34153,0.5692 -0.69524,1.13128 -1.02458,1.70762 -0.50353,0.88118 -0.91204,1.82408 -1.36609,2.73219 -0.11385,0.22768 -0.19357,0.47591 -0.34153,0.68305 -0.42369,0.59316 -0.97976,1.08948 -1.3661,1.70762 -0.47583,0.76134 -0.44519,2.43945 -0.68304,3.07372 -0.11306,0.30149 -0.51739,0.40694 -0.68305,0.68305 -0.20006,0.33343 -0.33748,1.36205 -0.68305,1.70762 -0.29024,0.29024 -0.68305,0.45536 -1.02457,0.68305 -0.11384,0.45536 -0.0687,0.98414 -0.34153,1.36609 -3.33718,2.50289 -0.65052,-0.0813 -1.36609,1.70763 -0.15245,0.3811 -0.68305,0.61411 -0.68305,1.02457 0,0.22768 0.59849,-0.2114 0.68305,0 0.21139,0.52849 0,1.13841 0,1.70762 0,0.95269 -0.067,1.79847 0.34152,2.73219 0.57174,1.30684 1.46379,2.45598 2.04915,3.75677 0.44319,0.98487 0.56785,2.09504 1.02457,3.07372 0.34715,0.7439 1.03269,1.29897 1.36609,2.04914 0.13871,0.31209 -0.0938,0.69619 0,1.02458 0.13987,0.48952 0.45537,0.91073 0.68305,1.36609 0.68305,1.3661 1.3661,2.7322 2.04915,4.09829 0.68305,1.3661 1.3661,2.7322 2.04914,4.09829 0.22769,0.45537 0.41322,0.93437 0.68305,1.3661 0.30168,0.48269 0.71898,0.88588 1.02457,1.3661 0.94424,1.48379 1.32976,2.31798 2.04915,3.75676 0.40044,0.80088 0.76538,1.48349 1.02457,2.39067 0.0625,0.21893 -0.10182,0.47941 0,0.68305 0.25456,0.50912 0.77002,0.85698 1.02458,1.3661 0.10182,0.20364 0,0.45536 0,0.68305 0,0.34152 0,0.68304 0,1.02457 0,0.34152 -0.108,0.70057 0,1.02457 0.12979,0.3894 0.5306,0.64347 0.68304,1.02457 0.0833,0.20813 -0.0882,1.61938 0,1.70763 3.35348,3.35347 1.06145,-0.19402 1.70762,2.39067 0.039,0.15618 0.29062,0.18879 0.34153,0.34152 0.072,0.216 0,0.45536 0,0.68305 0,0.34152 0,0.68305 0,1.02457 0,1.82146 0,3.64293 0,5.46439 0,0.5692 0,1.13841 0,1.70762 0,0.11384 -0.0509,0.2397 0,0.34152 0.072,0.144 0.22768,0.22769 0.34152,0.34153 0.34153,0.34152 0.64743,0.72285 1.02458,1.02457 0.19877,0.15902 0.54184,0.12972 0.68304,0.34152 0.1263,0.18945 0,0.45537 0,0.68305 0,0.68305 0,1.3661 0,2.04915 0,0.22768 -0.072,0.46705 0,0.68305 0.161,0.48298 0.38714,0.95181 0.68305,1.36609 0.28073,0.39303 0.68305,0.68305 1.02458,1.02458 0.11384,0.11384 0.25222,0.20756 0.34152,0.34152 0.1412,0.2118 0.16152,0.50305 0.34152,0.68305 0.18,0.18 0.54185,0.12972 0.68305,0.34152 0.1263,0.18945 -0.0447,0.45979 0,0.68305 -0.58044,0.92442 0.52205,0.88311 0.68305,1.3661 0.14243,0.4273 -0.12197,1.56126 0,2.04914 0.2979,1.19161 0.4791,1.32628 1.3661,2.39067 0.20613,0.24736 0.58122,0.37758 0.68305,0.68305 0.144,0.432 -0.0644,0.91531 0,1.3661 0.0509,0.35638 0.25421,0.67532 0.34152,1.02457 0.0276,0.11044 0,0.22768 0,0.34153 0.34152,0.91073 0.52414,1.89814 1.02457,2.73219 0.21118,0.35197 0.73434,0.39281 1.02458,0.68305 0.29024,0.29024 0.42027,0.70925 0.68304,1.02457 0.30921,0.37104 0.76859,0.615 1.02458,1.02457 0.32492,0.51987 0.32671,1.20876 0.68305,1.70762 0.79678,1.1155 1.86413,2.01276 2.73219,3.07372 0.32239,0.39403 0.32305,1.0061 0.68305,1.3661 0.18,0.18 0.54184,0.12972 0.68305,0.34152 0.12629,0.18945 -0.0846,0.47165 0,0.68305 0.15244,0.3811 0.5306,0.64347 0.68304,1.02457 0.0846,0.2114 -0.12629,0.49361 0,0.68305 0.14121,0.21181 0.50305,0.16153 0.68305,0.34153 0.18,0.18 0.22769,0.45536 0.34153,0.68304 0.22768,0.45537 0.40064,0.94249 0.68305,1.3661 0.1786,0.26792 0.45536,0.45537 0.68304,0.68305 0.22769,0.22768 0.42546,0.48985 0.68305,0.68305 0.20365,0.15273 0.54185,0.12972 0.68305,0.34152 0.1263,0.18945 0,0.45537 0,0.68305 0,0.19063 -0.0521,1.55128 0,1.70762 0.37184,1.11551 0.82321,1.65366 1.70762,2.39067 0.31533,0.26277 0.7783,0.35468 1.02457,0.68305 0.13661,0.18215 0,0.45537 0,0.68305 0,0.34152 0,0.68305 0,1.02457 0,0.34153 0,0.68305 0,1.02457 0,0.22769 -0.11714,0.48782 0,0.68305 0.2485,0.41416 0.72286,0.64742 1.02458,1.02458 0.15902,0.19877 0.22768,0.45536 0.34152,0.68304 0.45028,0.90056 1.02002,2.38612 1.70762,3.07372 2.40203,2.40203 0.36558,-0.61087 1.02457,1.3661 0.0509,0.15273 0.30996,0.18365 0.34153,0.34152 0.0694,0.34689 0,1.84636 0,2.39067 0,0.11384 -0.0276,0.23108 0,0.34153 0.45503,1.82012 0.33407,0.41013 1.3661,2.73219 0.19063,0.42893 0.21257,0.91478 0.34152,1.3661 0.0989,0.34614 0.22768,0.68305 0.34152,1.02457 0.22769,0.68305 0.38512,1.39368 0.68305,2.04914 0.27469,0.60431 0.67276,1.14472 1.02458,1.70763 0.21754,0.34807 0.55324,0.63517 0.68304,1.02457 0.108,0.324 -0.0828,0.69324 0,1.02457 0.14869,0.59475 0.50276,1.12168 0.68305,1.70762 0.27608,0.89725 0.36224,1.84996 0.68305,2.7322 0.14027,0.38574 0.49949,0.65744 0.68305,1.02457 0.38773,0.77546 0.54365,1.66929 1.02457,2.39067 0.22768,0.34152 0.81339,0.33108 1.02457,0.68305 0.17572,0.29285 0,0.68305 0,1.02457 0,0.68305 0,1.3661 0,2.04914 0,0.34153 -0.12683,0.70748 0,1.02458 0.15245,0.3811 0.53061,0.64347 0.68305,1.02457 0.0846,0.2114 -0.0846,0.47165 0,0.68305 0.24793,0.61982 1.22007,1.68348 1.70762,2.04914 0.0911,0.0683 0.27041,-0.0889 0.34153,0 0.41467,0.51835 0.72771,1.1139 1.02457,1.70762 0.161,0.322 0.11106,0.74802 0.34153,1.02458 2.17881,2.61458 0.71652,-0.89601 2.73219,2.73219 0.16898,0.30417 0.39239,2.00313 0.68305,2.39067 0.15273,0.20365 0.50305,0.16153 0.68305,0.34152 0.49425,0.49426 0.34152,1.09161 0.34152,1.70763 0,0.34152 0,0.68304 0,1.02457 0,0.22768 -0.0552,0.46216 0,0.68305 0.0617,0.24695 0.59515,0.70486 0.34152,0.68305 -0.39464,-0.034 -0.62298,-0.48937 -0.93447,-0.73405"
     id="path3369"
     inkscape:connector-curvature="0" />
  <path
     style="fill:none;stroke:#000000;stroke-width:1px;stroke-linecap:butt;stroke-linejoin:miter;stroke-opacity:1"
     d="m 613.03597,214.93269 c 2.16299,0.91073 4.21933,2.13492 6.48896,2.7322 2.10333,0.5535 4.35316,0.27231 6.48896,0.68304 0.85139,0.16373 1.54588,0.82963 2.39067,1.02458 0.66556,0.15359 1.3661,0 2.04914,0 0.79689,0 1.59378,0 2.39067,0 3.18756,0 6.37512,0 9.56268,0 9.79036,0 19.58072,0 29.37108,0 5.57823,0 11.15646,0 16.73469,0 4.2047,0 8.46276,0.31747 12.6364,-0.34153 4.11638,-0.64995 1.30397,-0.60646 4.43981,-1.02457 10.34984,-1.37998 -0.34809,0.34284 4.78134,-0.68305 0.11163,-0.0223 0.22768,0 0.34153,0 0.34152,0 0.68304,0 1.02457,0 0.79689,0 1.59378,0 2.39067,0 0.22768,0 0.4794,0.10182 0.68305,0 0.28799,-0.144 0.41513,-0.50444 0.68304,-0.68305 0.0947,-0.0632 0.26103,0.0805 0.34153,0 0.0805,-0.0805 -0.0223,-0.22989 0,-0.34152 0.0921,-0.46027 0.0483,-0.99957 0.34152,-1.3661 0.22489,-0.28111 0.70258,-0.18053 1.02458,-0.34152 4.55365,-2.27683 -2.39067,1.02457 1.70762,-1.70762 0.5537,-0.36914 1.12053,-0.34153 1.70762,-0.34153"
     id="path3371"
     inkscape:connector-curvature="0" />
  <path
     style="fill:none;stroke:#000000;stroke-width:1px;stroke-linecap:butt;stroke-linejoin:miter;stroke-opacity:1"
     d="m 530.6,153.8 c -0.86785,-5e-5 -1.74307,-0.11297 -2.60356,-1.4e-4 -0.11288,0.0148 0,0.22768 0,0.34152 0,0.11384 0,0.22768 0,0.34153 0,0.5692 -0.35558,1.26314 0,1.70762 0.29322,0.36652 0.90714,0.24317 1.3661,0.34152 4.70479,1.00817 4.85377,0.89762 10.92877,1.70762 0.90977,0.1213 1.83788,0.13515 2.7322,0.34153 3.87593,0.89444 -0.42797,0.68304 3.41524,0.68304 2.96837,0 5.93027,-0.11222 8.87963,0.34153 4.41921,0.67988 8.63862,2.05271 12.97792,3.07372 0.56505,0.13295 1.13069,0.27742 1.70762,0.34152 0.79201,0.088 1.59378,0 2.39067,0 0.2867,0 2.31732,-0.0367 2.39067,0 0.22768,0.11384 0.16152,0.50305 0.34152,0.68305 0.18,0.18 0.50305,0.16152 0.68305,0.34152 0.3219,0.64381 0.21947,0.61895 0.68305,1.02458 0.79689,0.68304 1.59378,1.36609 2.39067,2.04914 0.22768,0.11384 0.47124,0.20032 0.68305,0.34153 0.47361,0.31573 0.85698,0.77001 1.36609,1.02457 0.20365,0.10182 0.50091,-0.13661 0.68305,0 0.32837,0.24627 0.47187,0.6726 0.68305,1.02457 0.13097,0.21828 0.13788,0.53032 0.34152,0.68305 0.288,0.216 0.73658,0.12552 1.02458,0.34152 0.20364,0.15274 0.22768,0.45537 0.34152,0.68305 0.22768,0.34153 0.34904,0.786 0.68305,1.02457 0.49886,0.35634 1.18551,0.36175 1.70762,0.68305 5.03179,3.09649 1.12703,0.78551 3.75677,3.41525 0.18,0.17999 0.4794,0.18879 0.68305,0.34152 0.25759,0.19319 0.39505,0.53905 0.68304,0.68305 0.20365,0.10182 0.50091,-0.13661 0.68305,0 2.53365,1.90024 -0.89469,0.12987 1.02458,2.04914 0.16099,0.161 0.52205,-0.16099 0.68304,0 0.25456,0.25456 0.13508,0.72965 0.34153,1.02458 0.78334,1.77394 2.67961,2.59027 3.75676,4.09829 0.13234,0.18527 -0.12629,0.4936 0,0.68304 0.14121,0.21181 0.48428,0.18251 0.68305,0.34153 0.37715,0.30172 0.68305,0.68305 1.02458,1.02457 0.22768,0.22768 0.56346,0.38409 0.68304,0.68305 0.12684,0.3171 -0.067,0.68968 0,1.02457 0.0499,0.24962 0.26103,0.44156 0.34153,0.68305 0.036,0.108 0,0.22768 0,0.34153 0,0.5692 0,1.13841 0,1.70762 0,0.22768 -0.0446,0.45978 0,0.68304 0.3055,1.52753 0.89445,1.58912 2.04914,3.07372 0.252,0.324 0.53893,0.64025 0.68305,1.02458 0.20382,0.54352 0.0429,1.20986 0.34153,1.70762 0.11714,0.19523 0.45536,0 0.68304,0 0.22769,0.22768 0.56347,0.38408 0.68305,0.68305 0.18505,0.46261 -0.14508,1.88286 0,2.39066 0.75008,2.62529 0.37173,0.39187 1.3661,2.04915 0.18522,0.3087 0.12552,0.73657 0.34152,1.02457 0.15274,0.20365 0.53032,0.13788 0.68305,0.34153 0.216,0.288 0.1667,0.70987 0.34153,1.02457 0.78513,1.41323 1.49529,2.16172 2.39067,3.41524 0.23857,0.33401 0.3928,0.73433 0.68304,1.02457 0.40249,0.40249 1.05036,0.55097 1.3661,1.02458 0.13585,0.20377 -0.11907,1.69194 0,2.04914 0.0805,0.2415 0.27979,0.43609 0.34153,0.68305 0.0708,0.28325 -0.11173,1.48418 0,1.70762 0.0509,0.10182 0.22768,0 0.34152,0"
     id="path3375"
     inkscape:connector-curvature="0" />
  <path
     style="fill:none;stroke:#000000;stroke-width:1px;stroke-linecap:butt;stroke-linejoin:miter;stroke-opacity:1"
     d="m 650.60363,339.24751 c 0.11384,0.5692 0.009,1.23207 0.34153,1.70762 0.50988,0.7284 1.37039,1.13329 2.04914,1.70762 0.80123,0.67796 1.5078,1.48158 2.39067,2.04914 0.7293,0.46884 1.66929,0.54366 2.39067,1.02458 1.00691,0.67127 1.75632,1.67503 2.7322,2.39067 0.96389,1.44861 2.84704,1.17327 4.09829,2.04914 0.65946,0.46163 1.13841,1.13842 1.70762,1.70762 1.22029,1.2203 2.47487,2.60307 3.75676,3.75677 0.8995,0.80955 1.84541,1.56722 2.7322,2.39067 0.70786,0.6573 1.31173,1.42518 2.04914,2.04914 0.74759,0.63258 1.72431,0.99 2.39067,1.70763 0.8379,0.90234 1.28837,2.10545 2.04915,3.07371 0.49733,0.63297 1.21341,1.07221 1.70762,1.70762 0.31256,0.40187 0.35172,0.97955 0.68305,1.3661 0.37043,0.43218 0.98147,0.60498 1.36609,1.02457 0.87709,0.95682 1.42817,2.20288 2.39067,3.07372 1.45238,1.31405 3.26547,2.17498 4.78134,3.41524 1.12144,0.91754 2.04915,2.04915 3.07372,3.07372 0.56921,0.56921 1.08922,1.19229 1.70762,1.70762 0.75232,0.62694 1.62063,1.10259 2.39067,1.70762 0.82529,0.64845 1.5711,1.39349 2.39067,2.04915 0.32052,0.25641 0.73433,0.39281 1.02457,0.68305 0.29024,0.29024 0.35468,0.77829 0.68305,1.02457 0.18215,0.13661 0.5009,-0.13661 0.68305,0 0.32837,0.24628 0.45537,0.68305 0.68305,1.02457 0.56921,0.45537 1.07798,0.99881 1.70762,1.3661 6.56391,3.82895 -0.0273,-0.35516 3.41524,1.3661 0.36713,0.18356 0.6473,0.52136 1.02457,0.68305 0.43143,0.18489 0.97555,0.0812 1.3661,0.34152 0.34153,0.22768 0.39281,0.73433 0.68305,1.02457 3.3e-4,3.3e-4 1.02302,-5.1e-4 1.02457,0 0.30547,0.10182 0.37758,0.58123 0.68305,0.68305 0.84795,0.28265 0.74421,-0.56072 1.3661,0.68305 0.10182,0.20364 -0.10182,0.4794 0,0.68305 0.0509,0.10182 0.22989,-0.0223 0.34152,0 0.46027,0.092 0.93467,0.15662 1.3661,0.34152 0.37727,0.16169 0.64024,0.53893 1.02457,0.68305 0.54352,0.20382 1.15693,0.15796 1.70762,0.34152 0.48299,0.161 0.8934,0.49397 1.3661,0.68305 0.6685,0.2674 1.40516,0.36106 2.04914,0.68305 0.58442,0.29221 1.37572,1.82788 1.70763,2.04915 0.28416,0.18944 0.68304,0 1.02457,0 0.91073,0 1.82146,0 2.73219,0 0.45537,0 0.92433,-0.11045 1.3661,0 2.48833,0.62208 0.31725,0.679 2.39067,1.02457 0.33688,0.0562 0.70747,-0.12684 1.02457,0 0.29896,0.11958 0.41514,0.50444 0.68305,0.68305 0.0947,0.0632 0.22768,0 0.34152,0 0.34153,0 0.68305,0 1.02458,0"
     id="path3377"
     inkscape:connector-curvature="0" />
  <path
     style="fill:none;stroke:#000000;stroke-width:1px;stroke-linecap:butt;stroke-linejoin:miter;stroke-opacity:1"
     d="m 156.41809,302.36289 c -0.34152,-0.56921 -1.15475,-1.05671 -1.02457,-1.70762 0.0893,-0.44652 0.91073,0 1.3661,0 1.47993,0 2.95987,0 4.43981,0 0.22768,0 0.52205,0.161 0.68305,0 0.25456,-0.25456 0.16291,-0.71201 0.34152,-1.02457 0.28241,-0.49421 0.77002,-0.85699 1.02458,-1.3661 1.73152,-3.46304 -1.04731,0.50996 1.02457,-2.39067 1.14787,-1.60702 2.04043,-2.50241 3.07372,-4.43981 0.33882,-0.63529 0.43024,-1.375 0.68304,-2.04915 0.38339,-1.02236 0.42882,-0.5161 1.02458,-1.70762 0.16099,-0.32199 0.14183,-0.72504 0.34152,-1.02457 0.44652,-0.66979 1.2611,-1.03784 1.70762,-1.70762 0.0631,-0.0947 0,-0.22769 0,-0.34153 0,-0.34152 -0.0828,-0.69324 0,-1.02457 0.0391,-0.15619 0.26953,-0.19753 0.34153,-0.34152 0.16099,-0.322 0.21512,-0.6875 0.34152,-1.02458 0.23504,-0.62677 0.83078,-1.957 1.02457,-2.73219 0.14079,-0.56315 0.22769,-1.13842 0.34153,-1.70762 0.11384,-0.56921 0.24609,-1.13504 0.34152,-1.70762 0.0749,-0.44917 0,-0.91073 0,-1.3661 0,-0.56921 0,-1.13841 0,-1.70762 0,-0.45537 0,-0.91073 0,-1.3661 0,-0.11384 -0.0632,-0.2468 0,-0.34152 0.40435,-0.60652 0.97192,-1.09445 1.3661,-1.70762 0.6338,-0.98592 1.05747,-2.0985 1.70762,-3.07372 0.26791,-0.40187 0.72285,-0.64742 1.02457,-1.02457 0.15902,-0.19878 0.19357,-0.47591 0.34153,-0.68305 0.42369,-0.59317 0.96175,-1.10111 1.36609,-1.70762 0.0632,-0.0947 -0.0631,-0.24681 0,-0.34153 0.17861,-0.26791 0.48986,-0.42545 0.68305,-0.68305 0.49256,-0.65673 0.89533,-1.37662 1.3661,-2.04914 0.32642,-0.46631 0.73172,-0.87801 1.02457,-1.3661 0.94471,-1.07481 1.02516,-2.56245 1.70762,-3.75676 3.95949,-5.93924 0.55766,-0.43227 3.07372,-5.46439 1.15902,-2.31804 0.76213,-1.07169 2.04915,-3.07372 0.71791,-1.11676 1.31272,-2.31061 2.04914,-3.41524 0.40435,-0.60652 0.97976,-1.08948 1.3661,-1.70762 0.1908,-0.30528 0.18053,-0.70258 0.34152,-1.02458 0.18357,-0.36712 0.47187,-0.6726 0.68305,-1.02457 0.13097,-0.21828 0.16153,-0.50305 0.34153,-0.68305 0.17999,-0.18 0.47124,-0.20032 0.68304,-0.34152 0.47361,-0.31574 0.92162,-0.66899 1.3661,-1.02457 0.69429,-0.55544 1.14459,-1.361 1.70762,-2.04915 0.56303,-0.68815 1.10682,-1.39372 1.70762,-2.04914 0.65274,-0.71208 1.3661,-1.3661 2.04915,-2.04915 0.22768,-0.22768 0.51738,-0.40694 0.68305,-0.68305 0.95316,-1.5886 -0.52872,-0.62804 1.36609,-2.04914 0.53105,-0.39829 1.13128,-0.69524 1.70762,-1.02458 0.22102,-0.12629 0.48428,-0.1825 0.68305,-0.34152 0.99018,-0.3172 1.03255,-1.47051 1.70762,-2.04915 0.504,-0.43199 1.19768,-0.59961 1.70763,-1.02457 0.7405,-0.61709 0.0271,-1.23606 0.34152,-1.70762 0.1412,-0.2118 0.54184,-0.12972 0.68305,-0.34152 0.12629,-0.18945 0,-0.45537 0,-0.68305 0,-0.34153 -0.108,-0.70058 0,-1.02458 0.0509,-0.15273 0.22768,-0.22768 0.34152,-0.34152"
     id="path3379"
     inkscape:connector-curvature="0" />
  <path
     style="fill:none;stroke:#000000;stroke-width:1px;stroke-linecap:butt;stroke-linejoin:miter;stroke-opacity:1"
     d="m 30,277.8 c 2.522555,-0.57816 5.013408,-1.31815 7.567664,-1.73447 1.011228,-0.16483 2.049145,0 3.073718,0 1.821462,0 3.642925,0 5.464387,0 4.895181,0 9.790361,0 14.685542,0 1.593779,0 3.187559,0 4.781339,0 0.455365,0 0.910731,0 1.366097,0 0.569207,0 1.145033,-0.0866 1.707621,0 6.381452,0.98176 0.529616,0.0752 3.756766,1.36609 0.211398,0.0846 0.522052,-0.16099 0.683048,0 0.254558,0.25456 0.141834,0.72504 0.341525,1.02458 0.06315,0.0947 0.239701,-0.0509 0.341524,0 0.593724,0.29686 1.208058,0.58745 1.707621,1.02457 0.428372,0.37482 0.654138,0.93392 1.024573,1.3661 0.314324,0.36671 0.66557,0.70147 1.024572,1.02457 0.780136,0.70212 1.750738,1.21723 2.39067,2.04914 0.528613,0.6872 0.661253,1.60348 1.024572,2.39067 0.320023,0.69339 0.697656,1.35899 1.024573,2.04915 0.648383,1.36881 3.670239,7.88349 4.098291,9.22115 0.387914,1.21223 0.299772,2.54306 0.683048,3.75677 1.907071,6.03906 1.219242,-0.98018 2.049145,6.48896 0.125717,1.13145 0,2.27683 0,3.41524 0,2.95988 0,5.91975 0,8.87963 0,1.02457 0,2.04915 0,3.07372 0,0.34152 -0.08283,0.69324 0,1.02457 0.148688,0.59475 0.51463,1.11816 0.683049,1.70762 0.07366,0.2578 0,1.34541 0,1.70762 0,1.3661 0,2.7322 0,4.09829 0,1.82147 0,3.64293 0,5.46439 0,0.91073 0,1.82146 0,2.7322 0,0.11384 -0.0161,0.22882 0,0.34152 0.09793,0.68551 0.272621,1.36011 0.341524,2.04914 0.05664,0.56639 0,1.13842 0,1.70763 0,1.13841 0,2.27682 0,3.41524 0,0.34152 0,0.68305 0,1.02457 0,0.22768 -0.04465,0.45979 0,0.68305 0.0706,0.35301 0.199714,0.69368 0.341524,1.02457 0.541856,1.26433 1.224633,2.4688 1.707621,3.75677 0.20382,0.54352 0.283765,1.13002 0.341525,1.70762 0.146502,1.46502 -0.162596,2.97645 0,4.43981 0.07951,0.7156 0.564681,1.33895 0.683048,2.04915 0.05615,0.33688 -0.06698,0.68968 0,1.02457 0.04992,0.24962 0.227683,0.45537 0.341524,0.68305 0.113842,0.45537 0.264359,0.9031 0.341524,1.3661 0.03743,0.22458 0,0.45536 0,0.68305 0,0.5692 0,1.13841 0,1.70762 0,0.22768 0,0.45536 0,0.68305 0,0.11384 -0.036,0.23352 0,0.34152 0.0805,0.24149 0.227683,0.45537 0.341525,0.68305 0.341524,0.68305 0.763593,1.33145 1.024572,2.04914 0.408503,1.12339 0.341525,1.66791 0.341525,2.7322 0,2.16298 0,4.32597 0,6.48896 0,0.79689 0,1.59378 0,2.39067 0,0.22768 0.227682,0.68304 0,0.68304 -0.227683,0 0.173361,-0.53544 0,-0.68304 C 94.622608,382.39843 93.761752,382.12087 93,381.7"
     id="path3402"
     inkscape:connector-curvature="0" />
  <path
     style="fill:none;stroke:#000000;stroke-width:1px;stroke-linecap:butt;stroke-linejoin:miter;stroke-opacity:1"
     d="m 465.83903,412.33369 c 0.22768,0.91073 0.16232,1.9511 0.68305,2.73219 0.89305,1.33957 2.27683,2.27683 3.41524,3.41525 3.54308,3.54307 3.60112,3.44395 7.17201,7.85505 0.61618,0.76116 1.08749,1.63273 1.70762,2.39067 0.4078,0.49842 1.00888,0.83027 1.3661,1.3661 0.34006,0.51009 0.31938,1.21408 0.68305,1.70762 1.2452,1.68992 2.78697,3.14219 4.09829,4.78134 0.51282,0.64103 0.90102,1.37267 1.3661,2.04914 0.78725,1.1451 1.58297,2.28447 2.39066,3.41525 0.34153,0.45536 0.68305,0.91073 1.02458,1.36609 0.34152,0.34153 0.73478,0.63819 1.02457,1.02458 0.39828,0.53104 0.65636,1.1553 1.02457,1.70762 0.31574,0.47361 0.74814,0.86852 1.02458,1.36609 0.29772,0.53591 0.34298,1.19753 0.68304,1.70762 0.60223,1.71139 2.45193,2.36531 3.41525,3.75677 0.66715,0.96367 1.05747,2.0985 1.70762,3.07372 2.02901,3.04352 1.07229,1.08183 2.73219,3.07372 0.26277,0.31532 0.39281,0.73433 0.68305,1.02457 0.51544,0.51544 1.19218,0.85066 1.70762,1.3661 0.29024,0.29024 0.42028,0.70924 0.68305,1.02457 0.87758,1.0531 1.84007,2.0329 2.73219,3.07372 0.47439,0.55345 0.89525,1.15115 1.3661,1.70762 0.78169,0.92381 1.68728,1.74745 2.39067,2.73219 0.44387,0.62143 0.61983,1.40156 1.02457,2.04915 0.17066,0.27305 0.45537,0.45536 0.68305,0.68305 0.34152,0.45536 0.74217,0.87188 1.02457,1.36609 0.37753,0.66067 0.34153,0.81381 0.34153,1.3661 0,0.22768 -0.0552,0.46216 0,0.68305 0.0617,0.24695 0.26102,0.44155 0.34152,0.68305 0.0802,0.24053 -0.0916,1.27444 0,1.36609 0.0805,0.0805 0.22768,0 0.34153,0 0.22768,0.45537 0.45536,0.91073 0.68304,1.3661"
     id="path3404"
     inkscape:connector-curvature="0" />
  <path
     style="fill:none;stroke:#000000;stroke-width:1px;stroke-linecap:butt;stroke-linejoin:miter;stroke-opacity:1"
     d="m 465.83903,412.33369 c -0.91073,0.56921 -2.22679,0.75999 -2.73219,1.70762 -0.53573,1.00448 0.30469,2.31836 0,3.41524 -0.42329,1.52384 -2.00709,2.56398 -2.39067,4.09829 -0.96788,3.87152 1.67435,-1.88891 -0.68305,3.41525 -0.1667,0.37508 -0.52518,0.64568 -0.68305,1.02457 -0.6923,1.66153 -1.01532,3.46133 -1.70762,5.12286 -0.29372,0.70493 -0.76359,1.33145 -1.02457,2.04915 -0.19838,0.54553 -0.11286,1.17407 -0.34153,1.70762 -0.12683,0.29595 -0.51239,0.41 -0.68304,0.68305 -0.36761,0.58816 -1.48845,2.95311 -1.70763,3.75676 -0.1822,0.66807 -0.13497,1.3882 -0.34152,2.04915 -0.36572,1.17029 -0.92595,2.27086 -1.3661,3.41524 -0.12923,0.336 -0.26343,0.67315 -0.34152,1.02457 -0.15022,0.67598 -0.0688,1.41267 -0.34153,2.04915 -0.42306,0.98714 -1.22732,1.7716 -1.70762,2.73219 -0.54833,1.09667 -0.72349,2.37102 -1.36609,3.41524 -0.29832,0.48477 -1.0017,0.5873 -1.3661,1.02458 -0.23047,0.27655 -0.18053,0.70258 -0.34152,1.02457 -0.18357,0.36713 -0.49949,0.65744 -0.68305,1.02457 -0.161,0.32199 -0.20783,0.69032 -0.34153,1.02457 -0.54963,1.37409 -1.04577,2.7746 -1.70762,4.09829 -0.144,0.288 -0.51239,0.41 -0.68305,0.68305 -0.40474,0.6476 -0.68304,1.3661 -1.02457,2.04915 -0.34152,0.68305 -0.68305,1.3661 -1.02457,2.04914 -0.11384,0.22769 -0.16153,0.50305 -0.34153,0.68305 -0.17999,0.18 -0.55208,0.12325 -0.68304,0.34153 -0.2415,0.40249 -0.13162,0.94627 -0.34153,1.36609 -0.0509,0.10183 -0.26102,-0.0805 -0.34152,0 -0.29024,0.29024 -0.42664,0.70406 -0.68305,1.02458 -0.20115,0.25143 -0.50444,0.41513 -0.68305,0.68304 -0.0632,0.0947 0,0.22769 0,0.34153 0,0.34152 0,0.68305 0,1.02457 0,0.34153 0.108,0.70058 0,1.02457 -0.1298,0.3894 -0.55325,0.63518 -0.68305,1.02458 -0.0449,0.13471 0,1.75103 0,2.04914 0,0.68305 0,1.3661 0,2.04915 0,0.22768 0.1263,0.4936 0,0.68305 -0.1412,0.2118 -0.50305,0.16152 -0.68305,0.34152 -0.29024,0.29024 -0.43677,0.6962 -0.68304,1.02457 -0.0966,0.1288 -0.2587,0.20347 -0.34153,0.34153 -0.26194,0.43656 -0.37758,0.9588 -0.68305,1.36609 -0.0683,0.0911 -0.29061,-0.10182 -0.34152,0 -0.39845,0.79689 0.4269,0.68305 -0.34153,0.68305"
     id="path3406"
     inkscape:connector-curvature="0" />
  <path
     style="fill:none;stroke:#000000;stroke-width:1px;stroke-linecap:butt;stroke-linejoin:miter;stroke-opacity:1"
     d="m 743.1567,230.30128 c 8.29941,0 -0.40848,-0.40747 9.56267,1.70762 6.62927,1.40621 4.51763,-0.0346 10.58726,1.3661 1.36609,0.45537 2.73219,0.91073 4.09829,1.3661 0.45536,0 0.92157,-0.0988 1.36609,0 0.59846,0.13299 1.10647,0.56281 1.70762,0.68304 0.55816,0.11164 1.13842,0 1.70762,0 0.56921,0 1.13842,0 1.70763,0 0.45536,0 0.92432,-0.11044 1.36609,0 4.94202,1.23551 1.54694,0.81364 6.48896,2.04915 0.56315,0.14079 1.13003,0.28376 1.70762,0.34152 0.56639,0.0566 1.13842,0 1.70763,0 1.59377,0 3.18755,0 4.78133,0 0.56921,0 1.13842,0 1.70763,0 0.22768,0 0.49096,-0.12223 0.68304,0 1.09507,0.69686 2.0175,1.63623 3.07372,2.39067 0.54016,0.38583 1.20363,0.59258 1.70762,1.02458 0.31165,0.26712 0.44448,0.69056 0.68305,1.02457 0.33085,0.46318 0.62208,0.96361 1.02457,1.3661 4.46461,3.34845 -0.94721,-0.94722 2.04915,2.04914 1.30434,1.30434 3.31282,1.58249 4.09829,3.41524 0.019,0.0444 0,2.31471 0,2.39067 0,1.70762 0,3.41525 0,5.12287"
     id="path3408"
     inkscape:connector-curvature="0" />
  <path
     style="fill:none;stroke:#000000;stroke-width:1px;stroke-linecap:butt;stroke-linejoin:miter;stroke-opacity:1"
     d="m 670.07051,264.11218 c 0,-0.45537 -0.26783,-0.99783 0,-1.3661 0.71178,-0.97869 1.91138,-1.50144 2.7322,-2.39067 0.55681,-0.60321 0.81388,-1.44171 1.36609,-2.04914 0.5981,-0.65791 1.49371,-1.01333 2.04915,-1.70762 0.38297,-0.47872 0.38949,-1.16943 0.68305,-1.70762 0.3931,-0.72069 0.9588,-1.33639 1.3661,-2.04915 3.29961,-5.77433 1.98612,-3.94131 4.78133,-9.22115 0.62118,-1.17333 1.45543,-2.2278 2.04915,-3.41525 0.27417,-0.54833 0.37889,-1.17534 0.68305,-1.70762 0.15975,-0.27956 0.51239,-0.41 0.68305,-0.68305 1.17249,-0.70032 0.78924,-2.11229 1.36609,-3.07371 0.16567,-0.27611 0.4819,-0.43162 0.68305,-0.68305 0.25641,-0.32052 0.44163,-0.69262 0.68305,-1.02457 0.66958,-0.92068 1.3661,-1.82147 2.04915,-2.7322 1.41884,-1.8918 2.85763,-3.78985 4.09829,-5.80591 0.48102,-0.78167 0.93096,-1.58256 1.36609,-2.39067 0.36206,-0.67239 0.61458,-1.40486 1.02458,-2.04915 2.77285,-4.35734 -0.2323,1.14419 3.41524,-3.41524 0.38297,-0.47871 0.37889,-1.17534 0.68305,-1.70762 0.30616,-0.53579 1.8032,-1.46168 2.04914,-1.70762 0.29024,-0.29024 0.45537,-0.68305 0.68305,-1.02457 0.22768,-0.34153 0.47187,-0.67261 0.68305,-1.02457 0.13097,-0.21829 0.16152,-0.50305 0.34152,-0.68305 0.0805,-0.0805 0.22808,0.009 0.34153,0 0.65733,-0.0549 1.31296,-0.12859 1.96944,-0.19288"
     id="path3410"
     inkscape:connector-curvature="0" />
</svg>
