<?xml version="1.0" encoding="UTF-8" standalone="no"?>
<svg
   xmlns:dc="http://purl.org/dc/elements/1.1/"
   xmlns:cc="http://creativecommons.org/ns#"
   xmlns:rdf="http://www.w3.org/1999/02/22-rdf-syntax-ns#"
   xmlns:svg="http://www.w3.org/2000/svg"
   xmlns="http://www.w3.org/2000/svg"
   xmlns:sodipodi="http://sodipodi.sourceforge.net/DTD/sodipodi-0.dtd"
   xmlns:inkscape="http://www.inkscape.org/namespaces/inkscape"
   width="959"
   height="593"
   version="1.1"
   id="svg3328"
   sodipodi:docname="dbscan2 1000000 people.svg"
   inkscape:version="0.92.1 r15371"
   inkscape:export-filename="/home/matthew/Documents/poliecon/AMTRAK/cost under 1000.svg.png"
   inkscape:export-xdpi="500"
   inkscape:export-ydpi="500">
  <metadata
     id="metadata3334">
    <rdf:RDF>
      <cc:Work
         rdf:about="">
        <dc:format>image/svg+xml</dc:format>
        <dc:type
           rdf:resource="http://purl.org/dc/dcmitype/StillImage" />
        <dc:title>Blank US states map</dc:title>
      </cc:Work>
    </rdf:RDF>
  </metadata>
  <defs
     id="defs3332" />
  <sodipodi:namedview
     pagecolor="#ffffff"
     bordercolor="#666666"
     borderopacity="1"
     objecttolerance="10"
     gridtolerance="10"
     guidetolerance="10"
     inkscape:pageopacity="0"
     inkscape:pageshadow="2"
     inkscape:window-width="3775"
     inkscape:window-height="2136"
     id="namedview3330"
     showgrid="false"
     inkscape:zoom="2.92805"
     inkscape:cx="409.75277"
     inkscape:cy="289.43421"
     inkscape:window-x="65"
     inkscape:window-y="24"
     inkscape:window-maximized="1"
     inkscape:current-layer="svg3328" />
  <title
     id="title3271">Blank US states map</title>
  <g
     id="outlines">
    <path
       id="AK"
       fill="#D3D3D3"
       d="M161.1,453.7 l-0.3,85.4 1.6,1 3.1,0.2 1.5,-1.1 h2.6 l0.2,2.9 7,6.8 0.5,2.6 3.4,-1.9 0.6,-0.2 0.3,-3.1 1.5,-1.6 1.1,-0.2 1.9,-1.5 3.1,2.1 0.6,2.9 1.9,1.1 1.1,2.4 3.9,1.8 3.4,6 2.7,3.9 2.3,2.7 1.5,3.7 5,1.8 5.2,2.1 1,4.4 0.5,3.1 -1,3.4 -1.8,2.3 -1.6,-0.8 -1.5,-3.1 -2.7,-1.5 -1.8,-1.1 -0.8,0.8 1.5,2.7 0.2,3.7 -1.1,0.5 -1.9,-1.9 -2.1,-1.3 0.5,1.6 1.3,1.8 -0.8,0.8 c0,0 -0.8,-0.3 -1.3,-1 -0.5,-0.6 -2.1,-3.4 -2.1,-3.4 l-1,-2.3 c0,0 -0.3,1.3 -1,1 -0.6,-0.3 -1.3,-1.5 -1.3,-1.5 l1.8,-1.9 -1.5,-1.5 v-5 h-0.8 l-0.8,3.4 -1.1,0.5 -1,-3.7 -0.6,-3.7 -0.8,-0.5 0.3,5.7 v1.1 l-1.5,-1.3 -3.6,-6 -2.1,-0.5 -0.6,-3.7 -1.6,-2.9 -1.6,-1.1 v-2.3 l2.1,-1.3 -0.5,-0.3 -2.6,0.6 -3.4,-2.4 -2.6,-2.9 -4.8,-2.6 -4,-2.6 1.3,-3.2 v-1.6 l-1.8,1.6 -2.9,1.1 -3.7,-1.1 -5.7,-2.4 h-5.5 l-0.6,0.5 -6.5,-3.9 -2.1,-0.3 -2.7,-5.8 -3.6,0.3 -3.6,1.5 0.5,4.5 1.1,-2.9 1,0.3 -1.5,4.4 3.2,-2.7 0.6,1.6 -3.9,4.4 -1.3,-0.3 -0.5,-1.9 -1.3,-0.8 -1.3,1.1 -2.7,-1.8 -3.1,2.1 -1.8,2.1 -3.4,2.1 -4.7,-0.2 -0.5,-2.1 3.7,-0.6 v-1.3 l-2.3,-0.6 1,-2.4 2.3,-3.9 v-1.8 l0.2,-0.8 4.4,-2.3 1,1.3 h2.7 l-1.3,-2.6 -3.7,-0.3 -5,2.7 -2.4,3.4 -1.8,2.6 -1.1,2.3 -4.2,1.5 -3.1,2.6 -0.3,1.6 2.3,1 0.8,2.1 -2.7,3.2 -6.5,4.2 -7.8,4.2 -2.1,1.1 -5.3,1.1 -5.3,2.3 1.8,1.3 -1.5,1.5 -0.5,1.1 -2.7,-1 -3.2,0.2 -0.8,2.3 h-1 l0.3,-2.4 -3.6,1.3 -2.9,1 -3.4,-1.3 -2.9,1.9 h-3.2 l-2.1,1.3 -1.6,0.8 -2.1,-0.3 -2.6,-1.1 -2.3,0.6 -1,1 -1.6,-1.1 v-1.9 l3.1,-1.3 6.3,0.6 4.4,-1.6 2.1,-2.1 2.9,-0.6 1.8,-0.8 2.7,0.2 1.6,1.3 1,-0.3 2.3,-2.7 3.1,-1 3.4,-0.6 1.3,-0.3 0.6,0.5 h0.8 l1.3,-3.7 4,-1.5 1.9,-3.7 2.3,-4.5 1.6,-1.5 0.3,-2.6 -1.6,1.3 -3.4,0.6 -0.6,-2.4 -1.3,-0.3 -1,1 -0.2,2.9 -1.5,-0.2 -1.5,-5.8 -1.3,1.3 -1.1,-0.5 -0.3,-1.9 -4,0.2 -2.1,1.1 -2.6,-0.3 1.5,-1.5 0.5,-2.6 -0.6,-1.9 1.5,-1 1.3,-0.2 -0.6,-1.8 v-4.4 l-1,-1 -0.8,1.5 h-6.1 l-1.5,-1.3 -0.6,-3.9 -2.1,-3.6 v-1 l2.1,-0.8 0.2,-2.1 1.1,-1.1 -0.8,-0.5 -1.3,0.5 -1.1,-2.7 1,-5 4.5,-3.2 2.6,-1.6 1.9,-3.7 2.7,-1.3 2.6,1.1 0.3,2.4 2.4,-0.3 3.2,-2.4 1.6,0.6 1,0.6 h1.6 l2.3,-1.3 0.8,-4.4 c0,0 0.3,-2.9 1,-3.4 0.6,-0.5 1,-1 1,-1 l-1.1,-1.9 -2.6,0.8 -3.2,0.8 -1.9,-0.5 -3.6,-1.8 -5,-0.2 -3.6,-3.7 0.5,-3.9 0.6,-2.4 -2.1,-1.8 -1.9,-3.7 0.5,-0.8 6.8,-0.5 h2.1 l1,1 h0.6 l-0.2,-1.6 3.9,-0.6 2.6,0.3 1.5,1.1 -1.5,2.1 -0.5,1.5 2.7,1.6 5,1.8 1.8,-1 -2.3,-4.4 -1,-3.2 1,-0.8 -3.4,-1.9 -0.5,-1.1 0.5,-1.6 -0.8,-3.9 -2.9,-4.7 -2.4,-4.2 2.9,-1.9 h3.2 l1.8,0.6 4.2,-0.2 3.7,-3.6 1.1,-3.1 3.7,-2.4 1.6,1 2.7,-0.6 3.7,-2.1 1.1,-0.2 1,0.8 4.5,-0.2 2.7,-3.1 h1.1 l3.6,2.4 1.9,2.1 -0.5,1.1 0.6,1.1 1.6,-1.6 3.9,0.3 0.3,3.7 1.9,1.5 7.1,0.6 6.3,4.2 1.5,-1 5.2,2.6 2.1,-0.6 1.9,-0.8 4.8,1.9z m-115.1,28.9 2.1,5.3 -0.2,1 -2.9,-0.3 -1.8,-4 -1.8,-1.5 h-2.4 l-0.2,-2.6 1.8,-2.4 1.1,2.4 1.5,1.5z m-2.6,33.5 3.7,0.8 3.7,1 0.8,1 -1.6,3.7 -3.1,-0.2 -3.4,-3.6z m-20.7,-14.1 1.1,2.6 1.1,1.6 -1.1,0.8 -2.1,-3.1 v-1.9z m-13.7,73.1 3.4,-2.3 3.4,-1 2.6,0.3 0.5,1.6 1.9,0.5 1.9,-1.9 -0.3,-1.6 2.7,-0.6 2.9,2.6 -1.1,1.8 -4.4,1.1 -2.7,-0.5 -3.7,-1.1 -4.4,1.5 -1.6,0.3z m48.9,-4.5 1.6,1.9 2.1,-1.6 -1.5,-1.3z m2.9,3 1.1,-2.3 2.1,0.3 -0.8,1.9 h-2.4z m23.6,-1.9 1.5,1.8 1,-1.1 -0.8,-1.9z m8.8,-12.5 1.1,5.8 2.9,0.8 5,-2.9 4.4,-2.6 -1.6,-2.4 0.5,-2.4 -2.1,1.3 -2.9,-0.8 1.6,-1.1 1.9,0.8 3.9,-1.8 0.5,-1.5 -2.4,-0.8 0.8,-1.9 -2.7,1.9 -4.7,3.6 -4.8,2.9z m42.3,-19.8 2.4,-1.5 -1,-1.8 -1.8,1z" />
    <path
       id="HI"
       fill="#D3D3D3"
       d="M233.1,519.3 l1.9,-3.6 2.3,-0.3 0.3,0.8 -2.1,3.1z m10.2,-3.7 6.1,2.6 2.1,-0.3 1.6,-3.9 -0.6,-3.4 -4.2,-0.5 -4,1.8z m30.7,10 3.7,5.5 2.4,-0.3 1.1,-0.5 1.5,1.3 3.7,-0.2 1,-1.5 -2.9,-1.8 -1.9,-3.7 -2.1,-3.6 -5.8,2.9z m20.2,8.9 1.3,-1.9 4.7,1 0.6,-0.5 6.1,0.6 -0.3,1.3 -2.6,1.5 -4.4,-0.3z m5.3,5.2 1.9,3.9 3.1,-1.1 0.3,-1.6 -1.6,-2.1 -3.7,-0.3z m7,-1.2 2.3,-2.9 4.7,2.4 4.4,1.1 4.4,2.7 v1.9 l-3.6,1.8 -4.8,1 -2.4,-1.5z m16.6,15.6 1.6,-1.3 3.4,1.6 7.6,3.6 3.4,2.1 1.6,2.4 1.9,4.4 4,2.6 -0.3,1.3 -3.9,3.2 -4.2,1.5 -1.5,-0.6 -3.1,1.8 -2.4,3.2 -2.3,2.9 -1.8,-0.2 -3.6,-2.6 -0.3,-4.5 0.6,-2.4 -1.6,-5.7 -2.1,-1.8 -0.2,-2.6 2.3,-1 2.1,-3.1 0.5,-1 -1.6,-1.8z" />
    <path
       id="AL"
       fill="#D3D3D3"
       d="M628.5,466.4 l0.6,0.2 1.3,-2.7 1.5,-4.4 2.3,0.6 3.1,6 v1 l-2.7,1.9 2.7,0.3 5.2,-2.5 -0.3,-7.6 -2.5,-1.8 -2,-2 0.4,-4 10.5,-1.5 25.7,-2.9 6.7,-0.6 5.6,0.1 -0.5,-2.2 -1.5,-0.8 -0.9,-1.1 1,-2.6 -0.4,-5.2 -1.6,-4.5 0.8,-5.1 1.7,-4.8 -0.2,-1.7 -1.8,-0.7 -0.5,-3.6 -2.7,-3.4 -2,-6.5 -1.4,-6.7 -1.8,-5 -3.8,-16 -3.5,-7.9 -0.8,-5.6 0.1,-2.2 -9,0.8 -23.4,2.2 -12.2,0.8 -0.2,6.4 0.2,16.7 -0.7,31 -0.3,14.1 2.8,18.8 1.6,14.7z" />
    <path
       id="AR"
       fill="#D3D3D3"
       d="M587.3,346.1 l-6.4,-0.7 0.9,-3.1 3.1,-2.6 0.6,-2.3 -1.8,-2.9 -31.9,1.2 -23.3,0.7 -23.6,0.3 1.5,6.9 0.1,8.5 1.4,10.9 0.3,38.2 2.1,1.6 3,-1.2 2.9,1.2 0.4,10.1 25.2,-0.2 26.8,-0.8 0.9,-1.9 -0.3,-3.8 -1.7,-3.1 1.5,-1.4 -1.4,-2.2 0.7,-2.4 1.1,-5.9 2.7,-2.3 -0.8,-2.2 4,-5.6 2.5,-1.1 -0.1,-1.7 -0.5,-1.7 2.9,-5.8 2.5,-1.1 0.2,-3.3 2.1,-1.4 0.9,-4.1 -1.4,-4 4.2,-2.4 0.3,-2.1 1.2,-4.2 0.9,-3.1z" />
    <path
       id="AZ"
       fill="#D3D3D3"
       d="M135.1,389.7 l-0.3,1.5 0.5,1 18.9,10.7 12.1,7.6 14.7,8.6 16.8,10 12.3,2.4 25.4,2.7 6,-39.6 7,-53.1 4.4,-31 -24.6,-3.6 -60.7,-11 -0.2,1.1 -2.6,16.5 -2.1,3.8 -2.8,-0.2 -1.2,-2.6 -2.6,-0.4 -1.2,-1.1 -1.1,0.1 -2.1,1.7 -0.3,6.8 -0.3,1.5 -0.5,12.5 -1.5,2.4 -0.4,3.3 2.8,5 1.1,5.5 0.7,1.1 1.1,0.9 -0.4,2.4 -1.7,1.2 -3.4,1.6 -1.6,1.8 -1.6,3.6 -0.5,4.9 -3,2.9 -1.9,0.9 -0.1,5.8 -0.6,1.6 0.5,0.8 3.9,0.4 -0.9,3 -1.7,2.4 -3.7,0.4z" />
    <path
       id="CA"
       fill="#D3D3D3"
       d="M122.7,385.9 l-19.7,-2.7 -10,-1.5 -0.5,-1.8 v-9.4 l-0.3,-3.2 -2.6,-4.2 -0.8,-2.3 -3.9,-4.2 -2.9,-4.7 -2.7,-0.2 -3.2,-0.8 -0.3,-1 1.5,-0.6 -0.6,-3.2 -1.5,-2.1 -4.8,-0.8 -3.9,-2.1 -1.1,-2.3 -2.6,-4.8 -2.9,-3.1 h-2.9 l-3.9,-2.1 -4.5,-1.8 -4.2,-0.5 -2.4,-2.7 0.5,-1.9 1.8,-7.1 0.8,-1.9 v-2.4 l-1.6,-1 -0.5,-2.9 -1.5,-2.6 -3.4,-5.8 -1.3,-3.1 -1.5,-4.7 -1.6,-5.3 -3.2,-4.4 -0.5,-2.9 0.8,-3.9 h1.1 l2.1,-1.6 1.1,-3.6 -1,-2.7 -2.7,-0.5 -1.9,-2.6 -2.1,-3.7 -0.2,-8.2 0.6,-1.9 0.6,-2.3 0.5,-2.4 -5.7,-6.3 v-2.1 l0.3,-0.5 0.3,-3.2 -1.3,-4 -2.3,-4.8 -2.7,-4.5 -1.8,-3.9 1,-3.7 0.6,-5.8 1.8,-3.1 0.3,-6.5 -1.1,-3.6 -1.6,-4.2 -2.7,-4.2 0.8,-3.2 1.5,-4.2 1.8,-0.8 0.3,-1.1 3.1,-2.6 5.2,-11.8 0.2,-7.4 1.69,-4.9 38.69,11.8 25.6,6.6 -8,31.3 -8.67,33.1 12.63,19.2 42.16,62.3 17.1,26.1 -0.4,3.1 2.8,5.2 1.1,5.4 1,1.5 0.7,0.6 -0.2,1.4 -1.4,1 -3.4,1.6 -1.9,2.1 -1.7,3.9 -0.5,4.7 -2.6,2.5 -2.3,1.1 -0.1,6.2 -0.6,1.9 1,1.7 3,0.3 -0.4,1.6 -1.4,2 -3.9,0.6z m-73.9,-48.9 1.3,1.5 -0.2,1.3 -3.2,-0.1 -0.6,-1.2 -0.6,-1.5z m1.9,0 1.2,-0.6 3.6,2.1 3.1,1.2 -0.9,0.6 -4.5,-0.2 -1.6,-1.6z m20.7,19.8 1.8,2.3 0.8,1 1.5,0.6 0.6,-1.5 -1,-1.8 -2.7,-2 -1.1,0.2 v1.2z m-1.4,8.7 1.8,3.2 1.2,1.9 -1.5,0.2 -1.3,-1.2 c0,0 -0.7,-1.5 -0.7,-1.9 0,-0.4 0,-2.2 0,-2.2z" />
    <path
       id="CO"
       fill="#D3D3D3"
       d="M380.2,235.5 l-36,-3.5 -79.1,-8.6 -2.2,22.1 -7,50.4 -1.9,13.7 34,3.9 37.5,4.4 34.7,3 14.3,0.6z" />
    <path
       id="CT"
       fill="#D3D3D3"
       d="M852,190.9 l3.6,-3.2 1.9,-2.1 0.8,0.6 2.7,-1.5 5.2,-1.1 7,-3.5 -0.6,-4.2 -0.8,-4.4 -1.6,-6 -4.3,1.1 -21.8,4.7 0.6,3.1 1.5,7.3 v8.3 l-0.9,2.1 1.7,2.2z" />
    <path
       id="DE"
       fill="#D3D3D3"
       d="M834.4,247.2 l-1,0.5 -3.6,-2.4 -1.8,-4.7 -1.9,-3.6 -2.3,-1 -2.1,-3.6 0.5,-2 0.5,-2.3 0.1,-1.1 -0.6,0.1 -1.7,1 -2,1.7 -0.2,0.3 1.4,4.1 2.3,5.6 3.7,16.1 5,-0.3 6,-1.1z" />
    <path
       id="FL"
       fill="#D3D3D3"
       d="M750.2,445.2 l-5.2,-0.7 -0.7,0.8 1.5,4.4 -0.4,5.2 -4.1,-1 -0.2,-2.8 h-4.1 l-5.3,0.7 -32.4,1.9 -8.2,-0.3 -1.7,-1.7 -2.5,-4.2 h-5.9 l-6.6,0.5 -35.4,4.2 -0.3,2.8 1.6,1.6 2.9,2 0.3,8.4 3.3,-0.6 6,-2.1 6,-0.5 4.4,-0.6 7.6,1.8 8.1,3.9 1.6,1.5 2.9,1.1 1.6,1.9 0.3,2.7 3.2,-1.3 h3.9 l3.6,-1.9 3.7,-3.6 3.1,0.2 0.5,-1.1 -0.8,-1 0.2,-1.9 4,-0.8 h2.6 l2.9,1.5 4.2,1.5 2.4,3.7 2.7,1 1.1,3.4 3.4,1.6 1.6,2.6 1.9,0.6 5.2,1.3 1.3,3.1 3,3.7 v9.5 l-1.5,4.7 0.3,2.7 1.3,4.8 1.8,4 0.8,-0.5 1.5,-4.5 -2.6,-1 -0.3,-0.6 1.6,-0.6 4.5,1 0.2,1.6 -3.2,5.5 -2.1,2.4 3.6,3.7 2.6,3.1 2.9,5.3 2.9,3.9 2.1,5 1.8,0.3 1.6,-2.1 1.8,1.1 2.6,4 0.6,3.6 3.1,4.4 0.8,-1.3 3.9,0.3 3.6,2.3 3.4,5.2 0.8,3.4 0.3,2.9 1.1,1 1.3,0.5 2.4,-1 1.5,-1.6 3.9,-0.2 3.1,-1.5 2.7,-3.2 -0.5,-1.9 -0.3,-2.4 0.6,-1.9 -0.3,-1.9 2.4,-1.3 0.3,-3.4 -0.6,-1.8 -0.5,-12 -1.3,-7.6 -4.5,-8.2 -3.6,-5.8 -2.6,-5.3 -2.9,-2.9 -2.9,-7.4 0.7,-1.4 1.1,-1.3 -1.6,-2.9 -4,-3.7 -4.8,-5.5 -3.7,-6.3 -5.3,-9.4 -3.7,-9.7 -2.3,-7.3z m17.7,132.7 2.4,-0.6 1.3,-0.2 1.5,-2.3 2.3,-1.6 1.3,0.5 1.7,0.3 0.4,1.1 -3.5,1.2 -4.2,1.5 -2.3,1.2z m13.5,-5 1.2,1.1 2.7,-2.1 5.3,-4.2 3.7,-3.9 2.5,-6.6 1,-1.7 0.2,-3.4 -0.7,0.5 -1,2.8 -1.5,4.6 -3.2,5.3 -4.4,4.2 -3.4,1.9z" />
    <path
       id="GA"
       fill="#D3D3D3"
       d="M750.2,444.2 l-5.6,-0.7 -1.4,1.6 1.6,4.7 -0.3,3.9 -2.2,-0.6 -0.2,-3 h-5.2 l-5.3,0.7 -32.3,1.9 -7.7,-0.3 -1.4,-1.2 -2.5,-4.3 -0.8,-3.3 -1.6,-0.9 -0.5,-0.5 0.9,-2.2 -0.4,-5.5 -1.6,-4.5 0.8,-4.9 1.7,-4.8 -0.2,-2.5 -1.9,-0.7 -0.4,-3.2 -2.8,-3.5 -1.9,-6.2 -1.5,-7 -1.7,-4.8 -3.8,-16 -3.5,-8 -0.8,-5.3 0.1,-2.3 3.3,-0.3 13.6,-1.6 18.6,-2 6.3,-1.1 0.5,1.4 -2.2,0.9 -0.9,2.2 0.4,2 1.4,1.6 4.3,2.7 3.2,-0.1 3.2,4.7 0.6,1.6 2.3,2.8 0.5,1.7 4.7,1.8 3,2.2 2.3,3 2.3,1.3 2,1.8 1.4,2.7 2.1,1.9 4.1,1.8 2.7,6 1.7,5.1 2.8,0.7 2.1,1.9 2,5.7 2.9,1.6 1.7,-0.8 0.4,1.2 -3.3,6.2 0.5,2.6 -1.5,4.2 -2.3,10 0.8,6.3z" />
    <path
       id="IA"
       fill="#D3D3D3"
       d="M556.8,183.6 l2.1,2.1 0.3,0.7 -2,3 0.3,4 2.6,4.1 3.1,1.6 2.4,0.3 0.9,1.8 0.2,2.4 2.5,1 0.9,1.1 0.5,1.6 3.8,3.3 0.6,1.9 -0.7,3 -1.7,3.7 -0.6,2.4 -2.1,1.6 -1.6,0.5 -5.7,1.5 -1.6,4.8 0.8,1.8 1.7,1.5 -0.2,3.5 -1.9,1.4 -0.7,1.8 v2.4 l-1.4,0.4 -1.7,1.4 -0.5,1.7 0.4,1.7 -1.3,1 -2.3,-2.7 -1.4,-2.8 -8.3,0.8 -10,0.6 -49.2,1.2 -1.6,-4.3 -0.4,-6.7 -1.4,-4.2 -0.7,-5.2 -2.2,-3.7 -1,-4.6 -2.7,-7.8 -1.1,-5.6 -1.4,-1.9 -1.3,-2.9 1.7,-3.8 1.2,-6.1 -2.7,-2.2 -0.3,-2.4 0.7,-2.4 1.8,-0.3 61.1,-0.6 21.2,-0.7z" />
    <path
       id="ID"
       fill="#D3D3D3"
       d="M175.3,27.63 l-4.8,17.41 -4.5,20.86 -3.4,16.22 -0.4,9.67 1.2,4.44 3.5,2.66 -0.2,3.91 -3.9,4.4 -4.5,6.6 -0.9,2.9 -1.2,1.1 -1.8,0.8 -4.3,5.3 -0.4,3.1 -0.4,1.1 0.6,1 2.6,-0.1 1.1,2.3 -2.4,5.8 -1.2,4.2 -8.8,35.3 20.7,4.5 39.5,7.9 34.8,6.1 4.9,-29.2 3.8,-24.1 -2.7,-2.4 -0.4,-2.6 -0.8,-1.1 -2.1,1 -0.7,2.6 -3.2,0.5 -3.9,-1.6 -3.8,0.1 -2.5,0.7 -3.4,-1.5 -2.4,0.2 -2.4,2 -2,-1.1 -0.7,-4 0.7,-2.9 -2.5,-2.9 -3.3,-2.6 -2.7,-13.1 -0.1,-4.7 -0.3,-0.1 -0.2,0.4 -5.1,3.5 -1.7,-0.2 -2.9,-3.4 -0.2,-3.1 7,-17.13 -0.4,-1.94 -3.4,-1.15 -0.6,-1.18 -2.6,-3.46 -4.6,-10.23 -3.2,-1.53 -2,-4.95 1.3,-4.63 -3.2,-7.58 4.4,-21.52z" />
    <path
       id="IL"
       fill="#D3D3D3"
       d="M618.7,214.3 l-0.8,-2.6 -1.3,-3.7 -1.6,-1.8 -1.5,-2.6 -0.4,-5.5 -15.9,1.8 -17.4,1 h-12.3 l0.2,2.1 2.2,0.9 1.1,1.4 0.4,1.4 3.9,3.4 0.7,2.4 -0.7,3.3 -1.7,3.7 -0.8,2.7 -2.4,1.9 -1.9,0.6 -5.2,1.3 -1.3,4.1 0.6,1.1 1.9,1.8 -0.2,4.3 -2.1,1.6 -0.5,1.3 v2.8 l-1.8,0.6 -1.4,1.2 -0.4,1.2 0.4,2 -1.6,1.3 -0.9,2.8 0.3,3.9 2.3,7 7,7.6 5.7,3.7 v4.4 l0.7,1.2 6.6,0.6 2.7,1.4 -0.7,3.5 -2.2,6.2 -0.8,3 2,3.7 6.4,5.3 4.8,0.8 2.2,5.1 2,3.4 -0.9,2.8 1.5,3.8 1.7,2.1 1.6,-0.3 1,-2.2 2.4,-1.7 2.8,-1 6.1,2.5 0.5,-0.2 v-1.1 l-1.2,-2.7 0.4,-2.8 2.4,-1.6 3.4,-1.2 -0.5,-1.3 -0.8,-2 1.2,-1.3 1,-2.7 v-4 l0.4,-4.9 2.5,-3 1.8,-3.8 2.5,-4 -0.5,-5.3 -1.8,-3.2 -0.3,-3.3 0.8,-5.3 -0.7,-7.2 -1.1,-15.8 -1.4,-15.3 -0.9,-11.7z" />
    <path
       id="IN"
       fill="#D3D3D3"
       d="M622.9,216.1 l1.5,1 1.1,-0.3 2.1,-1.9 2.5,-1.8 14.3,-1.1 18.4,-1.8 1.6,15.5 4.9,42.6 -0.6,2.9 1.3,1.6 0.2,1.3 -2.3,1.6 -3.6,1.7 -3.2,0.4 -0.5,4.8 -4.7,3.6 -2.9,4 0.2,2.4 -0.5,1.4 h-3.5 l-1.4,-1.7 -5.2,3 0.2,3.1 -0.9,0.2 -0.5,-0.9 -2.4,-1.7 -3.6,1.5 -1.4,2.9 -1.2,-0.6 -1.6,-1.8 -4.4,0.5 -5.7,1 -2.5,1.3 v-2.6 l0.4,-4.7 2.3,-2.9 1.8,-3.9 2.7,-4.2 -0.5,-5.8 -1.8,-3.1 -0.3,-3.2 0.8,-5.3 -0.7,-7.1 -0.9,-12.6 -2.5,-30.1z" />
    <path
       id="KS"
       fill="#D3D3D3"
       d="M485.9,259.5 l-43.8,-0.6 -40.6,-1.2 -21.7,-0.9 -4.3,64.8 24.3,1 44.7,2.1 46.3,0.6 12.6,-0.3 0.7,-35 -1.2,-11.1 -2.5,-2 -2.4,-3 -2.3,-3.6 0.6,-3 1.7,-1.4 v-2.1 l-0.8,-0.7 -2.6,-0.2 -3.5,-3.4z" />
    <path
       id="KY"
       fill="#D3D3D3"
       d="M607.2,331.8 l12.6,-0.7 0.1,-4.1 h4.3 l30.4,-3.2 45.1,-4.3 5.6,-3.6 3.9,-2.1 0.1,-1.9 6,-7.8 4.1,-3.6 2.1,-2.4 -3.3,-2 -2.5,-2.7 -3,-3.8 -0.5,-2.2 -2.6,-1.4 -0.9,-1.9 -0.2,-6.1 -2.6,-2 -1.9,-1.1 -0.5,-2.3 -1.3,0.2 -2,1.2 -2.5,2.7 -1.9,-1.7 -2.5,-0.5 -2.4,1.4 h-2.3 l-1.8,-2 -5.6,-0.1 -1.8,-4.5 -2.9,-1.5 -2.1,0.8 -4.2,0.2 -0.5,2.1 1.2,1.5 0.3,2.1 -2.8,2 -3.8,1.8 -2.6,0.4 -0.5,4.5 -4.9,3.6 -2.6,3.7 0.2,2.2 -0.9,2.3 -4.5,-0.1 -1.3,-1.3 -3.9,2.2 0.2,3.3 -2.4,0.6 -0.8,-1.4 -1.7,-1.2 -2.7,1.1 -1.8,3.5 -2.2,-1 -1.4,-1.6 -3.7,0.4 -5.6,1 -2.8,1.3 -1.2,3.4 -1,1 1.5,3.7 -4.2,1.4 -1.9,1.4 -0.4,2.2 1.2,2.4 v2.2 l-1.6,0.4 -6.1,-2.5 -2.3,0.9 -2,1.4 -0.8,1.8 1.7,2.4 -0.9,1.8 -0.1,3.3 -2.4,1.3 -2.1,1.7z" />
    <path
       id="LA"
       fill="#D3D3D3"
       d="M526.9,485.9 l8.1,-0.3 10.3,3.6 6.5,1.1 3.7,-1.5 3.2,1.1 3.2,1 0.8,-2.1 -3.2,-1.1 -2.6,0.5 -2.7,-1.6 0.8,-1.5 3.1,-1 1.8,1.5 1.8,-1 3.2,0.6 1.5,2.4 0.3,2.3 4.5,0.3 1.8,1.8 -0.8,1.6 -1.3,0.8 1.6,1.6 8.4,3.6 3.6,-1.3 1,-2.4 2.6,-0.6 1.8,-1.5 1.3,1 0.8,2.9 -2.3,0.8 0.6,0.6 3.4,-1.3 2.3,-3.4 0.8,-0.5 -2.1,-0.3 0.8,-1.6 -0.2,-1.5 2.1,-0.5 1.1,-1.3 0.6,0.8 0.6,3.1 4.2,0.6 4,1.9 1,1.5 h2.9 l1.1,1 2.3,-3.1 v-1.5 h-1.3 l-3.4,-2.7 -5.8,-0.8 -3.2,-2.3 1.1,-2.7 2.3,0.3 0.2,-0.6 -1.8,-1 v-0.5 h3.2 l1.8,-3.1 -1.3,-1.9 -0.3,-2.7 -1.5,0.2 -1.9,2.1 -0.6,2.6 -3.1,-0.6 -1,-1.8 1.8,-1.9 1.9,-1.7 -2.2,-6.5 -3.4,-3.4 1,-7.3 -0.2,-0.5 -1.3,0.2 -33.1,1.4 -0.8,-2.4 0.8,-8.5 8.6,-14.8 -0.9,-2.6 1.4,-0.4 0.4,-2 -2.2,-2 0.1,-1.9 -2,-4.5 -0.4,-5.1 0.1,-0.7 -26.4,0.8 -25.2,0.1 0.4,9.7 0.7,9.5 0.5,3.7 2.6,4.5 0.9,4.4 4.3,6 0.3,3.1 0.6,0.8 -0.7,8.3 -2.8,4.6 1.2,2.4 -0.5,2.6 -0.8,7.3 -1.3,3 0.2,3.7z" />
    <path
       id="MA"
       fill="#D3D3D3"
       d="M887.5,172.5 l-0.5,-2.3 0.8,-1.5 2.9,-1.5 0.8,3.1 -0.5,1.8 -2.4,1.5 v1 l1.9,-1.5 3.9,-4.5 3.9,-1.9 4.2,-1.5 -0.3,-2.4 -1,-2.9 -1.9,-2.4 -1.8,-0.8 -2.1,0.2 -0.5,0.5 1,1.3 1.5,-0.8 2.1,1.6 0.8,2.7 -1.8,1.8 -2.3,1 -3.6,-0.5 -3.9,-6 -2.3,-2.6 h-1.8 l-1.1,0.8 -1.9,-2.6 0.3,-1.5 2.4,-5.2 -2.9,-4.4 -3.7,1.8 -1.8,2.9 -18.3,4.7 -13.8,2.5 -0.6,10.6 0.7,4.9 22,-4.8 11.2,-2.8 2,1.6 3.4,4.3 2.9,4.7z m12.5,1.4 2.2,-0.7 0.5,-1.7 1,0.1 1,2.3 -1.3,0.5 -3.9,0.1z m-9.4,0.8 2.3,-2.6 h1.6 l1.8,1.5 -2.4,1 -2.2,1z" />
    <path
       id="MD"
       fill="#D3D3D3"
       d="M834.8,264.1 l1.7,-3.8 0.5,-4.8 -6.3,1.1 -5.8,0.3 -3.8,-16.8 -2.3,-5.5 -1.5,-4.6 -22.2,4.3 -37.6,7.6 2,10.4 4.8,-4.9 2.5,-0.7 1.4,-1.5 1.8,-2.7 1.6,0.7 2.6,-0.2 2.6,-2.1 2,-1.5 2.1,-0.6 1.5,1.1 2.7,1.4 1.9,1.8 1.3,1.4 4.8,1.6 -0.6,2.9 5.8,2.1 2.1,-2.6 3.7,2.5 -2.1,3.3 -0.7,3.3 -1.8,2.6 v2.1 l0.3,0.8 2,1.3 3.4,1.1 4.3,-0.1 3.1,1 2.1,0.3 1,-2.1 -1.5,-2.1 v-1.8 l-2.4,-2.1 -2.1,-5.5 1.3,-5.3 -0.2,-2.1 -1.3,-1.3 c0,0 1.5,-1.6 1.5,-2.3 0,-0.6 0.5,-2.1 0.5,-2.1 l1.9,-1.3 1.9,-1.6 0.5,1 -1.5,1.6 -1.3,3.7 0.3,1.1 1.8,0.3 0.5,5.5 -2.1,1 0.3,3.6 0.5,-0.2 1.1,-1.9 1.6,1.8 -1.6,1.3 -0.3,3.4 2.6,3.4 3.9,0.5 1.6,-0.8 3.2,4.2 1,0.4z m-14.5,0.2 1.1,2.5 0.2,1.8 1.1,1.9 c0,0 0.9,-0.9 0.9,-1.2 0,-0.3 -0.7,-3.1 -0.7,-3.1 l-0.7,-2.3z" />
    <path
       id="ME"
       fill="#D3D3D3"
       d="M865.8,91.9 l1.5,0.4 v-2.6 l0.8,-5.5 2.6,-4.7 1.5,-4 -1.9,-2.4 v-6 l0.8,-1 0.8,-2.7 -0.2,-1.5 -0.2,-4.8 1.8,-4.8 2.9,-8.9 2.1,-4.2 h1.3 l1.3,0.2 v1.1 l1.3,2.3 2.7,0.6 0.8,-0.8 v-1 l4,-2.9 1.8,-1.8 1.5,0.2 6,2.4 1.9,1 9.1,29.9 h6 l0.8,1.9 0.2,4.8 2.9,2.3 h0.8 l0.2,-0.5 -0.5,-1.1 2.8,-0.5 1.9,2.1 2.3,3.7 v1.9 l-2.1,4.7 -1.9,0.6 -3.4,3.1 -4.8,5.5 c0,0 -0.6,0 -1.3,0 -0.6,0 -1,-2.1 -1,-2.1 l-1.8,0.2 -1,1.5 -2.4,1.5 -1,1.5 1.6,1.5 -0.5,0.6 -0.5,2.7 -1.9,-0.2 v-1.6 l-0.3,-1.3 -1.5,0.3 -1.8,-3.2 -2.1,1.3 1.3,1.5 0.3,1.1 -0.8,1.3 0.3,3.1 0.2,1.6 -1.6,2.6 -2.9,0.5 -0.3,2.9 -5.3,3.1 -1.3,0.5 -1.6,-1.5 -3.1,3.6 1,3.2 -1.5,1.3 -0.2,4.4 -1.1,6.3 -2.2,-0.9 -0.5,-3.1 -4,-1.1 -0.2,-2.5 -11.7,-37.43z m36.5,15.6 1.5,-1.5 1.4,1.1 0.6,2.4 -1.7,0.9z m6.7,-5.9 1.8,1.9 c0,0 1.3,0.1 1.3,-0.2 0,-0.3 0.2,-2 0.2,-2 l0.9,-0.8 -0.8,-1.8 -2,0.7z" />
    <path
       id="MI"
       fill="#D3D3D3"
       d="M644.5,211 l19.1,-1.9 0.2,1.1 9.9,-1.5 12,-1.7 0.1,-0.6 0.2,-1.5 2.1,-3.7 2,-1.7 -0.2,-5.1 1.6,-1.6 1.1,-0.3 0.2,-3.6 1.5,-3 1.1,0.6 0.2,0.6 0.8,0.2 1.9,-1 -0.4,-9.1 -3.2,-8.2 -2.3,-9.1 -2.4,-3.2 -2.6,-1.8 -1.6,1.1 -3.9,1.8 -1.9,5 -2.7,3.7 -1.1,0.6 -1.5,-0.6 c0,0 -2.6,-1.5 -2.4,-2.1 0.2,-0.6 0.5,-5 0.5,-5 l3.4,-1.3 0.8,-3.4 0.6,-2.6 2.4,-1.6 -0.3,-10 -1.6,-2.3 -1.3,-0.8 -0.8,-2.1 0.8,-0.8 1.6,0.3 0.2,-1.6 -2.6,-2.2 -1.3,-2.6 h-2.6 l-4.5,-1.5 -5.5,-3.4 h-2.7 l-0.6,0.6 -1,-0.5 -3.1,-2.3 -2.9,1.8 -2.9,2.3 0.3,3.6 1,0.3 2.1,0.5 0.5,0.8 -2.6,0.8 -2.6,0.3 -1.5,1.8 -0.3,2.1 0.3,1.6 0.3,5.5 -3.6,2.1 -0.6,-0.2 v-4.2 l1.3,-2.4 0.6,-2.4 -0.8,-0.8 -1.9,0.8 -1,4.2 -2.7,1.1 -1.8,1.9 -0.2,1 0.6,0.8 -0.6,2.6 -2.3,0.5 v1.1 l0.8,2.4 -1.1,6.1 -1.6,4 0.6,4.7 0.5,1.1 -0.8,2.4 -0.3,0.8 -0.3,2.7 3.6,6 2.9,6.5 1.5,4.8 -0.8,4.7 -1,6 -2.4,5.2 -0.3,2.7 -3.2,3.1z m-33.3,-72.4 -1.3,-1.1 -1.8,-10.4 -3.7,-1.3 -1.7,-2.3 -12.6,-2.8 -2.8,-1.1 -8.1,-2.2 -7.8,-1 -3.9,-5.3 0.7,-0.5 2.7,-0.8 3.6,-2.3 v-1 l0.6,-0.6 6,-1 2.4,-1.9 4.4,-2.1 0.2,-1.3 1.9,-2.9 1.8,-0.8 1.3,-1.8 2.3,-2.3 4.4,-2.4 4.7,-0.5 1.1,1.1 -0.3,1 -3.7,1 -1.5,3.1 -2.3,0.8 -0.5,2.4 -2.4,3.2 -0.3,2.6 0.8,0.5 1,-1.1 3.6,-2.9 1.3,1.3 h2.3 l3.2,1 1.5,1.1 1.5,3.1 2.7,2.7 3.9,-0.2 1.5,-1 1.6,1.3 1.6,0.5 1.3,-0.8 h1.1 l1.6,-1 4,-3.6 3.4,-1.1 6.6,-0.3 4.5,-1.9 2.6,-1.3 1.5,0.2 v5.7 l0.5,0.3 2.9,0.8 1.9,-0.5 6.1,-1.6 1.1,-1.1 1.5,0.5 v7 l3.2,3.1 1.3,0.6 1.3,1 -1.3,0.3 -0.8,-0.3 -3.7,-0.5 -2.1,0.6 -2.3,-0.2 -3.2,1.5 h-1.8 l-5.8,-1.3 -5.2,0.2 -1.9,2.6 -7,0.6 -2.4,0.8 -1.1,3.1 -1.3,1.1 -0.5,-0.2 -1.5,-1.6 -4.5,2.4 h-0.6 l-1.1,-1.6 -0.8,0.2 -1.9,4.4 -1,4 -3.2,6.9z m-29.6,-56.5 1.8,-2.1 2.2,-0.8 5.4,-3.9 2.3,-0.6 0.5,0.5 -5.1,5.1 -3.3,1.9 -2.1,0.9z m86.2,32.1 0.6,2.5 3.2,0.2 1.3,-1.2 c0,0 -0.1,-1.5 -0.4,-1.6 -0.3,-0.2 -1.6,-1.9 -1.6,-1.9 l-2.2,0.2 -1.6,0.2 -0.3,1.1z" />
    <path
       id="MN"
       fill="#D3D3D3"
       d="M464.6,66.79 l-0.6,3.91 v10.27 l1.6,5.03 1.9,3.32 0.5,9.93 1.8,13.45 1.8,7.3 0.4,6.4 v5.3 l-1.6,1.8 -1.8,1.3 v1.5 l0.9,1.7 4.1,3.5 0.7,3.2 v35.9 l60.3,-0.6 21.2,-0.7 -0.5,-6 -1.8,-2.1 -7.2,-4.6 -3.6,-5.3 -3.4,-0.9 -2,-2.8 h-3.2 l-3.5,-3.8 -0.5,-7 0.1,-3.9 1.5,-3 -0.7,-2.7 -2.8,-3.1 2.2,-6.1 5.4,-4 1.2,-1.4 -0.2,-8 0.2,-3 2.6,-3 3.8,-2.9 1.3,-0.2 4.5,-5 1.8,-0.8 2.3,-3.9 2.4,-3.6 3.1,-2.6 4.8,-2 9.2,-4.1 3.9,-1.8 0.6,-2.3 -4.4,0.4 -0.7,1.1 h-0.6 l-1.8,-3.1 -8.9,0.3 -1,0.8 h-1 l-0.5,-1.3 -0.8,-1.8 -2.6,0.5 -3.2,3.2 -1.6,0.8 h-3.1 l-2.6,-1 v-2.1 l-1.3,-0.2 -0.5,0.5 -2.6,-1.3 -0.5,-2.9 -1.5,0.5 -0.5,1 -2.4,-0.5 -5.3,-2.4 -3.9,-2.6 h-2.9 l-1.3,-1 -2.3,0.6 -1.1,1.1 -0.3,1.3 h-4.8 v-2.1 l-6.3,-0.3 -0.3,-1.5 h-4.8 l-1.6,-1.6 -1.5,-6.1 -0.8,-5.5 -1.9,-0.8 -2.3,-0.5 -0.6,0.2 -0.3,8.2 -30.1,-0.03z" />
    <path
       id="MO"
       fill="#D3D3D3"
       d="M593.1,338.7 l0.5,-5.9 4.2,-3.4 1.9,-1 v-2.9 l0.7,-1.6 -1.1,-1.6 -2.4,0.3 -2.1,-2.5 -1.7,-4.5 0.9,-2.6 -2,-3.2 -1.8,-4.6 -4.6,-0.7 -6.8,-5.6 -2.2,-4.2 0.8,-3.3 2.2,-6 0.6,-3 -1.9,-1 -6.9,-0.6 -1.1,-1.9 v-4.1 l-5.3,-3.5 -7.2,-7.8 -2.3,-7.3 -0.5,-4.2 0.7,-2.4 -2.6,-3.1 -1.2,-2.4 -7.7,0.8 -10,0.6 -48.8,1.2 1.3,2.6 -0.1,2.2 2.3,3.6 3,3.9 3.1,3 2.6,0.2 1.4,1.1 v2.9 l-1.8,1.6 -0.5,2.3 2.1,3.2 2.4,3 2.6,2.1 1.3,11.6 -0.8,40 0.5,5.7 23.7,-0.2 23.3,-0.7 32.5,-1.3 2.2,3.7 -0.8,3.1 -3.1,2.5 -0.5,1.8 5.2,0.5 4.1,-1.1z" />
    <path
       id="MS"
       fill="#D3D3D3"
       d="M604.3,472.5 l2.6,-4.2 1.8,0.8 6.8,-1.9 2.1,0.3 1.5,0.8 h5.2 l0.4,-1.6 -1.7,-14.8 -2.8,-19 1,-45.1 -0.2,-16.7 0.2,-6.3 -4.8,0.3 -19.6,1.6 -13,0.4 -0.2,3.2 -2.8,1.3 -2.6,5.1 0.5,1.6 0.1,2.4 -2.9,1.1 -3.5,5.1 0.8,2.3 -3,2.5 -1,5.7 -0.6,1.9 1.6,2.5 -1.5,1.4 1.5,2.8 0.3,4.2 -1.2,2.5 -0.2,0.9 0.4,5 2,4.5 -0.1,1.7 2.3,2 -0.7,3.1 -0.9,0.3 0.6,1.9 -8.6,15 -0.8,8.2 0.5,1.5 24.2,-0.7 8.2,-0.7 1.9,-0.3 0.6,1.4 -1,7.1 3.3,3.3 2.2,6.4z" />
    <path
       id="MT"
       fill="#D3D3D3"
       d="M361.1,70.77 l-5.3,57.13 -1.3,15.2 -59.1,-6.6 -49,-7.1 -1.4,11.2 -1.9,-1.7 -0.4,-2.5 -1.3,-1.9 -3.3,1.5 -0.7,2.5 -2.3,0.3 -3.8,-1.6 -4.1,0.1 -2.4,0.7 -3.2,-1.5 -3,0.2 -2.1,1.9 -0.9,-0.6 -0.7,-3.4 0.7,-3.2 -2.7,-3.2 -3.3,-2.5 -2.5,-12.6 -0.1,-5.3 -1.6,-0.8 -0.6,1 -4.5,3.2 -1.2,-0.1 -2.3,-2.8 -0.2,-2.8 7,-17.15 -0.6,-2.67 -3.5,-1.12 -0.4,-0.91 -2.7,-3.5 -4.6,-10.41 -3.2,-1.58 -1.8,-4.26 1.3,-4.63 -3.2,-7.57 4.4,-21.29 32.7,6.89 18.4,3.4 32.3,5.3 29.3,4 29.2,3.5 30.8,3.07z" />
    <path
       id="NC"
       fill="#D3D3D3"
       d="M786.7,357.7 l-12.7,-7.7 -3.1,-0.8 -16.6,2.1 -1.6,-3 -2.8,-2.2 -16.7,0.5 -7.4,0.9 -9.2,4.5 -6.8,2.7 -6.5,1.2 -13.4,1.4 0.1,-4.1 1.7,-1.3 2.7,-0.7 0.7,-3.8 3.9,-2.5 3.9,-1.5 4.5,-3.7 4.4,-2.3 0.7,-3.2 4.1,-3.8 0.7,1 2.5,0.2 2.4,-3.6 1.7,-0.4 2.6,0.3 1.8,-4 2.5,-2.4 0.5,-1.8 0.1,-3.5 4.4,0.1 38.5,-5.6 57.5,-12.3 2,4.8 3.6,6.5 2.4,2.4 0.6,2.3 -2.4,0.2 0.8,0.6 -0.3,4.2 -2.6,1.3 -0.6,2.1 -1.3,2.9 -3.7,1.6 -2.4,-0.3 -1.5,-0.2 -1.6,-1.3 0.3,1.3 v1 h1.9 l0.8,1.3 -1.9,6.3 h4.2 l0.6,1.6 2.3,-2.3 1.3,-0.5 -1.9,3.6 -3.1,4.8 h-1.3 l-1.1,-0.5 -2.7,0.6 -5.2,2.4 -6.5,5.3 -3.4,4.7 -1.9,6.5 -0.5,2.4 -4.7,0.5 -5.1,1.5z m49.3,-26.2 2.6,-2.5 3.2,-2.6 1.5,-0.6 0.2,-2 -0.6,-6.1 -1.5,-2.3 -0.6,-1.9 0.7,-0.2 2.7,5.5 0.4,4.4 -0.2,3.4 -3.4,1.5 -2.8,2.4 -1.1,1.2z" />
    <path
       id="ND"
       fill="#D3D3D3"
       d="M471,126.4 l-0.4,-6.2 -1.8,-7.3 -1.8,-13.61 -0.5,-9.7 -1.9,-3.18 -1.6,-5.32 v-10.41 l0.6,-3.85 -1.8,-5.54 -28.6,-0.59 -18.6,-0.6 -26.5,-1.3 -25.2,-2.16 -0.9,14.42 -4.7,50.94 56.8,3.9 56.9,1.7z" />
    <path
       id="NE"
       fill="#D3D3D3"
       d="M470.3,204.3 l-1,-2.3 -0.5,-1.6 -2.9,-1.6 -4.8,-1.5 -2.2,-1.2 -2.6,0.1 -3.7,0.4 -4.2,1.2 -6,-4.1 -2.2,-2 -10.7,0.6 -41.5,-2.4 -35.6,-2.2 -4.3,43.7 33.1,3.3 -1.4,21.1 21.7,1 40.6,1.2 43.8,0.6 h4.5 l-2.2,-3 -2.6,-3.9 0.1,-2.3 -1.4,-2.7 -1.9,-5.2 -0.4,-6.7 -1.4,-4.1 -0.5,-5 -2.3,-3.7 -1,-4.7 -2.8,-7.9 -1,-5.3z" />
    <path
       id="NH"
       fill="#D3D3D3"
       d="M881.7,141.3 l1.1,-3.2 -2.7,-1.2 -0.5,-3.1 -4.1,-1.1 -0.3,-3 -11.7,-37.48 -0.7,0.08 -0.6,1.6 -0.6,-0.5 -1,-1 -1.5,1.9 -0.2,2.29 0.5,8.41 1.9,2.8 v4.3 l-3.9,4.8 -2.4,0.9 v0.7 l1.1,1.9 v8.6 l-0.8,9.2 -0.2,4.7 1,1.4 -0.2,4.7 -0.5,1.5 1,1.1 5.1,-1.2 13.8,-3.5 1.7,-2.9 4,-1.9z" />
    <path
       id="NJ"
       fill="#D3D3D3"
       d="M823.7,228.3 l0.1,-1.5 2.7,-1.3 1.7,-2.8 1.7,-2.4 3.3,-3.2 v-1.2 l-6.1,-4.1 -1,-2.7 -2.7,-0.3 -0.1,-0.9 -0.7,-2.2 2.2,-1.1 0.2,-2.9 -1.3,-1.3 0.2,-1.2 1.9,-3.1 v-3.1 l2.5,-3.1 5.6,2.5 6.4,1.9 2.5,1.2 0.1,1.8 -0.5,2.7 0.4,4.5 -2.1,1.9 -1.1,1 0.5,0.5 2.7,-0.3 1.1,-0.8 1.6,3.4 0.2,9.4 0.6,1.1 -1.1,5.5 -3.1,6.5 -2.7,4 -0.8,4.8 -2.1,2.4 h-0.8 l-0.3,-2.7 0.8,-1 -0.2,-1.5 -4,-0.6 -4.8,-2.3 -3.2,-2.9 -1,-2z" />
    <path
       id="NM"
       fill="#D3D3D3"
       d="M270.2,429.4 l-16.7,-2.6 -1.2,9.6 -15.8,-2 6,-39.7 7,-53.2 4.4,-30.9 34,3.9 37.4,4.4 32,2.8 -0.3,10.8 -1.4,-0.1 -7.4,97.7 -28.4,-1.8 -38.1,-3.7 0.7,6.3z" />
    <path
       id="NV"
       fill="#D3D3D3"
       d="M123.1,173.6 l38.7,8.5 26,5.2 -10.6,53.1 -5.4,29.8 -3.3,15.5 -2.1,11.1 -2.6,16.4 -1.7,3.1 -1.6,-0.1 -1.2,-2.6 -2.8,-0.5 -1.3,-1.1 -1.8,0.1 -0.9,0.8 -1.8,1.3 -0.3,7.3 -0.3,1.5 -0.5,12.4 -1.1,1.8 -16.7,-25.5 -42.1,-62.1 -12.43,-19 8.55,-32.6 8.01,-31.3z" />
    <path
       id="NY"
       fill="#D3D3D3"
       d="M843.4,200 l0.5,-2.7 -0.2,-2.4 -3,-1.5 -6.5,-2 -6,-2.6 -0.6,-0.4 -2.7,-0.3 -2,-1.5 -2.1,-5.9 -3.3,-0.5 -2.4,-2.4 -38.4,8.1 -31.6,6 -0.5,-6.5 1.6,-1.2 1.3,-1.1 1,-1.6 1.8,-1.1 1.9,-1.8 0.5,-1.6 2.1,-2.7 1.1,-1 -0.2,-1 -1.3,-3.1 -1.8,-0.2 -1.9,-6.1 2.9,-1.8 4.4,-1.5 4,-1.3 3.2,-0.5 6.3,-0.2 1.9,1.3 1.6,0.2 2.1,-1.3 2.6,-1.1 5.2,-0.5 2.1,-1.8 1.8,-3.2 1.6,-1.9 h2.1 l1.9,-1.1 0.2,-2.3 -1.5,-2.1 -0.3,-1.5 1.1,-2.1 v-1.5 h-1.8 l-1.8,-0.8 -0.8,-1.1 -0.2,-2.6 5.8,-5.5 0.6,-0.8 1.5,-2.9 2.9,-4.5 2.7,-3.7 2.1,-2.4 2.4,-1.8 3.1,-1.2 5.5,-1.3 3.2,0.2 4.5,-1.5 7.4,-2.2 0.7,4.9 2.4,6.5 0.8,5 -1,4.2 2.6,4.5 0.8,2 -0.9,3.2 3.7,1.7 2.7,10.2 v5.8 l-0.6,10.9 0.8,5.4 0.7,3.6 1.5,7.3 v8.1 l-1.1,2.3 2.1,2.7 0.5,0.9 -1.9,1.8 0.3,1.3 1.3,-0.3 1.5,-1.3 2.3,-2.6 1.1,-0.6 1.6,0.6 2.3,0.2 7.9,-3.9 2.9,-2.7 1.3,-1.5 4.2,1.6 -3.4,3.6 -3.9,2.9 -7.1,5.3 -2.6,1 -5.8,1.9 -4,1.1 -1,-0.4z" />
    <path
       id="OH"
       fill="#D3D3D3"
       d="M663.8,211.2 l1.7,15.5 4.8,41.1 3.9,-0.2 2.3,-0.8 3.6,1.8 1.7,4.2 5.4,0.1 1.8,2 h1.7 l2.4,-1.4 3.1,0.5 1.5,1.3 1.8,-2 2.3,-1.4 2.4,-0.4 0.6,2.7 1.6,1 2.6,2 0.8,0.2 2,-0.1 1.2,-0.6 v-2.1 l1.7,-1.5 0.1,-4.8 1.1,-4.2 1.9,-1.3 1,0.7 1,1.1 0.7,0.2 0.4,-0.4 -0.9,-2.7 v-2.2 l1.1,-1.4 2.5,-3.6 1.3,-1.5 2.2,0.5 2.1,-1.5 3,-3.3 2.2,-3.7 0.2,-5.4 0.5,-5 v-4.6 l-1.2,-3.2 1.2,-1.8 1.3,-1.2 -0.6,-2.8 -4.3,-25.6 -6.2,3.7 -3.9,2.3 -3.4,3.7 -4,3.9 -3.2,0.8 -2.9,0.5 -5.5,2.6 -2.1,0.2 -3.4,-3.1 -5.2,0.6 -2.6,-1.5 -2.2,-1.3z" />
    <path
       id="OK"
       fill="#D3D3D3"
       d="M411.9,334.9 l-1.8,24.3 -0.9,18 0.2,1.6 4,3.6 1.7,0.9 h0.9 l0.9,-2.1 1.5,1.9 1.6,0.1 0.3,-0.2 0.2,-1.1 2.8,1.4 -0.4,3.5 3.8,0.5 2.5,1 4.2,0.6 2.3,1.6 2.5,-1.7 3.5,0.7 2.2,3.1 1.2,0.1 v2.3 l2.1,0.7 2.5,-2.1 1.8,0.6 2.7,0.1 0.7,2.3 4.4,1.8 1.7,-0.3 1.9,-4.2 h1.3 l1.1,2.1 4.2,0.8 3.4,1.3 3,0.8 1.6,-0.7 0.7,-2.7 h4.5 l1.9,0.9 2.7,-1.9 h1.4 l0.6,1.4 h3.6 l2,-1.8 2.3,0.6 1.7,2.2 3,1.7 3.4,0.9 1.9,1.2 -0.3,-37.6 -1.4,-10.9 -0.1,-8.6 -1.5,-6.6 -0.6,-6.8 0.1,-4.3 -12.6,0.3 -46.3,-0.5 -44.7,-2.1 -41.5,-1.8 -0.4,10.7z" />
    <path
       id="OR"
       fill="#D3D3D3"
       d="M67.44,158.9 l28.24,7.2 27.52,6.5 17,3.7 8.8,-35.1 1.2,-4.4 2.4,-5.5 -0.7,-1.3 -2.5,0.1 -1.3,-1.8 0.6,-1.5 0.4,-3.3 4.7,-5.7 1.9,-0.9 0.9,-0.8 0.7,-2.7 0.8,-1.1 3.9,-5.7 3.7,-4 0.2,-3.26 -3.4,-2.49 -1.2,-4.55 -13.1,-3.83 -15.3,-3.47 -14.8,0.37 -1.1,-1.31 -5.1,1.84 -4.5,-0.48 -2.4,-1.58 -1.3,0.54 -4.68,-0.29 -1.96,-1.43 -4.84,-1.77 -1.1,-0.07 -4.45,-1.27 -1.76,1.52 -6.26,-0.24 -5.31,-3.85 0.21,-9.28 -2.05,-3.5 -4.1,-0.6 -0.7,-2.5 -2.4,-0.5 -5.8,2.1 -2.3,6.5 -3.2,10 -3.2,6.5 -5,14.1 -6.5,13.6 -8.1,12.6 -1.9,2.9 -0.8,8.6 -1.3,6 2.71,3.5z" />
    <path
       id="PA"
       fill="#D3D3D3"
       d="M736.6,192.2 l1.3,-0.5 5.7,-5.5 0.7,6.9 33.5,-6.5 36.9,-7.8 2.3,2.3 3.1,0.4 2,5.6 2.4,1.9 2.8,0.4 0.1,0.1 -2.6,3.2 v3.1 l-1.9,3.1 -0.2,1.9 1.3,1.3 -0.2,1.9 -2.4,1.1 1,3.4 0.2,1.1 2.8,0.3 0.9,2.5 5.9,3.9 v0.4 l-3.1,3 -1.5,2.2 -1.7,2.8 -2.7,1.2 -1.4,0.3 -2.1,1.3 -1.6,1.4 -22.4,4.3 -38.7,7.8 -11.3,1.4 -3.9,0.7 -5.1,-22.4 -4.3,-25.9z" />
    <path
       id="RI"
       fill="#D3D3D3"
       d="M873.6,175.7 l-0.8,-4.4 -1.6,-6 5.7,-1.5 1.5,1.3 3.4,4.3 2.8,4.4 -2.8,1.4 -1.3,-0.2 -1.1,1.8 -2.4,1.9 -2.8,1.1z" />
    <path
       id="SC"
       fill="#D3D3D3"
       d="M759,413.6 l-2.1,-1 -1.9,-5.6 -2.5,-2.3 -2.5,-0.5 -1.5,-4.6 -3,-6.5 -4.2,-1.8 -1.9,-1.8 -1.2,-2.6 -2.4,-2 -2.3,-1.3 -2.2,-2.9 -3.2,-2.4 -4.4,-1.7 -0.4,-1.4 -2.3,-2.8 -0.5,-1.5 -3.8,-5.4 -3.4,0.1 -3.9,-2.5 -1.2,-1.2 -0.2,-1.4 0.6,-1.6 2.7,-1.3 -0.8,-2 6.4,-2.7 9.2,-4.5 7.1,-0.9 16.4,-0.5 2.3,1.9 1.8,3.5 4.6,-0.8 12.6,-1.5 2.7,0.8 12.5,7.4 10.1,8.3 -5.3,5.4 -2.6,6.1 -0.5,6.3 -1.6,0.8 -1.1,2.7 -2.4,0.6 -2.1,3.6 -2.7,2.7 -2.3,3.4 -1.6,0.8 -3.6,3.4 -2.9,0.2 1,3.2 -5,5.3 -2.3,1.6z" />
    <path
       id="SD"
       fill="#D3D3D3"
       d="M471,181.1 l-0.9,3.2 0.4,3 2.6,2 -1.2,5.4 -1.8,4.1 1.5,3.3 0.7,1.1 -1.3,0.1 -0.7,-1.6 -0.6,-2 -3.3,-1.8 -4.8,-1.5 -2.5,-1.3 -2.9,0.1 -3.9,0.4 -3.8,1.2 -5.3,-3.8 -2.7,-2.4 -10.9,0.8 -41.5,-2.4 -35.6,-2.2 1.5,-24.8 2.8,-34 0.4,-5 56.9,3.9 56.9,1.7 v2.7 l-1.3,1.5 -2,1.5 -0.1,2.2 1.1,2.2 4.1,3.4 0.5,2.7 v35.9z" />
    <path
       id="TN"
       fill="#D3D3D3"
       d="M670.8,359.6 l-13.1,1.2 -23.3,2.2 -37.6,2.7 -11.8,0.4 0.9,-0.6 0.9,-4.5 -1.2,-3.6 3.9,-2.3 0.4,-2.5 1.2,-4.3 3,-9.5 0.5,-5.6 0.3,-0.2 12.3,-0.2 13.6,-0.8 0.1,-3.9 3.5,-0.1 30.4,-3.3 54,-5.2 10.3,-1.5 7.6,-0.2 2.4,-1.9 1.3,0.3 -0.1,3.3 -0.4,1.6 -2.4,2.2 -1.6,3.6 -2,-0.4 -2.4,0.9 -2.2,3.3 -1.4,-0.2 -0.8,-1.2 -1.1,0.4 -4.3,4 -0.8,3.1 -4.2,2.2 -4.3,3.6 -3.8,1.5 -4.4,2.8 -0.6,3.6 -2.5,0.5 -2,1.7 -0.2,4.8z" />
    <path
       id="TX"
       fill="#D3D3D3"
       d="M282.8,425.6 l37,3.6 29.3,1.9 7.4,-97.7 54.4,2.4 -1.7,23.3 -1,18 0.2,2 4.4,4.1 2,1.1 h1.8 l0.5,-1.2 0.7,0.9 2.4,0.2 1.1,-0.6 v-0.2 l1,0.5 -0.4,3.7 4.5,0.7 2.4,0.9 4.2,0.7 2.6,1.8 2.8,-1.9 2.7,0.6 2.2,3.1 0.8,0.1 v2.1 l3.3,1.1 2.5,-2.1 1.5,0.5 2.1,0.1 0.6,2.1 5.2,2 2.3,-0.5 1.9,-4 h0.1 l1.1,1.9 4.6,0.9 3.4,1.3 3.2,1 2.4,-1.2 0.7,-2.3 h3.6 l2.1,1 3,-2 h0.4 l0.5,1.4 h4.7 l1.9,-1.8 1.3,0.4 1.7,2.1 3.3,1.9 3.4,1 2.5,1.4 2.7,2 3.1,-1.2 2.1,0.8 0.7,20 0.7,9.5 0.6,4.1 2.6,4.4 0.9,4.5 4.2,5.9 0.3,3.1 0.6,0.8 -0.7,7.7 -2.9,4.8 1.3,2.6 -0.5,2.4 -0.8,7.2 -1.3,3 0.3,4.2 -5.6,1.6 -9.9,4.5 -1,1.9 -2.6,1.9 -2.1,1.5 -1.3,0.8 -5.7,5.3 -2.7,2.1 -5.3,3.2 -5.7,2.4 -6.3,3.4 -1.8,1.5 -5.8,3.6 -3.4,0.6 -3.9,5.5 -4,0.3 -1,1.9 2.3,1.9 -1.5,5.5 -1.3,4.5 -1.1,3.9 -0.8,4.5 0.8,2.4 1.8,7 1,6.1 1.8,2.7 -1,1.5 -3.1,1.9 -5.7,-3.9 -5.5,-1.1 -1.3,0.5 -3.2,-0.6 -4.2,-3.1 -5.2,-1.1 -7.6,-3.4 -2.1,-3.9 -1.3,-6.5 -3.2,-1.9 -0.6,-2.3 0.6,-0.6 0.3,-3.4 -1.3,-0.6 -0.6,-1 1.3,-4.4 -1.6,-2.3 -3.2,-1.3 -3.4,-4.4 -3.6,-6.6 -4.2,-2.6 0.2,-1.9 -5.3,-12.3 -0.8,-4.2 -1.8,-1.9 -0.2,-1.5 -6,-5.3 -2.6,-3.1 v-1.1 l-2.6,-2.1 -6.8,-1.1 -7.4,-0.6 -3.1,-2.3 -4.5,1.8 -3.6,1.5 -2.3,3.2 -1,3.7 -4.4,6.1 -2.4,2.4 -2.6,-1 -1.8,-1.1 -1.9,-0.6 -3.9,-2.3 v-0.6 l-1.8,-1.9 -5.2,-2.1 -7.4,-7.8 -2.3,-4.7 v-8.1 l-3.2,-6.5 -0.5,-2.7 -1.6,-1 -1.1,-2.1 -5,-2.1 -1.3,-1.6 -7.1,-7.9 -1.3,-3.2 -4.7,-2.3 -1.5,-4.4 -2.6,-2.9 -1.7,-0.5z m174.4,141.7 -0.6,-7.1 -2.7,-7.2 -0.6,-7 1.5,-8.2 3.3,-6.9 3.5,-5.4 3.2,-3.6 0.6,0.2 -4.8,6.6 -4.4,6.5 -2,6.6 -0.3,5.2 0.9,6.1 2.6,7.2 0.5,5.2 0.2,1.5z" />
    <path
       id="UT"
       fill="#D3D3D3"
       d="M228.4,305.9 l24.6,3.6 1.9,-13.7 7,-50.5 2.3,-22 -32.2,-3.5 2.2,-13.1 1.8,-10.6 -34.7,-6.1 -12.5,-2.5 -10.6,52.9 -5.4,30 -3.3,15.4 -1.7,9.2z" />
    <path
       id="VA"
       fill="#D3D3D3"
       d="M834.7,265.2 l-0.2,2.8 -2.9,3.8 -0.4,4.6 0.5,3.4 -1.8,5 -2.2,1.9 -1.5,-4.6 0.4,-5.4 1.6,-4.2 0.7,-3.3 -0.1,-1.7z m-60.3,44.6 -38.6,5.6 -4.8,-0.1 -2.2,-0.3 -2.5,1.9 -7.3,0.1 -10.3,1.6 -6.7,0.6 4.1,-2.6 4.1,-2.3 v-2.1 l5.7,-7.3 4.1,-3.7 2.2,-2.5 3.6,4.3 3.8,0.9 2.7,-1 2,-1.5 2.4,1.2 4.6,-1.3 1.7,-4.4 2.4,0.7 3.2,-2.3 1.6,0.4 2.8,-3.2 0.2,-2.7 -0.8,-1.2 4.8,-10.5 1.8,-5.2 0.5,-4.7 0.7,-0.2 1.1,1.7 1.5,1.2 3.9,-0.2 1.7,-8.1 3,-0.6 0.8,-2.6 2.8,-2.2 1.1,-2.1 1.8,-4.3 0.1,-4.6 3.6,1.4 6.6,3.1 0.3,-5.2 3.4,1.2 -0.6,2.9 8.6,3.1 1.4,1.8 -0.8,3.3 -1.3,1.3 -0.5,1.7 0.5,2.4 2,1.3 3.9,1.4 2.9,1 4.9,0.9 2.2,2.1 3.2,0.4 0.9,1.2 -0.4,4.7 1.4,1.1 -0.5,1.9 1.2,0.8 -0.2,1.4 -2.7,-0.1 0.1,1.6 2.3,1.5 0.1,1.4 1.8,1.8 0.5,2.5 -2.6,1.4 1.6,1.5 5.8,-1.7 3.7,6.2z" />
    <path
       id="VT"
       fill="#D3D3D3"
       d="M832.7,111.3 l2.4,6.5 0.8,5.3 -1,3.9 2.5,4.4 0.9,2.3 -0.7,2.6 3.3,1.5 2.9,10.8 v5.3 l11.5,-2.1 -1,-1.1 0.6,-1.9 0.2,-4.3 -1,-1.4 0.2,-4.7 0.8,-9.3 v-8.5 l-1.1,-1.8 v-1.6 l2.8,-1.1 3.5,-4.4 v-3.6 l-1.9,-2.7 -0.3,-5.79 -26.1,6.79z" />
    <path
       id="WA"
       fill="#D3D3D3"
       d="M74.5,67.7 l-2.3,-4.3 -4.1,-0.7 -0.4,-2.4 -2.5,-0.6 -2.9,-0.5 -1.8,1 -2.3,-2.9 0.3,-2.9 2.7,-0.3 1.6,-4 -2.6,-1.1 0.2,-3.7 4.4,-0.6 -2.7,-2.7 -1.5,-7.1 0.6,-2.9 v-7.9 l-1.8,-3.2 2.3,-9.4 2.1,0.5 2.4,2.9 2.7,2.6 3.2,1.9 4.5,2.1 3.1,0.6 2.9,1.5 3.4,1 2.3,-0.2 v-2.4 l1.3,-1.1 2.1,-1.3 0.3,1.1 0.3,1.8 -2.3,0.5 -0.3,2.1 1.8,1.5 1.1,2.4 0.6,1.9 1.5,-0.2 0.2,-1.3 -1,-1.3 -0.5,-3.2 0.8,-1.8 -0.6,-1.5 v-2.6 l1.8,-3.6 -1.1,-2.6 -2.4,-4.8 0.3,-0.8 1.4,-0.8 4.4,1.5 9.7,2.7 8.6,1.9 20,5.7 23,5.7 15,3.49 -4.8,17.56 -4.5,20.83 -3.4,16.25 -0.4,9.18 v0 l-12.9,-3.72 -15.3,-3.47 -14.5,0.32 -1.1,-1.53 -5.7,2.09 -3.9,-0.42 -2.6,-1.79 -1.7,0.65 -4.15,-0.25 -1.72,-1.32 -5.16,-1.82 -1.18,-0.16 -4.8,-1.39 -1.92,1.65 -5.65,-0.25 -4.61,-3.35z m9.6,-55.4 2,-0.2 0.5,1.4 1.5,-1.6 h2.3 l0.8,1.5 -1.5,1.7 0.6,0.8 -0.7,2 -1.4,0.4 c0,0 -0.9,0.1 -0.9,-0.2 0,-0.3 1.5,-2.6 1.5,-2.6 l-1.7,-0.6 -0.3,1.5 -0.7,0.6 -1.5,-2.3z" />
    <path
       id="WI"
       fill="#D3D3D3"
       d="M541.4,109.9 l2.9,0.5 2.9,-0.6 7.4,-3.2 2.9,-1.9 2.1,-0.8 1.9,1.5 -1.1,1.1 -1.9,3.1 -0.6,1.9 1,0.6 1.8,-1 1.1,-0.2 2.7,0.8 0.6,1.1 1.1,0.2 0.6,-1.1 4,5.3 8.2,1.2 8.2,2.2 2.6,1.1 12.3,2.6 1.6,2.3 3.6,1.2 1.7,10.2 1.6,1.4 1.5,0.9 -1.1,2.3 -1.8,1.6 -2.1,4.7 -1.3,2.4 0.2,1.8 1.5,0.3 1.1,-1.9 1.5,-0.8 0.8,-2.3 1.9,-1.8 2.7,-4 4.2,-6.3 0.8,-0.5 0.3,1 -0.2,2.3 -2.9,6.8 -2.7,5.7 -0.5,3.2 -0.6,2.6 0.8,1.3 -0.2,2.7 -1.9,2.4 -0.5,1.8 0.6,3.6 0.6,3.4 -1.5,2.6 -0.8,2.9 -1,3.1 1.1,2.4 0.6,6.1 1.6,4.5 -0.2,3 -15.9,1.8 -17.5,1 h-12.7 l-0.7,-1.5 -2.9,-0.4 -2.6,-1.3 -2.3,-3.7 -0.3,-3.6 2,-2.9 -0.5,-1.4 -2.1,-2.2 -0.8,-3.3 -0.6,-6.8 -2.1,-2.5 -7,-4.5 -3.8,-5.4 -3.4,-1 -2.2,-2.8 h-3.2 l-2.9,-3.3 -0.5,-6.5 0.1,-3.8 1.5,-3.1 -0.8,-3.2 -2.5,-2.8 1.8,-5.4 5.2,-3.8 1.6,-1.9 -0.2,-8.1 0.2,-2.8 2.4,-2.8z" />
    <path
       id="WV"
       fill="#D3D3D3"
       d="M758.9,254.3 l5.8,-6 2.6,-0.8 1.6,-1.5 1.5,-2.2 1.1,0.3 3.1,-0.2 4.6,-3.6 1.5,-0.5 1.3,1 2.6,1.2 3,3 -0.4,4.3 -5.4,-2.6 -4.8,-1.8 -0.1,5.9 -2.6,5.7 -2.9,2.4 -0.8,2.3 -3,0.5 -1.7,8.1 -2.8,0.2 -1.1,-1 -1.2,-2 -2.2,0.5 -0.5,5.1 -1.8,5.1 -5,11 0.9,1.4 -0.1,2 -2.2,2.5 -1.6,-0.4 -3.1,2.3 -2.8,-0.8 -1.8,4.9 -3.8,1 -2.5,-1.3 -2.5,1.9 -2.3,0.7 -3.2,-0.8 -3.8,-4.5 -3.5,-2.2 -2.5,-2.5 -2.9,-3.7 -0.5,-2.3 -2.8,-1.7 -0.6,-1.3 -0.2,-5.6 0.3,0.1 2.4,-0.2 1.8,-1 v-2.2 l1.7,-1.5 0.1,-5.2 0.9,-3.6 1.1,-0.7 0.4,0.3 1,1.1 1.7,0.5 1.1,-1.3 -1,-3.1 v-1.6 l3.1,-4.6 1.2,-1.3 2,0.5 2.6,-1.8 3.1,-3.4 2.4,-4.1 0.2,-5.6 0.5,-4.8 v-4.9 l-1.1,-3 0.9,-1.3 0.8,-0.7 4.3,19.3 4.3,-0.8 11.2,-1.3z" />
    <path
       id="WY"
       fill="#D3D3D3"
       d="M353,161.9 l-1.5,25.4 -4.4,44 -2.7,-0.3 -83.3,-9.1 -27.9,-3 2,-12 6.9,-41 3.8,-24.2 1.3,-11.2 48.2,7 59.1,6.5z" />
    <g
       id="DC">
      <path
         id="DC1"
         fill="#D3D3D3"
         d="M801.8,253.8 l-1.1-1.6 -1-0.8 1.1-1.6 2.2,1.5z" />
      <circle
         id="DC2"
         fill="#D3D3D3"
         stroke="#FFFFFF"
         stroke-width="1.5"
         cx="801.3"
         cy="251.8"
         r="5"
         opacity="1" />
      <!-- Set opacity to "0" to hide DC circle -->
    </g>
  </g>
  <path
     id="frames"
     fill="none"
     stroke="#A9A9A9"
     stroke-width="2"
     d="M215,493v55l36,45 M0,425h147l68,68h85l54,54v46" />
  <path
     style="fill:none;stroke:#000000;stroke-width:1px;stroke-linecap:butt;stroke-linejoin:miter;stroke-opacity:1"
     d="m 35.1,268.7 c 0.139506,-0.16318 0.279012,-0.32635 0.418519,-0.48953 0,-0.45537 -0.284465,-1.01052 0,-1.3661 0.711161,-0.88895 1.784976,-1.41766 2.732193,-2.04914 5.49925,-3.66617 1.311007,-0.61562 7.855057,-3.75677 1.425791,-0.68438 2.649356,-1.75676 4.098291,-2.39067 0.417186,-0.18252 0.926776,0.11982 1.366097,0 0.836441,-0.22812 1.560243,-0.77544 2.390669,-1.02457 0.327121,-0.0981 0.683049,0 1.024573,0 0.910731,0 1.821462,0 2.732194,0 0.341524,0 0.693245,0.0828 1.024572,0 1.435751,-0.35894 2.683797,-1.27239 4.098291,-1.70762 0.661848,-0.20365 1.36091,-0.26506 2.049145,-0.34153 0.130437,-0.0145 2.015415,0.0225 2.049146,0 0.211804,-0.1412 0.113841,-0.5692 0.341524,-0.68304 0.167488,-0.0838 2.053737,0 2.390669,0"
     id="path3412"
     inkscape:connector-curvature="0" />
  <path
     style="fill:none;stroke:#000000;stroke-width:1px;stroke-linecap:butt;stroke-linejoin:miter;stroke-opacity:1"
     d="m 82.648861,341.63818 c 0,0.65134 -0.144,1.78376 0.341524,2.39067 0.256413,0.32051 0.749988,0.37795 1.024572,0.68304 0.761559,0.84618 1.379563,1.81152 2.049146,2.7322 0.241421,0.33195 0.392808,0.73433 0.683048,1.02457 0.40249,0.40249 0.92882,0.66018 1.366097,1.02457 0.247361,0.20614 0.421033,0.4959 0.683048,0.68305 0.54016,0.38583 1.197673,0.59962 1.707622,1.02457 0.195556,0.16297 0.210555,0.46477 0.341524,0.68305 0.21118,0.35197 0.392808,0.73434 0.683048,1.02458 0.40249,0.40249 0.905759,0.68978 1.366097,1.02457 0.791996,0.576 1.673044,1.04125 2.39067,1.70762 0.88679,0.82345 1.567221,1.8454 2.390669,2.73219 1.205049,1.29775 2.590584,2.42399 3.756764,3.75677 0.80106,0.91549 0.51387,0.85645 1.02458,1.70762 0.21118,0.35197 0.55324,0.63518 0.68304,1.02457 0.0449,0.13472 0,1.75103 0,2.04915 0,1.47994 0,2.95987 0,4.43981 0,3.98445 0,7.9689 0,11.95335"
     id="path3416"
     inkscape:connector-curvature="0" />
  <path
     style="fill:none;stroke:#000000;stroke-width:1px;stroke-linecap:butt;stroke-linejoin:miter;stroke-opacity:1"
     d="m 678.95014,197.17343 c -0.4978,0 -1.90514,-0.144 -2.39067,0.34153 -0.35999,0.35999 -0.45536,0.91073 -0.68304,1.36609 -0.11385,0.22769 -0.29968,0.43196 -0.34153,0.68305 -0.0749,0.44917 0,0.91073 0,1.3661 0,0.22768 0.072,0.46705 0,0.68305 -0.0509,0.15273 -0.26952,0.19752 -0.34152,0.34152 -0.161,0.32199 -0.20783,0.69032 -0.34153,1.02457 -0.0945,0.23635 -0.26102,0.44156 -0.34152,0.68305 -0.036,0.108 0.0509,0.2397 0,0.34153 -0.61348,1.22695 -0.25172,-1.22188 -0.68305,1.36609 -0.0562,0.33688 0,0.68305 0,1.02458 0,0.91073 0,1.82146 0,2.73219 0,0.91073 0,1.82146 0,2.73219 0,0.22769 -0.22088,0.62783 0,0.68305 1.10442,0.27611 2.27683,0 3.41524,0 2.16299,0 4.32598,0 6.48896,0 0.91073,0 1.82348,-0.0606 2.7322,0 0.91578,0.061 1.81814,0.25843 2.73219,0.34153 0.34012,0.0309 0.68305,0 1.02457,0 0.79689,0 1.59378,0 2.39067,0 2.50451,0 5.00902,0 7.51353,0 5.80592,0 11.61183,0 17.41774,0"
     id="path3418"
     inkscape:connector-curvature="0" />
  <path
     style="fill:none;stroke:#000000;stroke-width:1px;stroke-linecap:butt;stroke-linejoin:miter;stroke-opacity:1"
     d="m 843.9,197.3 c -0.56391,0.10652 -2.81956,0.20288 -3.4089,0.55648 -0.21828,0.13097 -0.21056,0.46477 -0.34153,0.68305 -0.21118,0.35197 -0.3928,0.73433 -0.68304,1.02457 -0.40249,0.40249 -0.96361,0.62208 -1.3661,1.02457 -0.29024,0.29024 -0.43677,0.69621 -0.68305,1.02458 -0.0966,0.12879 -0.22768,0.22768 -0.34152,0.34152 -0.22769,0.22768 -0.42546,0.48985 -0.68305,0.68305 -0.20365,0.15273 -0.50305,0.16153 -0.68305,0.34152 -0.18,0.18 -0.16153,0.50305 -0.34153,0.68305 -0.48703,0.48704 -1.17412,0.28293 -1.70762,0.68305 -0.20364,0.15274 -0.24125,0.44907 -0.34152,0.68305 -0.24149,0.56349 -0.37889,1.17534 -0.68305,1.70762 -0.15975,0.27957 -0.48985,0.42546 -0.68305,0.68305 -0.15273,0.20364 -0.1825,0.48427 -0.34152,0.68305 -0.56921,0.71151 -1.13842,1.04354 -1.70762,1.70762 -0.93674,0.68815 -1.34791,1.85564 -2.04915,2.73219 -1.94657,2.43322 0.73627,-1.44592 -1.36609,1.70762 -0.22769,0.34153 -0.57029,0.62991 -0.68305,1.02458 -0.15638,0.5473 0,1.13841 0,1.70762 0,0.22768 0.10182,0.4794 0,0.68305 -0.144,0.28799 -0.53905,0.39505 -0.68305,0.68304 -0.20991,0.41983 -0.24947,0.90584 -0.34153,1.3661 -0.0488,0.24395 0.0976,0.87821 0,1.02457 -0.1412,0.21181 -0.50305,0.16153 -0.68304,0.34153 -0.0805,0.0805 0,0.22768 0,0.34152 0,0.22768 0.12629,0.49361 0,0.68305 -0.14121,0.2118 -0.54185,0.12972 -0.68305,0.34152 -0.1263,0.18945 0.0141,0.45581 0,0.68305 -0.0575,0.92456 -0.14326,1.84715 -0.21489,2.77073"
     id="path3422"
     inkscape:connector-curvature="0" />
  <path
     style="fill:none;stroke:#000000;stroke-width:1px;stroke-linecap:butt;stroke-linejoin:miter;stroke-opacity:1"
     d="m 746.4,508.2 c 0.17115,-0.87673 -0.14864,-2.03055 0.51346,-2.6302 0.23545,-0.21324 3.5398,0.15232 4.09829,0 0.73677,-0.20093 1.39876,-0.62433 2.04915,-1.02457 4.62049,-2.84338 0.74151,-0.35955 3.41524,-3.41524 0.37483,-0.42838 0.96361,-0.62209 1.3661,-1.02458 0.29024,-0.29024 0.35468,-0.77829 0.68305,-1.02457 0.18214,-0.13661 0.4936,0.1263 0.68304,0 0.21181,-0.1412 0.20033,-0.47124 0.34153,-0.68305 0.0893,-0.13395 0.22768,-0.22768 0.34152,-0.34152 0.56921,-0.56921 1.20476,-1.07904 1.70762,-1.70762 0.65877,-0.82346 0.16568,-1.51143 0.34153,-2.39067 -0.58045,-0.92443 0.52205,-0.88311 0.68305,-1.3661 0.072,-0.216 0,-0.45537 0,-0.68305 0,-0.22768 0,-0.45536 0,-0.68305 0,-0.79689 0,-1.59378 0,-2.39067"
     id="path3424"
     inkscape:connector-curvature="0" />
  <path
     style="fill:none;stroke:#000000;stroke-width:1px;stroke-linecap:butt;stroke-linejoin:miter;stroke-opacity:1"
     d="m 455.59331,354.27457 c 3.8706,0 7.74121,0 11.61182,0 0.79689,0 1.59378,0 2.39067,0 0.34152,0 0.69619,0.0938 1.02457,0 0.48953,-0.13986 0.91073,-0.45536 1.3661,-0.68305 0.4538,-0.2269 1.43287,-0.68113 1.70762,-1.02457 0.22489,-0.28111 0.18053,-0.70258 0.34152,-1.02457 0.072,-0.144 0.25222,-0.20757 0.34153,-0.34153 0.1412,-0.2118 0.20032,-0.47124 0.34152,-0.68304 0.40435,-0.60652 1.19218,-0.85066 1.70762,-1.3661 0.29024,-0.29024 0.45537,-0.68305 0.68305,-1.02457 0.22768,-0.34153 0.53061,-0.64347 0.68305,-1.02458 0.0723,-0.18078 -0.0338,-1.91395 0,-2.04914 0.0711,-0.28419 0.90979,-0.64479 1.02457,-0.68305 0.108,-0.036 0.27838,0.0947 0.34153,0 0.19969,-0.29954 0.087,-0.77002 0.34152,-1.02457 0.5554,-0.5554 0.72616,0.55372 1.02457,-0.34153 0.144,-0.43199 -0.11044,-0.92432 0,-1.36609 0.15179,-0.60716 0.41742,-0.87279 1.02458,-1.02458 0.22088,-0.0552 0.4936,0.1263 0.68304,0 0.21181,-0.1412 0.16153,-0.50305 0.34153,-0.68304 0.69098,-0.69099 0.98036,-0.0991 1.70762,-0.34153 0.15273,-0.0509 0.22768,-0.22768 0.34152,-0.34152 0.22769,-0.11384 0.4361,-0.27979 0.68305,-0.34153 0.22089,-0.0552 0.46705,0.072 0.68305,0 0.15274,-0.0509 0.22768,-0.45536 0.34153,-0.34152 0.11384,0.11384 -0.22769,0.22768 -0.34153,0.34152"
     id="path3426"
     inkscape:connector-curvature="0" />
  <path
     style="fill:none;stroke:#000000;stroke-width:1px;stroke-linecap:butt;stroke-linejoin:miter;stroke-opacity:1"
     d="m 188.86289,384.67023 c 0.79689,2.39067 0.9757,5.08678 2.39067,7.17201 0.88804,1.30868 2.81617,1.46469 4.09829,2.39067 0.7831,0.56557 1.3661,1.36609 2.04915,2.04914 1.36609,0.68305 2.81352,1.22322 4.09829,2.04915 0.34527,0.22196 0.44447,0.69056 0.68305,1.02457 0.33084,0.46318 0.57526,1.01664 1.02457,1.3661 0.6028,0.46884 1.42352,0.58663 2.04914,1.02457 0.52758,0.3693 0.88959,0.9329 1.3661,1.3661 0.77662,0.70601 1.58437,1.37722 2.39067,2.04914 0.55999,0.46666 1.13223,0.91857 1.70762,1.3661 0.44931,0.34946 0.96361,0.62208 1.3661,1.02457 0.29024,0.29024 0.45536,0.68305 0.68305,1.02457 1.13841,1.13842 2.23223,2.32324 3.41524,3.41524 0.30161,0.27841 0.73433,0.39281 1.02457,0.68305 0.29024,0.29024 0.39281,0.73434 0.68305,1.02458 0.51544,0.51543 1.19218,0.85065 1.70762,1.36609 1.24302,1.24302 -0.36309,0.23997 0.68305,1.02458 0.40364,0.30273 1.03042,0.57701 1.3661,1.02457 0.24627,0.32837 0.43677,0.6962 0.68305,1.02457 0.0966,0.1288 0.29061,0.18879 0.34152,0.34153 0.072,0.21599 0,0.45536 0,0.68304 0,0.34153 0,0.68305 0,1.02458 0,1.13841 0,2.27682 0,3.41524"
     id="path3468"
     inkscape:connector-curvature="0" />
  <path
     style="fill:none;stroke:#000000;stroke-width:1px;stroke-linecap:butt;stroke-linejoin:miter;stroke-opacity:1"
     d="m 636.94266,251.81731 c 0.20703,1.9148 -0.37954,3.90819 0,5.80591 0.11164,0.55815 0.74815,0.86852 1.02458,1.3661 0.29772,0.5359 0.45536,1.13841 0.68305,1.70762 0.79689,1.13841 1.65924,2.2337 2.39067,3.41524 2.14684,3.46798 1.68953,3.32517 3.41524,6.48896 0.19655,0.36034 0.46268,0.67828 0.68305,1.02457 0.57659,0.90608 1.18109,1.79614 1.70762,2.7322 0.4992,0.88746 0.8669,1.84473 1.36609,2.73219 0.52653,0.93605 1.22733,1.7716 1.70763,2.73219 0.77545,1.55092 1.27368,3.23042 2.04914,4.78134 0.59372,1.18745 1.39047,2.26256 2.04915,3.41524 1.14347,2.00109 0.17742,0.72653 1.36609,2.39067 0.25783,0.36097 1.43933,1.85409 1.70762,2.39067 0.0509,0.10183 -0.0805,0.26103 0,0.34153 0.18,0.18 0.56921,0.11384 0.68305,0.34152 0.20365,0.40729 0,0.91073 0,1.3661"
     id="path3470"
     inkscape:connector-curvature="0" />
  <path
     style="fill:none;stroke:#000000;stroke-width:1px;stroke-linecap:butt;stroke-linejoin:miter;stroke-opacity:1"
     d="m 674.2,267.6 c -0.35192,-0.5934 -0.81272,-1.13452 -1.05577,-1.7802 -0.0542,-0.14387 0,-2.49357 0,-2.73219 0,-2.04915 0,-4.09829 0,-6.14744 0,-3.07372 0,-6.14744 0,-9.22115 0,-0.68305 0,-1.3661 0,-2.04915 0,-0.22768 -0.2114,-0.59849 0,-0.68305 0.5285,-0.2114 1.13842,0 1.70762,0 1.82147,0 3.64293,0 5.46439,0 6.14744,0 12.29487,0 18.44231,0 1.9353,0 3.87061,0 5.80591,0 0.11384,0 0.22768,0 0.34152,0 0.22769,0 0.55676,0.18945 0.68305,0 0.18945,-0.28416 0,-0.68305 0,-1.02457 0,-0.79689 0,-1.59378 0,-2.39067 0,-0.34152 -0.0519,-0.68702 0,-1.02457 0.0775,-0.50353 1.16477,-5.8447 1.3661,-6.48896 2.36401,-7.56485 -0.0139,0.60172 1.70762,-3.41524 0.1849,-0.43143 0.19309,-0.92081 0.34152,-1.3661 0.30759,-0.92275 0.66334,-1.8291 1.02458,-2.73219 0.0945,-0.23636 0.21055,-0.46477 0.34152,-0.68305 0.21118,-0.35197 0.57029,-0.62991 0.68305,-1.02458 0.1251,-0.43784 -0.0644,-0.9153 0,-1.36609 0.0509,-0.35638 0.27092,-0.67157 0.34152,-1.02458 0.067,-0.33489 0,-0.68304 0,-1.02457 0,-0.68305 0,-1.3661 0,-2.04914 0,-0.39937 -0.0651,-2.1628 0,-2.39067 0.13987,-0.48953 0.52206,-0.88311 0.68305,-1.3661 0.072,-0.216 -0.0846,-0.47165 0,-0.68305 0.15244,-0.3811 0.55325,-0.63517 0.68305,-1.02457 0.19922,-0.59767 -0.26563,-1.85941 0,-2.39067 0.10182,-0.20365 0.47165,0.0846 0.68305,0 C 715.08957,210.85926 714.42298,210.65561 714,209"
     id="path3472"
     inkscape:connector-curvature="0" />
  <path
     style="fill:none;stroke:#000000;stroke-width:1px;stroke-linecap:butt;stroke-linejoin:miter;stroke-opacity:1"
     d="m 636.94266,251.81731 c 0.79689,0.11384 1.58969,0.26142 2.39067,0.34152 0.7763,0.0776 1.60923,0 2.39067,0 1.82147,0 3.64293,0 5.46439,0 5.23671,0 10.47341,0 15.71012,0 1.59378,0 3.18755,0 4.78133,0 0.33551,0 1.82327,0.0753 2.04915,0 1.17102,-0.39034 0.347,-0.347 1.3661,-1.3661 0.29024,-0.29024 0.6726,-0.47186 1.02457,-0.68304 0.21828,-0.13097 0.44155,-0.26103 0.68305,-0.34153 0.1717,-0.0572 1.95994,0 2.04914,0"
     id="path3474"
     inkscape:connector-curvature="0" />
  <path
     style="fill:none;stroke:#000000;stroke-width:1px;stroke-linecap:butt;stroke-linejoin:miter;stroke-opacity:1"
     d="m 605.52244,188.2938 c 0.68305,0 1.36609,0 2.04914,0 0.11384,0 0.26103,-0.0805 0.34153,0 0.0805,0.0805 0,0.22769 0,0.34153 0,0.34152 0,0.68305 0,1.02457 0,0.91073 0,1.82146 0,2.73219 0,3.98445 0,7.9689 0,11.95335 0,1.25226 0,2.50451 0,3.75677 0,0.22768 0,0.45536 0,0.68305 0,0.22768 -0.10183,0.4794 0,0.68304 0.0509,0.10183 0.22989,-0.0223 0.34152,0 0.46027,0.0921 0.90143,0.27515 1.3661,0.34153 0.45079,0.0644 0.91073,0 1.36609,0 1.47994,0 2.95988,0 4.43982,0 0.22067,0 1.2847,-0.0814 1.3661,0 0.16099,0.16099 0,0.45536 0,0.68305 0,0.11384 0,0.22768 0,0.34152 0,1.13842 0,2.27683 0,3.41524 0,0.11384 -0.11381,0.33852 0,0.34153 0.64289,0.017 1.27151,-0.19411 1.90726,-0.29117"
     id="path3476"
     inkscape:connector-curvature="0" />
  <path
     style="fill:none;stroke:#000000;stroke-width:1px;stroke-linecap:butt;stroke-linejoin:miter;stroke-opacity:1"
     d="m 759.20833,161.99644 c 8.76579,0 17.53158,0 26.29737,0"
     id="path3478"
     inkscape:connector-curvature="0" />
  <path
     style="fill:none;stroke:#000000;stroke-width:1px;stroke-linecap:butt;stroke-linejoin:miter;stroke-opacity:1"
     d="m 843.9,197.3 c 0.002,-0.6114 -0.16453,-1.24715 0.006,-1.83419 0.18551,-0.63735 0.7022,-1.12735 1.02457,-1.70762 0.37087,-0.66757 0.61983,-1.40155 1.02458,-2.04915 0.43508,-0.69614 0.94373,-1.34521 1.36609,-2.04914 3.0262,-5.04366 -1.40717,2.1313 1.02458,-2.73219 0.14399,-0.288 0.51738,-0.40695 0.68304,-0.68305 0.18522,-0.3087 0.18053,-0.70258 0.34153,-1.02458 0.18356,-0.36712 0.5306,-0.64346 0.68305,-1.02457 0.0846,-0.2114 0,-0.45536 0,-0.68305 0,-0.34152 0,-0.68304 0,-1.02457 0,-0.79689 0,-1.59378 0,-2.39067 0,-0.29314 -0.0666,-1.84933 0,-2.04914 0.24231,-0.72694 0.54852,-0.0242 1.02457,-0.34153 0.2118,-0.1412 0.16152,-0.50305 0.34152,-0.68305 0.0994,-0.0994 1.1991,0.11134 1.3661,0 0.26791,-0.17861 0.42545,-0.48985 0.68305,-0.68304 0.20364,-0.15274 0.47124,-0.20033 0.68305,-0.34153 0.0992,-0.0661 0.6351,-0.67106 0.68305,-0.68305 0.54371,-0.20708 1.1554,0.13806 1.70762,0 0.24695,-0.0617 0.44155,-0.26102 0.68304,-0.34152 0.108,-0.036 0.22769,0 0.34153,0 0.77698,0 1.37385,0.14082 2.04914,-0.34153 4.69716,-3.35511 -1.41505,0.79052 3.41525,-3.07371 0.51834,-0.41468 1.14924,-0.66562 1.70762,-1.02458 1.03581,-0.66588 2.03988,-1.38019 3.07372,-2.04914 0.90168,-0.58344 1.87301,-1.06324 2.73219,-1.70762 0.80671,-0.30385 1.07904,-1.20476 1.70762,-1.70762 2.65222,-2.12178 0.35971,0.0627 2.04915,-2.04915 1.161,-1.45125 0.20854,0.10639 2.04914,-1.3661 0.19878,-0.15902 0.20032,-0.47124 0.34153,-0.68304 0.0893,-0.13396 0.22768,-0.22769 0.34152,-0.34153 0.22768,-0.22768 0.42545,-0.48985 0.68305,-0.68305 0.20364,-0.15273 0.50305,-0.16152 0.68305,-0.34152 0.29024,-0.29024 0.43677,-0.69621 0.68304,-1.02457 0.0966,-0.1288 0.22769,-0.22769 0.34153,-0.34153 0.22768,-0.22768 0.42545,-0.48985 0.68305,-0.68305 0.20364,-0.15273 0.54184,-0.12972 0.68305,-0.34152 0.11432,-0.17149 -0.11433,-0.85308 0,-1.02457 1.22828,-1.84244 0.1063,0.23522 1.36609,-1.02458 0.86266,-0.86265 0.13124,-0.3937 0.34153,-1.02457 0.0805,-0.24149 0.43367,-0.44575 0.34152,-0.68305 -0.15361,-0.39555 -0.62673,-0.57222 -0.9401,-0.85833"
     id="path3480"
     inkscape:connector-curvature="0" />
  <path
     style="fill:none;stroke:#000000;stroke-width:1px;stroke-linecap:butt;stroke-linejoin:miter;stroke-opacity:1"
     d="m 830.24537,166.09473 c 3.98445,0 7.9689,0 11.95335,0 0.45536,0 0.91073,0 1.3661,0 0.22768,0 0.45536,0 0.68304,0 0.11385,0 0.23971,-0.0509 0.34153,0 1.21351,0.60675 1.50974,1.2161 2.39067,2.39067 0.24627,0.32837 0.39281,0.73433 0.68305,1.02457 3.68749,3.68749 0.16445,-0.60713 1.70762,1.70762 0.0893,0.13396 0.29061,0.18879 0.34152,0.34153 0.072,0.216 -0.12629,0.4936 0,0.68304 0.1412,0.21181 0.50305,0.16153 0.68305,0.34153 1.59268,1.59268 0.24853,0.40406 0.68305,1.70762 0.0509,0.15273 0.29061,0.18879 0.34152,0.34152 0.072,0.216 0,0.45537 0,0.68305 0,0.22769 0,0.45537 0,0.68305 0,1.25226 0,2.50451 0,3.75677"
     id="path3482"
     inkscape:connector-curvature="0" />
  <path
     style="fill:none;stroke:#000000;stroke-width:1px;stroke-linecap:butt;stroke-linejoin:miter;stroke-opacity:1"
     d="m 793.70228,222.1047 c 0.56921,0.11384 1.13298,0.25943 1.70762,0.34152 0.2254,0.0322 0.45537,0 0.68305,0 0.56921,0 1.13841,0 1.70762,0 2.27683,0 4.55366,0 6.83049,0 5.00902,0 10.01804,0 15.02706,0 1.13842,0 2.27683,0 3.41524,0 0.11384,0 0.22769,0 0.34153,0 0.22768,0 0.52205,-0.16099 0.68305,0 0.16099,0.161 0,0.45537 0,0.68305 0,0.56921 0,1.13842 0,1.70762 0,0.34153 0.18944,0.74041 0,1.02458 -0.1263,0.18944 -0.46705,-0.072 -0.68305,0 -0.15274,0.0509 -0.19753,0.26952 -0.34153,0.34152 -0.10182,0.0509 -0.2468,-0.0632 -0.34152,0 -1.90596,1.27064 0.77379,0.12539 -1.70762,1.3661 -0.54833,0.27416 -1.14414,0.44155 -1.70762,0.68305 -0.23398,0.10027 -0.50305,0.16152 -0.68305,0.34152 -0.18,0.18 -0.16153,0.50305 -0.34153,0.68305 -0.17999,0.18 -0.4794,0.18879 -0.68304,0.34152 -1.35188,1.01391 -0.0218,0.36336 -1.3661,1.70762 -0.18,0.18 -0.50305,0.16153 -0.68305,0.34153 -0.18,0.18 -0.16152,0.50305 -0.34152,0.68305 -0.18,0.18 -0.50305,0.16152 -0.68305,0.34152 -0.29024,0.29024 -0.34904,0.786 -0.68305,1.02457 -0.7055,0.50393 -1.71366,0.48297 -2.39067,1.02458 -0.37715,0.30172 -0.6227,0.75666 -1.02457,1.02457 -0.79297,0.52864 -2.45471,0.34152 -3.41525,0.34152 -0.34152,0 -0.7191,-0.15273 -1.02457,0 -0.22768,0.11384 -0.20032,0.47125 -0.34152,0.68305 -0.0893,0.13396 -0.25222,0.20757 -0.34153,0.34153 -0.1412,0.2118 -0.16152,0.50305 -0.34152,0.68304 -0.77427,0.77428 -0.75195,-0.20371 -1.3661,1.02458 -0.15273,0.30547 0,0.68305 0,1.02457 0,1.02457 0,2.04914 0,3.07372 0,0.34152 0.15274,0.7191 0,1.02457 -0.0509,0.10182 -0.29061,-0.10182 -0.34152,0 -0.10182,0.20365 0.072,0.46705 0,0.68305 -0.161,0.48299 -0.49397,0.89339 -0.68305,1.3661 -0.0846,0.21139 0.18944,0.55675 0,0.68304 -0.29954,0.19969 -0.77002,0.087 -1.02457,0.34153 -0.80616,0.80615 -0.68305,1.4638 -0.68305,2.39067 0,0.77158 0.10182,-0.10183 -0.68305,0.68305 -0.40249,0.40249 -0.66017,0.92882 -1.02457,1.36609 -0.20614,0.24736 -0.50444,0.41514 -0.68305,0.68305 -0.0631,0.0947 0,0.22768 0,0.34153 0,0.22768 0,0.45536 0,0.68304 0,0.22769 -0.21548,0.75659 0,0.68305 0.57884,-0.19755 0.94425,-0.77763 1.41638,-1.16645"
     id="path3484"
     inkscape:connector-curvature="0" />
  <path
     style="fill:none;stroke:#000000;stroke-width:1px;stroke-linecap:butt;stroke-linejoin:miter;stroke-opacity:1"
     d="m 799.9,252.7 c -0.47213,1.75491 -1.09944,3.47528 -1.41638,5.26474 -0.15883,0.89678 0,1.82147 0,2.7322 0,0.68305 0,1.36609 0,2.04914 0,3.18756 0,6.37512 0,9.56268 0,1.02457 0,2.04915 0,3.07372 0,0.56921 0.19986,1.17465 0,1.70762 -0.16959,0.45224 -0.80857,0.59257 -1.02457,1.02457 -0.15274,0.30547 0,0.68305 0,1.02457 0,0.34153 0,0.68305 0,1.02458 0,0.11384 0.0911,0.27322 0,0.34152 -0.40729,0.30547 -0.91073,0.45537 -1.3661,0.68305 -0.22768,0.11384 -0.48427,0.1825 -0.68305,0.34152 -0.37715,0.30172 -0.68305,0.68305 -1.02457,1.02458 -0.22768,0.22768 -0.50444,0.41513 -0.68305,0.68305 -0.0631,0.0947 0,0.22768 0,0.34152 -0.34152,0.45536 -0.5801,1.01052 -1.02457,1.3661 -0.17779,0.14223 -0.5009,-0.13661 -0.68305,0 -1.13037,0.84777 -0.50498,0.81726 -0.68305,1.70762 -0.0706,0.353 -0.25421,0.67532 -0.34152,1.02457 -0.0276,0.11044 0.036,0.23352 0,0.34152 -0.73895,2.21686 0.14452,-1.40996 -1.02458,1.70763 -0.20382,0.54352 -0.0819,1.18842 -0.34152,1.70762 -0.6638,1.3276 -1.77646,2.4055 -2.39067,3.75676 -0.0942,0.20728 0.45537,0 0.68305,0 1.13841,0 2.27683,0 3.41524,0 3.75677,0 7.51353,0 11.2703,0 11.38414,0 22.76828,0 34.15242,0"
     id="path3486"
     inkscape:connector-curvature="0" />
  <path
     style="fill:none;stroke:#000000;stroke-width:1px;stroke-linecap:butt;stroke-linejoin:miter;stroke-opacity:1"
     d="m 791.99466,320.46367 c -3.87061,0 -7.74122,0 -11.61182,0 -0.79689,0 -1.59378,0 -2.39067,0 -0.45537,0 -0.91208,-0.0349 -1.3661,0 -1.02784,0.0791 -2.04512,0.27296 -3.07372,0.34153 -0.68153,0.0454 -1.38126,-0.14312 -2.04914,0 -0.95107,0.2038 -1.79502,0.76424 -2.7322,1.02457 -1.1186,0.31073 -2.34173,0.24102 -3.41524,0.68305 -0.90554,0.37287 -1.4867,1.33097 -2.39067,1.70762 -0.52542,0.21893 -1.13841,0 -1.70762,0 -0.11384,0 -0.2468,-0.0632 -0.34152,0 -0.26792,0.17861 -0.38409,0.56346 -0.68305,0.68305 -0.3171,0.12684 -0.68305,0 -1.02458,0 -0.68304,0 -1.36609,0 -2.04914,0 -0.22768,0 -0.45537,0 -0.68305,0 -0.45536,0 -0.97073,-0.22593 -1.3661,0 -1.73102,0.98915 -0.72365,1.18699 -1.02457,2.39067 -0.14869,0.59475 -0.47685,1.13028 -0.68305,1.70762 -0.36324,1.01708 -0.71983,2.03761 -1.02457,3.07372 -0.26489,0.90061 -0.38619,1.84161 -0.68305,2.73219 -0.0509,0.15274 -0.22768,0.22768 -0.34152,0.34153 -0.22769,0.22768 -0.5233,0.40348 -0.68305,0.68304 -1.41002,3.52504 0.0695,0.4766 -1.3661,2.39067 -1.53686,2.04915 1.70762,-1.36609 -1.02457,2.04915 -0.15902,0.19878 -0.50305,0.16152 -0.68305,0.34152 -0.18,0.18 -0.22768,0.45537 -0.34152,0.68305 -0.34153,0.68305 -0.68305,1.3661 -1.02458,2.04915 -0.11384,0.22768 -0.21055,0.46476 -0.34152,0.68305 -0.21118,0.35196 -0.55325,0.63517 -0.68305,1.02457 -0.108,0.324 0.12684,0.70747 0,1.02457 -0.11958,0.29896 -0.45536,0.45537 -0.68305,0.68305 -0.34152,0.34152 -0.63818,0.73478 -1.02457,1.02457 -0.0911,0.0683 -0.26103,-0.0805 -0.34152,0 -0.51544,0.51544 -1.04011,1.05564 -1.3661,1.70762 -0.30547,0.61094 0.216,1.40115 0,2.04915 -0.84074,2.52223 -0.24637,0.63547 -1.02457,1.02457 -0.36713,0.18356 -0.67261,0.47187 -1.02458,0.68305 -0.21828,0.13097 -0.53031,0.13788 -0.68304,0.34152 -1.22464,1.63285 0.84069,0.52541 -1.02458,2.39067 -0.36,0.36 -0.92953,0.42111 -1.36609,0.68305 -0.13806,0.0828 -0.22769,0.22768 -0.34153,0.34153 -0.34152,0.34152 -0.68305,0.68304 -1.02457,1.02457 -0.22768,0.22768 -0.41514,0.50444 -0.68305,0.68305 -0.0947,0.0631 -0.22768,0 -0.34152,0 -0.34153,0 -0.68968,-0.067 -1.02458,0 -0.24961,0.0499 -0.44669,0.24698 -0.68304,0.34152 -0.33425,0.1337 -0.70258,0.18053 -1.02458,0.34153 -0.36712,0.18356 -0.65744,0.49948 -1.02457,0.68304 -0.32199,0.161 -0.70258,0.18053 -1.02457,0.34153 -0.59373,0.29686 -1.08608,0.79149 -1.70762,1.02457 -0.31978,0.11992 -0.69325,-0.0828 -1.02458,0 -0.15619,0.0391 -0.18533,0.30248 -0.34152,0.34153 -0.44177,0.11044 -0.91073,0 -1.3661,0 -1.02457,0 -2.04914,0 -3.07372,0 -2.73219,0 -5.46438,0 -8.19658,0 -9.22115,0 -18.4423,0 -27.66346,0 -3.07372,0 -6.14743,0 -9.22115,0 -0.0468,0 -2.72914,0.006 -2.7322,0 -0.0493,-0.0985 0,-1.83087 0,-2.04915 0,-1.9353 0,-3.87061 0,-5.80591 0,-0.34153 0,-0.68305 0,-1.02457 0,-0.34153 0.18945,-0.74041 0,-1.02458 -0.0351,-0.0527 -1.63142,0 -1.70762,0 -2.73219,0 -5.46438,0 -8.19658,0"
     id="path3488"
     inkscape:connector-curvature="0" />
  <path
     style="fill:none;stroke:#000000;stroke-width:1px;stroke-linecap:butt;stroke-linejoin:miter;stroke-opacity:1"
     d="m 753.0609,453.3166 c 0,1.25225 0,2.50451 0,3.75676 0,3.41524 0,6.83049 0,10.24573 0,0.91073 0,1.82146 0,2.73219 0,1.3661 -0.17669,2.74367 0,4.09829 0.16788,1.28709 0.61411,2.52539 1.02457,3.75677 0.0455,0.13648 1.62931,3.31735 1.70762,3.41524 0.15902,0.19878 0.54185,0.12972 0.68305,0.34153 0.34006,0.51009 0.40888,1.15928 0.68305,1.70762 0.18356,0.36712 0.53061,0.64347 0.68305,1.02457 0.0846,0.2114 -0.13661,0.5009 0,0.68305 0.35318,0.23545 1.05021,0.60339 1.36609,1.02457 1.91123,2.54829 0.0718,-0.12601 0.68305,1.70762 0.0509,0.15274 0.29062,0.18879 0.34153,0.34153 0.072,0.21599 -0.072,0.46704 0,0.68304 0.0509,0.15274 0.21928,0.23675 0.34152,0.34153 0.67508,0.57864 1.42044,1.07891 2.04915,1.70762 0.62871,0.62871 1.11691,1.3846 1.70762,2.04914 0.34152,0.34153 0.68305,0.68305 1.02457,1.02458 0.34152,0.22768 0.73433,0.39281 1.02457,0.68305 0.25126,0.25126 0.61636,1.50756 0.68305,1.70762"
     id="path3490"
     inkscape:connector-curvature="0" />
  <path
     style="fill:none;stroke:#000000;stroke-width:1px;stroke-linecap:butt;stroke-linejoin:miter;stroke-opacity:1"
     d="m 437.151,462.87927 c 0,2.16299 0,4.32598 0,6.48896 0,0.34153 0,0.68305 0,1.02458 0,0.34152 0.15273,0.7191 0,1.02457 -0.216,0.432 -0.77608,0.61041 -1.02457,1.02457 -0.11549,0.19248 0.11548,2.19819 0,2.39067 -2.26595,3.77658 0.0516,-1.46939 -1.70763,2.04915 -0.16099,0.32199 -0.27092,0.67156 -0.34152,1.02457 -0.17807,0.89035 0.44732,0.85985 -0.68305,1.70762 -0.18214,0.13661 -0.52205,-0.161 -0.68305,0 -0.11012,0.11012 0.0949,1.08145 0,1.3661 -0.0866,0.25975 -1.35029,1.00876 -1.36609,1.02457 -0.0805,0.0805 0.036,0.23352 0,0.34152 -0.0805,0.2415 -0.27979,0.4361 -0.34153,0.68305 -0.0552,0.22089 0.072,0.46705 0,0.68305 -0.0509,0.15273 -0.26952,0.19753 -0.34152,0.34152 -0.37753,0.75505 -0.34153,0.78396 -0.34153,1.3661"
     id="path3492"
     inkscape:connector-curvature="0" />
</svg>
