<?xml version="1.0" encoding="UTF-8" standalone="no"?>
<svg
   xmlns:dc="http://purl.org/dc/elements/1.1/"
   xmlns:cc="http://creativecommons.org/ns#"
   xmlns:rdf="http://www.w3.org/1999/02/22-rdf-syntax-ns#"
   xmlns:svg="http://www.w3.org/2000/svg"
   xmlns="http://www.w3.org/2000/svg"
   xmlns:sodipodi="http://sodipodi.sourceforge.net/DTD/sodipodi-0.dtd"
   xmlns:inkscape="http://www.inkscape.org/namespaces/inkscape"
   width="959"
   height="593"
   version="1.1"
   id="svg170"
   sodipodi:docname="major hubs.svg"
   inkscape:version="0.92.1 15371"
   inkscape:export-filename="/home/matthew/major us hubs.png"
   inkscape:export-xdpi="96"
   inkscape:export-ydpi="96">
  <metadata
     id="metadata176">
    <rdf:RDF>
      <cc:Work
         rdf:about="">
        <dc:format>image/svg+xml</dc:format>
        <dc:type
           rdf:resource="http://purl.org/dc/dcmitype/StillImage" />
        <dc:title>Blank US states map</dc:title>
      </cc:Work>
    </rdf:RDF>
  </metadata>
  <defs
     id="defs174" />
  <sodipodi:namedview
     pagecolor="#ffffff"
     bordercolor="#666666"
     borderopacity="1"
     objecttolerance="10"
     gridtolerance="10"
     guidetolerance="10"
     inkscape:pageopacity="0"
     inkscape:pageshadow="2"
     inkscape:window-width="3710"
     inkscape:window-height="2112"
     id="namedview172"
     showgrid="false"
     inkscape:zoom="2.6433785"
     inkscape:cx="354.09231"
     inkscape:cy="311.63215"
     inkscape:window-x="130"
     inkscape:window-y="48"
     inkscape:window-maximized="1"
     inkscape:current-layer="svg170"
     inkscape:lockguides="true" />
  <title
     id="title113">Blank US states map</title>
  <g
     id="outlines"
     inkscape:export-filename="/home/matthew/Pictures/major us hubs.png"
     inkscape:export-xdpi="96"
     inkscape:export-ydpi="96">
    <path
       id="AK"
       d="M161.1,453.7 l-0.3,85.4 1.6,1 3.1,0.2 1.5,-1.1 h2.6 l0.2,2.9 7,6.8 0.5,2.6 3.4,-1.9 0.6,-0.2 0.3,-3.1 1.5,-1.6 1.1,-0.2 1.9,-1.5 3.1,2.1 0.6,2.9 1.9,1.1 1.1,2.4 3.9,1.8 3.4,6 2.7,3.9 2.3,2.7 1.5,3.7 5,1.8 5.2,2.1 1,4.4 0.5,3.1 -1,3.4 -1.8,2.3 -1.6,-0.8 -1.5,-3.1 -2.7,-1.5 -1.8,-1.1 -0.8,0.8 1.5,2.7 0.2,3.7 -1.1,0.5 -1.9,-1.9 -2.1,-1.3 0.5,1.6 1.3,1.8 -0.8,0.8 c0,0 -0.8,-0.3 -1.3,-1 -0.5,-0.6 -2.1,-3.4 -2.1,-3.4 l-1,-2.3 c0,0 -0.3,1.3 -1,1 -0.6,-0.3 -1.3,-1.5 -1.3,-1.5 l1.8,-1.9 -1.5,-1.5 v-5 h-0.8 l-0.8,3.4 -1.1,0.5 -1,-3.7 -0.6,-3.7 -0.8,-0.5 0.3,5.7 v1.1 l-1.5,-1.3 -3.6,-6 -2.1,-0.5 -0.6,-3.7 -1.6,-2.9 -1.6,-1.1 v-2.3 l2.1,-1.3 -0.5,-0.3 -2.6,0.6 -3.4,-2.4 -2.6,-2.9 -4.8,-2.6 -4,-2.6 1.3,-3.2 v-1.6 l-1.8,1.6 -2.9,1.1 -3.7,-1.1 -5.7,-2.4 h-5.5 l-0.6,0.5 -6.5,-3.9 -2.1,-0.3 -2.7,-5.8 -3.6,0.3 -3.6,1.5 0.5,4.5 1.1,-2.9 1,0.3 -1.5,4.4 3.2,-2.7 0.6,1.6 -3.9,4.4 -1.3,-0.3 -0.5,-1.9 -1.3,-0.8 -1.3,1.1 -2.7,-1.8 -3.1,2.1 -1.8,2.1 -3.4,2.1 -4.7,-0.2 -0.5,-2.1 3.7,-0.6 v-1.3 l-2.3,-0.6 1,-2.4 2.3,-3.9 v-1.8 l0.2,-0.8 4.4,-2.3 1,1.3 h2.7 l-1.3,-2.6 -3.7,-0.3 -5,2.7 -2.4,3.4 -1.8,2.6 -1.1,2.3 -4.2,1.5 -3.1,2.6 -0.3,1.6 2.3,1 0.8,2.1 -2.7,3.2 -6.5,4.2 -7.8,4.2 -2.1,1.1 -5.3,1.1 -5.3,2.3 1.8,1.3 -1.5,1.5 -0.5,1.1 -2.7,-1 -3.2,0.2 -0.8,2.3 h-1 l0.3,-2.4 -3.6,1.3 -2.9,1 -3.4,-1.3 -2.9,1.9 h-3.2 l-2.1,1.3 -1.6,0.8 -2.1,-0.3 -2.6,-1.1 -2.3,0.6 -1,1 -1.6,-1.1 v-1.9 l3.1,-1.3 6.3,0.6 4.4,-1.6 2.1,-2.1 2.9,-0.6 1.8,-0.8 2.7,0.2 1.6,1.3 1,-0.3 2.3,-2.7 3.1,-1 3.4,-0.6 1.3,-0.3 0.6,0.5 h0.8 l1.3,-3.7 4,-1.5 1.9,-3.7 2.3,-4.5 1.6,-1.5 0.3,-2.6 -1.6,1.3 -3.4,0.6 -0.6,-2.4 -1.3,-0.3 -1,1 -0.2,2.9 -1.5,-0.2 -1.5,-5.8 -1.3,1.3 -1.1,-0.5 -0.3,-1.9 -4,0.2 -2.1,1.1 -2.6,-0.3 1.5,-1.5 0.5,-2.6 -0.6,-1.9 1.5,-1 1.3,-0.2 -0.6,-1.8 v-4.4 l-1,-1 -0.8,1.5 h-6.1 l-1.5,-1.3 -0.6,-3.9 -2.1,-3.6 v-1 l2.1,-0.8 0.2,-2.1 1.1,-1.1 -0.8,-0.5 -1.3,0.5 -1.1,-2.7 1,-5 4.5,-3.2 2.6,-1.6 1.9,-3.7 2.7,-1.3 2.6,1.1 0.3,2.4 2.4,-0.3 3.2,-2.4 1.6,0.6 1,0.6 h1.6 l2.3,-1.3 0.8,-4.4 c0,0 0.3,-2.9 1,-3.4 0.6,-0.5 1,-1 1,-1 l-1.1,-1.9 -2.6,0.8 -3.2,0.8 -1.9,-0.5 -3.6,-1.8 -5,-0.2 -3.6,-3.7 0.5,-3.9 0.6,-2.4 -2.1,-1.8 -1.9,-3.7 0.5,-0.8 6.8,-0.5 h2.1 l1,1 h0.6 l-0.2,-1.6 3.9,-0.6 2.6,0.3 1.5,1.1 -1.5,2.1 -0.5,1.5 2.7,1.6 5,1.8 1.8,-1 -2.3,-4.4 -1,-3.2 1,-0.8 -3.4,-1.9 -0.5,-1.1 0.5,-1.6 -0.8,-3.9 -2.9,-4.7 -2.4,-4.2 2.9,-1.9 h3.2 l1.8,0.6 4.2,-0.2 3.7,-3.6 1.1,-3.1 3.7,-2.4 1.6,1 2.7,-0.6 3.7,-2.1 1.1,-0.2 1,0.8 4.5,-0.2 2.7,-3.1 h1.1 l3.6,2.4 1.9,2.1 -0.5,1.1 0.6,1.1 1.6,-1.6 3.9,0.3 0.3,3.7 1.9,1.5 7.1,0.6 6.3,4.2 1.5,-1 5.2,2.6 2.1,-0.6 1.9,-0.8 4.8,1.9z m-115.1,28.9 2.1,5.3 -0.2,1 -2.9,-0.3 -1.8,-4 -1.8,-1.5 h-2.4 l-0.2,-2.6 1.8,-2.4 1.1,2.4 1.5,1.5z m-2.6,33.5 3.7,0.8 3.7,1 0.8,1 -1.6,3.7 -3.1,-0.2 -3.4,-3.6z m-20.7,-14.1 1.1,2.6 1.1,1.6 -1.1,0.8 -2.1,-3.1 v-1.9z m-13.7,73.1 3.4,-2.3 3.4,-1 2.6,0.3 0.5,1.6 1.9,0.5 1.9,-1.9 -0.3,-1.6 2.7,-0.6 2.9,2.6 -1.1,1.8 -4.4,1.1 -2.7,-0.5 -3.7,-1.1 -4.4,1.5 -1.6,0.3z m48.9,-4.5 1.6,1.9 2.1,-1.6 -1.5,-1.3z m2.9,3 1.1,-2.3 2.1,0.3 -0.8,1.9 h-2.4z m23.6,-1.9 1.5,1.8 1,-1.1 -0.8,-1.9z m8.8,-12.5 1.1,5.8 2.9,0.8 5,-2.9 4.4,-2.6 -1.6,-2.4 0.5,-2.4 -2.1,1.3 -2.9,-0.8 1.6,-1.1 1.9,0.8 3.9,-1.8 0.5,-1.5 -2.4,-0.8 0.8,-1.9 -2.7,1.9 -4.7,3.6 -4.8,2.9z m42.3,-19.8 2.4,-1.5 -1,-1.8 -1.8,1z"
       fill="#D3D3D3" />
    <path
       id="HI"
       d="M233.1,519.3 l1.9,-3.6 2.3,-0.3 0.3,0.8 -2.1,3.1z m10.2,-3.7 6.1,2.6 2.1,-0.3 1.6,-3.9 -0.6,-3.4 -4.2,-0.5 -4,1.8z m30.7,10 3.7,5.5 2.4,-0.3 1.1,-0.5 1.5,1.3 3.7,-0.2 1,-1.5 -2.9,-1.8 -1.9,-3.7 -2.1,-3.6 -5.8,2.9z m20.2,8.9 1.3,-1.9 4.7,1 0.6,-0.5 6.1,0.6 -0.3,1.3 -2.6,1.5 -4.4,-0.3z m5.3,5.2 1.9,3.9 3.1,-1.1 0.3,-1.6 -1.6,-2.1 -3.7,-0.3z m7,-1.2 2.3,-2.9 4.7,2.4 4.4,1.1 4.4,2.7 v1.9 l-3.6,1.8 -4.8,1 -2.4,-1.5z m16.6,15.6 1.6,-1.3 3.4,1.6 7.6,3.6 3.4,2.1 1.6,2.4 1.9,4.4 4,2.6 -0.3,1.3 -3.9,3.2 -4.2,1.5 -1.5,-0.6 -3.1,1.8 -2.4,3.2 -2.3,2.9 -1.8,-0.2 -3.6,-2.6 -0.3,-4.5 0.6,-2.4 -1.6,-5.7 -2.1,-1.8 -0.2,-2.6 2.3,-1 2.1,-3.1 0.5,-1 -1.6,-1.8z"
       fill="#D3D3D3" />
    <path
       id="AL"
       d="M628.5,466.4 l0.6,0.2 1.3,-2.7 1.5,-4.4 2.3,0.6 3.1,6 v1 l-2.7,1.9 2.7,0.3 5.2,-2.5 -0.3,-7.6 -2.5,-1.8 -2,-2 0.4,-4 10.5,-1.5 25.7,-2.9 6.7,-0.6 5.6,0.1 -0.5,-2.2 -1.5,-0.8 -0.9,-1.1 1,-2.6 -0.4,-5.2 -1.6,-4.5 0.8,-5.1 1.7,-4.8 -0.2,-1.7 -1.8,-0.7 -0.5,-3.6 -2.7,-3.4 -2,-6.5 -1.4,-6.7 -1.8,-5 -3.8,-16 -3.5,-7.9 -0.8,-5.6 0.1,-2.2 -9,0.8 -23.4,2.2 -12.2,0.8 -0.2,6.4 0.2,16.7 -0.7,31 -0.3,14.1 2.8,18.8 1.6,14.7z"
       fill="#D3D3D3" />
    <path
       id="AR"
       d="M587.3,346.1 l-6.4,-0.7 0.9,-3.1 3.1,-2.6 0.6,-2.3 -1.8,-2.9 -31.9,1.2 -23.3,0.7 -23.6,0.3 1.5,6.9 0.1,8.5 1.4,10.9 0.3,38.2 2.1,1.6 3,-1.2 2.9,1.2 0.4,10.1 25.2,-0.2 26.8,-0.8 0.9,-1.9 -0.3,-3.8 -1.7,-3.1 1.5,-1.4 -1.4,-2.2 0.7,-2.4 1.1,-5.9 2.7,-2.3 -0.8,-2.2 4,-5.6 2.5,-1.1 -0.1,-1.7 -0.5,-1.7 2.9,-5.8 2.5,-1.1 0.2,-3.3 2.1,-1.4 0.9,-4.1 -1.4,-4 4.2,-2.4 0.3,-2.1 1.2,-4.2 0.9,-3.1z"
       fill="#D3D3D3" />
    <path
       id="AZ"
       d="M135.1,389.7 l-0.3,1.5 0.5,1 18.9,10.7 12.1,7.6 14.7,8.6 16.8,10 12.3,2.4 25.4,2.7 6,-39.6 7,-53.1 4.4,-31 -24.6,-3.6 -60.7,-11 -0.2,1.1 -2.6,16.5 -2.1,3.8 -2.8,-0.2 -1.2,-2.6 -2.6,-0.4 -1.2,-1.1 -1.1,0.1 -2.1,1.7 -0.3,6.8 -0.3,1.5 -0.5,12.5 -1.5,2.4 -0.4,3.3 2.8,5 1.1,5.5 0.7,1.1 1.1,0.9 -0.4,2.4 -1.7,1.2 -3.4,1.6 -1.6,1.8 -1.6,3.6 -0.5,4.9 -3,2.9 -1.9,0.9 -0.1,5.8 -0.6,1.6 0.5,0.8 3.9,0.4 -0.9,3 -1.7,2.4 -3.7,0.4z"
       fill="#D3D3D3" />
    <path
       id="CA"
       d="M122.7,385.9 l-19.7,-2.7 -10,-1.5 -0.5,-1.8 v-9.4 l-0.3,-3.2 -2.6,-4.2 -0.8,-2.3 -3.9,-4.2 -2.9,-4.7 -2.7,-0.2 -3.2,-0.8 -0.3,-1 1.5,-0.6 -0.6,-3.2 -1.5,-2.1 -4.8,-0.8 -3.9,-2.1 -1.1,-2.3 -2.6,-4.8 -2.9,-3.1 h-2.9 l-3.9,-2.1 -4.5,-1.8 -4.2,-0.5 -2.4,-2.7 0.5,-1.9 1.8,-7.1 0.8,-1.9 v-2.4 l-1.6,-1 -0.5,-2.9 -1.5,-2.6 -3.4,-5.8 -1.3,-3.1 -1.5,-4.7 -1.6,-5.3 -3.2,-4.4 -0.5,-2.9 0.8,-3.9 h1.1 l2.1,-1.6 1.1,-3.6 -1,-2.7 -2.7,-0.5 -1.9,-2.6 -2.1,-3.7 -0.2,-8.2 0.6,-1.9 0.6,-2.3 0.5,-2.4 -5.7,-6.3 v-2.1 l0.3,-0.5 0.3,-3.2 -1.3,-4 -2.3,-4.8 -2.7,-4.5 -1.8,-3.9 1,-3.7 0.6,-5.8 1.8,-3.1 0.3,-6.5 -1.1,-3.6 -1.6,-4.2 -2.7,-4.2 0.8,-3.2 1.5,-4.2 1.8,-0.8 0.3,-1.1 3.1,-2.6 5.2,-11.8 0.2,-7.4 1.69,-4.9 38.69,11.8 25.6,6.6 -8,31.3 -8.67,33.1 12.63,19.2 42.16,62.3 17.1,26.1 -0.4,3.1 2.8,5.2 1.1,5.4 1,1.5 0.7,0.6 -0.2,1.4 -1.4,1 -3.4,1.6 -1.9,2.1 -1.7,3.9 -0.5,4.7 -2.6,2.5 -2.3,1.1 -0.1,6.2 -0.6,1.9 1,1.7 3,0.3 -0.4,1.6 -1.4,2 -3.9,0.6z m-73.9,-48.9 1.3,1.5 -0.2,1.3 -3.2,-0.1 -0.6,-1.2 -0.6,-1.5z m1.9,0 1.2,-0.6 3.6,2.1 3.1,1.2 -0.9,0.6 -4.5,-0.2 -1.6,-1.6z m20.7,19.8 1.8,2.3 0.8,1 1.5,0.6 0.6,-1.5 -1,-1.8 -2.7,-2 -1.1,0.2 v1.2z m-1.4,8.7 1.8,3.2 1.2,1.9 -1.5,0.2 -1.3,-1.2 c0,0 -0.7,-1.5 -0.7,-1.9 0,-0.4 0,-2.2 0,-2.2z"
       fill="#D3D3D3" />
    <path
       id="CO"
       d="M380.2,235.5 l-36,-3.5 -79.1,-8.6 -2.2,22.1 -7,50.4 -1.9,13.7 34,3.9 37.5,4.4 34.7,3 14.3,0.6z"
       fill="#D3D3D3" />
    <path
       id="CT"
       d="M852,190.9 l3.6,-3.2 1.9,-2.1 0.8,0.6 2.7,-1.5 5.2,-1.1 7,-3.5 -0.6,-4.2 -0.8,-4.4 -1.6,-6 -4.3,1.1 -21.8,4.7 0.6,3.1 1.5,7.3 v8.3 l-0.9,2.1 1.7,2.2z"
       fill="#D3D3D3" />
    <path
       id="DE"
       d="M834.4,247.2 l-1,0.5 -3.6,-2.4 -1.8,-4.7 -1.9,-3.6 -2.3,-1 -2.1,-3.6 0.5,-2 0.5,-2.3 0.1,-1.1 -0.6,0.1 -1.7,1 -2,1.7 -0.2,0.3 1.4,4.1 2.3,5.6 3.7,16.1 5,-0.3 6,-1.1z"
       fill="#D3D3D3" />
    <path
       id="FL"
       d="M750.2,445.2 l-5.2,-0.7 -0.7,0.8 1.5,4.4 -0.4,5.2 -4.1,-1 -0.2,-2.8 h-4.1 l-5.3,0.7 -32.4,1.9 -8.2,-0.3 -1.7,-1.7 -2.5,-4.2 h-5.9 l-6.6,0.5 -35.4,4.2 -0.3,2.8 1.6,1.6 2.9,2 0.3,8.4 3.3,-0.6 6,-2.1 6,-0.5 4.4,-0.6 7.6,1.8 8.1,3.9 1.6,1.5 2.9,1.1 1.6,1.9 0.3,2.7 3.2,-1.3 h3.9 l3.6,-1.9 3.7,-3.6 3.1,0.2 0.5,-1.1 -0.8,-1 0.2,-1.9 4,-0.8 h2.6 l2.9,1.5 4.2,1.5 2.4,3.7 2.7,1 1.1,3.4 3.4,1.6 1.6,2.6 1.9,0.6 5.2,1.3 1.3,3.1 3,3.7 v9.5 l-1.5,4.7 0.3,2.7 1.3,4.8 1.8,4 0.8,-0.5 1.5,-4.5 -2.6,-1 -0.3,-0.6 1.6,-0.6 4.5,1 0.2,1.6 -3.2,5.5 -2.1,2.4 3.6,3.7 2.6,3.1 2.9,5.3 2.9,3.9 2.1,5 1.8,0.3 1.6,-2.1 1.8,1.1 2.6,4 0.6,3.6 3.1,4.4 0.8,-1.3 3.9,0.3 3.6,2.3 3.4,5.2 0.8,3.4 0.3,2.9 1.1,1 1.3,0.5 2.4,-1 1.5,-1.6 3.9,-0.2 3.1,-1.5 2.7,-3.2 -0.5,-1.9 -0.3,-2.4 0.6,-1.9 -0.3,-1.9 2.4,-1.3 0.3,-3.4 -0.6,-1.8 -0.5,-12 -1.3,-7.6 -4.5,-8.2 -3.6,-5.8 -2.6,-5.3 -2.9,-2.9 -2.9,-7.4 0.7,-1.4 1.1,-1.3 -1.6,-2.9 -4,-3.7 -4.8,-5.5 -3.7,-6.3 -5.3,-9.4 -3.7,-9.7 -2.3,-7.3z m17.7,132.7 2.4,-0.6 1.3,-0.2 1.5,-2.3 2.3,-1.6 1.3,0.5 1.7,0.3 0.4,1.1 -3.5,1.2 -4.2,1.5 -2.3,1.2z m13.5,-5 1.2,1.1 2.7,-2.1 5.3,-4.2 3.7,-3.9 2.5,-6.6 1,-1.7 0.2,-3.4 -0.7,0.5 -1,2.8 -1.5,4.6 -3.2,5.3 -4.4,4.2 -3.4,1.9z"
       fill="#D3D3D3" />
    <path
       id="GA"
       d="M750.2,444.2 l-5.6,-0.7 -1.4,1.6 1.6,4.7 -0.3,3.9 -2.2,-0.6 -0.2,-3 h-5.2 l-5.3,0.7 -32.3,1.9 -7.7,-0.3 -1.4,-1.2 -2.5,-4.3 -0.8,-3.3 -1.6,-0.9 -0.5,-0.5 0.9,-2.2 -0.4,-5.5 -1.6,-4.5 0.8,-4.9 1.7,-4.8 -0.2,-2.5 -1.9,-0.7 -0.4,-3.2 -2.8,-3.5 -1.9,-6.2 -1.5,-7 -1.7,-4.8 -3.8,-16 -3.5,-8 -0.8,-5.3 0.1,-2.3 3.3,-0.3 13.6,-1.6 18.6,-2 6.3,-1.1 0.5,1.4 -2.2,0.9 -0.9,2.2 0.4,2 1.4,1.6 4.3,2.7 3.2,-0.1 3.2,4.7 0.6,1.6 2.3,2.8 0.5,1.7 4.7,1.8 3,2.2 2.3,3 2.3,1.3 2,1.8 1.4,2.7 2.1,1.9 4.1,1.8 2.7,6 1.7,5.1 2.8,0.7 2.1,1.9 2,5.7 2.9,1.6 1.7,-0.8 0.4,1.2 -3.3,6.2 0.5,2.6 -1.5,4.2 -2.3,10 0.8,6.3z"
       fill="#D3D3D3" />
    <path
       id="IA"
       d="M556.8,183.6 l2.1,2.1 0.3,0.7 -2,3 0.3,4 2.6,4.1 3.1,1.6 2.4,0.3 0.9,1.8 0.2,2.4 2.5,1 0.9,1.1 0.5,1.6 3.8,3.3 0.6,1.9 -0.7,3 -1.7,3.7 -0.6,2.4 -2.1,1.6 -1.6,0.5 -5.7,1.5 -1.6,4.8 0.8,1.8 1.7,1.5 -0.2,3.5 -1.9,1.4 -0.7,1.8 v2.4 l-1.4,0.4 -1.7,1.4 -0.5,1.7 0.4,1.7 -1.3,1 -2.3,-2.7 -1.4,-2.8 -8.3,0.8 -10,0.6 -49.2,1.2 -1.6,-4.3 -0.4,-6.7 -1.4,-4.2 -0.7,-5.2 -2.2,-3.7 -1,-4.6 -2.7,-7.8 -1.1,-5.6 -1.4,-1.9 -1.3,-2.9 1.7,-3.8 1.2,-6.1 -2.7,-2.2 -0.3,-2.4 0.7,-2.4 1.8,-0.3 61.1,-0.6 21.2,-0.7z"
       fill="#D3D3D3" />
    <path
       id="ID"
       d="M175.3,27.63 l-4.8,17.41 -4.5,20.86 -3.4,16.22 -0.4,9.67 1.2,4.44 3.5,2.66 -0.2,3.91 -3.9,4.4 -4.5,6.6 -0.9,2.9 -1.2,1.1 -1.8,0.8 -4.3,5.3 -0.4,3.1 -0.4,1.1 0.6,1 2.6,-0.1 1.1,2.3 -2.4,5.8 -1.2,4.2 -8.8,35.3 20.7,4.5 39.5,7.9 34.8,6.1 4.9,-29.2 3.8,-24.1 -2.7,-2.4 -0.4,-2.6 -0.8,-1.1 -2.1,1 -0.7,2.6 -3.2,0.5 -3.9,-1.6 -3.8,0.1 -2.5,0.7 -3.4,-1.5 -2.4,0.2 -2.4,2 -2,-1.1 -0.7,-4 0.7,-2.9 -2.5,-2.9 -3.3,-2.6 -2.7,-13.1 -0.1,-4.7 -0.3,-0.1 -0.2,0.4 -5.1,3.5 -1.7,-0.2 -2.9,-3.4 -0.2,-3.1 7,-17.13 -0.4,-1.94 -3.4,-1.15 -0.6,-1.18 -2.6,-3.46 -4.6,-10.23 -3.2,-1.53 -2,-4.95 1.3,-4.63 -3.2,-7.58 4.4,-21.52z"
       fill="#D3D3D3" />
    <path
       id="IL"
       d="M618.7,214.3 l-0.8,-2.6 -1.3,-3.7 -1.6,-1.8 -1.5,-2.6 -0.4,-5.5 -15.9,1.8 -17.4,1 h-12.3 l0.2,2.1 2.2,0.9 1.1,1.4 0.4,1.4 3.9,3.4 0.7,2.4 -0.7,3.3 -1.7,3.7 -0.8,2.7 -2.4,1.9 -1.9,0.6 -5.2,1.3 -1.3,4.1 0.6,1.1 1.9,1.8 -0.2,4.3 -2.1,1.6 -0.5,1.3 v2.8 l-1.8,0.6 -1.4,1.2 -0.4,1.2 0.4,2 -1.6,1.3 -0.9,2.8 0.3,3.9 2.3,7 7,7.6 5.7,3.7 v4.4 l0.7,1.2 6.6,0.6 2.7,1.4 -0.7,3.5 -2.2,6.2 -0.8,3 2,3.7 6.4,5.3 4.8,0.8 2.2,5.1 2,3.4 -0.9,2.8 1.5,3.8 1.7,2.1 1.6,-0.3 1,-2.2 2.4,-1.7 2.8,-1 6.1,2.5 0.5,-0.2 v-1.1 l-1.2,-2.7 0.4,-2.8 2.4,-1.6 3.4,-1.2 -0.5,-1.3 -0.8,-2 1.2,-1.3 1,-2.7 v-4 l0.4,-4.9 2.5,-3 1.8,-3.8 2.5,-4 -0.5,-5.3 -1.8,-3.2 -0.3,-3.3 0.8,-5.3 -0.7,-7.2 -1.1,-15.8 -1.4,-15.3 -0.9,-11.7z"
       fill="#D3D3D3" />
    <path
       id="IN"
       d="M622.9,216.1 l1.5,1 1.1,-0.3 2.1,-1.9 2.5,-1.8 14.3,-1.1 18.4,-1.8 1.6,15.5 4.9,42.6 -0.6,2.9 1.3,1.6 0.2,1.3 -2.3,1.6 -3.6,1.7 -3.2,0.4 -0.5,4.8 -4.7,3.6 -2.9,4 0.2,2.4 -0.5,1.4 h-3.5 l-1.4,-1.7 -5.2,3 0.2,3.1 -0.9,0.2 -0.5,-0.9 -2.4,-1.7 -3.6,1.5 -1.4,2.9 -1.2,-0.6 -1.6,-1.8 -4.4,0.5 -5.7,1 -2.5,1.3 v-2.6 l0.4,-4.7 2.3,-2.9 1.8,-3.9 2.7,-4.2 -0.5,-5.8 -1.8,-3.1 -0.3,-3.2 0.8,-5.3 -0.7,-7.1 -0.9,-12.6 -2.5,-30.1z"
       fill="#D3D3D3" />
    <path
       id="KS"
       d="M485.9,259.5 l-43.8,-0.6 -40.6,-1.2 -21.7,-0.9 -4.3,64.8 24.3,1 44.7,2.1 46.3,0.6 12.6,-0.3 0.7,-35 -1.2,-11.1 -2.5,-2 -2.4,-3 -2.3,-3.6 0.6,-3 1.7,-1.4 v-2.1 l-0.8,-0.7 -2.6,-0.2 -3.5,-3.4z"
       fill="#D3D3D3" />
    <path
       id="KY"
       d="M607.2,331.8 l12.6,-0.7 0.1,-4.1 h4.3 l30.4,-3.2 45.1,-4.3 5.6,-3.6 3.9,-2.1 0.1,-1.9 6,-7.8 4.1,-3.6 2.1,-2.4 -3.3,-2 -2.5,-2.7 -3,-3.8 -0.5,-2.2 -2.6,-1.4 -0.9,-1.9 -0.2,-6.1 -2.6,-2 -1.9,-1.1 -0.5,-2.3 -1.3,0.2 -2,1.2 -2.5,2.7 -1.9,-1.7 -2.5,-0.5 -2.4,1.4 h-2.3 l-1.8,-2 -5.6,-0.1 -1.8,-4.5 -2.9,-1.5 -2.1,0.8 -4.2,0.2 -0.5,2.1 1.2,1.5 0.3,2.1 -2.8,2 -3.8,1.8 -2.6,0.4 -0.5,4.5 -4.9,3.6 -2.6,3.7 0.2,2.2 -0.9,2.3 -4.5,-0.1 -1.3,-1.3 -3.9,2.2 0.2,3.3 -2.4,0.6 -0.8,-1.4 -1.7,-1.2 -2.7,1.1 -1.8,3.5 -2.2,-1 -1.4,-1.6 -3.7,0.4 -5.6,1 -2.8,1.3 -1.2,3.4 -1,1 1.5,3.7 -4.2,1.4 -1.9,1.4 -0.4,2.2 1.2,2.4 v2.2 l-1.6,0.4 -6.1,-2.5 -2.3,0.9 -2,1.4 -0.8,1.8 1.7,2.4 -0.9,1.8 -0.1,3.3 -2.4,1.3 -2.1,1.7z"
       fill="#D3D3D3" />
    <path
       id="LA"
       d="M526.9,485.9 l8.1,-0.3 10.3,3.6 6.5,1.1 3.7,-1.5 3.2,1.1 3.2,1 0.8,-2.1 -3.2,-1.1 -2.6,0.5 -2.7,-1.6 0.8,-1.5 3.1,-1 1.8,1.5 1.8,-1 3.2,0.6 1.5,2.4 0.3,2.3 4.5,0.3 1.8,1.8 -0.8,1.6 -1.3,0.8 1.6,1.6 8.4,3.6 3.6,-1.3 1,-2.4 2.6,-0.6 1.8,-1.5 1.3,1 0.8,2.9 -2.3,0.8 0.6,0.6 3.4,-1.3 2.3,-3.4 0.8,-0.5 -2.1,-0.3 0.8,-1.6 -0.2,-1.5 2.1,-0.5 1.1,-1.3 0.6,0.8 0.6,3.1 4.2,0.6 4,1.9 1,1.5 h2.9 l1.1,1 2.3,-3.1 v-1.5 h-1.3 l-3.4,-2.7 -5.8,-0.8 -3.2,-2.3 1.1,-2.7 2.3,0.3 0.2,-0.6 -1.8,-1 v-0.5 h3.2 l1.8,-3.1 -1.3,-1.9 -0.3,-2.7 -1.5,0.2 -1.9,2.1 -0.6,2.6 -3.1,-0.6 -1,-1.8 1.8,-1.9 1.9,-1.7 -2.2,-6.5 -3.4,-3.4 1,-7.3 -0.2,-0.5 -1.3,0.2 -33.1,1.4 -0.8,-2.4 0.8,-8.5 8.6,-14.8 -0.9,-2.6 1.4,-0.4 0.4,-2 -2.2,-2 0.1,-1.9 -2,-4.5 -0.4,-5.1 0.1,-0.7 -26.4,0.8 -25.2,0.1 0.4,9.7 0.7,9.5 0.5,3.7 2.6,4.5 0.9,4.4 4.3,6 0.3,3.1 0.6,0.8 -0.7,8.3 -2.8,4.6 1.2,2.4 -0.5,2.6 -0.8,7.3 -1.3,3 0.2,3.7z"
       fill="#D3D3D3" />
    <path
       id="MA"
       d="M887.5,172.5 l-0.5,-2.3 0.8,-1.5 2.9,-1.5 0.8,3.1 -0.5,1.8 -2.4,1.5 v1 l1.9,-1.5 3.9,-4.5 3.9,-1.9 4.2,-1.5 -0.3,-2.4 -1,-2.9 -1.9,-2.4 -1.8,-0.8 -2.1,0.2 -0.5,0.5 1,1.3 1.5,-0.8 2.1,1.6 0.8,2.7 -1.8,1.8 -2.3,1 -3.6,-0.5 -3.9,-6 -2.3,-2.6 h-1.8 l-1.1,0.8 -1.9,-2.6 0.3,-1.5 2.4,-5.2 -2.9,-4.4 -3.7,1.8 -1.8,2.9 -18.3,4.7 -13.8,2.5 -0.6,10.6 0.7,4.9 22,-4.8 11.2,-2.8 2,1.6 3.4,4.3 2.9,4.7z m12.5,1.4 2.2,-0.7 0.5,-1.7 1,0.1 1,2.3 -1.3,0.5 -3.9,0.1z m-9.4,0.8 2.3,-2.6 h1.6 l1.8,1.5 -2.4,1 -2.2,1z"
       fill="#D3D3D3" />
    <path
       id="MD"
       d="M834.8,264.1 l1.7,-3.8 0.5,-4.8 -6.3,1.1 -5.8,0.3 -3.8,-16.8 -2.3,-5.5 -1.5,-4.6 -22.2,4.3 -37.6,7.6 2,10.4 4.8,-4.9 2.5,-0.7 1.4,-1.5 1.8,-2.7 1.6,0.7 2.6,-0.2 2.6,-2.1 2,-1.5 2.1,-0.6 1.5,1.1 2.7,1.4 1.9,1.8 1.3,1.4 4.8,1.6 -0.6,2.9 5.8,2.1 2.1,-2.6 3.7,2.5 -2.1,3.3 -0.7,3.3 -1.8,2.6 v2.1 l0.3,0.8 2,1.3 3.4,1.1 4.3,-0.1 3.1,1 2.1,0.3 1,-2.1 -1.5,-2.1 v-1.8 l-2.4,-2.1 -2.1,-5.5 1.3,-5.3 -0.2,-2.1 -1.3,-1.3 c0,0 1.5,-1.6 1.5,-2.3 0,-0.6 0.5,-2.1 0.5,-2.1 l1.9,-1.3 1.9,-1.6 0.5,1 -1.5,1.6 -1.3,3.7 0.3,1.1 1.8,0.3 0.5,5.5 -2.1,1 0.3,3.6 0.5,-0.2 1.1,-1.9 1.6,1.8 -1.6,1.3 -0.3,3.4 2.6,3.4 3.9,0.5 1.6,-0.8 3.2,4.2 1,0.4z m-14.5,0.2 1.1,2.5 0.2,1.8 1.1,1.9 c0,0 0.9,-0.9 0.9,-1.2 0,-0.3 -0.7,-3.1 -0.7,-3.1 l-0.7,-2.3z"
       fill="#D3D3D3" />
    <path
       id="ME"
       d="M865.8,91.9 l1.5,0.4 v-2.6 l0.8,-5.5 2.6,-4.7 1.5,-4 -1.9,-2.4 v-6 l0.8,-1 0.8,-2.7 -0.2,-1.5 -0.2,-4.8 1.8,-4.8 2.9,-8.9 2.1,-4.2 h1.3 l1.3,0.2 v1.1 l1.3,2.3 2.7,0.6 0.8,-0.8 v-1 l4,-2.9 1.8,-1.8 1.5,0.2 6,2.4 1.9,1 9.1,29.9 h6 l0.8,1.9 0.2,4.8 2.9,2.3 h0.8 l0.2,-0.5 -0.5,-1.1 2.8,-0.5 1.9,2.1 2.3,3.7 v1.9 l-2.1,4.7 -1.9,0.6 -3.4,3.1 -4.8,5.5 c0,0 -0.6,0 -1.3,0 -0.6,0 -1,-2.1 -1,-2.1 l-1.8,0.2 -1,1.5 -2.4,1.5 -1,1.5 1.6,1.5 -0.5,0.6 -0.5,2.7 -1.9,-0.2 v-1.6 l-0.3,-1.3 -1.5,0.3 -1.8,-3.2 -2.1,1.3 1.3,1.5 0.3,1.1 -0.8,1.3 0.3,3.1 0.2,1.6 -1.6,2.6 -2.9,0.5 -0.3,2.9 -5.3,3.1 -1.3,0.5 -1.6,-1.5 -3.1,3.6 1,3.2 -1.5,1.3 -0.2,4.4 -1.1,6.3 -2.2,-0.9 -0.5,-3.1 -4,-1.1 -0.2,-2.5 -11.7,-37.43z m36.5,15.6 1.5,-1.5 1.4,1.1 0.6,2.4 -1.7,0.9z m6.7,-5.9 1.8,1.9 c0,0 1.3,0.1 1.3,-0.2 0,-0.3 0.2,-2 0.2,-2 l0.9,-0.8 -0.8,-1.8 -2,0.7z"
       fill="#D3D3D3" />
    <path
       id="MI"
       d="M644.5,211 l19.1,-1.9 0.2,1.1 9.9,-1.5 12,-1.7 0.1,-0.6 0.2,-1.5 2.1,-3.7 2,-1.7 -0.2,-5.1 1.6,-1.6 1.1,-0.3 0.2,-3.6 1.5,-3 1.1,0.6 0.2,0.6 0.8,0.2 1.9,-1 -0.4,-9.1 -3.2,-8.2 -2.3,-9.1 -2.4,-3.2 -2.6,-1.8 -1.6,1.1 -3.9,1.8 -1.9,5 -2.7,3.7 -1.1,0.6 -1.5,-0.6 c0,0 -2.6,-1.5 -2.4,-2.1 0.2,-0.6 0.5,-5 0.5,-5 l3.4,-1.3 0.8,-3.4 0.6,-2.6 2.4,-1.6 -0.3,-10 -1.6,-2.3 -1.3,-0.8 -0.8,-2.1 0.8,-0.8 1.6,0.3 0.2,-1.6 -2.6,-2.2 -1.3,-2.6 h-2.6 l-4.5,-1.5 -5.5,-3.4 h-2.7 l-0.6,0.6 -1,-0.5 -3.1,-2.3 -2.9,1.8 -2.9,2.3 0.3,3.6 1,0.3 2.1,0.5 0.5,0.8 -2.6,0.8 -2.6,0.3 -1.5,1.8 -0.3,2.1 0.3,1.6 0.3,5.5 -3.6,2.1 -0.6,-0.2 v-4.2 l1.3,-2.4 0.6,-2.4 -0.8,-0.8 -1.9,0.8 -1,4.2 -2.7,1.1 -1.8,1.9 -0.2,1 0.6,0.8 -0.6,2.6 -2.3,0.5 v1.1 l0.8,2.4 -1.1,6.1 -1.6,4 0.6,4.7 0.5,1.1 -0.8,2.4 -0.3,0.8 -0.3,2.7 3.6,6 2.9,6.5 1.5,4.8 -0.8,4.7 -1,6 -2.4,5.2 -0.3,2.7 -3.2,3.1z m-33.3,-72.4 -1.3,-1.1 -1.8,-10.4 -3.7,-1.3 -1.7,-2.3 -12.6,-2.8 -2.8,-1.1 -8.1,-2.2 -7.8,-1 -3.9,-5.3 0.7,-0.5 2.7,-0.8 3.6,-2.3 v-1 l0.6,-0.6 6,-1 2.4,-1.9 4.4,-2.1 0.2,-1.3 1.9,-2.9 1.8,-0.8 1.3,-1.8 2.3,-2.3 4.4,-2.4 4.7,-0.5 1.1,1.1 -0.3,1 -3.7,1 -1.5,3.1 -2.3,0.8 -0.5,2.4 -2.4,3.2 -0.3,2.6 0.8,0.5 1,-1.1 3.6,-2.9 1.3,1.3 h2.3 l3.2,1 1.5,1.1 1.5,3.1 2.7,2.7 3.9,-0.2 1.5,-1 1.6,1.3 1.6,0.5 1.3,-0.8 h1.1 l1.6,-1 4,-3.6 3.4,-1.1 6.6,-0.3 4.5,-1.9 2.6,-1.3 1.5,0.2 v5.7 l0.5,0.3 2.9,0.8 1.9,-0.5 6.1,-1.6 1.1,-1.1 1.5,0.5 v7 l3.2,3.1 1.3,0.6 1.3,1 -1.3,0.3 -0.8,-0.3 -3.7,-0.5 -2.1,0.6 -2.3,-0.2 -3.2,1.5 h-1.8 l-5.8,-1.3 -5.2,0.2 -1.9,2.6 -7,0.6 -2.4,0.8 -1.1,3.1 -1.3,1.1 -0.5,-0.2 -1.5,-1.6 -4.5,2.4 h-0.6 l-1.1,-1.6 -0.8,0.2 -1.9,4.4 -1,4 -3.2,6.9z m-29.6,-56.5 1.8,-2.1 2.2,-0.8 5.4,-3.9 2.3,-0.6 0.5,0.5 -5.1,5.1 -3.3,1.9 -2.1,0.9z m86.2,32.1 0.6,2.5 3.2,0.2 1.3,-1.2 c0,0 -0.1,-1.5 -0.4,-1.6 -0.3,-0.2 -1.6,-1.9 -1.6,-1.9 l-2.2,0.2 -1.6,0.2 -0.3,1.1z"
       fill="#D3D3D3" />
    <path
       id="MN"
       d="M464.6,66.79 l-0.6,3.91 v10.27 l1.6,5.03 1.9,3.32 0.5,9.93 1.8,13.45 1.8,7.3 0.4,6.4 v5.3 l-1.6,1.8 -1.8,1.3 v1.5 l0.9,1.7 4.1,3.5 0.7,3.2 v35.9 l60.3,-0.6 21.2,-0.7 -0.5,-6 -1.8,-2.1 -7.2,-4.6 -3.6,-5.3 -3.4,-0.9 -2,-2.8 h-3.2 l-3.5,-3.8 -0.5,-7 0.1,-3.9 1.5,-3 -0.7,-2.7 -2.8,-3.1 2.2,-6.1 5.4,-4 1.2,-1.4 -0.2,-8 0.2,-3 2.6,-3 3.8,-2.9 1.3,-0.2 4.5,-5 1.8,-0.8 2.3,-3.9 2.4,-3.6 3.1,-2.6 4.8,-2 9.2,-4.1 3.9,-1.8 0.6,-2.3 -4.4,0.4 -0.7,1.1 h-0.6 l-1.8,-3.1 -8.9,0.3 -1,0.8 h-1 l-0.5,-1.3 -0.8,-1.8 -2.6,0.5 -3.2,3.2 -1.6,0.8 h-3.1 l-2.6,-1 v-2.1 l-1.3,-0.2 -0.5,0.5 -2.6,-1.3 -0.5,-2.9 -1.5,0.5 -0.5,1 -2.4,-0.5 -5.3,-2.4 -3.9,-2.6 h-2.9 l-1.3,-1 -2.3,0.6 -1.1,1.1 -0.3,1.3 h-4.8 v-2.1 l-6.3,-0.3 -0.3,-1.5 h-4.8 l-1.6,-1.6 -1.5,-6.1 -0.8,-5.5 -1.9,-0.8 -2.3,-0.5 -0.6,0.2 -0.3,8.2 -30.1,-0.03z"
       fill="#D3D3D3" />
    <path
       id="MO"
       d="M593.1,338.7 l0.5,-5.9 4.2,-3.4 1.9,-1 v-2.9 l0.7,-1.6 -1.1,-1.6 -2.4,0.3 -2.1,-2.5 -1.7,-4.5 0.9,-2.6 -2,-3.2 -1.8,-4.6 -4.6,-0.7 -6.8,-5.6 -2.2,-4.2 0.8,-3.3 2.2,-6 0.6,-3 -1.9,-1 -6.9,-0.6 -1.1,-1.9 v-4.1 l-5.3,-3.5 -7.2,-7.8 -2.3,-7.3 -0.5,-4.2 0.7,-2.4 -2.6,-3.1 -1.2,-2.4 -7.7,0.8 -10,0.6 -48.8,1.2 1.3,2.6 -0.1,2.2 2.3,3.6 3,3.9 3.1,3 2.6,0.2 1.4,1.1 v2.9 l-1.8,1.6 -0.5,2.3 2.1,3.2 2.4,3 2.6,2.1 1.3,11.6 -0.8,40 0.5,5.7 23.7,-0.2 23.3,-0.7 32.5,-1.3 2.2,3.7 -0.8,3.1 -3.1,2.5 -0.5,1.8 5.2,0.5 4.1,-1.1z"
       fill="#D3D3D3" />
    <path
       id="MS"
       d="M604.3,472.5 l2.6,-4.2 1.8,0.8 6.8,-1.9 2.1,0.3 1.5,0.8 h5.2 l0.4,-1.6 -1.7,-14.8 -2.8,-19 1,-45.1 -0.2,-16.7 0.2,-6.3 -4.8,0.3 -19.6,1.6 -13,0.4 -0.2,3.2 -2.8,1.3 -2.6,5.1 0.5,1.6 0.1,2.4 -2.9,1.1 -3.5,5.1 0.8,2.3 -3,2.5 -1,5.7 -0.6,1.9 1.6,2.5 -1.5,1.4 1.5,2.8 0.3,4.2 -1.2,2.5 -0.2,0.9 0.4,5 2,4.5 -0.1,1.7 2.3,2 -0.7,3.1 -0.9,0.3 0.6,1.9 -8.6,15 -0.8,8.2 0.5,1.5 24.2,-0.7 8.2,-0.7 1.9,-0.3 0.6,1.4 -1,7.1 3.3,3.3 2.2,6.4z"
       fill="#D3D3D3" />
    <path
       id="MT"
       d="M361.1,70.77 l-5.3,57.13 -1.3,15.2 -59.1,-6.6 -49,-7.1 -1.4,11.2 -1.9,-1.7 -0.4,-2.5 -1.3,-1.9 -3.3,1.5 -0.7,2.5 -2.3,0.3 -3.8,-1.6 -4.1,0.1 -2.4,0.7 -3.2,-1.5 -3,0.2 -2.1,1.9 -0.9,-0.6 -0.7,-3.4 0.7,-3.2 -2.7,-3.2 -3.3,-2.5 -2.5,-12.6 -0.1,-5.3 -1.6,-0.8 -0.6,1 -4.5,3.2 -1.2,-0.1 -2.3,-2.8 -0.2,-2.8 7,-17.15 -0.6,-2.67 -3.5,-1.12 -0.4,-0.91 -2.7,-3.5 -4.6,-10.41 -3.2,-1.58 -1.8,-4.26 1.3,-4.63 -3.2,-7.57 4.4,-21.29 32.7,6.89 18.4,3.4 32.3,5.3 29.3,4 29.2,3.5 30.8,3.07z"
       fill="#D3D3D3" />
    <path
       id="NC"
       d="M786.7,357.7 l-12.7,-7.7 -3.1,-0.8 -16.6,2.1 -1.6,-3 -2.8,-2.2 -16.7,0.5 -7.4,0.9 -9.2,4.5 -6.8,2.7 -6.5,1.2 -13.4,1.4 0.1,-4.1 1.7,-1.3 2.7,-0.7 0.7,-3.8 3.9,-2.5 3.9,-1.5 4.5,-3.7 4.4,-2.3 0.7,-3.2 4.1,-3.8 0.7,1 2.5,0.2 2.4,-3.6 1.7,-0.4 2.6,0.3 1.8,-4 2.5,-2.4 0.5,-1.8 0.1,-3.5 4.4,0.1 38.5,-5.6 57.5,-12.3 2,4.8 3.6,6.5 2.4,2.4 0.6,2.3 -2.4,0.2 0.8,0.6 -0.3,4.2 -2.6,1.3 -0.6,2.1 -1.3,2.9 -3.7,1.6 -2.4,-0.3 -1.5,-0.2 -1.6,-1.3 0.3,1.3 v1 h1.9 l0.8,1.3 -1.9,6.3 h4.2 l0.6,1.6 2.3,-2.3 1.3,-0.5 -1.9,3.6 -3.1,4.8 h-1.3 l-1.1,-0.5 -2.7,0.6 -5.2,2.4 -6.5,5.3 -3.4,4.7 -1.9,6.5 -0.5,2.4 -4.7,0.5 -5.1,1.5z m49.3,-26.2 2.6,-2.5 3.2,-2.6 1.5,-0.6 0.2,-2 -0.6,-6.1 -1.5,-2.3 -0.6,-1.9 0.7,-0.2 2.7,5.5 0.4,4.4 -0.2,3.4 -3.4,1.5 -2.8,2.4 -1.1,1.2z"
       fill="#D3D3D3" />
    <path
       id="ND"
       d="M471,126.4 l-0.4,-6.2 -1.8,-7.3 -1.8,-13.61 -0.5,-9.7 -1.9,-3.18 -1.6,-5.32 v-10.41 l0.6,-3.85 -1.8,-5.54 -28.6,-0.59 -18.6,-0.6 -26.5,-1.3 -25.2,-2.16 -0.9,14.42 -4.7,50.94 56.8,3.9 56.9,1.7z"
       fill="#D3D3D3" />
    <path
       id="NE"
       d="M470.3,204.3 l-1,-2.3 -0.5,-1.6 -2.9,-1.6 -4.8,-1.5 -2.2,-1.2 -2.6,0.1 -3.7,0.4 -4.2,1.2 -6,-4.1 -2.2,-2 -10.7,0.6 -41.5,-2.4 -35.6,-2.2 -4.3,43.7 33.1,3.3 -1.4,21.1 21.7,1 40.6,1.2 43.8,0.6 h4.5 l-2.2,-3 -2.6,-3.9 0.1,-2.3 -1.4,-2.7 -1.9,-5.2 -0.4,-6.7 -1.4,-4.1 -0.5,-5 -2.3,-3.7 -1,-4.7 -2.8,-7.9 -1,-5.3z"
       fill="#D3D3D3" />
    <path
       id="NH"
       d="M881.7,141.3 l1.1,-3.2 -2.7,-1.2 -0.5,-3.1 -4.1,-1.1 -0.3,-3 -11.7,-37.48 -0.7,0.08 -0.6,1.6 -0.6,-0.5 -1,-1 -1.5,1.9 -0.2,2.29 0.5,8.41 1.9,2.8 v4.3 l-3.9,4.8 -2.4,0.9 v0.7 l1.1,1.9 v8.6 l-0.8,9.2 -0.2,4.7 1,1.4 -0.2,4.7 -0.5,1.5 1,1.1 5.1,-1.2 13.8,-3.5 1.7,-2.9 4,-1.9z"
       fill="#D3D3D3" />
    <path
       id="NJ"
       d="M823.7,228.3 l0.1,-1.5 2.7,-1.3 1.7,-2.8 1.7,-2.4 3.3,-3.2 v-1.2 l-6.1,-4.1 -1,-2.7 -2.7,-0.3 -0.1,-0.9 -0.7,-2.2 2.2,-1.1 0.2,-2.9 -1.3,-1.3 0.2,-1.2 1.9,-3.1 v-3.1 l2.5,-3.1 5.6,2.5 6.4,1.9 2.5,1.2 0.1,1.8 -0.5,2.7 0.4,4.5 -2.1,1.9 -1.1,1 0.5,0.5 2.7,-0.3 1.1,-0.8 1.6,3.4 0.2,9.4 0.6,1.1 -1.1,5.5 -3.1,6.5 -2.7,4 -0.8,4.8 -2.1,2.4 h-0.8 l-0.3,-2.7 0.8,-1 -0.2,-1.5 -4,-0.6 -4.8,-2.3 -3.2,-2.9 -1,-2z"
       fill="#D3D3D3" />
    <path
       id="NM"
       d="M270.2,429.4 l-16.7,-2.6 -1.2,9.6 -15.8,-2 6,-39.7 7,-53.2 4.4,-30.9 34,3.9 37.4,4.4 32,2.8 -0.3,10.8 -1.4,-0.1 -7.4,97.7 -28.4,-1.8 -38.1,-3.7 0.7,6.3z"
       fill="#D3D3D3" />
    <path
       id="NV"
       d="M123.1,173.6 l38.7,8.5 26,5.2 -10.6,53.1 -5.4,29.8 -3.3,15.5 -2.1,11.1 -2.6,16.4 -1.7,3.1 -1.6,-0.1 -1.2,-2.6 -2.8,-0.5 -1.3,-1.1 -1.8,0.1 -0.9,0.8 -1.8,1.3 -0.3,7.3 -0.3,1.5 -0.5,12.4 -1.1,1.8 -16.7,-25.5 -42.1,-62.1 -12.43,-19 8.55,-32.6 8.01,-31.3z"
       fill="#D3D3D3" />
    <path
       id="NY"
       d="M843.4,200 l0.5,-2.7 -0.2,-2.4 -3,-1.5 -6.5,-2 -6,-2.6 -0.6,-0.4 -2.7,-0.3 -2,-1.5 -2.1,-5.9 -3.3,-0.5 -2.4,-2.4 -38.4,8.1 -31.6,6 -0.5,-6.5 1.6,-1.2 1.3,-1.1 1,-1.6 1.8,-1.1 1.9,-1.8 0.5,-1.6 2.1,-2.7 1.1,-1 -0.2,-1 -1.3,-3.1 -1.8,-0.2 -1.9,-6.1 2.9,-1.8 4.4,-1.5 4,-1.3 3.2,-0.5 6.3,-0.2 1.9,1.3 1.6,0.2 2.1,-1.3 2.6,-1.1 5.2,-0.5 2.1,-1.8 1.8,-3.2 1.6,-1.9 h2.1 l1.9,-1.1 0.2,-2.3 -1.5,-2.1 -0.3,-1.5 1.1,-2.1 v-1.5 h-1.8 l-1.8,-0.8 -0.8,-1.1 -0.2,-2.6 5.8,-5.5 0.6,-0.8 1.5,-2.9 2.9,-4.5 2.7,-3.7 2.1,-2.4 2.4,-1.8 3.1,-1.2 5.5,-1.3 3.2,0.2 4.5,-1.5 7.4,-2.2 0.7,4.9 2.4,6.5 0.8,5 -1,4.2 2.6,4.5 0.8,2 -0.9,3.2 3.7,1.7 2.7,10.2 v5.8 l-0.6,10.9 0.8,5.4 0.7,3.6 1.5,7.3 v8.1 l-1.1,2.3 2.1,2.7 0.5,0.9 -1.9,1.8 0.3,1.3 1.3,-0.3 1.5,-1.3 2.3,-2.6 1.1,-0.6 1.6,0.6 2.3,0.2 7.9,-3.9 2.9,-2.7 1.3,-1.5 4.2,1.6 -3.4,3.6 -3.9,2.9 -7.1,5.3 -2.6,1 -5.8,1.9 -4,1.1 -1,-0.4z"
       fill="#D3D3D3" />
    <path
       id="OH"
       d="M663.8,211.2 l1.7,15.5 4.8,41.1 3.9,-0.2 2.3,-0.8 3.6,1.8 1.7,4.2 5.4,0.1 1.8,2 h1.7 l2.4,-1.4 3.1,0.5 1.5,1.3 1.8,-2 2.3,-1.4 2.4,-0.4 0.6,2.7 1.6,1 2.6,2 0.8,0.2 2,-0.1 1.2,-0.6 v-2.1 l1.7,-1.5 0.1,-4.8 1.1,-4.2 1.9,-1.3 1,0.7 1,1.1 0.7,0.2 0.4,-0.4 -0.9,-2.7 v-2.2 l1.1,-1.4 2.5,-3.6 1.3,-1.5 2.2,0.5 2.1,-1.5 3,-3.3 2.2,-3.7 0.2,-5.4 0.5,-5 v-4.6 l-1.2,-3.2 1.2,-1.8 1.3,-1.2 -0.6,-2.8 -4.3,-25.6 -6.2,3.7 -3.9,2.3 -3.4,3.7 -4,3.9 -3.2,0.8 -2.9,0.5 -5.5,2.6 -2.1,0.2 -3.4,-3.1 -5.2,0.6 -2.6,-1.5 -2.2,-1.3z"
       fill="#D3D3D3" />
    <path
       id="OK"
       d="M411.9,334.9 l-1.8,24.3 -0.9,18 0.2,1.6 4,3.6 1.7,0.9 h0.9 l0.9,-2.1 1.5,1.9 1.6,0.1 0.3,-0.2 0.2,-1.1 2.8,1.4 -0.4,3.5 3.8,0.5 2.5,1 4.2,0.6 2.3,1.6 2.5,-1.7 3.5,0.7 2.2,3.1 1.2,0.1 v2.3 l2.1,0.7 2.5,-2.1 1.8,0.6 2.7,0.1 0.7,2.3 4.4,1.8 1.7,-0.3 1.9,-4.2 h1.3 l1.1,2.1 4.2,0.8 3.4,1.3 3,0.8 1.6,-0.7 0.7,-2.7 h4.5 l1.9,0.9 2.7,-1.9 h1.4 l0.6,1.4 h3.6 l2,-1.8 2.3,0.6 1.7,2.2 3,1.7 3.4,0.9 1.9,1.2 -0.3,-37.6 -1.4,-10.9 -0.1,-8.6 -1.5,-6.6 -0.6,-6.8 0.1,-4.3 -12.6,0.3 -46.3,-0.5 -44.7,-2.1 -41.5,-1.8 -0.4,10.7z"
       fill="#D3D3D3" />
    <path
       id="OR"
       d="M67.44,158.9 l28.24,7.2 27.52,6.5 17,3.7 8.8,-35.1 1.2,-4.4 2.4,-5.5 -0.7,-1.3 -2.5,0.1 -1.3,-1.8 0.6,-1.5 0.4,-3.3 4.7,-5.7 1.9,-0.9 0.9,-0.8 0.7,-2.7 0.8,-1.1 3.9,-5.7 3.7,-4 0.2,-3.26 -3.4,-2.49 -1.2,-4.55 -13.1,-3.83 -15.3,-3.47 -14.8,0.37 -1.1,-1.31 -5.1,1.84 -4.5,-0.48 -2.4,-1.58 -1.3,0.54 -4.68,-0.29 -1.96,-1.43 -4.84,-1.77 -1.1,-0.07 -4.45,-1.27 -1.76,1.52 -6.26,-0.24 -5.31,-3.85 0.21,-9.28 -2.05,-3.5 -4.1,-0.6 -0.7,-2.5 -2.4,-0.5 -5.8,2.1 -2.3,6.5 -3.2,10 -3.2,6.5 -5,14.1 -6.5,13.6 -8.1,12.6 -1.9,2.9 -0.8,8.6 -1.3,6 2.71,3.5z"
       fill="#D3D3D3" />
    <path
       id="PA"
       d="M736.6,192.2 l1.3,-0.5 5.7,-5.5 0.7,6.9 33.5,-6.5 36.9,-7.8 2.3,2.3 3.1,0.4 2,5.6 2.4,1.9 2.8,0.4 0.1,0.1 -2.6,3.2 v3.1 l-1.9,3.1 -0.2,1.9 1.3,1.3 -0.2,1.9 -2.4,1.1 1,3.4 0.2,1.1 2.8,0.3 0.9,2.5 5.9,3.9 v0.4 l-3.1,3 -1.5,2.2 -1.7,2.8 -2.7,1.2 -1.4,0.3 -2.1,1.3 -1.6,1.4 -22.4,4.3 -38.7,7.8 -11.3,1.4 -3.9,0.7 -5.1,-22.4 -4.3,-25.9z"
       fill="#D3D3D3" />
    <path
       id="RI"
       d="M873.6,175.7 l-0.8,-4.4 -1.6,-6 5.7,-1.5 1.5,1.3 3.4,4.3 2.8,4.4 -2.8,1.4 -1.3,-0.2 -1.1,1.8 -2.4,1.9 -2.8,1.1z"
       fill="#D3D3D3" />
    <path
       id="SC"
       d="M759,413.6 l-2.1,-1 -1.9,-5.6 -2.5,-2.3 -2.5,-0.5 -1.5,-4.6 -3,-6.5 -4.2,-1.8 -1.9,-1.8 -1.2,-2.6 -2.4,-2 -2.3,-1.3 -2.2,-2.9 -3.2,-2.4 -4.4,-1.7 -0.4,-1.4 -2.3,-2.8 -0.5,-1.5 -3.8,-5.4 -3.4,0.1 -3.9,-2.5 -1.2,-1.2 -0.2,-1.4 0.6,-1.6 2.7,-1.3 -0.8,-2 6.4,-2.7 9.2,-4.5 7.1,-0.9 16.4,-0.5 2.3,1.9 1.8,3.5 4.6,-0.8 12.6,-1.5 2.7,0.8 12.5,7.4 10.1,8.3 -5.3,5.4 -2.6,6.1 -0.5,6.3 -1.6,0.8 -1.1,2.7 -2.4,0.6 -2.1,3.6 -2.7,2.7 -2.3,3.4 -1.6,0.8 -3.6,3.4 -2.9,0.2 1,3.2 -5,5.3 -2.3,1.6z"
       fill="#D3D3D3" />
    <path
       id="SD"
       d="M471,181.1 l-0.9,3.2 0.4,3 2.6,2 -1.2,5.4 -1.8,4.1 1.5,3.3 0.7,1.1 -1.3,0.1 -0.7,-1.6 -0.6,-2 -3.3,-1.8 -4.8,-1.5 -2.5,-1.3 -2.9,0.1 -3.9,0.4 -3.8,1.2 -5.3,-3.8 -2.7,-2.4 -10.9,0.8 -41.5,-2.4 -35.6,-2.2 1.5,-24.8 2.8,-34 0.4,-5 56.9,3.9 56.9,1.7 v2.7 l-1.3,1.5 -2,1.5 -0.1,2.2 1.1,2.2 4.1,3.4 0.5,2.7 v35.9z"
       fill="#D3D3D3" />
    <path
       id="TN"
       d="M670.8,359.6 l-13.1,1.2 -23.3,2.2 -37.6,2.7 -11.8,0.4 0.9,-0.6 0.9,-4.5 -1.2,-3.6 3.9,-2.3 0.4,-2.5 1.2,-4.3 3,-9.5 0.5,-5.6 0.3,-0.2 12.3,-0.2 13.6,-0.8 0.1,-3.9 3.5,-0.1 30.4,-3.3 54,-5.2 10.3,-1.5 7.6,-0.2 2.4,-1.9 1.3,0.3 -0.1,3.3 -0.4,1.6 -2.4,2.2 -1.6,3.6 -2,-0.4 -2.4,0.9 -2.2,3.3 -1.4,-0.2 -0.8,-1.2 -1.1,0.4 -4.3,4 -0.8,3.1 -4.2,2.2 -4.3,3.6 -3.8,1.5 -4.4,2.8 -0.6,3.6 -2.5,0.5 -2,1.7 -0.2,4.8z"
       fill="#D3D3D3" />
    <path
       id="TX"
       d="M282.8,425.6 l37,3.6 29.3,1.9 7.4,-97.7 54.4,2.4 -1.7,23.3 -1,18 0.2,2 4.4,4.1 2,1.1 h1.8 l0.5,-1.2 0.7,0.9 2.4,0.2 1.1,-0.6 v-0.2 l1,0.5 -0.4,3.7 4.5,0.7 2.4,0.9 4.2,0.7 2.6,1.8 2.8,-1.9 2.7,0.6 2.2,3.1 0.8,0.1 v2.1 l3.3,1.1 2.5,-2.1 1.5,0.5 2.1,0.1 0.6,2.1 5.2,2 2.3,-0.5 1.9,-4 h0.1 l1.1,1.9 4.6,0.9 3.4,1.3 3.2,1 2.4,-1.2 0.7,-2.3 h3.6 l2.1,1 3,-2 h0.4 l0.5,1.4 h4.7 l1.9,-1.8 1.3,0.4 1.7,2.1 3.3,1.9 3.4,1 2.5,1.4 2.7,2 3.1,-1.2 2.1,0.8 0.7,20 0.7,9.5 0.6,4.1 2.6,4.4 0.9,4.5 4.2,5.9 0.3,3.1 0.6,0.8 -0.7,7.7 -2.9,4.8 1.3,2.6 -0.5,2.4 -0.8,7.2 -1.3,3 0.3,4.2 -5.6,1.6 -9.9,4.5 -1,1.9 -2.6,1.9 -2.1,1.5 -1.3,0.8 -5.7,5.3 -2.7,2.1 -5.3,3.2 -5.7,2.4 -6.3,3.4 -1.8,1.5 -5.8,3.6 -3.4,0.6 -3.9,5.5 -4,0.3 -1,1.9 2.3,1.9 -1.5,5.5 -1.3,4.5 -1.1,3.9 -0.8,4.5 0.8,2.4 1.8,7 1,6.1 1.8,2.7 -1,1.5 -3.1,1.9 -5.7,-3.9 -5.5,-1.1 -1.3,0.5 -3.2,-0.6 -4.2,-3.1 -5.2,-1.1 -7.6,-3.4 -2.1,-3.9 -1.3,-6.5 -3.2,-1.9 -0.6,-2.3 0.6,-0.6 0.3,-3.4 -1.3,-0.6 -0.6,-1 1.3,-4.4 -1.6,-2.3 -3.2,-1.3 -3.4,-4.4 -3.6,-6.6 -4.2,-2.6 0.2,-1.9 -5.3,-12.3 -0.8,-4.2 -1.8,-1.9 -0.2,-1.5 -6,-5.3 -2.6,-3.1 v-1.1 l-2.6,-2.1 -6.8,-1.1 -7.4,-0.6 -3.1,-2.3 -4.5,1.8 -3.6,1.5 -2.3,3.2 -1,3.7 -4.4,6.1 -2.4,2.4 -2.6,-1 -1.8,-1.1 -1.9,-0.6 -3.9,-2.3 v-0.6 l-1.8,-1.9 -5.2,-2.1 -7.4,-7.8 -2.3,-4.7 v-8.1 l-3.2,-6.5 -0.5,-2.7 -1.6,-1 -1.1,-2.1 -5,-2.1 -1.3,-1.6 -7.1,-7.9 -1.3,-3.2 -4.7,-2.3 -1.5,-4.4 -2.6,-2.9 -1.7,-0.5z m174.4,141.7 -0.6,-7.1 -2.7,-7.2 -0.6,-7 1.5,-8.2 3.3,-6.9 3.5,-5.4 3.2,-3.6 0.6,0.2 -4.8,6.6 -4.4,6.5 -2,6.6 -0.3,5.2 0.9,6.1 2.6,7.2 0.5,5.2 0.2,1.5z"
       fill="#D3D3D3" />
    <path
       id="UT"
       d="M228.4,305.9 l24.6,3.6 1.9,-13.7 7,-50.5 2.3,-22 -32.2,-3.5 2.2,-13.1 1.8,-10.6 -34.7,-6.1 -12.5,-2.5 -10.6,52.9 -5.4,30 -3.3,15.4 -1.7,9.2z"
       fill="#D3D3D3" />
    <path
       id="VA"
       d="M834.7,265.2 l-0.2,2.8 -2.9,3.8 -0.4,4.6 0.5,3.4 -1.8,5 -2.2,1.9 -1.5,-4.6 0.4,-5.4 1.6,-4.2 0.7,-3.3 -0.1,-1.7z m-60.3,44.6 -38.6,5.6 -4.8,-0.1 -2.2,-0.3 -2.5,1.9 -7.3,0.1 -10.3,1.6 -6.7,0.6 4.1,-2.6 4.1,-2.3 v-2.1 l5.7,-7.3 4.1,-3.7 2.2,-2.5 3.6,4.3 3.8,0.9 2.7,-1 2,-1.5 2.4,1.2 4.6,-1.3 1.7,-4.4 2.4,0.7 3.2,-2.3 1.6,0.4 2.8,-3.2 0.2,-2.7 -0.8,-1.2 4.8,-10.5 1.8,-5.2 0.5,-4.7 0.7,-0.2 1.1,1.7 1.5,1.2 3.9,-0.2 1.7,-8.1 3,-0.6 0.8,-2.6 2.8,-2.2 1.1,-2.1 1.8,-4.3 0.1,-4.6 3.6,1.4 6.6,3.1 0.3,-5.2 3.4,1.2 -0.6,2.9 8.6,3.1 1.4,1.8 -0.8,3.3 -1.3,1.3 -0.5,1.7 0.5,2.4 2,1.3 3.9,1.4 2.9,1 4.9,0.9 2.2,2.1 3.2,0.4 0.9,1.2 -0.4,4.7 1.4,1.1 -0.5,1.9 1.2,0.8 -0.2,1.4 -2.7,-0.1 0.1,1.6 2.3,1.5 0.1,1.4 1.8,1.8 0.5,2.5 -2.6,1.4 1.6,1.5 5.8,-1.7 3.7,6.2z"
       fill="#D3D3D3" />
    <path
       id="VT"
       d="M832.7,111.3 l2.4,6.5 0.8,5.3 -1,3.9 2.5,4.4 0.9,2.3 -0.7,2.6 3.3,1.5 2.9,10.8 v5.3 l11.5,-2.1 -1,-1.1 0.6,-1.9 0.2,-4.3 -1,-1.4 0.2,-4.7 0.8,-9.3 v-8.5 l-1.1,-1.8 v-1.6 l2.8,-1.1 3.5,-4.4 v-3.6 l-1.9,-2.7 -0.3,-5.79 -26.1,6.79z"
       fill="#D3D3D3" />
    <path
       id="WA"
       d="M74.5,67.7 l-2.3,-4.3 -4.1,-0.7 -0.4,-2.4 -2.5,-0.6 -2.9,-0.5 -1.8,1 -2.3,-2.9 0.3,-2.9 2.7,-0.3 1.6,-4 -2.6,-1.1 0.2,-3.7 4.4,-0.6 -2.7,-2.7 -1.5,-7.1 0.6,-2.9 v-7.9 l-1.8,-3.2 2.3,-9.4 2.1,0.5 2.4,2.9 2.7,2.6 3.2,1.9 4.5,2.1 3.1,0.6 2.9,1.5 3.4,1 2.3,-0.2 v-2.4 l1.3,-1.1 2.1,-1.3 0.3,1.1 0.3,1.8 -2.3,0.5 -0.3,2.1 1.8,1.5 1.1,2.4 0.6,1.9 1.5,-0.2 0.2,-1.3 -1,-1.3 -0.5,-3.2 0.8,-1.8 -0.6,-1.5 v-2.6 l1.8,-3.6 -1.1,-2.6 -2.4,-4.8 0.3,-0.8 1.4,-0.8 4.4,1.5 9.7,2.7 8.6,1.9 20,5.7 23,5.7 15,3.49 -4.8,17.56 -4.5,20.83 -3.4,16.25 -0.4,9.18 v0 l-12.9,-3.72 -15.3,-3.47 -14.5,0.32 -1.1,-1.53 -5.7,2.09 -3.9,-0.42 -2.6,-1.79 -1.7,0.65 -4.15,-0.25 -1.72,-1.32 -5.16,-1.82 -1.18,-0.16 -4.8,-1.39 -1.92,1.65 -5.65,-0.25 -4.61,-3.35z m9.6,-55.4 2,-0.2 0.5,1.4 1.5,-1.6 h2.3 l0.8,1.5 -1.5,1.7 0.6,0.8 -0.7,2 -1.4,0.4 c0,0 -0.9,0.1 -0.9,-0.2 0,-0.3 1.5,-2.6 1.5,-2.6 l-1.7,-0.6 -0.3,1.5 -0.7,0.6 -1.5,-2.3z"
       fill="#D3D3D3" />
    <path
       id="WI"
       d="M541.4,109.9 l2.9,0.5 2.9,-0.6 7.4,-3.2 2.9,-1.9 2.1,-0.8 1.9,1.5 -1.1,1.1 -1.9,3.1 -0.6,1.9 1,0.6 1.8,-1 1.1,-0.2 2.7,0.8 0.6,1.1 1.1,0.2 0.6,-1.1 4,5.3 8.2,1.2 8.2,2.2 2.6,1.1 12.3,2.6 1.6,2.3 3.6,1.2 1.7,10.2 1.6,1.4 1.5,0.9 -1.1,2.3 -1.8,1.6 -2.1,4.7 -1.3,2.4 0.2,1.8 1.5,0.3 1.1,-1.9 1.5,-0.8 0.8,-2.3 1.9,-1.8 2.7,-4 4.2,-6.3 0.8,-0.5 0.3,1 -0.2,2.3 -2.9,6.8 -2.7,5.7 -0.5,3.2 -0.6,2.6 0.8,1.3 -0.2,2.7 -1.9,2.4 -0.5,1.8 0.6,3.6 0.6,3.4 -1.5,2.6 -0.8,2.9 -1,3.1 1.1,2.4 0.6,6.1 1.6,4.5 -0.2,3 -15.9,1.8 -17.5,1 h-12.7 l-0.7,-1.5 -2.9,-0.4 -2.6,-1.3 -2.3,-3.7 -0.3,-3.6 2,-2.9 -0.5,-1.4 -2.1,-2.2 -0.8,-3.3 -0.6,-6.8 -2.1,-2.5 -7,-4.5 -3.8,-5.4 -3.4,-1 -2.2,-2.8 h-3.2 l-2.9,-3.3 -0.5,-6.5 0.1,-3.8 1.5,-3.1 -0.8,-3.2 -2.5,-2.8 1.8,-5.4 5.2,-3.8 1.6,-1.9 -0.2,-8.1 0.2,-2.8 2.4,-2.8z"
       fill="#D3D3D3" />
    <path
       id="WV"
       d="M758.9,254.3 l5.8,-6 2.6,-0.8 1.6,-1.5 1.5,-2.2 1.1,0.3 3.1,-0.2 4.6,-3.6 1.5,-0.5 1.3,1 2.6,1.2 3,3 -0.4,4.3 -5.4,-2.6 -4.8,-1.8 -0.1,5.9 -2.6,5.7 -2.9,2.4 -0.8,2.3 -3,0.5 -1.7,8.1 -2.8,0.2 -1.1,-1 -1.2,-2 -2.2,0.5 -0.5,5.1 -1.8,5.1 -5,11 0.9,1.4 -0.1,2 -2.2,2.5 -1.6,-0.4 -3.1,2.3 -2.8,-0.8 -1.8,4.9 -3.8,1 -2.5,-1.3 -2.5,1.9 -2.3,0.7 -3.2,-0.8 -3.8,-4.5 -3.5,-2.2 -2.5,-2.5 -2.9,-3.7 -0.5,-2.3 -2.8,-1.7 -0.6,-1.3 -0.2,-5.6 0.3,0.1 2.4,-0.2 1.8,-1 v-2.2 l1.7,-1.5 0.1,-5.2 0.9,-3.6 1.1,-0.7 0.4,0.3 1,1.1 1.7,0.5 1.1,-1.3 -1,-3.1 v-1.6 l3.1,-4.6 1.2,-1.3 2,0.5 2.6,-1.8 3.1,-3.4 2.4,-4.1 0.2,-5.6 0.5,-4.8 v-4.9 l-1.1,-3 0.9,-1.3 0.8,-0.7 4.3,19.3 4.3,-0.8 11.2,-1.3z"
       fill="#D3D3D3" />
    <path
       id="WY"
       d="M353,161.9 l-1.5,25.4 -4.4,44 -2.7,-0.3 -83.3,-9.1 -27.9,-3 2,-12 6.9,-41 3.8,-24.2 1.3,-11.2 48.2,7 59.1,6.5z"
       fill="#D3D3D3" />
    <g
       id="DC">
      <path
         id="DC1"
         d="M801.8,253.8 l-1.1-1.6 -1-0.8 1.1-1.6 2.2,1.5z"
         fill="#D3D3D3" />
      <circle
         id="DC2"
         cx="801.3"
         cy="251.8"
         r="5"
         stroke-width="1.5"
         stroke="#FFFFFF"
         fill="#D3D3D3"
         opacity="1" />
      <!-- Set opacity to "0" to hide DC circle -->
    </g>
  </g>
  <path
     id="frames"
     fill="none"
     stroke="#A9A9A9"
     stroke-width="2"
     d="M215,493v55l36,45 M0,425h147l68,68h85l54,54v46"
     inkscape:export-filename="/home/matthew/Pictures/major us hubs.png"
     inkscape:export-xdpi="96"
     inkscape:export-ydpi="96" />
  <path
     style="fill:#ff0000;stroke:#ff0000"
     id="path4680"
     d="m 99.727704,33.981523 c -0.04861,2.869377 -0.04179,5.739576 -0.02812,8.609259 0.14277,1.240712 -0.346585,2.8405 0.464676,3.924872 0.034,0.0188 0.27842,0.171044 0.34034,0.141608 0.065,-0.03089 0.17827,-0.216198 0.11446,-0.182975 -1.566724,0.815714 -3.067665,1.755938 -4.648636,2.54369 -0.111699,0.05566 0.137085,-0.209518 0.190478,-0.322317 0.05884,-0.124303 0.09662,-0.25752 0.144936,-0.38628 0.244652,-0.817959 0.274061,-1.675511 0.297688,-2.5227 0.01341,-0.703637 0.0096,-1.407414 0.0068,-2.111122 0,0 5.021984,-2.56104 5.021984,-2.56104 v 0 c 0.002,0.707743 0.008,1.415526 0.003,2.123256 -0.0169,0.891734 -0.0428,1.790518 -0.2317,2.665435 -0.0103,0.04026 -0.20086,0.827822 -0.25585,0.865215 -2.102303,1.429671 -3.980448,4.420473 -5.84984,2.611453 -0.833107,-1.265289 -0.517994,-2.829293 -0.549133,-4.266416 0.01356,-2.860127 0.02083,-5.720785 -0.02812,-8.5806 0,0 5.007282,-2.551338 5.007282,-2.551338 z"
     inkscape:connector-curvature="0"
     inkscape:export-filename="/home/matthew/Pictures/major us hubs.png"
     inkscape:export-xdpi="96"
     inkscape:export-ydpi="96" />
  <path
     style="fill:#ff0000;stroke:#ff0000"
     id="path4682"
     d="m 62.809783,334.48358 c 2.409608,0.0221 4.819379,0.0106 7.22906,0.0103 2.368507,0.017 4.738508,-0.0486 7.105243,0.0547 2.444733,0.26051 4.823534,0.8854 7.076253,1.86098 1.4897,0.53151 2.713717,1.46083 3.908259,2.46122 1.108375,0.99252 1.989817,2.16952 2.866929,3.35995 1.243169,1.70332 1.440186,3.8877 1.689721,5.92 0.150835,1.39418 0.238542,2.7952 0.254485,4.19736 -0.08912,0.59782 0.132685,1.27083 -0.0274,1.86098 -0.0381,0.14046 -0.114613,0.26756 -0.17192,0.40134 -1.741966,0.99958 -3.426929,2.1058 -5.225899,2.99872 -0.214368,0.1064 -0.480709,-0.007 -0.716267,-0.0493 -0.88425,-0.15869 -1.904687,-0.51735 -2.64917,-1.02658 -0.302797,-0.20712 -0.560038,-0.47402 -0.840058,-0.71103 -1.471734,-1.59586 -2.720776,-3.36564 -3.878685,-5.19584 -0.571086,-1.10285 -1.236601,-2.10905 -2.100056,-2.99945 -0.861285,-0.64196 -1.609381,-1.41165 -2.396869,-2.13817 -0.882547,-0.92923 -1.840266,-1.7666 -2.858602,-2.54333 -1.289311,-0.9909 -2.663533,-1.86295 -4.039347,-2.72698 -1.020809,-0.77397 -2.044853,-1.5419 -3.283278,-1.91388 -0.647144,-0.16518 -1.312587,-0.1639 -1.974992,-0.15654 -0.09196,10e-4 -0.183914,0.003 -0.275871,0.004 0,0 4.569852,-3.32343 4.569852,-3.32343 v 0 c 0.09322,6.2e-4 0.186435,0.001 0.279653,0.002 0.701407,0.0192 1.399912,0.0797 2.067373,0.31537 1.228653,0.47706 2.268181,1.26575 3.32492,2.04041 1.388648,0.87542 2.777425,1.75681 4.074628,2.76558 1.028948,0.79108 2.002501,1.63733 2.893213,2.58342 0.794594,0.73793 1.59502,1.46658 2.427085,2.16168 0.870486,0.93274 1.558304,1.96882 2.129747,3.11261 1.109987,1.78679 2.304874,3.52769 3.772033,5.04513 0.815658,0.63044 1.447558,1.03485 2.471062,1.26796 0.266891,0.0608 0.539998,0.11258 0.813716,0.11045 1.550858,-0.0121 6.927093,-3.90741 -3.805024,2.52453 0.106257,-0.022 0.235138,0.003 0.318772,-0.0659 0.193745,-0.16013 0.02633,-1.50562 0.08328,-1.78305 -0.0022,-1.39147 -0.03409,-2.78367 -0.174859,-4.1692 -0.215556,-1.94171 -0.385703,-4.02516 -1.579425,-5.64856 -0.854505,-1.1536 -1.70273,-2.30752 -2.809737,-3.24043 -1.147174,-0.97134 -2.350766,-1.82283 -3.780722,-2.34334 -2.220167,-0.91359 -4.547821,-1.52978 -6.95074,-1.7021 -2.364552,-0.0728 -4.730541,-0.0188 -7.09595,-0.0358 -2.41914,-2.7e-4 -4.838365,-0.0117 -7.257434,0.0103 0,0 4.537026,-3.29635 4.537026,-3.29635 z"
     inkscape:connector-curvature="0"
     inkscape:export-filename="/home/matthew/Pictures/major us hubs.png"
     inkscape:export-xdpi="96"
     inkscape:export-ydpi="96" />
  <path
     style="fill:#ff0000;stroke:#ff0000"
     id="path4684"
     d="m 839.6968,204.9809 c -1.36571,-2.05068 -2.6332,-4.18743 -3.75073,-6.38571 -0.67804,-1.30952 -1.07053,-2.70266 -1.24623,-4.15845 -0.0712,-0.7222 -0.0601,-1.44884 -0.0502,-2.17345 0.10935,-0.52323 -0.13145,-1.1494 0.0576,-1.65921 0.0442,-0.11909 0.13102,-0.21765 0.19652,-0.32647 5.13698,-2.91652 4.22049,-2.95588 8.22501,-2.97496 0.55531,0.0658 1.14465,-0.0825 1.69751,0.004 0.69833,0.1092 1.36694,0.4758 1.9948,0.77617 1.21165,0.74186 1.84858,1.62651 2.16693,2.98993 0.21067,1.2916 0.18813,2.60671 0.18411,3.91126 -0.0177,1.57492 -0.021,3.14992 -0.0278,4.72491 -0.003,1.32456 0.002,2.64911 0.007,3.97365 0.0197,2.34778 0.35803,1.01117 -5.02106,2.79026 -0.16123,0.0533 0.003,-0.33962 0.004,-0.50944 0.007,-0.8189 0.005,-0.46107 0.005,-1.27201 -0.008,-1.6323 0.016,-3.26442 0.0196,-4.8967 -0.0511,-1.32774 0.18832,-2.9403 -0.66528,-4.07952 -1.56394,1.20273 0.16297,-0.1383 4.58197,-2.368 0.10002,-0.0505 -0.1897,0.12887 -0.25295,0.22134 -0.31828,0.46535 -0.34679,1.14075 -0.42376,1.6748 -0.1225,1.04427 -0.13745,2.09622 -0.14564,3.14623 -3.7e-4,0.5729 -7.2e-4,0.28792 10e-4,0.85496 0,0 -5.02265,2.56107 -5.02265,2.56107 v 0 c -0.002,-0.56966 -10e-4,-0.28318 -0.002,-0.85945 0.002,-1.07347 0.0313,-2.14747 0.13328,-3.2167 0.26641,-2.39682 1.4569,-7.843 5.9925,-4.87806 0.86377,1.29694 0.78017,2.91436 0.7719,4.41174 0.004,1.62566 0.0275,3.25115 0.0195,4.87682 -2.8e-4,0.42631 0.0791,1.72393 0.009,1.77217 -5.6057,3.85838 -5.03121,4.77383 -5.02111,2.32628 0.006,-1.32889 0.0121,-2.65778 0.0152,-3.98668 10e-4,-1.57309 0.0126,-3.14615 0.0155,-4.71925 0.005,-1.26686 0.0348,-2.54132 -0.13288,-3.80003 -0.24116,-1.21214 -0.78833,-1.94293 -1.88978,-2.54858 -0.4347,-0.18927 -0.80376,-0.37428 -1.26688,-0.4842 -0.75105,-0.17827 -1.53158,-0.0544 -2.29327,-0.086 -0.75402,0.0148 -1.5188,0.0192 -2.26659,0.1301 -2.03169,0.30135 -2.65586,1.34684 3.85168,-2.51059 -0.10902,0.001 -0.22198,-0.0254 -0.32704,0.004 -0.27304,0.0757 -0.11842,1.21018 -0.15435,1.47043 -0.014,0.7068 -0.0377,1.41462 0.005,2.12096 0.1191,1.40099 0.46743,2.74248 1.09792,4.0082 1.08367,2.18947 2.33142,4.3192 3.75421,6.30421 0,0 -4.84727,2.84035 -4.84727,2.84035 z"
     inkscape:connector-curvature="0"
     inkscape:export-filename="/home/matthew/Pictures/major us hubs.png"
     inkscape:export-xdpi="96"
     inkscape:export-ydpi="96" />
  <path
     style="fill:#ff0000;stroke:#ff0000"
     id="path4688"
     d="m 613.40294,207.70998 c -1.36064,-1.52128 -2.3272,-2.98647 -2.9583,-4.92893 -0.43572,-1.59987 -0.47343,-3.26296 -0.48952,-4.90968 -0.0432,-1.64834 -0.33305,-3.27654 -0.75604,-4.86651 -0.42851,-1.20963 -1.16791,-1.6789 -2.3729,-1.91304 -0.60247,0.0177 -1.4198,-0.24265 -2.00767,-0.11648 -0.21694,0.0466 -0.79099,0.40213 -0.59669,0.29501 4.49825,-2.47995 5.29402,-3.35753 3.58909,-1.6978 -1.28979,1.71602 -1.36684,3.95157 -1.50408,6.01531 -0.0954,2.04655 -0.0731,4.09616 -0.0664,6.14424 -0.0535,1.54822 0.003,2.96573 0.53826,4.42513 0.59397,1.48433 1.6481,2.66357 2.70585,3.8289 1.43156,1.51796 3.26253,2.56843 5.09435,3.52746 1.41658,0.66752 2.81104,1.41639 4.30513,1.89913 1.39583,0.41207 2.68668,1.08058 3.92715,1.8287 1.12925,0.91998 2.173,1.93759 3.20914,2.9594 0.27128,-0.1783 0.39882,0.73156 0.69374,0.62918 0.1161,-0.0403 0.16389,-0.41632 0.0522,-0.365 -1.57894,0.72558 -2.97805,1.82851 -4.59908,2.45445 -0.22581,0.0872 0.11385,-0.47685 0.10388,-0.7187 -0.0123,-0.29867 -0.11323,-0.58703 -0.16985,-0.88054 -0.85316,-2.21055 -2.35654,-4.13116 -3.89812,-5.90802 -1.22908,-1.39902 -2.68334,-2.57361 -3.96711,-3.91659 -0.69979,-0.75455 -1.30745,-1.57515 -1.92193,-2.39699 0,0 4.84811,-2.87045 4.84811,-2.87045 v 0 c 0.58541,0.8115 1.17608,1.61278 1.86501,2.343 1.30129,1.33434 2.70163,2.57193 3.94076,3.96765 1.60108,1.84905 3.13261,3.85173 4.0559,6.13254 0.0239,0.0926 0.51866,1.61007 0.23755,1.85282 -1.5808,1.36509 -3.55872,4.39033 -5.33335,3.28893 -0.11624,-0.0721 -0.64175,-0.61788 -0.69702,-0.67384 -1.00111,-0.99352 -2.00271,-1.99706 -3.13132,-2.84756 -1.22488,-0.72171 -2.5051,-1.32781 -3.87397,-1.72852 -1.4856,-0.55876 -2.90454,-1.28692 -4.32602,-1.98854 -1.86875,-1.01545 -3.72879,-2.13035 -5.20272,-3.68599 -1.10801,-1.21739 -2.18656,-2.46443 -2.82959,-4.00377 -0.59079,-1.55702 -0.68176,-2.95342 -0.60244,-4.61498 -0.0108,-2.06032 -0.0335,-4.12203 0.0566,-6.18105 0.12666,-2.15269 0.20459,-4.44663 1.3227,-6.35032 1.83958,-2.23184 0.70158,-1.00323 6.01328,-3.91084 0.21284,-0.11651 0.47322,-0.11802 0.71524,-0.13537 0.69101,-0.0495 1.40461,0.11743 2.08445,0.2046 1.33455,0.3989 2.18208,1.08591 2.67388,2.43035 0.43887,1.63178 0.73334,3.30622 0.81112,4.99622 0.0192,1.59442 0.0233,3.20637 0.41194,4.76366 0.56924,1.85555 1.51169,3.30409 2.85151,4.71108 0,0 -4.80269,2.91175 -4.80269,2.91175 z"
     inkscape:connector-curvature="0"
     inkscape:export-filename="/home/matthew/Pictures/major us hubs.png"
     inkscape:export-xdpi="96"
     inkscape:export-ydpi="96" />
  <path
     style="fill:#ff0000;stroke:#ff0000"
     id="path4690"
     d="m 468.28363,410.12164 c -5.22149,-1.4301 -10.66678,-1.75418 -16.04648,-2.08185 -4.9275,-0.25527 -9.86217,-0.31288 -14.79536,-0.31483 -1.7386,0.007 -0.99342,0.002 -2.52915,0.0155 -0.4499,0.004 -1.11403,-0.0438 -1.56456,0.13694 -0.18416,0.0739 -0.66776,0.42689 -0.49127,0.33619 1.45405,-0.74722 2.88508,-1.53843 4.32761,-2.30765 -0.13196,0.25728 -0.29543,0.50069 -0.39587,0.77183 -0.29389,0.79332 -0.41491,1.77548 -0.50438,2.59401 -0.17855,1.63346 -0.21548,3.27932 -0.26107,4.92023 0.0118,1.64555 -0.31998,3.40715 0.61475,4.88038 0.61164,0.964 1.08981,1.20503 2.00362,1.93606 2.2622,1.48263 4.70619,2.67085 7.27354,3.52419 1.59063,0.5287 2.38193,0.6815 3.98831,1.06359 3.30263,0.69414 6.68423,0.7887 10.04211,0.98021 3.42758,0.17506 6.86018,0.20916 10.2915,0.22995 2.5376,0.008 5.07523,0.002 7.61282,-0.008 0.29123,-0.0388 0.58893,-0.044 0.87369,-0.11627 0.27525,-0.0699 1.04039,-0.44955 0.79459,-0.30732 -1.33522,0.77259 -2.63955,1.62539 -4.07011,2.20263 -0.35215,0.14209 0.52163,-0.55466 0.74571,-0.86124 0.65701,-0.89887 0.84068,-1.40228 1.32605,-2.41015 1.16055,-2.56769 1.58845,-5.35346 1.8382,-8.13539 0.077,-1.05318 0.11015,-2.10888 0.12299,-3.16458 0.006,-0.49094 0.0881,-0.92666 -0.18039,-1.36774 -0.096,-0.15763 -0.26242,-0.25952 -0.39363,-0.38928 -1.80509,-0.83584 -3.90554,-0.7146 -5.85321,-0.74753 -2.7544,-0.005 -5.50417,-0.19462 -8.25071,-0.38418 -2.10757,-0.12677 -1.03709,-0.069 -3.2115,-0.17203 0,0 4.4899,-3.2297 4.4899,-3.2297 v 0 c 2.18732,0.1039 1.11152,0.0454 3.22748,0.17415 2.74842,0.18098 5.49999,0.34202 8.25539,0.34902 1.70816,0.0425 3.86149,-0.0701 5.44731,0.66763 0.24706,0.11493 0.4645,0.28502 0.69675,0.42752 0.16916,0.19649 0.3769,0.36548 0.50748,0.58948 0.35986,0.61728 0.26729,0.86785 0.25378,1.55409 -0.0211,1.07058 -0.0556,2.14122 -0.13084,3.20955 -0.23899,2.83256 -0.65346,5.67725 -1.7697,8.31463 -0.58715,1.3378 -0.51159,1.29161 -1.25626,2.51024 -0.20934,0.34257 -0.33229,0.77772 -0.66279,1.00565 -2.77398,1.91311 -4.39028,3.40787 -7.32259,3.56699 -2.52123,-0.007 -5.04248,-0.0106 -7.56364,-0.0328 -3.43955,-0.0293 -6.88024,-0.0655 -10.31589,-0.24633 -3.37229,-0.19319 -6.76796,-0.32274 -10.07287,-1.08265 -1.60681,-0.40742 -2.41921,-0.5801 -4.01229,-1.12628 -2.6137,-0.89608 -5.10516,-2.12 -7.40829,-3.64625 -1.02305,-0.83164 -1.47809,-1.04641 -2.1619,-2.13243 -0.98931,-1.57124 -0.76285,-3.35977 -0.71356,-5.12503 0.0921,-2.82866 0.019,-5.89682 0.93908,-8.59143 1.74446,-1.13149 3.46248,-2.30483 5.23339,-3.39447 0.96728,-0.59518 3.56192,-0.071 4.66239,-0.22707 4.90451,0.0506 9.80937,0.14981 14.70759,0.41645 5.46097,0.34769 10.9652,0.7173 16.2894,2.06203 0,0 -4.62712,3.16364 -4.62712,3.16364 z"
     inkscape:connector-curvature="0"
     inkscape:export-filename="/home/matthew/Pictures/major us hubs.png"
     inkscape:export-xdpi="96"
     inkscape:export-ydpi="96" />
  <path
     style="fill:#ff0000;stroke:#ff0000"
     id="path4692"
     d="m 781.34521,559.88083 c 0.0463,-3.31164 0.0469,-6.62393 0.0431,-9.93587 -0.0144,-3.04262 -0.0129,-6.08522 -0.0156,-9.12785 0.0718,-1.79691 -0.11763,-3.611 0.0355,-5.40554 0.0908,-1.06366 0.2237,-1.4641 0.46519,-2.4877 0.39395,-1.31982 0.89805,-2.62738 1.66224,-3.78266 0.47426,-0.71697 0.79624,-1.04224 1.35741,-1.68359 2.68108,-2.67539 6.12874,-4.5603 9.67102,-5.8677 1.55966,-0.49565 3.20896,-0.5714 4.83322,-0.61634 1.37806,-0.0208 2.75629,-0.003 4.13441,-2.5e-4 0.18891,0.0652 0.3941,0.0949 0.56672,0.1956 1.13584,0.66254 1.26326,2.37215 1.41277,3.52117 0.18343,2.31378 0.13646,4.64036 0.12545,6.95965 0.009,2.78455 -0.57593,5.50741 -1.23061,8.19758 -0.49283,1.86636 -0.82669,3.75966 -0.97199,5.68286 -0.10029,2.17971 -0.37257,4.31562 -1.06489,6.38774 -0.97812,2.30003 -2.5594,4.23843 -4.33147,5.96968 -1.3316,1.20152 -2.79262,2.24469 -4.18474,3.37259 -2.25963,1.74429 -4.66525,3.65995 -7.56404,3.86154 -1.5079,0.0554 -3.01731,0.0353 -4.52594,0.0351 -0.23972,-0.027 -0.78479,-0.0486 -1.01397,-0.21181 -0.63502,-0.45233 -0.75658,-1.36662 -0.86893,-2.06515 -0.0824,-0.7397 -0.086,-1.48452 -0.0925,-2.22774 0,0 5.01989,-2.55684 5.01989,-2.55684 v 0 c -0.008,0.71959 -0.0125,1.44043 0.0493,2.15818 0.15556,1.22783 0.10906,1.57458 1.44989,1.60478 1.49874,0.0108 3.00252,0.0353 4.49679,-0.0977 0.39046,-0.0655 0.57898,-0.0777 0.94331,-0.20747 0.14029,-0.05 0.53789,-0.25368 0.41013,-0.17716 -7.96851,4.77298 -5.13757,3.11923 -3.51508,1.98331 1.387,-1.15389 2.86495,-2.19065 4.24449,-3.35384 1.79189,-1.64822 3.37301,-3.51104 4.42931,-5.72511 0.78097,-2.09026 1.00911,-4.0267 1.12281,-6.24341 0.0953,-1.96305 0.44085,-3.8841 0.94764,-5.78429 0.67627,-2.64874 1.29633,-5.33127 1.30042,-8.08169 -0.002,-2.29225 0.0333,-4.58949 -0.13276,-6.87721 -0.0974,-0.82849 -0.12538,-2.03904 -0.72939,-2.70299 -0.2535,-0.27866 -0.4996,-0.25621 -0.84353,-0.31488 -1.37047,-0.0131 -2.7415,-0.0236 -4.1117,0.0123 -1.59278,0.0687 -3.20367,0.18126 -4.70779,0.75702 -1.87161,0.76478 -5.05056,2.72418 2.20526,-1.52034 0.27293,-0.15966 -0.55902,0.29847 -0.81973,0.4774 -0.53389,0.3664 -1.03272,0.85748 -1.50627,1.29315 -0.43105,0.46056 -1.02622,1.06742 -1.39696,1.58045 -0.79258,1.09677 -1.30903,2.37354 -1.74682,3.64259 -0.23963,0.89563 -0.42558,1.45369 -0.52374,2.3853 -0.18831,1.78732 0.0356,3.60276 -0.055,5.3937 -0.003,3.04793 -10e-4,6.09583 -0.0156,9.14374 -0.004,3.2973 -0.003,6.59497 0.0431,9.89197 0,0 -5.00031,2.54778 -5.00031,2.54778 z"
     inkscape:connector-curvature="0"
     inkscape:export-filename="/home/matthew/Pictures/major us hubs.png"
     inkscape:export-xdpi="96"
     inkscape:export-ydpi="96" />
  <path
     style="fill:#ff0000;stroke:#ff0000"
     id="path4694"
     d="m 691.01472,377.90577 c -0.13272,2.37815 -0.24994,4.75675 -0.32005,7.13763 -0.0391,1.40038 -0.0519,2.80126 -0.0546,4.20213 0.0934,0.69513 -0.28913,1.70104 0.29402,2.2299 0.5342,0.19639 1.13376,0.14921 1.69535,0.14806 0.67498,-0.006 1.34983,-0.0186 2.02482,-0.023 0.70567,-0.004 1.41133,-0.004 2.117,-0.002 0.18156,-2.8e-4 0.54524,0.0299 0.72535,-0.0771 0.0906,-0.0539 0.30005,-0.28929 0.20756,-0.23868 -1.54914,0.84768 -3.04387,1.7924 -4.59373,2.63874 -0.0837,0.0457 0.12769,-0.14346 0.17546,-0.22601 0.0645,-0.11156 0.1061,-0.23491 0.15916,-0.35236 0.39747,-0.87639 0.94352,-1.6694 1.31994,-2.55642 0.26709,-0.62326 0.29507,-1.2997 0.31726,-1.96704 0.01,-0.74586 0.006,-1.49182 0.004,-2.23772 -0.004,-0.83204 -0.003,-1.66411 -0.008,-2.49614 7.6e-4,-0.57631 -0.004,-1.15262 -0.005,-1.72892 0.0149,-0.78623 0.0976,-0.93324 -0.43547,-1.55823 -0.61383,-0.71539 -1.29027,-1.25365 -2.18173,-1.56076 -0.69892,-0.20574 -1.42634,-0.22271 -2.14879,-0.22833 -0.66679,-8.6e-4 -1.33349,0.0113 -2.00027,0.012 -0.81974,0.003 -1.63949,0.002 -2.45924,10e-4 -0.50895,0.0933 -0.2872,-0.011 -0.67259,0.29676 0,0 4.41881,-3.5092 4.41881,-3.5092 v 0 c 0.52684,-0.10986 0.25616,-0.075 0.8126,-0.10014 0.82159,-0.001 1.64319,-0.003 2.46477,-0.009 0.67061,-0.007 1.34148,-0.0132 2.01201,0.002 0.76646,0.0341 1.53242,0.113 2.25333,0.39592 0.92834,0.40977 1.67103,1.02793 2.33135,1.7981 0.57862,0.70254 0.70251,1.00901 0.64386,1.89234 -9.9e-4,0.57784 -0.006,1.15568 -0.005,1.73354 -0.004,0.8327 -10e-4,1.66544 5.4e-4,2.49815 0.004,0.74922 0.0158,1.49848 0.0107,2.24768 -0.0106,0.72087 -0.0148,1.45667 -0.23205,2.15077 -0.34491,0.9023 -0.81341,1.73062 -1.32508,2.54933 -0.0279,0.0855 -0.24633,0.75589 -0.24706,0.75638 -2.79686,1.89197 -3.569,3.22877 -6.10345,3.18731 -0.70711,0.003 -1.41423,0.004 -2.12132,0.0107 -0.67676,0.007 -1.3536,0.0186 -2.03039,0.0103 -0.69128,-0.0224 -1.40578,-0.04 -1.95244,-0.52223 -0.18405,-0.2178 -0.33075,-0.35459 -0.42615,-0.64043 -0.20728,-0.62105 0.0398,-1.33908 -0.0541,-1.97318 0.009,-1.41249 0.0295,-2.82499 0.0857,-4.23651 0.0898,-2.36915 0.21099,-4.73689 0.29944,-7.10602 0,0 5.0038,-2.54956 5.0038,-2.54956 z"
     inkscape:connector-curvature="0"
     inkscape:export-filename="/home/matthew/Pictures/major us hubs.png"
     inkscape:export-xdpi="96"
     inkscape:export-ydpi="96" />
  <path
     style="fill:#ff0000;stroke:#ff0000"
     id="path4696"
     d="m 30.522955,240.66081 c 2.023354,0.0192 4.046899,0.0145 6.070301,0.005 1.346004,0.0579 2.717117,-0.14391 4.043593,0.11908 1.753099,0.73552 2.155338,2.55254 2.468252,4.24892 0.231929,1.67951 0.268848,3.37975 0.27955,5.07307 0.0088,1.0001 -0.0076,2.00006 -0.01543,3.00007 -0.0055,0.99106 -1.35e-4,1.98214 -0.0026,2.97321 -0.0087,0.76336 0.107982,1.53397 -0.240953,2.23605 -1.645306,2.22288 -4.294529,3.29887 -6.892837,3.42552 -0.898354,0.0348 -1.797983,0.0177 -2.696776,0.012 -1.061806,-0.004 -2.123619,-0.005 -3.18543,-0.004 -0.881383,-0.0469 -1.738898,0.15974 -2.612722,0.25209 -0.958003,0.0787 -1.91911,0.11032 -2.879956,0.12673 -0.629323,-0.0332 -1.283911,0.0983 -1.893888,-0.0797 -0.753385,-0.47566 -0.792727,-1.47944 -0.851726,-2.28485 -0.17324,-1.93548 -0.262618,-3.87616 -0.323557,-5.81795 -0.05257,-1.92915 -0.06259,-3.85916 -0.07858,-5.78888 -0.01227,-1.1377 -0.0034,-2.27544 -0.01,-3.41317 0.348691,-2.81617 4.054373,-3.91583 6.677679,-4.08355 1.364289,-0.0435 2.729764,-0.0203 4.094477,-0.0124 0.937253,0.005 1.212656,0.26187 1.8432,0.90515 0,0 -4.778192,2.94734 -4.778192,2.94734 v 0 c -0.60033,-0.50758 -0.801437,-0.55599 -1.606308,-0.55681 -1.357597,-0.007 -2.718739,-0.0355 -4.073424,0.0692 -0.17558,0.0237 -0.352903,0.0368 -0.52674,0.0711 -0.160587,0.0316 -0.612926,0.21338 -0.474564,0.12596 1.459652,-0.92225 2.989304,-1.72988 4.455708,-2.64135 0.09208,-0.0572 -0.226861,0.0103 -0.317769,0.0693 -0.108386,0.0704 -0.23984,0.46233 -0.273915,0.54868 -0.0086,1.14095 -0.003,2.28193 -0.01283,3.42288 -0.0078,1.9295 -0.0038,3.85916 0.04487,5.78819 0.05773,1.92868 0.131296,3.8594 0.359359,5.77691 0.02516,0.42439 -0.03938,1.50844 0.481513,1.63201 0.607214,0.0176 1.21514,0.002 1.822443,-0.003 0.948182,-0.0214 1.897402,-0.0537 2.840141,-0.1642 0.883303,-0.11119 1.759965,-0.26474 2.654949,-0.20158 1.05884,0.004 2.117679,0.009 3.176525,0.0112 0.893234,-10e-4 1.788532,0.0112 2.679641,-0.0603 0.380468,-0.0466 0.7763,-0.0833 1.138507,-0.21968 0.11205,-0.0422 0.424905,-0.22036 0.322139,-0.15891 -4.07785,2.43821 -6.120362,3.52633 -4.288532,2.54636 0.652283,-0.56949 0.358504,-1.117 0.407626,-1.91857 -0.0017,-0.99284 0.0053,-1.98565 0.0077,-2.97848 0.0013,-1.00051 0.0084,-2.00073 0.02529,-3.00113 0.0048,-1.66762 0.0056,-3.34164 -0.212163,-4.9982 -0.246873,-1.44948 -0.501731,-3.17651 -2.128107,-3.63884 -1.320679,-0.13099 -2.653727,-0.0211 -3.979079,-0.0619 -2.027966,-0.01 -4.056072,-0.014 -6.083993,0.005 0,0 4.546517,-3.30324 4.546517,-3.30324 z"
     inkscape:connector-curvature="0"
     inkscape:export-filename="/home/matthew/Pictures/major us hubs.png"
     inkscape:export-xdpi="96"
     inkscape:export-ydpi="96" />
  <path
     style="fill:#ff0000;stroke:#ff0000"
     id="path4698"
     d="m 793.22045,250.78674 c 0.52569,-1.9779 1.29058,-3.86115 2.27387,-5.65169 0.68748,-1.04971 1.16512,-2.22576 2.03331,-3.14229 0.24035,-0.2041 0.45028,-0.40224 0.7239,-0.56153 1.72404,-1.00362 3.45371,-1.99767 5.19007,-2.97983 -10.37411,6.31078 -5.52707,3.17455 -4.1449,2.38161 1.71169,-0.98199 3.42467,-1.96175 5.137,-2.94262 0.76262,-0.26861 1.39851,-0.79173 2.1622,-1.0685 1.22585,-0.3036 2.50162,-0.29052 3.75642,-0.31782 1.13154,-0.022 2.26328,-0.014 3.39494,-0.0145 0.50895,0.0835 1.07058,-0.0995 1.57568,0.002 0.31659,0.0635 0.47769,0.2066 0.73802,0.37906 0.76167,0.77344 0.94246,1.93974 1.11639,2.97136 0.18286,1.3096 0.18289,2.63434 0.19521,3.95375 10e-4,1.36344 0.003,2.72688 0.002,4.09031 0.013,1.02665 0.0907,2.02323 -0.30655,2.98584 -0.55593,0.9286 -1.42487,1.61778 -2.27121,2.27115 -1.06921,0.6402 -2.05946,1.38535 -3.06655,2.11528 -2.90207,1.35603 -5.57725,3.67178 -8.74064,4.56447 -1.24312,0.38669 -2.5185,0.64282 -3.81536,0.74619 -0.8281,0.0587 -1.65815,0.0597 -2.48777,0.0566 -0.64244,-0.003 -1.28488,-0.005 -1.92731,-0.007 -0.69141,4.5e-4 -1.38282,-0.002 -2.07423,-0.003 -0.72053,-8.2e-4 -1.44105,0.003 -2.16158,6.1e-4 -1.20046,-0.16382 -1.30423,-0.76607 -1.49177,-1.86392 -0.15564,-1.51704 -0.1311,-3.04802 -0.13394,-4.57164 0.002,-1.40557 -0.0475,-2.80852 0.14422,-4.20356 0.27715,-1.29802 0.97384,-2.42222 1.67025,-3.52958 0.26351,-0.41117 0.5008,-0.83734 0.72944,-1.26847 0,0 5.13956,-2.31637 5.13956,-2.31637 v 0 c -0.22518,0.44454 -0.44307,0.8945 -0.7245,1.30746 -0.63618,1.08885 -1.42379,2.09979 -1.77423,3.33631 -0.24089,1.36676 -0.17842,2.74422 -0.18665,4.12782 -0.004,1.49527 -0.0282,2.99527 0.10825,4.48588 0.12988,0.91307 0.0987,1.17996 1.08411,1.17957 0.72003,-0.002 1.44005,10e-4 2.16009,5.9e-4 0.69326,-1.7e-4 1.38653,-0.003 2.07979,4.8e-4 0.64143,10e-4 1.28285,0.006 1.92428,0.008 0.81469,-0.002 1.63047,-0.0128 2.44196,-0.0928 1.26836,-0.15261 2.51587,-0.42811 3.72999,-0.8295 2.18944,-0.7854 7.66123,-4.0177 -0.92683,0.91762 1.06057,-0.63802 1.92894,-1.56867 3.07867,-2.07984 0.82954,-0.62506 1.66966,-1.25615 2.35028,-2.04604 0.60465,-0.84503 0.42603,-1.74769 0.43847,-2.74067 0.004,-1.36301 0.0149,-2.726 0.007,-4.08904 -0.007,-1.29236 -0.01,-2.58909 -0.16316,-3.87422 -0.12768,-0.83837 -0.22481,-1.91753 -0.87645,-2.52199 -0.67115,-0.28074 -1.43487,-0.0967 -2.14511,-0.15154 -1.12205,-0.008 -2.24433,-0.009 -3.36622,0.0143 -1.22423,0.0384 -2.49417,0.0358 -3.64557,0.50529 -0.71452,0.36891 -1.40383,0.78506 -2.14288,1.10486 1.50941,-0.87448 3.01702,-1.75208 4.52824,-2.62345 0.10838,-0.0625 -0.21135,0.13411 -0.31965,0.19677 -1.72829,1.00003 -3.44898,2.01349 -5.18998,2.99123 -1.4984,0.84149 2.98051,-1.71178 4.46213,-2.58248 0.25891,-0.15215 -1.14602,0.56124 -0.77742,0.45528 -0.30608,0.24092 -0.56374,0.4104 -0.79848,0.73011 -0.51249,0.698 -0.75308,1.59537 -1.32797,2.25877 -1.0051,1.74067 -1.84944,3.55242 -2.32214,5.51817 0,0 -5.06668,2.41742 -5.06668,2.41742 z"
     inkscape:connector-curvature="0"
     inkscape:export-filename="/home/matthew/Pictures/major us hubs.png"
     inkscape:export-xdpi="96"
     inkscape:export-ydpi="96" />
  <path
     style="fill:#ff0000;stroke:#ff0000"
     id="path4700"
     d="m 322.95368,254.40034 c 1.43577,1.09857 2.84702,2.28179 3.95108,3.72273 0.70235,0.87093 0.86001,1.92039 0.94474,2.99949 0.0461,0.82952 0.0271,1.66061 0.0219,2.49086 -0.0105,0.84749 -0.0188,1.695 -0.0213,2.54257 5e-4,0.15068 0.0133,0.71726 -0.0262,0.88306 -0.0752,0.31605 -0.20774,0.58371 -0.50089,0.75214 -5.06593,2.91078 -3.32212,2.53066 -5.68546,2.98551 -0.77869,0.0867 -1.56281,0.0816 -2.34496,0.0741 -0.79397,-0.013 -1.58802,-0.0187 -2.38209,-0.0191 -0.87327,-0.002 -1.74654,-0.004 -2.61981,-0.004 -0.76528,9.1e-4 -1.53057,0.003 -2.29586,0.003 -0.79429,-0.15564 -1.35639,-0.66004 -1.80604,-1.30561 -0.57829,-1.21008 -0.53813,-2.60193 -0.57602,-3.91415 -0.0324,-1.53916 -0.0196,-3.07868 -0.0215,-4.61802 0.006,-1.16579 -0.17629,-1.98305 0.47923,-3.01057 1.845,-2.15199 4.62411,-3.68709 7.44554,-3.97727 1.70627,-0.11951 3.41795,-0.10581 5.1273,-0.10952 1.55256,-0.0195 2.48092,-0.17575 3.75151,0.82485 0.0926,0.12786 0.18509,0.25572 0.27764,0.38358 0,0 -4.85177,2.87706 -4.85177,2.87706 v 0 c -0.0636,-0.0818 -0.12721,-0.16363 -0.19081,-0.24545 -1.06395,-0.74331 -2.27709,-0.53067 -3.51382,-0.5493 -1.69944,0.004 -3.40699,-0.0108 -5.09703,0.19026 -0.47633,0.0962 -0.64237,0.1064 -1.0773,0.27405 -0.15512,0.0598 -0.5964,0.292 -0.45439,0.20557 7.646,-4.65311 5.2535,-3.33755 3.75839,-2.10996 -0.1741,0.20459 -0.39682,0.37648 -0.52154,0.61442 -0.32409,0.61832 -0.0163,1.42911 -0.12969,2.0849 -0.0112,1.53572 -0.0163,3.07174 0.005,4.60738 0.031,1.19924 -0.0193,2.48074 0.44815,3.60625 0.37061,0.51088 0.85724,0.86693 1.51444,0.85326 0.76247,4e-4 1.52494,0.002 2.28741,0.003 0.87529,4.7e-4 1.75057,-10e-4 2.62586,0.002 0.79616,0.006 1.59235,0.01 2.38852,0.0154 0.75319,0.001 1.51599,-0.003 2.25155,-0.18451 2.03943,-0.66171 0.10068,-0.0628 -4.051,2.47566 -0.11782,0.072 0.26522,-0.0785 0.39329,-0.13019 0.53574,-0.21611 0.35004,-0.4727 0.37637,-0.98373 -10e-6,-0.84707 -0.007,-1.69423 0.005,-2.54124 0.0157,-0.8188 0.0305,-1.63817 0.009,-2.45696 -0.0509,-0.97593 -0.13828,-1.92266 -0.76952,-2.71831 -1.06866,-1.39374 -2.41486,-2.56807 -3.85562,-3.56458 0,0 4.73138,-3.02946 4.73138,-3.02946 z"
     inkscape:connector-curvature="0"
     inkscape:export-filename="/home/matthew/Pictures/major us hubs.png"
     inkscape:export-xdpi="96"
     inkscape:export-ydpi="96" />
  <path
     style="fill:#ff0000;stroke:#ff0000"
     id="path4702"
     d="m 880.50802,148.29211 c -0.17288,2.22638 -0.24699,4.45913 -0.30172,6.6911 -0.025,1.14122 -0.0315,2.28275 -0.038,3.42419 -0.002,1.13689 6.7e-4,2.27379 0.003,3.41069 -0.006,1.09282 -0.16841,1.49643 0.9551,1.87574 0.95132,0.21578 1.93797,0.19008 2.90792,0.1924 0.80517,-0.002 1.61036,-0.006 2.41551,-0.0124 0.17258,-0.001 0.35017,0.0362 0.51774,-0.005 0.13561,-0.0335 0.24105,-0.14116 0.36158,-0.21175 -7.28916,3.93389 -4.90682,3.79728 -4.23245,1.86345 0.30665,-0.87935 0.33452,-1.86027 0.38511,-2.77983 0.0327,-1.01685 0.0198,-2.03456 0.0148,-3.05176 -0.0147,-1.34947 -0.003,-2.69895 -0.005,-4.04845 5.7e-4,-1.2766 -0.007,-2.55316 -0.0132,-3.82974 10e-4,-1.05022 0.004,-2.10042 0.002,-3.15066 0.0623,-1.07063 -0.25386,-1.23592 -1.21131,-1.46196 -0.80711,-0.12813 -1.62863,-0.10105 -2.44303,-0.0956 -0.16004,9.7e-4 -0.32009,0.002 -0.48014,0.003 -0.48449,0.004 -0.42726,-0.0576 -0.85537,0.2077 -0.1337,0.0829 -0.51432,0.3599 -0.37591,0.28521 4.49418,-2.42529 5.41331,-3.82929 3.99765,-1.91005 -0.54836,1.09091 -0.83757,2.28353 -1.16615,3.45243 0,0 -5.05364,2.40245 -5.05364,2.40245 v 0 c 0.33973,-1.20217 0.65284,-2.41312 1.08515,-3.58683 1.26767,-2.45108 0.2019,-0.66466 5.51731,-3.9002 0.56987,-0.34689 1.25885,-0.25224 1.89029,-0.26712 0.85109,0.003 1.71514,-0.009 2.54071,0.22916 1.0447,0.37523 1.64336,0.89695 1.57023,2.0862 -0.002,1.04964 7.4e-4,2.09924 0.002,3.14886 -0.006,1.2805 -0.0138,2.561 -0.0112,3.84152 5.4e-4,1.34556 0.0142,2.69102 0.0208,4.03655 0.0103,1.02835 0.0367,2.05728 -0.009,3.08526 -0.045,0.98268 -0.10468,1.96007 -0.31417,2.92445 -0.0523,0.24075 0.0143,0.56841 -0.18283,0.71614 -1.61961,1.21347 -3.41504,2.17258 -5.12255,3.25886 -1.12213,0.15667 -2.26789,0.0284 -3.3979,0.074 -1.02296,-0.0119 -2.07436,-0.007 -3.04536,-0.3718 -1.12993,-0.57914 -1.36077,-1.20532 -1.27777,-2.44488 5.1e-4,-1.13769 1.3e-4,-2.27539 -7.4e-4,-3.41308 -0.003,-1.1501 0.005,-2.30013 0.0521,-3.4495 0.0813,-2.23465 0.19195,-4.46805 0.27927,-6.70247 0,0 5.02054,-2.51613 5.02054,-2.51613 z"
     inkscape:connector-curvature="0"
     inkscape:export-filename="/home/matthew/Pictures/major us hubs.png"
     inkscape:export-xdpi="96"
     inkscape:export-ydpi="96" />
  <path
     style="fill:#ff0000;stroke:#ff0000"
     id="path4704"
     d="m 190.36276,368.42483 c -2.21941,-0.0243 -4.43903,-0.0129 -6.65852,-0.006 -1.26083,0.006 -2.52166,0.008 -3.78249,0.0111 -0.54286,0.0922 -1.15084,-0.11426 -1.68821,0.002 -0.20444,0.0444 -0.4235,0.24998 -0.57608,0.37157 1.48213,-0.83599 2.91885,-1.75817 4.44639,-2.50796 0.19073,-0.0936 -0.2775,0.32565 -0.37978,0.51187 -0.12992,0.23653 -0.2288,0.49036 -0.31173,0.74716 -0.40499,1.25398 -0.46541,2.58963 -0.57716,3.89063 -0.19535,3.19841 -0.20331,6.40454 -0.19182,9.60772 0.0898,0.90309 -0.20446,1.89455 0.25141,2.73895 0.43557,0.80681 1.22623,1.24038 1.98844,1.67028 1.74341,0.73359 3.65517,0.81386 5.5205,0.87297 1.52578,0.0226 3.0518,0.003 4.57758,-0.0102 0.38483,-0.003 1.01215,0.0152 1.39915,-0.0698 0.1885,-0.0414 0.70961,-0.29858 0.54282,-0.20147 -7.91198,4.60628 -4.88132,3.25156 -3.67354,1.70263 0.71125,-1.25624 0.66433,-2.7477 0.70952,-4.14845 0.0275,-1.4428 0.008,-2.88587 -0.008,-4.32867 -0.0156,-1.13967 -0.006,-2.27948 -7.3e-4,-3.41918 -0.007,-1.61072 0.005,-3.22139 0.003,-4.8321 4.1e-4,-1.32239 -0.008,-2.64474 -0.0146,-3.9671 -0.002,-0.49808 -0.006,-0.9961 -0.005,-1.49419 0,0 5.02811,-2.56195 5.02811,-2.56195 v 0 c 0.002,0.49964 -0.002,0.99921 -0.005,1.49884 -0.006,1.32737 -0.0152,2.65473 -0.0149,3.98213 -0.003,1.60936 0.01,3.21868 0.004,4.82805 0.007,1.13558 0.0175,2.27115 0.0183,3.40675 0.002,1.4535 0.002,2.90705 -0.0167,4.36045 -0.0242,1.48209 0.0226,3.01992 -0.54491,4.41662 -1.51875,2.71996 -4.90273,4.25719 -7.95873,4.12829 -1.52912,0.009 -3.05922,0.0371 -4.58777,-0.0165 -1.93039,-0.10128 -3.90568,-0.23998 -5.66883,-1.10738 -1.09391,-0.68454 -2.27558,-1.50459 -2.51218,-2.88686 -0.11467,-0.66991 0.15137,-1.37108 0.0128,-2.03892 0.0241,-3.21865 0.0294,-6.43928 0.19471,-9.65459 0.10454,-1.61885 0.14147,-3.28709 0.71116,-4.82747 0.0845,-0.22848 0.095,-0.52903 0.29445,-0.66886 1.65259,-1.15856 3.44362,-2.10587 5.16543,-3.15881 0.78073,-0.25898 1.61209,-0.11703 2.42347,-0.14734 1.25068,0.003 2.50135,0.005 3.75202,0.0111 2.22527,0.007 4.45068,0.0178 6.67589,-0.006 0,0 -4.54336,3.30094 -4.54336,3.30094 z"
     inkscape:connector-curvature="0"
     inkscape:export-filename="/home/matthew/Pictures/major us hubs.png"
     inkscape:export-xdpi="96"
     inkscape:export-ydpi="96" />
  <path
     style="fill:#ff0000;stroke:#ff0000"
     id="path4706"
     d="m 488.53462,498.3096 c 0.0418,-2.77766 0.0349,-5.55598 0.0333,-8.33392 9.8e-4,-1.87032 -0.0225,-3.74049 -0.0364,-5.61071 -0.006,-0.73072 -0.0111,-1.46141 -0.007,-2.19215 4e-4,-1.02169 -0.0834,-1.85844 0.26143,-2.84069 0.39401,-0.70279 0.96589,-1.24906 1.66554,-1.65006 3.42935,-1.96551 4.53647,-3.04596 7.63577,-3.63486 2.18664,-0.31614 4.40093,-0.35114 6.60637,-0.36134 1.93779,-0.0541 3.76291,0.11283 5.51642,0.97757 1.22892,0.66672 2.16575,1.61894 3.03843,2.68783 0.80035,1.01954 1.53861,2.0696 1.9498,3.30596 0.27833,1.19545 0.29414,2.42825 0.30221,3.6493 -0.0113,1.8913 -0.0218,3.78259 -0.0297,5.67391 -0.006,2.19439 -0.005,4.38881 -0.003,6.58321 -0.12704,1.52244 0.42234,3.51202 -0.64273,4.81662 -0.20848,0.25536 -0.5,0.42975 -0.75,0.64463 -1.9101,1.05146 -3.78376,2.17202 -5.73031,3.15437 -0.31025,0.15658 -0.67204,0.1789 -1.01253,0.2485 -1.35887,0.27774 -2.73778,0.30855 -4.11861,0.34337 -1.68101,0.0262 -3.36238,0.009 -5.04341,-0.008 -1.58369,0.0745 -3.13168,-0.0812 -4.68353,-0.38602 -1.75236,-0.43042 -3.44355,-1.04558 -5.04464,-1.87559 -1.1777,-0.48514 -2.03851,-1.2161 -2.62878,-2.33561 -0.30923,-0.86382 -0.32876,-1.78914 -0.34198,-2.69643 1.4e-4,-0.11829 2.8e-4,-0.23659 4.1e-4,-0.35488 0,0 5.03072,-2.55888 5.03072,-2.55888 v 0 c -0.001,0.11654 -0.003,0.23309 -0.004,0.34964 -0.005,0.8245 -0.0163,1.66567 0.21322,2.46508 0.51224,1.03166 1.37282,1.59411 2.41439,2.05457 1.56905,0.78492 3.22927,1.36696 4.94324,1.74755 1.54008,0.25825 3.0816,0.33487 4.6428,0.29699 1.66908,0.012 3.33844,0.0479 5.00743,0.006 1.02673,-0.0399 2.05202,-0.0759 3.06722,-0.25051 2.09485,-0.36021 5.32138,-2.15667 -1.91449,1.84755 0.60612,-0.3311 1.01175,-0.42386 1.34337,-1.06786 0.60124,-1.16759 0.1292,-2.66965 0.27746,-3.90635 0.002,-2.19542 0.006,-4.39084 0.007,-6.58626 -4.1e-4,-1.88357 0.005,-3.76715 -0.004,-5.65071 -0.009,-1.16735 -6.5e-4,-2.34547 -0.23103,-3.49526 -0.35776,-1.18027 -1.072,-2.16781 -1.83069,-3.12833 -0.82642,-0.99812 -1.73037,-1.87982 -2.89895,-2.47783 -1.69371,-0.72858 -3.52416,-0.85235 -5.35308,-0.78963 -2.18447,0.0289 -4.38375,0.0522 -6.53832,0.45511 -0.34094,0.0855 -0.68689,0.15299 -1.0228,0.25648 -0.30081,0.0927 -1.14662,0.50508 -0.88434,0.33106 1.27342,-0.84487 2.63022,-1.55697 3.93391,-2.35435 0.25241,-0.15438 -0.5334,0.26039 -0.77932,0.42491 -0.20751,0.13882 -0.39018,0.31215 -0.57435,0.4807 -0.14542,0.13308 -0.27547,0.28203 -0.41321,0.42304 -0.17878,0.32174 -0.3064,0.47335 -0.3544,0.83977 -0.0766,0.58475 0.0574,1.19642 0.004,1.78379 0.004,0.73315 -7.9e-4,1.46626 -0.007,2.19939 -0.0139,1.8826 -0.0373,3.76514 -0.0364,5.64783 -0.002,2.76664 -0.009,5.53366 0.0333,8.30002 0,0 -5.00729,2.55134 -5.00729,2.55134 z"
     inkscape:connector-curvature="0"
     inkscape:export-filename="/home/matthew/Pictures/major us hubs.png"
     inkscape:export-xdpi="96"
     inkscape:export-ydpi="96" />
  <path
     style="fill:#ff0000;stroke:#ff0000"
     id="path4708"
     d="m 686.74095,192.51474 c -1.64552,-0.0152 -3.29113,-0.004 -4.93668,-10e-4 -0.87929,0.006 -1.75861,0.005 -2.63791,0.009 -0.72031,-0.0444 -1.41228,0.0169 -2.11855,0.14079 -1.84164,1.35124 1.03928,-0.78651 4.0257,-2.14746 0.22929,-0.10449 -0.30809,0.39989 -0.44099,0.61396 -0.43249,0.69661 -0.67781,1.43454 -0.9061,2.21467 -0.38266,1.74242 -0.42474,3.53352 -0.45073,5.31011 -0.0107,1.09942 0.006,2.19879 0.0108,3.29818 0.008,1.04503 0.006,2.09 0.002,3.13504 -0.004,1.38653 -0.002,2.77306 -0.002,4.15959 0.0509,0.93206 -0.0647,1.87923 0.0407,2.80799 0.006,0.0214 0.0277,0.221 0.10916,0.23845 0.14845,0.0318 0.30332,-0.0217 0.4551,-0.0182 0.17355,0.004 0.34699,0.0118 0.52049,0.0177 0.22914,0.005 0.45827,0.009 0.68741,0.014 1.7874,0.12918 3.14597,-0.36705 4.77943,-0.96986 0.29559,-0.12126 0.59201,-0.24054 0.88678,-0.36379 1.04382,-0.43641 0.60613,-0.23022 1.55749,-0.76597 0.24692,-0.13905 0.98765,-0.55623 0.74166,-0.41554 -4.41941,2.52756 -5.43131,3.24542 -3.55106,1.95575 1.15129,-0.74596 1.86228,-1.87459 2.50737,-3.05089 0.85876,-1.46884 1.40379,-3.03453 1.72494,-4.6973 0.37374,-2.40327 0.41797,-4.83964 0.446,-7.26653 0.009,-1.42854 -0.005,-2.85708 -0.0216,-4.2855 -0.01,-0.5874 0.12434,-0.72503 -0.47558,-0.86681 0,0 4.70114,-3.11155 4.70114,-3.11155 v 0 c 0.65008,0.40563 0.84933,0.63435 0.79539,1.41716 -0.003,1.44173 -0.0112,2.88345 -0.0336,4.32504 -0.0385,2.45131 -0.0499,4.91125 -0.40017,7.34317 -0.10752,0.68185 -0.19915,1.43375 -0.4005,2.10081 -0.28778,0.95344 -0.79186,1.84726 -1.21404,2.74316 -0.64115,1.20955 -1.26827,2.46676 -2.40932,3.28648 -2.81403,2.10332 -5.99709,3.80622 -9.26823,5.09886 -1.59529,0.56496 -3.20749,0.9483 -4.91697,0.8108 -0.81122,-0.0275 -1.95806,0.0909 -2.2143,-0.89646 -0.18054,-0.94899 0.0224,-1.94255 -0.0496,-2.90241 -8.1e-4,-1.38544 0.002,-2.77088 -0.003,-4.15631 -0.005,-1.04248 -0.009,-2.08495 -0.0115,-3.12743 -0.007,-1.10634 -0.0122,-2.21283 0.002,-3.31912 0.0375,-1.81637 0.0834,-3.64233 0.40213,-5.43538 0.83732,-3.5809 2.58775,-5.33855 6.88483,-6.47859 0.72227,-0.0969 1.44691,-0.0782 2.17452,-0.0746 0.87136,0.003 1.74274,0.002 2.6141,0.009 1.64672,0.003 3.29348,0.0139 4.94017,-0.001 0,0 -4.54652,3.30324 -4.54652,3.30324 z"
     inkscape:connector-curvature="0"
     inkscape:export-filename="/home/matthew/Pictures/major us hubs.png"
     inkscape:export-xdpi="96"
     inkscape:export-ydpi="96" />
  <path
     style="fill:#ff0000;stroke:#ff0000"
     id="path4710"
     d="m 524.17848,149.3246 c -3.22652,-0.17415 -6.4576,-0.24441 -9.6881,-0.29294 -1.36311,-0.0171 -2.72635,-0.0264 -4.08956,-0.019 -1.7639,0.0107 -5.5312,2.36248 3.97348,-2.38185 0.10437,-0.0521 -0.14376,0.1847 -0.20199,0.28578 -0.13356,0.23184 -0.14007,0.35901 -0.20133,0.62412 -0.007,1.21264 -0.2599,2.53353 0.0655,3.72495 0.096,0.35173 0.28463,0.67136 0.42694,1.00704 0.8216,1.26409 1.78595,2.48302 2.95833,3.44517 0.017,0.0139 1.30686,0.9332 1.3485,0.96289 1.37193,1.12361 2.61952,2.38771 3.92645,3.58417 0.75337,0.79757 1.47608,1.56777 2.52276,1.95084 0.84193,0.20336 1.72209,0.15503 2.58211,0.157 0.64708,-0.002 1.29414,-0.004 1.94121,-0.008 0.2138,-0.001 0.4324,0.0408 0.6414,-0.004 0.19475,-0.042 0.3616,-0.16733 0.5424,-0.25099 -1.44288,0.78126 -2.88576,1.56251 -4.32864,2.34377 0.14235,-0.18792 0.31125,-0.3584 0.42703,-0.56375 0.77886,-1.38145 0.76168,-3.18133 0.84301,-4.71422 0.06,-1.46485 0.0383,-2.93103 0.0281,-4.39654 0.003,-1.45093 -0.009,-2.90184 -0.0165,-4.35275 -0.12113,-0.8902 0.17433,-1.87532 -0.0625,-2.7481 -0.45167,-0.25555 -1.1182,-0.19898 -1.63496,-0.20324 -0.76083,0.006 -1.52162,0.0152 -2.28248,0.0196 -0.6581,-0.0409 -1.2799,0.0135 -1.918,0.15776 0,0 4.50505,-3.40088 4.50505,-3.40088 v 0 c 0.65367,-0.0957 1.31137,-0.0665 1.97065,-0.0737 0.76774,-0.008 1.5359,-0.0278 2.30351,-0.004 0.74282,0.047 1.5536,0.0999 2.00447,0.77727 0.33827,0.91027 0.008,1.96969 0.12161,2.92293 -0.002,1.44999 -0.006,2.90011 0.0153,4.34998 0.0108,1.48051 0.0167,2.96173 -0.0441,4.44137 -0.0957,1.92335 -0.1194,3.93822 -1.05564,5.67399 -1.77391,1.07003 -3.51265,2.20068 -5.32174,3.21009 -0.60077,0.3352 -2.48149,0.018 -3.23094,0.12741 -0.91641,-0.006 -1.85994,0.0223 -2.72337,-0.33297 -1.03905,-0.50287 -1.81773,-1.29276 -2.59553,-2.13338 -1.27646,-1.19682 -2.52035,-2.43555 -3.89186,-3.52497 -0.32885,-0.24004 -1.08052,-0.7793 -1.37325,-1.03402 -1.19901,-1.04334 -2.19792,-2.31963 -3.05999,-3.64613 -0.16966,-0.37848 -0.38707,-0.73899 -0.509,-1.13543 -0.37753,-1.22755 -0.1186,-2.58084 -0.18662,-3.83968 0.19001,-2.69121 3.41661,-4.45095 6.05423,-4.33156 1.34517,0.0138 2.69028,0.0317 4.035,0.0711 3.24133,0.0846 6.48217,0.18512 9.72297,0.28804 0,0 -4.54383,3.26673 -4.54383,3.26673 z"
     inkscape:connector-curvature="0"
     inkscape:export-filename="/home/matthew/Pictures/major us hubs.png"
     inkscape:export-xdpi="96"
     inkscape:export-ydpi="96" />
  <path
     style="fill:#ff0000;stroke:#ff0000"
     id="path4712"
     d="m 215.28714,226.55977 c -2.51017,-0.0264 -5.02054,-0.013 -7.53079,-0.0125 -0.38023,0.0544 -0.76777,0.0712 -1.14069,0.16328 -0.3466,0.0855 -1.31589,0.5444 -1.00632,0.3666 1.2858,-0.7385 2.54213,-1.57566 3.94541,-2.05467 0.36981,-0.12624 -0.50288,0.60396 -0.69399,0.94481 -0.46875,0.836 -0.60563,1.55608 -0.85583,2.46895 -0.36758,2.00738 -0.62361,4.23775 0.20646,6.17805 0.11205,0.26192 0.27608,0.4984 0.41412,0.7476 1.22591,1.30999 2.92531,1.86739 4.64492,2.17499 1.31024,0.16337 2.6347,0.14082 3.95238,0.12403 0.9199,-0.0173 1.83995,-0.0234 2.75998,-0.0285 0.9041,-0.001 1.8082,-0.003 2.71229,-0.004 0.71182,-0.002 1.42365,-0.003 2.13547,-7.3e-4 0.34054,-0.086 1.11524,0.11358 1.41213,-7.2e-4 0.10345,-0.0398 0.33892,-0.28158 0.24157,-0.22854 -1.53774,0.83776 -3.04793,1.72513 -4.57189,2.5877 0.0796,-0.0987 0.17896,-0.18429 0.23888,-0.29604 0.4976,-0.92801 0.41449,-2.84837 0.44618,-3.88425 0.0401,-2.37695 0.0352,-4.75455 0.0135,-7.13167 -0.0149,-1.17404 -0.021,-2.34816 -0.0328,-3.52222 -0.066,-0.38219 0.18021,-1.23444 -0.15992,-1.4653 -0.79056,-0.19931 -1.63147,-0.15448 -2.4416,-0.16442 -0.0419,-1.3e-4 -1.31876,-0.005 -1.35162,-0.002 -1.42674,0.14366 -6.84557,2.89521 3.69113,-2.21528 0.23024,-0.11168 -0.38735,0.33789 -0.5507,0.53488 -0.17872,0.21553 -0.31339,0.46409 -0.47009,0.69613 -0.6099,0.9335 -0.82106,2.03803 -1.29404,3.03136 0,0 -5.14788,2.28515 -5.14788,2.28515 v 0 c 0.66788,-0.90453 0.70374,-2.10561 1.3181,-3.05576 0.0605,-0.10529 0.77901,-1.3908 0.90565,-1.47114 4.38517,-2.78207 4.06453,-3.17202 7.44913,-3.09816 0.91541,0.0174 1.9464,-0.0721 2.71554,0.51031 0.54088,0.64586 0.3447,1.06557 0.36282,1.85203 -0.009,1.18224 -0.008,2.36454 -0.0167,3.54679 -0.01,2.38171 0.007,4.76343 -0.009,7.14512 -0.0213,1.52257 0.0292,3.10192 -0.44163,4.56671 -4.61069,2.77131 -3.62226,3.15641 -6.87033,3.09508 -0.71092,0.002 -1.42187,10e-4 -2.13279,-9.8e-4 -0.90305,-4.4e-4 -1.80612,-0.002 -2.70915,0.005 -0.91767,0.005 -1.83524,0.0179 -2.7529,0.0237 -1.33751,-6.6e-4 -2.68611,0.005 -4.00738,-0.22842 -1.84448,-0.42398 -3.62518,-1.12201 -4.89165,-2.59459 -0.15188,-0.28089 -0.33107,-0.54865 -0.45565,-0.84267 -0.86128,-2.03269 -0.66277,-4.35421 -0.32669,-6.47188 0.18226,-0.75549 0.74442,-3.26014 1.3885,-3.72801 3.04362,-2.21093 4.65754,-3.61406 7.88325,-3.83251 2.52177,5.1e-4 5.04365,0.0137 7.56534,-0.0126 0,0 -4.54019,3.29864 -4.54019,3.29864 z"
     inkscape:connector-curvature="0"
     inkscape:export-filename="/home/matthew/Pictures/major us hubs.png"
     inkscape:export-xdpi="96"
     inkscape:export-ydpi="96" />
  <path
     style="fill:#ff0000;stroke:#ff0000"
     id="path4714"
     d="m 567.35692,267.03483 c -2.35335,-0.0263 -4.70751,-0.12646 -7.02125,0.36346 -1.85824,0.58483 -5.15101,2.44574 2.74204,-1.79325 0.24527,-0.13172 -0.4651,0.30739 -0.68315,0.48048 -0.77543,0.61552 -0.80996,0.72575 -1.48541,1.48989 -1.98786,2.55126 -2.45288,5.09522 -2.82604,8.22404 -0.15361,1.62177 -0.21927,3.24993 -0.25442,4.87799 -0.0213,0.98727 -0.0659,1.58081 0.0947,2.54937 0.0594,0.3582 0.17482,0.70482 0.26223,1.05723 0.76131,1.8915 1.81374,2.45802 3.69773,2.96077 1.97458,0.39689 4.007,0.35291 6.01218,0.36776 2.6089,0.007 5.21777,-0.007 7.82661,-0.0223 0.0799,-0.005 1.53549,-0.0959 1.69705,-0.13971 0.22816,-0.0619 0.8475,-0.41881 0.63998,-0.30558 -1.39484,0.76103 -2.73665,1.63674 -4.20272,2.24943 -0.28575,0.11942 0.40528,-0.47114 0.57202,-0.73211 0.17881,-0.27986 0.30688,-0.58907 0.46031,-0.8836 0.74119,-1.6577 0.92342,-3.46954 1.02577,-5.26114 0.0566,-1.34854 0.0296,-2.69847 0.0253,-4.04767 -0.007,-1.41673 -0.0111,-2.83349 -0.013,-4.25024 -0.12507,-1.52428 -1.01891,-2.75421 -1.8593,-3.97223 -0.59199,-0.77343 -1.00277,-1.69436 -1.86297,-2.20525 -0.69413,-0.35526 -1.26061,-0.8736 -1.88032,-1.33347 -0.51777,-0.34001 -1.10705,-0.42794 -1.70234,-0.53976 0,0 4.6073,-3.19808 4.6073,-3.19808 v 0 c 0.65964,0.16332 1.30216,0.31238 1.8576,0.72969 0.60389,0.46878 1.21434,0.90848 1.87051,1.30275 0.85006,0.63477 1.35028,1.54323 1.95118,2.40036 0.89036,1.31862 1.81845,2.64421 2.01949,4.26696 0.002,1.41534 0.003,2.83066 0.0151,4.24596 0.0131,1.3606 0.0235,2.72182 -0.0186,4.08204 -0.0933,1.8514 -0.26647,3.72857 -0.94999,5.46875 -0.1008,0.2289 -0.67676,1.63826 -0.92661,1.8145 -3.9917,2.81557 -4.29252,3.50486 -7.83671,3.58783 -2.60804,6.5e-4 -5.21603,0.012 -7.82406,0.0139 -2.04547,-0.0119 -4.12802,0.0212 -6.12539,-0.47919 -2.03305,-0.65264 -3.16626,-1.41151 -3.98107,-3.46633 -0.097,-0.37807 -0.22274,-0.74991 -0.29113,-1.13419 -0.19143,-1.07557 -0.14138,-1.52842 -0.11093,-2.62366 0.0457,-1.64464 0.12,-3.28922 0.25738,-4.92897 0.33193,-3.18836 0.72635,-5.81788 2.64025,-8.49391 0.23329,-0.29891 0.44881,-0.61257 0.69985,-0.89674 0.23532,-0.26638 1.02647,-1.02831 1.37049,-1.23458 2.55704,-1.53315 4.30851,-2.98077 6.95308,-3.59778 2.34782,-0.37479 4.7179,-0.26275 7.08787,-0.28511 0,0 -4.5307,3.29175 -4.5307,3.29175 z"
     inkscape:connector-curvature="0"
     inkscape:export-filename="/home/matthew/Pictures/major us hubs.png"
     inkscape:export-xdpi="96"
     inkscape:export-ydpi="96" />
  <path
     style="fill:#ff0000;stroke:#ff0000"
     id="path4716"
     d="m 811.22946,222.85833 c 0.0345,-2.04166 0.0137,-4.08366 0.006,-6.12545 0.0267,-1.25326 -0.0865,-2.51459 0.0594,-3.76152 0.0747,-0.1956 0.11914,-0.40566 0.22418,-0.58679 0.11059,-0.1907 0.22839,-0.3974 0.41481,-0.51508 4.60501,-2.90689 4.42232,-3.2508 8.3966,-3.61589 1.86838,-0.12759 3.74143,-0.14911 5.6134,-0.14584 1.40088,0.0198 2.55191,0.73783 3.61426,1.57765 0.95424,0.7525 1.69783,1.70903 2.38219,2.70319 0.7148,1.11291 1.16373,2.36601 1.44912,3.65057 0.19136,1.00454 0.24142,2.02447 0.26403,3.04403 0.008,0.70976 0.004,1.41962 10e-4,2.12941 0.0196,0.79385 0.0329,1.47392 -0.25941,2.22574 -0.76401,1.24417 -2.07635,1.95989 -3.29681,2.68465 -1.81837,1.05089 -3.63674,2.10177 -5.45511,3.15266 -0.21216,0.10818 -0.84199,0.44482 -0.63646,0.32453 1.41756,-0.82965 5.69306,-3.27925 4.27344,-2.45313 -0.6166,0.35882 -4.0682,2.72189 -6.08129,3.38767 -0.7135,0.089 -1.35807,0.375 -2.02229,0.62434 -0.66162,0.2128 -1.35606,0.29012 -2.04732,0.32204 -0.99006,0.01 -1.98019,0.009 -2.97029,0.006 -0.89844,-0.001 -1.79688,-0.001 -2.69532,2.2e-4 -0.7671,-0.003 -1.5342,0.002 -2.30129,-0.002 -1.12859,-0.31546 -1.92118,-1.02209 -2.38931,-2.07753 -0.19622,-0.80745 -0.4772,-1.58619 -0.71813,-2.38074 -0.41029,-1.3314 -0.55603,-2.717 -0.64998,-4.10053 -0.0916,-1.54127 -0.0914,-3.0859 -0.0963,-4.62928 0.049,-1.18301 -0.18456,-2.40669 0.23661,-3.53571 1.97405,-2.74085 5.14993,-3.50854 8.18234,-3.62831 0,0 -4.53336,3.33008 -4.53336,3.33008 v 0 c -0.60057,0.0394 -1.20538,0.0759 -1.79433,0.2106 -0.2048,0.0469 -0.78151,0.28885 -0.60587,0.1736 2.76579,-1.81485 5.90122,-3.41989 3.89638,-2.38665 -0.0856,0.10236 -0.19758,0.18754 -0.25689,0.30709 -0.32011,0.64524 -0.0211,2.22808 -0.12726,2.98174 6.9e-4,1.53317 5.4e-4,3.06723 0.0766,4.59894 0.0861,1.34031 0.20334,2.68941 0.61834,3.9753 0.22633,0.77714 0.54485,1.52251 0.68422,2.32412 0.36297,0.87854 1.06901,1.4391 2.03737,1.524 0.76884,-0.004 1.53771,3.2e-4 2.30656,-8.3e-4 0.89435,0.003 1.78869,0.006 2.68303,0.009 0.98682,-7.9e-4 1.97554,0.0137 2.96065,-0.0525 0.66479,-0.0713 1.32528,-0.18951 1.94579,-0.44904 0.65854,-0.25429 1.34679,-0.39334 2.00925,-0.6326 0.25083,-0.12527 0.98639,-0.53322 0.74396,-0.39239 -1.44476,0.83922 -5.79477,3.3295 -4.33865,2.51015 1.79291,-1.00886 3.56367,-2.0566 5.34906,-3.0787 0.20426,-0.11694 0.82302,-0.45702 0.61977,-0.33833 -1.37599,0.80347 -2.7588,1.5952 -4.1382,2.3928 1.19075,-0.70264 2.46039,-1.33716 3.39618,-2.38306 0.49691,-0.73159 0.35209,-1.14478 0.3604,-1.98157 0.005,-0.7081 0.0134,-1.4162 0.0127,-2.12434 -0.005,-0.98772 -0.0362,-1.97768 -0.1985,-2.95424 -0.24605,-1.21865 -0.65992,-2.40608 -1.33431,-3.45853 -0.66124,-0.94228 -1.38358,-1.84329 -2.30013,-2.5526 -1.01313,-0.76657 -2.08488,-1.32885 -3.39664,-1.27912 -1.85148,-0.002 -3.70617,0.005 -5.55135,0.17701 -0.7369,0.0941 -1.32872,0.14018 -2.04232,0.34027 -0.28542,0.08 -1.08408,0.46476 -0.83659,0.3016 1.34929,-0.88958 2.77266,-1.66135 4.15899,-2.49202 -0.16196,0.11306 -0.3448,0.20095 -0.48588,0.33919 -0.12408,0.12158 -0.19813,0.2854 -0.29719,0.4281 -0.26694,1.20273 -0.0355,2.46584 -0.12162,3.68963 -0.008,2.03985 -0.0289,4.07992 0.006,6.11964 0,0 -5.0038,2.54956 -5.0038,2.54956 z"
     inkscape:connector-curvature="0"
     inkscape:export-filename="/home/matthew/Pictures/major us hubs.png"
     inkscape:export-xdpi="96"
     inkscape:export-ydpi="96" />
  <path
     style="fill:#ff0000;stroke:#ff0000"
     id="path4718"
     d="m 711.15786,203.84918 c 2.87821,-0.34196 5.72258,-0.89725 8.59603,-1.27029 1.99073,-0.23113 3.98582,-0.43608 5.98954,-0.50256 0.88305,-0.0222 1.76647,-0.0205 2.64972,-0.0162 0.77635,0.006 1.55274,0.007 2.32912,0.008 1.45137,-0.0558 1.74985,1.6497 1.96606,2.75467 0.25138,1.92704 0.30179,3.87248 0.32577,5.81336 -0.0322,0.5983 0.11477,1.39763 -0.24273,1.94241 -0.13205,0.20123 -0.30283,0.39071 -0.51283,0.50831 -5.44936,3.05189 -3.66195,2.69323 -6.70606,3.10644 -2.30771,0.22424 -4.63124,0.17745 -6.94686,0.171 -2.03267,-0.01 -4.06535,-0.012 -6.09804,-0.018 -1.39197,0.0201 -2.71192,0.47888 -4.02779,0.88267 -0.66021,0.21225 -1.34254,0.2506 -2.0288,0.2686 -0.25963,-0.0702 -1.12426,0.10708 -1.32861,8.4e-4 -0.1196,-0.0622 -0.19826,-0.18268 -0.29739,-0.27402 -0.58516,-1.15854 -0.58315,-2.50878 -0.63314,-3.78006 -0.0287,-1.3494 -0.0335,-2.69919 -0.0364,-4.04885 0.002,-0.77569 -0.004,-1.55138 8.4e-4,-2.32705 0.002,-0.51188 10e-4,-0.25421 0.002,-0.773 0,0 5.02605,-2.56055 5.02605,-2.56055 v 0 c 3.1e-4,0.51834 4e-5,0.26096 8e-4,0.77216 0.002,0.77798 -0.009,1.55594 -0.0123,2.33392 -0.011,1.34557 -0.0242,2.69146 0.0109,4.03682 0.0374,1.09928 0.0337,2.25156 0.4029,3.29914 0.47284,1e-4 0.946,0.005 1.41841,-0.0197 0.65883,-0.0429 1.30466,-0.16666 1.93401,-0.36966 1.33879,-0.38685 2.68963,-0.76878 4.0991,-0.73073 2.02401,0.007 4.04787,0.0307 6.07188,0.0362 2.3033,0.002 4.61963,0.0428 6.90812,-0.25814 2.61809,-0.51936 0.74526,-0.26746 -2.99704,2.28018 -0.18198,0.12389 0.4487,-0.0729 0.6303,-0.19731 0.49369,-0.33833 0.34465,-1.26902 0.37204,-1.73327 -0.009,-1.91114 -0.0269,-3.82853 -0.27347,-5.72679 -0.10787,-0.57927 -0.17643,-1.78006 -0.88549,-2.03716 -0.13139,-0.0476 -0.57355,-0.0376 -0.70493,-0.0382 -0.77851,-9.8e-4 -1.557,-0.003 -2.3355,-0.006 -0.87159,-0.005 -1.74342,-0.0105 -2.61467,0.0202 -1.97047,0.0813 -3.93611,0.25273 -5.89306,0.49781 -2.89127,0.39926 -5.76207,0.93159 -8.65681,1.30954 0,0 4.49843,-3.35456 4.49843,-3.35456 z"
     inkscape:connector-curvature="0"
     inkscape:export-filename="/home/matthew/Pictures/major us hubs.png"
     inkscape:export-xdpi="96"
     inkscape:export-ydpi="96" />
</svg>
