<?xml version="1.0" encoding="UTF-8" standalone="no"?>
<svg
   xmlns:dc="http://purl.org/dc/elements/1.1/"
   xmlns:cc="http://creativecommons.org/ns#"
   xmlns:rdf="http://www.w3.org/1999/02/22-rdf-syntax-ns#"
   xmlns:svg="http://www.w3.org/2000/svg"
   xmlns="http://www.w3.org/2000/svg"
   xmlns:sodipodi="http://sodipodi.sourceforge.net/DTD/sodipodi-0.dtd"
   xmlns:inkscape="http://www.inkscape.org/namespaces/inkscape"
   width="959"
   height="593"
   version="1.1"
   id="svg3328"
   sodipodi:docname="priority score top 20.svg"
   inkscape:version="0.92.1 r15371"
   inkscape:export-filename="/home/matthew/Documents/poliecon/AMTRAK/cost under 1000.svg.png"
   inkscape:export-xdpi="500"
   inkscape:export-ydpi="500">
  <metadata
     id="metadata3334">
    <rdf:RDF>
      <cc:Work
         rdf:about="">
        <dc:format>image/svg+xml</dc:format>
        <dc:type
           rdf:resource="http://purl.org/dc/dcmitype/StillImage" />
        <dc:title>Blank US states map</dc:title>
      </cc:Work>
    </rdf:RDF>
  </metadata>
  <defs
     id="defs3332" />
  <sodipodi:namedview
     pagecolor="#ffffff"
     bordercolor="#666666"
     borderopacity="1"
     objecttolerance="10"
     gridtolerance="10"
     guidetolerance="10"
     inkscape:pageopacity="0"
     inkscape:pageshadow="2"
     inkscape:window-width="3775"
     inkscape:window-height="2136"
     id="namedview3330"
     showgrid="false"
     inkscape:zoom="2.92805"
     inkscape:cx="362.96395"
     inkscape:cy="289.43421"
     inkscape:window-x="65"
     inkscape:window-y="24"
     inkscape:window-maximized="1"
     inkscape:current-layer="svg3328" />
  <title
     id="title3271">Blank US states map</title>
  <g
     id="outlines">
    <path
       id="AK"
       fill="#D3D3D3"
       d="M161.1,453.7 l-0.3,85.4 1.6,1 3.1,0.2 1.5,-1.1 h2.6 l0.2,2.9 7,6.8 0.5,2.6 3.4,-1.9 0.6,-0.2 0.3,-3.1 1.5,-1.6 1.1,-0.2 1.9,-1.5 3.1,2.1 0.6,2.9 1.9,1.1 1.1,2.4 3.9,1.8 3.4,6 2.7,3.9 2.3,2.7 1.5,3.7 5,1.8 5.2,2.1 1,4.4 0.5,3.1 -1,3.4 -1.8,2.3 -1.6,-0.8 -1.5,-3.1 -2.7,-1.5 -1.8,-1.1 -0.8,0.8 1.5,2.7 0.2,3.7 -1.1,0.5 -1.9,-1.9 -2.1,-1.3 0.5,1.6 1.3,1.8 -0.8,0.8 c0,0 -0.8,-0.3 -1.3,-1 -0.5,-0.6 -2.1,-3.4 -2.1,-3.4 l-1,-2.3 c0,0 -0.3,1.3 -1,1 -0.6,-0.3 -1.3,-1.5 -1.3,-1.5 l1.8,-1.9 -1.5,-1.5 v-5 h-0.8 l-0.8,3.4 -1.1,0.5 -1,-3.7 -0.6,-3.7 -0.8,-0.5 0.3,5.7 v1.1 l-1.5,-1.3 -3.6,-6 -2.1,-0.5 -0.6,-3.7 -1.6,-2.9 -1.6,-1.1 v-2.3 l2.1,-1.3 -0.5,-0.3 -2.6,0.6 -3.4,-2.4 -2.6,-2.9 -4.8,-2.6 -4,-2.6 1.3,-3.2 v-1.6 l-1.8,1.6 -2.9,1.1 -3.7,-1.1 -5.7,-2.4 h-5.5 l-0.6,0.5 -6.5,-3.9 -2.1,-0.3 -2.7,-5.8 -3.6,0.3 -3.6,1.5 0.5,4.5 1.1,-2.9 1,0.3 -1.5,4.4 3.2,-2.7 0.6,1.6 -3.9,4.4 -1.3,-0.3 -0.5,-1.9 -1.3,-0.8 -1.3,1.1 -2.7,-1.8 -3.1,2.1 -1.8,2.1 -3.4,2.1 -4.7,-0.2 -0.5,-2.1 3.7,-0.6 v-1.3 l-2.3,-0.6 1,-2.4 2.3,-3.9 v-1.8 l0.2,-0.8 4.4,-2.3 1,1.3 h2.7 l-1.3,-2.6 -3.7,-0.3 -5,2.7 -2.4,3.4 -1.8,2.6 -1.1,2.3 -4.2,1.5 -3.1,2.6 -0.3,1.6 2.3,1 0.8,2.1 -2.7,3.2 -6.5,4.2 -7.8,4.2 -2.1,1.1 -5.3,1.1 -5.3,2.3 1.8,1.3 -1.5,1.5 -0.5,1.1 -2.7,-1 -3.2,0.2 -0.8,2.3 h-1 l0.3,-2.4 -3.6,1.3 -2.9,1 -3.4,-1.3 -2.9,1.9 h-3.2 l-2.1,1.3 -1.6,0.8 -2.1,-0.3 -2.6,-1.1 -2.3,0.6 -1,1 -1.6,-1.1 v-1.9 l3.1,-1.3 6.3,0.6 4.4,-1.6 2.1,-2.1 2.9,-0.6 1.8,-0.8 2.7,0.2 1.6,1.3 1,-0.3 2.3,-2.7 3.1,-1 3.4,-0.6 1.3,-0.3 0.6,0.5 h0.8 l1.3,-3.7 4,-1.5 1.9,-3.7 2.3,-4.5 1.6,-1.5 0.3,-2.6 -1.6,1.3 -3.4,0.6 -0.6,-2.4 -1.3,-0.3 -1,1 -0.2,2.9 -1.5,-0.2 -1.5,-5.8 -1.3,1.3 -1.1,-0.5 -0.3,-1.9 -4,0.2 -2.1,1.1 -2.6,-0.3 1.5,-1.5 0.5,-2.6 -0.6,-1.9 1.5,-1 1.3,-0.2 -0.6,-1.8 v-4.4 l-1,-1 -0.8,1.5 h-6.1 l-1.5,-1.3 -0.6,-3.9 -2.1,-3.6 v-1 l2.1,-0.8 0.2,-2.1 1.1,-1.1 -0.8,-0.5 -1.3,0.5 -1.1,-2.7 1,-5 4.5,-3.2 2.6,-1.6 1.9,-3.7 2.7,-1.3 2.6,1.1 0.3,2.4 2.4,-0.3 3.2,-2.4 1.6,0.6 1,0.6 h1.6 l2.3,-1.3 0.8,-4.4 c0,0 0.3,-2.9 1,-3.4 0.6,-0.5 1,-1 1,-1 l-1.1,-1.9 -2.6,0.8 -3.2,0.8 -1.9,-0.5 -3.6,-1.8 -5,-0.2 -3.6,-3.7 0.5,-3.9 0.6,-2.4 -2.1,-1.8 -1.9,-3.7 0.5,-0.8 6.8,-0.5 h2.1 l1,1 h0.6 l-0.2,-1.6 3.9,-0.6 2.6,0.3 1.5,1.1 -1.5,2.1 -0.5,1.5 2.7,1.6 5,1.8 1.8,-1 -2.3,-4.4 -1,-3.2 1,-0.8 -3.4,-1.9 -0.5,-1.1 0.5,-1.6 -0.8,-3.9 -2.9,-4.7 -2.4,-4.2 2.9,-1.9 h3.2 l1.8,0.6 4.2,-0.2 3.7,-3.6 1.1,-3.1 3.7,-2.4 1.6,1 2.7,-0.6 3.7,-2.1 1.1,-0.2 1,0.8 4.5,-0.2 2.7,-3.1 h1.1 l3.6,2.4 1.9,2.1 -0.5,1.1 0.6,1.1 1.6,-1.6 3.9,0.3 0.3,3.7 1.9,1.5 7.1,0.6 6.3,4.2 1.5,-1 5.2,2.6 2.1,-0.6 1.9,-0.8 4.8,1.9z m-115.1,28.9 2.1,5.3 -0.2,1 -2.9,-0.3 -1.8,-4 -1.8,-1.5 h-2.4 l-0.2,-2.6 1.8,-2.4 1.1,2.4 1.5,1.5z m-2.6,33.5 3.7,0.8 3.7,1 0.8,1 -1.6,3.7 -3.1,-0.2 -3.4,-3.6z m-20.7,-14.1 1.1,2.6 1.1,1.6 -1.1,0.8 -2.1,-3.1 v-1.9z m-13.7,73.1 3.4,-2.3 3.4,-1 2.6,0.3 0.5,1.6 1.9,0.5 1.9,-1.9 -0.3,-1.6 2.7,-0.6 2.9,2.6 -1.1,1.8 -4.4,1.1 -2.7,-0.5 -3.7,-1.1 -4.4,1.5 -1.6,0.3z m48.9,-4.5 1.6,1.9 2.1,-1.6 -1.5,-1.3z m2.9,3 1.1,-2.3 2.1,0.3 -0.8,1.9 h-2.4z m23.6,-1.9 1.5,1.8 1,-1.1 -0.8,-1.9z m8.8,-12.5 1.1,5.8 2.9,0.8 5,-2.9 4.4,-2.6 -1.6,-2.4 0.5,-2.4 -2.1,1.3 -2.9,-0.8 1.6,-1.1 1.9,0.8 3.9,-1.8 0.5,-1.5 -2.4,-0.8 0.8,-1.9 -2.7,1.9 -4.7,3.6 -4.8,2.9z m42.3,-19.8 2.4,-1.5 -1,-1.8 -1.8,1z" />
    <path
       id="HI"
       fill="#D3D3D3"
       d="M233.1,519.3 l1.9,-3.6 2.3,-0.3 0.3,0.8 -2.1,3.1z m10.2,-3.7 6.1,2.6 2.1,-0.3 1.6,-3.9 -0.6,-3.4 -4.2,-0.5 -4,1.8z m30.7,10 3.7,5.5 2.4,-0.3 1.1,-0.5 1.5,1.3 3.7,-0.2 1,-1.5 -2.9,-1.8 -1.9,-3.7 -2.1,-3.6 -5.8,2.9z m20.2,8.9 1.3,-1.9 4.7,1 0.6,-0.5 6.1,0.6 -0.3,1.3 -2.6,1.5 -4.4,-0.3z m5.3,5.2 1.9,3.9 3.1,-1.1 0.3,-1.6 -1.6,-2.1 -3.7,-0.3z m7,-1.2 2.3,-2.9 4.7,2.4 4.4,1.1 4.4,2.7 v1.9 l-3.6,1.8 -4.8,1 -2.4,-1.5z m16.6,15.6 1.6,-1.3 3.4,1.6 7.6,3.6 3.4,2.1 1.6,2.4 1.9,4.4 4,2.6 -0.3,1.3 -3.9,3.2 -4.2,1.5 -1.5,-0.6 -3.1,1.8 -2.4,3.2 -2.3,2.9 -1.8,-0.2 -3.6,-2.6 -0.3,-4.5 0.6,-2.4 -1.6,-5.7 -2.1,-1.8 -0.2,-2.6 2.3,-1 2.1,-3.1 0.5,-1 -1.6,-1.8z" />
    <path
       id="AL"
       fill="#D3D3D3"
       d="M628.5,466.4 l0.6,0.2 1.3,-2.7 1.5,-4.4 2.3,0.6 3.1,6 v1 l-2.7,1.9 2.7,0.3 5.2,-2.5 -0.3,-7.6 -2.5,-1.8 -2,-2 0.4,-4 10.5,-1.5 25.7,-2.9 6.7,-0.6 5.6,0.1 -0.5,-2.2 -1.5,-0.8 -0.9,-1.1 1,-2.6 -0.4,-5.2 -1.6,-4.5 0.8,-5.1 1.7,-4.8 -0.2,-1.7 -1.8,-0.7 -0.5,-3.6 -2.7,-3.4 -2,-6.5 -1.4,-6.7 -1.8,-5 -3.8,-16 -3.5,-7.9 -0.8,-5.6 0.1,-2.2 -9,0.8 -23.4,2.2 -12.2,0.8 -0.2,6.4 0.2,16.7 -0.7,31 -0.3,14.1 2.8,18.8 1.6,14.7z" />
    <path
       id="AR"
       fill="#D3D3D3"
       d="M587.3,346.1 l-6.4,-0.7 0.9,-3.1 3.1,-2.6 0.6,-2.3 -1.8,-2.9 -31.9,1.2 -23.3,0.7 -23.6,0.3 1.5,6.9 0.1,8.5 1.4,10.9 0.3,38.2 2.1,1.6 3,-1.2 2.9,1.2 0.4,10.1 25.2,-0.2 26.8,-0.8 0.9,-1.9 -0.3,-3.8 -1.7,-3.1 1.5,-1.4 -1.4,-2.2 0.7,-2.4 1.1,-5.9 2.7,-2.3 -0.8,-2.2 4,-5.6 2.5,-1.1 -0.1,-1.7 -0.5,-1.7 2.9,-5.8 2.5,-1.1 0.2,-3.3 2.1,-1.4 0.9,-4.1 -1.4,-4 4.2,-2.4 0.3,-2.1 1.2,-4.2 0.9,-3.1z" />
    <path
       id="AZ"
       fill="#D3D3D3"
       d="M135.1,389.7 l-0.3,1.5 0.5,1 18.9,10.7 12.1,7.6 14.7,8.6 16.8,10 12.3,2.4 25.4,2.7 6,-39.6 7,-53.1 4.4,-31 -24.6,-3.6 -60.7,-11 -0.2,1.1 -2.6,16.5 -2.1,3.8 -2.8,-0.2 -1.2,-2.6 -2.6,-0.4 -1.2,-1.1 -1.1,0.1 -2.1,1.7 -0.3,6.8 -0.3,1.5 -0.5,12.5 -1.5,2.4 -0.4,3.3 2.8,5 1.1,5.5 0.7,1.1 1.1,0.9 -0.4,2.4 -1.7,1.2 -3.4,1.6 -1.6,1.8 -1.6,3.6 -0.5,4.9 -3,2.9 -1.9,0.9 -0.1,5.8 -0.6,1.6 0.5,0.8 3.9,0.4 -0.9,3 -1.7,2.4 -3.7,0.4z" />
    <path
       id="CA"
       fill="#D3D3D3"
       d="M122.7,385.9 l-19.7,-2.7 -10,-1.5 -0.5,-1.8 v-9.4 l-0.3,-3.2 -2.6,-4.2 -0.8,-2.3 -3.9,-4.2 -2.9,-4.7 -2.7,-0.2 -3.2,-0.8 -0.3,-1 1.5,-0.6 -0.6,-3.2 -1.5,-2.1 -4.8,-0.8 -3.9,-2.1 -1.1,-2.3 -2.6,-4.8 -2.9,-3.1 h-2.9 l-3.9,-2.1 -4.5,-1.8 -4.2,-0.5 -2.4,-2.7 0.5,-1.9 1.8,-7.1 0.8,-1.9 v-2.4 l-1.6,-1 -0.5,-2.9 -1.5,-2.6 -3.4,-5.8 -1.3,-3.1 -1.5,-4.7 -1.6,-5.3 -3.2,-4.4 -0.5,-2.9 0.8,-3.9 h1.1 l2.1,-1.6 1.1,-3.6 -1,-2.7 -2.7,-0.5 -1.9,-2.6 -2.1,-3.7 -0.2,-8.2 0.6,-1.9 0.6,-2.3 0.5,-2.4 -5.7,-6.3 v-2.1 l0.3,-0.5 0.3,-3.2 -1.3,-4 -2.3,-4.8 -2.7,-4.5 -1.8,-3.9 1,-3.7 0.6,-5.8 1.8,-3.1 0.3,-6.5 -1.1,-3.6 -1.6,-4.2 -2.7,-4.2 0.8,-3.2 1.5,-4.2 1.8,-0.8 0.3,-1.1 3.1,-2.6 5.2,-11.8 0.2,-7.4 1.69,-4.9 38.69,11.8 25.6,6.6 -8,31.3 -8.67,33.1 12.63,19.2 42.16,62.3 17.1,26.1 -0.4,3.1 2.8,5.2 1.1,5.4 1,1.5 0.7,0.6 -0.2,1.4 -1.4,1 -3.4,1.6 -1.9,2.1 -1.7,3.9 -0.5,4.7 -2.6,2.5 -2.3,1.1 -0.1,6.2 -0.6,1.9 1,1.7 3,0.3 -0.4,1.6 -1.4,2 -3.9,0.6z m-73.9,-48.9 1.3,1.5 -0.2,1.3 -3.2,-0.1 -0.6,-1.2 -0.6,-1.5z m1.9,0 1.2,-0.6 3.6,2.1 3.1,1.2 -0.9,0.6 -4.5,-0.2 -1.6,-1.6z m20.7,19.8 1.8,2.3 0.8,1 1.5,0.6 0.6,-1.5 -1,-1.8 -2.7,-2 -1.1,0.2 v1.2z m-1.4,8.7 1.8,3.2 1.2,1.9 -1.5,0.2 -1.3,-1.2 c0,0 -0.7,-1.5 -0.7,-1.9 0,-0.4 0,-2.2 0,-2.2z" />
    <path
       id="CO"
       fill="#D3D3D3"
       d="M380.2,235.5 l-36,-3.5 -79.1,-8.6 -2.2,22.1 -7,50.4 -1.9,13.7 34,3.9 37.5,4.4 34.7,3 14.3,0.6z" />
    <path
       id="CT"
       fill="#D3D3D3"
       d="M852,190.9 l3.6,-3.2 1.9,-2.1 0.8,0.6 2.7,-1.5 5.2,-1.1 7,-3.5 -0.6,-4.2 -0.8,-4.4 -1.6,-6 -4.3,1.1 -21.8,4.7 0.6,3.1 1.5,7.3 v8.3 l-0.9,2.1 1.7,2.2z" />
    <path
       id="DE"
       fill="#D3D3D3"
       d="M834.4,247.2 l-1,0.5 -3.6,-2.4 -1.8,-4.7 -1.9,-3.6 -2.3,-1 -2.1,-3.6 0.5,-2 0.5,-2.3 0.1,-1.1 -0.6,0.1 -1.7,1 -2,1.7 -0.2,0.3 1.4,4.1 2.3,5.6 3.7,16.1 5,-0.3 6,-1.1z" />
    <path
       id="FL"
       fill="#D3D3D3"
       d="M750.2,445.2 l-5.2,-0.7 -0.7,0.8 1.5,4.4 -0.4,5.2 -4.1,-1 -0.2,-2.8 h-4.1 l-5.3,0.7 -32.4,1.9 -8.2,-0.3 -1.7,-1.7 -2.5,-4.2 h-5.9 l-6.6,0.5 -35.4,4.2 -0.3,2.8 1.6,1.6 2.9,2 0.3,8.4 3.3,-0.6 6,-2.1 6,-0.5 4.4,-0.6 7.6,1.8 8.1,3.9 1.6,1.5 2.9,1.1 1.6,1.9 0.3,2.7 3.2,-1.3 h3.9 l3.6,-1.9 3.7,-3.6 3.1,0.2 0.5,-1.1 -0.8,-1 0.2,-1.9 4,-0.8 h2.6 l2.9,1.5 4.2,1.5 2.4,3.7 2.7,1 1.1,3.4 3.4,1.6 1.6,2.6 1.9,0.6 5.2,1.3 1.3,3.1 3,3.7 v9.5 l-1.5,4.7 0.3,2.7 1.3,4.8 1.8,4 0.8,-0.5 1.5,-4.5 -2.6,-1 -0.3,-0.6 1.6,-0.6 4.5,1 0.2,1.6 -3.2,5.5 -2.1,2.4 3.6,3.7 2.6,3.1 2.9,5.3 2.9,3.9 2.1,5 1.8,0.3 1.6,-2.1 1.8,1.1 2.6,4 0.6,3.6 3.1,4.4 0.8,-1.3 3.9,0.3 3.6,2.3 3.4,5.2 0.8,3.4 0.3,2.9 1.1,1 1.3,0.5 2.4,-1 1.5,-1.6 3.9,-0.2 3.1,-1.5 2.7,-3.2 -0.5,-1.9 -0.3,-2.4 0.6,-1.9 -0.3,-1.9 2.4,-1.3 0.3,-3.4 -0.6,-1.8 -0.5,-12 -1.3,-7.6 -4.5,-8.2 -3.6,-5.8 -2.6,-5.3 -2.9,-2.9 -2.9,-7.4 0.7,-1.4 1.1,-1.3 -1.6,-2.9 -4,-3.7 -4.8,-5.5 -3.7,-6.3 -5.3,-9.4 -3.7,-9.7 -2.3,-7.3z m17.7,132.7 2.4,-0.6 1.3,-0.2 1.5,-2.3 2.3,-1.6 1.3,0.5 1.7,0.3 0.4,1.1 -3.5,1.2 -4.2,1.5 -2.3,1.2z m13.5,-5 1.2,1.1 2.7,-2.1 5.3,-4.2 3.7,-3.9 2.5,-6.6 1,-1.7 0.2,-3.4 -0.7,0.5 -1,2.8 -1.5,4.6 -3.2,5.3 -4.4,4.2 -3.4,1.9z" />
    <path
       id="GA"
       fill="#D3D3D3"
       d="M750.2,444.2 l-5.6,-0.7 -1.4,1.6 1.6,4.7 -0.3,3.9 -2.2,-0.6 -0.2,-3 h-5.2 l-5.3,0.7 -32.3,1.9 -7.7,-0.3 -1.4,-1.2 -2.5,-4.3 -0.8,-3.3 -1.6,-0.9 -0.5,-0.5 0.9,-2.2 -0.4,-5.5 -1.6,-4.5 0.8,-4.9 1.7,-4.8 -0.2,-2.5 -1.9,-0.7 -0.4,-3.2 -2.8,-3.5 -1.9,-6.2 -1.5,-7 -1.7,-4.8 -3.8,-16 -3.5,-8 -0.8,-5.3 0.1,-2.3 3.3,-0.3 13.6,-1.6 18.6,-2 6.3,-1.1 0.5,1.4 -2.2,0.9 -0.9,2.2 0.4,2 1.4,1.6 4.3,2.7 3.2,-0.1 3.2,4.7 0.6,1.6 2.3,2.8 0.5,1.7 4.7,1.8 3,2.2 2.3,3 2.3,1.3 2,1.8 1.4,2.7 2.1,1.9 4.1,1.8 2.7,6 1.7,5.1 2.8,0.7 2.1,1.9 2,5.7 2.9,1.6 1.7,-0.8 0.4,1.2 -3.3,6.2 0.5,2.6 -1.5,4.2 -2.3,10 0.8,6.3z" />
    <path
       id="IA"
       fill="#D3D3D3"
       d="M556.8,183.6 l2.1,2.1 0.3,0.7 -2,3 0.3,4 2.6,4.1 3.1,1.6 2.4,0.3 0.9,1.8 0.2,2.4 2.5,1 0.9,1.1 0.5,1.6 3.8,3.3 0.6,1.9 -0.7,3 -1.7,3.7 -0.6,2.4 -2.1,1.6 -1.6,0.5 -5.7,1.5 -1.6,4.8 0.8,1.8 1.7,1.5 -0.2,3.5 -1.9,1.4 -0.7,1.8 v2.4 l-1.4,0.4 -1.7,1.4 -0.5,1.7 0.4,1.7 -1.3,1 -2.3,-2.7 -1.4,-2.8 -8.3,0.8 -10,0.6 -49.2,1.2 -1.6,-4.3 -0.4,-6.7 -1.4,-4.2 -0.7,-5.2 -2.2,-3.7 -1,-4.6 -2.7,-7.8 -1.1,-5.6 -1.4,-1.9 -1.3,-2.9 1.7,-3.8 1.2,-6.1 -2.7,-2.2 -0.3,-2.4 0.7,-2.4 1.8,-0.3 61.1,-0.6 21.2,-0.7z" />
    <path
       id="ID"
       fill="#D3D3D3"
       d="M175.3,27.63 l-4.8,17.41 -4.5,20.86 -3.4,16.22 -0.4,9.67 1.2,4.44 3.5,2.66 -0.2,3.91 -3.9,4.4 -4.5,6.6 -0.9,2.9 -1.2,1.1 -1.8,0.8 -4.3,5.3 -0.4,3.1 -0.4,1.1 0.6,1 2.6,-0.1 1.1,2.3 -2.4,5.8 -1.2,4.2 -8.8,35.3 20.7,4.5 39.5,7.9 34.8,6.1 4.9,-29.2 3.8,-24.1 -2.7,-2.4 -0.4,-2.6 -0.8,-1.1 -2.1,1 -0.7,2.6 -3.2,0.5 -3.9,-1.6 -3.8,0.1 -2.5,0.7 -3.4,-1.5 -2.4,0.2 -2.4,2 -2,-1.1 -0.7,-4 0.7,-2.9 -2.5,-2.9 -3.3,-2.6 -2.7,-13.1 -0.1,-4.7 -0.3,-0.1 -0.2,0.4 -5.1,3.5 -1.7,-0.2 -2.9,-3.4 -0.2,-3.1 7,-17.13 -0.4,-1.94 -3.4,-1.15 -0.6,-1.18 -2.6,-3.46 -4.6,-10.23 -3.2,-1.53 -2,-4.95 1.3,-4.63 -3.2,-7.58 4.4,-21.52z" />
    <path
       id="IL"
       fill="#D3D3D3"
       d="M618.7,214.3 l-0.8,-2.6 -1.3,-3.7 -1.6,-1.8 -1.5,-2.6 -0.4,-5.5 -15.9,1.8 -17.4,1 h-12.3 l0.2,2.1 2.2,0.9 1.1,1.4 0.4,1.4 3.9,3.4 0.7,2.4 -0.7,3.3 -1.7,3.7 -0.8,2.7 -2.4,1.9 -1.9,0.6 -5.2,1.3 -1.3,4.1 0.6,1.1 1.9,1.8 -0.2,4.3 -2.1,1.6 -0.5,1.3 v2.8 l-1.8,0.6 -1.4,1.2 -0.4,1.2 0.4,2 -1.6,1.3 -0.9,2.8 0.3,3.9 2.3,7 7,7.6 5.7,3.7 v4.4 l0.7,1.2 6.6,0.6 2.7,1.4 -0.7,3.5 -2.2,6.2 -0.8,3 2,3.7 6.4,5.3 4.8,0.8 2.2,5.1 2,3.4 -0.9,2.8 1.5,3.8 1.7,2.1 1.6,-0.3 1,-2.2 2.4,-1.7 2.8,-1 6.1,2.5 0.5,-0.2 v-1.1 l-1.2,-2.7 0.4,-2.8 2.4,-1.6 3.4,-1.2 -0.5,-1.3 -0.8,-2 1.2,-1.3 1,-2.7 v-4 l0.4,-4.9 2.5,-3 1.8,-3.8 2.5,-4 -0.5,-5.3 -1.8,-3.2 -0.3,-3.3 0.8,-5.3 -0.7,-7.2 -1.1,-15.8 -1.4,-15.3 -0.9,-11.7z" />
    <path
       id="IN"
       fill="#D3D3D3"
       d="M622.9,216.1 l1.5,1 1.1,-0.3 2.1,-1.9 2.5,-1.8 14.3,-1.1 18.4,-1.8 1.6,15.5 4.9,42.6 -0.6,2.9 1.3,1.6 0.2,1.3 -2.3,1.6 -3.6,1.7 -3.2,0.4 -0.5,4.8 -4.7,3.6 -2.9,4 0.2,2.4 -0.5,1.4 h-3.5 l-1.4,-1.7 -5.2,3 0.2,3.1 -0.9,0.2 -0.5,-0.9 -2.4,-1.7 -3.6,1.5 -1.4,2.9 -1.2,-0.6 -1.6,-1.8 -4.4,0.5 -5.7,1 -2.5,1.3 v-2.6 l0.4,-4.7 2.3,-2.9 1.8,-3.9 2.7,-4.2 -0.5,-5.8 -1.8,-3.1 -0.3,-3.2 0.8,-5.3 -0.7,-7.1 -0.9,-12.6 -2.5,-30.1z" />
    <path
       id="KS"
       fill="#D3D3D3"
       d="M485.9,259.5 l-43.8,-0.6 -40.6,-1.2 -21.7,-0.9 -4.3,64.8 24.3,1 44.7,2.1 46.3,0.6 12.6,-0.3 0.7,-35 -1.2,-11.1 -2.5,-2 -2.4,-3 -2.3,-3.6 0.6,-3 1.7,-1.4 v-2.1 l-0.8,-0.7 -2.6,-0.2 -3.5,-3.4z" />
    <path
       id="KY"
       fill="#D3D3D3"
       d="M607.2,331.8 l12.6,-0.7 0.1,-4.1 h4.3 l30.4,-3.2 45.1,-4.3 5.6,-3.6 3.9,-2.1 0.1,-1.9 6,-7.8 4.1,-3.6 2.1,-2.4 -3.3,-2 -2.5,-2.7 -3,-3.8 -0.5,-2.2 -2.6,-1.4 -0.9,-1.9 -0.2,-6.1 -2.6,-2 -1.9,-1.1 -0.5,-2.3 -1.3,0.2 -2,1.2 -2.5,2.7 -1.9,-1.7 -2.5,-0.5 -2.4,1.4 h-2.3 l-1.8,-2 -5.6,-0.1 -1.8,-4.5 -2.9,-1.5 -2.1,0.8 -4.2,0.2 -0.5,2.1 1.2,1.5 0.3,2.1 -2.8,2 -3.8,1.8 -2.6,0.4 -0.5,4.5 -4.9,3.6 -2.6,3.7 0.2,2.2 -0.9,2.3 -4.5,-0.1 -1.3,-1.3 -3.9,2.2 0.2,3.3 -2.4,0.6 -0.8,-1.4 -1.7,-1.2 -2.7,1.1 -1.8,3.5 -2.2,-1 -1.4,-1.6 -3.7,0.4 -5.6,1 -2.8,1.3 -1.2,3.4 -1,1 1.5,3.7 -4.2,1.4 -1.9,1.4 -0.4,2.2 1.2,2.4 v2.2 l-1.6,0.4 -6.1,-2.5 -2.3,0.9 -2,1.4 -0.8,1.8 1.7,2.4 -0.9,1.8 -0.1,3.3 -2.4,1.3 -2.1,1.7z" />
    <path
       id="LA"
       fill="#D3D3D3"
       d="M526.9,485.9 l8.1,-0.3 10.3,3.6 6.5,1.1 3.7,-1.5 3.2,1.1 3.2,1 0.8,-2.1 -3.2,-1.1 -2.6,0.5 -2.7,-1.6 0.8,-1.5 3.1,-1 1.8,1.5 1.8,-1 3.2,0.6 1.5,2.4 0.3,2.3 4.5,0.3 1.8,1.8 -0.8,1.6 -1.3,0.8 1.6,1.6 8.4,3.6 3.6,-1.3 1,-2.4 2.6,-0.6 1.8,-1.5 1.3,1 0.8,2.9 -2.3,0.8 0.6,0.6 3.4,-1.3 2.3,-3.4 0.8,-0.5 -2.1,-0.3 0.8,-1.6 -0.2,-1.5 2.1,-0.5 1.1,-1.3 0.6,0.8 0.6,3.1 4.2,0.6 4,1.9 1,1.5 h2.9 l1.1,1 2.3,-3.1 v-1.5 h-1.3 l-3.4,-2.7 -5.8,-0.8 -3.2,-2.3 1.1,-2.7 2.3,0.3 0.2,-0.6 -1.8,-1 v-0.5 h3.2 l1.8,-3.1 -1.3,-1.9 -0.3,-2.7 -1.5,0.2 -1.9,2.1 -0.6,2.6 -3.1,-0.6 -1,-1.8 1.8,-1.9 1.9,-1.7 -2.2,-6.5 -3.4,-3.4 1,-7.3 -0.2,-0.5 -1.3,0.2 -33.1,1.4 -0.8,-2.4 0.8,-8.5 8.6,-14.8 -0.9,-2.6 1.4,-0.4 0.4,-2 -2.2,-2 0.1,-1.9 -2,-4.5 -0.4,-5.1 0.1,-0.7 -26.4,0.8 -25.2,0.1 0.4,9.7 0.7,9.5 0.5,3.7 2.6,4.5 0.9,4.4 4.3,6 0.3,3.1 0.6,0.8 -0.7,8.3 -2.8,4.6 1.2,2.4 -0.5,2.6 -0.8,7.3 -1.3,3 0.2,3.7z" />
    <path
       id="MA"
       fill="#D3D3D3"
       d="M887.5,172.5 l-0.5,-2.3 0.8,-1.5 2.9,-1.5 0.8,3.1 -0.5,1.8 -2.4,1.5 v1 l1.9,-1.5 3.9,-4.5 3.9,-1.9 4.2,-1.5 -0.3,-2.4 -1,-2.9 -1.9,-2.4 -1.8,-0.8 -2.1,0.2 -0.5,0.5 1,1.3 1.5,-0.8 2.1,1.6 0.8,2.7 -1.8,1.8 -2.3,1 -3.6,-0.5 -3.9,-6 -2.3,-2.6 h-1.8 l-1.1,0.8 -1.9,-2.6 0.3,-1.5 2.4,-5.2 -2.9,-4.4 -3.7,1.8 -1.8,2.9 -18.3,4.7 -13.8,2.5 -0.6,10.6 0.7,4.9 22,-4.8 11.2,-2.8 2,1.6 3.4,4.3 2.9,4.7z m12.5,1.4 2.2,-0.7 0.5,-1.7 1,0.1 1,2.3 -1.3,0.5 -3.9,0.1z m-9.4,0.8 2.3,-2.6 h1.6 l1.8,1.5 -2.4,1 -2.2,1z" />
    <path
       id="MD"
       fill="#D3D3D3"
       d="M834.8,264.1 l1.7,-3.8 0.5,-4.8 -6.3,1.1 -5.8,0.3 -3.8,-16.8 -2.3,-5.5 -1.5,-4.6 -22.2,4.3 -37.6,7.6 2,10.4 4.8,-4.9 2.5,-0.7 1.4,-1.5 1.8,-2.7 1.6,0.7 2.6,-0.2 2.6,-2.1 2,-1.5 2.1,-0.6 1.5,1.1 2.7,1.4 1.9,1.8 1.3,1.4 4.8,1.6 -0.6,2.9 5.8,2.1 2.1,-2.6 3.7,2.5 -2.1,3.3 -0.7,3.3 -1.8,2.6 v2.1 l0.3,0.8 2,1.3 3.4,1.1 4.3,-0.1 3.1,1 2.1,0.3 1,-2.1 -1.5,-2.1 v-1.8 l-2.4,-2.1 -2.1,-5.5 1.3,-5.3 -0.2,-2.1 -1.3,-1.3 c0,0 1.5,-1.6 1.5,-2.3 0,-0.6 0.5,-2.1 0.5,-2.1 l1.9,-1.3 1.9,-1.6 0.5,1 -1.5,1.6 -1.3,3.7 0.3,1.1 1.8,0.3 0.5,5.5 -2.1,1 0.3,3.6 0.5,-0.2 1.1,-1.9 1.6,1.8 -1.6,1.3 -0.3,3.4 2.6,3.4 3.9,0.5 1.6,-0.8 3.2,4.2 1,0.4z m-14.5,0.2 1.1,2.5 0.2,1.8 1.1,1.9 c0,0 0.9,-0.9 0.9,-1.2 0,-0.3 -0.7,-3.1 -0.7,-3.1 l-0.7,-2.3z" />
    <path
       id="ME"
       fill="#D3D3D3"
       d="M865.8,91.9 l1.5,0.4 v-2.6 l0.8,-5.5 2.6,-4.7 1.5,-4 -1.9,-2.4 v-6 l0.8,-1 0.8,-2.7 -0.2,-1.5 -0.2,-4.8 1.8,-4.8 2.9,-8.9 2.1,-4.2 h1.3 l1.3,0.2 v1.1 l1.3,2.3 2.7,0.6 0.8,-0.8 v-1 l4,-2.9 1.8,-1.8 1.5,0.2 6,2.4 1.9,1 9.1,29.9 h6 l0.8,1.9 0.2,4.8 2.9,2.3 h0.8 l0.2,-0.5 -0.5,-1.1 2.8,-0.5 1.9,2.1 2.3,3.7 v1.9 l-2.1,4.7 -1.9,0.6 -3.4,3.1 -4.8,5.5 c0,0 -0.6,0 -1.3,0 -0.6,0 -1,-2.1 -1,-2.1 l-1.8,0.2 -1,1.5 -2.4,1.5 -1,1.5 1.6,1.5 -0.5,0.6 -0.5,2.7 -1.9,-0.2 v-1.6 l-0.3,-1.3 -1.5,0.3 -1.8,-3.2 -2.1,1.3 1.3,1.5 0.3,1.1 -0.8,1.3 0.3,3.1 0.2,1.6 -1.6,2.6 -2.9,0.5 -0.3,2.9 -5.3,3.1 -1.3,0.5 -1.6,-1.5 -3.1,3.6 1,3.2 -1.5,1.3 -0.2,4.4 -1.1,6.3 -2.2,-0.9 -0.5,-3.1 -4,-1.1 -0.2,-2.5 -11.7,-37.43z m36.5,15.6 1.5,-1.5 1.4,1.1 0.6,2.4 -1.7,0.9z m6.7,-5.9 1.8,1.9 c0,0 1.3,0.1 1.3,-0.2 0,-0.3 0.2,-2 0.2,-2 l0.9,-0.8 -0.8,-1.8 -2,0.7z" />
    <path
       id="MI"
       fill="#D3D3D3"
       d="M644.5,211 l19.1,-1.9 0.2,1.1 9.9,-1.5 12,-1.7 0.1,-0.6 0.2,-1.5 2.1,-3.7 2,-1.7 -0.2,-5.1 1.6,-1.6 1.1,-0.3 0.2,-3.6 1.5,-3 1.1,0.6 0.2,0.6 0.8,0.2 1.9,-1 -0.4,-9.1 -3.2,-8.2 -2.3,-9.1 -2.4,-3.2 -2.6,-1.8 -1.6,1.1 -3.9,1.8 -1.9,5 -2.7,3.7 -1.1,0.6 -1.5,-0.6 c0,0 -2.6,-1.5 -2.4,-2.1 0.2,-0.6 0.5,-5 0.5,-5 l3.4,-1.3 0.8,-3.4 0.6,-2.6 2.4,-1.6 -0.3,-10 -1.6,-2.3 -1.3,-0.8 -0.8,-2.1 0.8,-0.8 1.6,0.3 0.2,-1.6 -2.6,-2.2 -1.3,-2.6 h-2.6 l-4.5,-1.5 -5.5,-3.4 h-2.7 l-0.6,0.6 -1,-0.5 -3.1,-2.3 -2.9,1.8 -2.9,2.3 0.3,3.6 1,0.3 2.1,0.5 0.5,0.8 -2.6,0.8 -2.6,0.3 -1.5,1.8 -0.3,2.1 0.3,1.6 0.3,5.5 -3.6,2.1 -0.6,-0.2 v-4.2 l1.3,-2.4 0.6,-2.4 -0.8,-0.8 -1.9,0.8 -1,4.2 -2.7,1.1 -1.8,1.9 -0.2,1 0.6,0.8 -0.6,2.6 -2.3,0.5 v1.1 l0.8,2.4 -1.1,6.1 -1.6,4 0.6,4.7 0.5,1.1 -0.8,2.4 -0.3,0.8 -0.3,2.7 3.6,6 2.9,6.5 1.5,4.8 -0.8,4.7 -1,6 -2.4,5.2 -0.3,2.7 -3.2,3.1z m-33.3,-72.4 -1.3,-1.1 -1.8,-10.4 -3.7,-1.3 -1.7,-2.3 -12.6,-2.8 -2.8,-1.1 -8.1,-2.2 -7.8,-1 -3.9,-5.3 0.7,-0.5 2.7,-0.8 3.6,-2.3 v-1 l0.6,-0.6 6,-1 2.4,-1.9 4.4,-2.1 0.2,-1.3 1.9,-2.9 1.8,-0.8 1.3,-1.8 2.3,-2.3 4.4,-2.4 4.7,-0.5 1.1,1.1 -0.3,1 -3.7,1 -1.5,3.1 -2.3,0.8 -0.5,2.4 -2.4,3.2 -0.3,2.6 0.8,0.5 1,-1.1 3.6,-2.9 1.3,1.3 h2.3 l3.2,1 1.5,1.1 1.5,3.1 2.7,2.7 3.9,-0.2 1.5,-1 1.6,1.3 1.6,0.5 1.3,-0.8 h1.1 l1.6,-1 4,-3.6 3.4,-1.1 6.6,-0.3 4.5,-1.9 2.6,-1.3 1.5,0.2 v5.7 l0.5,0.3 2.9,0.8 1.9,-0.5 6.1,-1.6 1.1,-1.1 1.5,0.5 v7 l3.2,3.1 1.3,0.6 1.3,1 -1.3,0.3 -0.8,-0.3 -3.7,-0.5 -2.1,0.6 -2.3,-0.2 -3.2,1.5 h-1.8 l-5.8,-1.3 -5.2,0.2 -1.9,2.6 -7,0.6 -2.4,0.8 -1.1,3.1 -1.3,1.1 -0.5,-0.2 -1.5,-1.6 -4.5,2.4 h-0.6 l-1.1,-1.6 -0.8,0.2 -1.9,4.4 -1,4 -3.2,6.9z m-29.6,-56.5 1.8,-2.1 2.2,-0.8 5.4,-3.9 2.3,-0.6 0.5,0.5 -5.1,5.1 -3.3,1.9 -2.1,0.9z m86.2,32.1 0.6,2.5 3.2,0.2 1.3,-1.2 c0,0 -0.1,-1.5 -0.4,-1.6 -0.3,-0.2 -1.6,-1.9 -1.6,-1.9 l-2.2,0.2 -1.6,0.2 -0.3,1.1z" />
    <path
       id="MN"
       fill="#D3D3D3"
       d="M464.6,66.79 l-0.6,3.91 v10.27 l1.6,5.03 1.9,3.32 0.5,9.93 1.8,13.45 1.8,7.3 0.4,6.4 v5.3 l-1.6,1.8 -1.8,1.3 v1.5 l0.9,1.7 4.1,3.5 0.7,3.2 v35.9 l60.3,-0.6 21.2,-0.7 -0.5,-6 -1.8,-2.1 -7.2,-4.6 -3.6,-5.3 -3.4,-0.9 -2,-2.8 h-3.2 l-3.5,-3.8 -0.5,-7 0.1,-3.9 1.5,-3 -0.7,-2.7 -2.8,-3.1 2.2,-6.1 5.4,-4 1.2,-1.4 -0.2,-8 0.2,-3 2.6,-3 3.8,-2.9 1.3,-0.2 4.5,-5 1.8,-0.8 2.3,-3.9 2.4,-3.6 3.1,-2.6 4.8,-2 9.2,-4.1 3.9,-1.8 0.6,-2.3 -4.4,0.4 -0.7,1.1 h-0.6 l-1.8,-3.1 -8.9,0.3 -1,0.8 h-1 l-0.5,-1.3 -0.8,-1.8 -2.6,0.5 -3.2,3.2 -1.6,0.8 h-3.1 l-2.6,-1 v-2.1 l-1.3,-0.2 -0.5,0.5 -2.6,-1.3 -0.5,-2.9 -1.5,0.5 -0.5,1 -2.4,-0.5 -5.3,-2.4 -3.9,-2.6 h-2.9 l-1.3,-1 -2.3,0.6 -1.1,1.1 -0.3,1.3 h-4.8 v-2.1 l-6.3,-0.3 -0.3,-1.5 h-4.8 l-1.6,-1.6 -1.5,-6.1 -0.8,-5.5 -1.9,-0.8 -2.3,-0.5 -0.6,0.2 -0.3,8.2 -30.1,-0.03z" />
    <path
       id="MO"
       fill="#D3D3D3"
       d="M593.1,338.7 l0.5,-5.9 4.2,-3.4 1.9,-1 v-2.9 l0.7,-1.6 -1.1,-1.6 -2.4,0.3 -2.1,-2.5 -1.7,-4.5 0.9,-2.6 -2,-3.2 -1.8,-4.6 -4.6,-0.7 -6.8,-5.6 -2.2,-4.2 0.8,-3.3 2.2,-6 0.6,-3 -1.9,-1 -6.9,-0.6 -1.1,-1.9 v-4.1 l-5.3,-3.5 -7.2,-7.8 -2.3,-7.3 -0.5,-4.2 0.7,-2.4 -2.6,-3.1 -1.2,-2.4 -7.7,0.8 -10,0.6 -48.8,1.2 1.3,2.6 -0.1,2.2 2.3,3.6 3,3.9 3.1,3 2.6,0.2 1.4,1.1 v2.9 l-1.8,1.6 -0.5,2.3 2.1,3.2 2.4,3 2.6,2.1 1.3,11.6 -0.8,40 0.5,5.7 23.7,-0.2 23.3,-0.7 32.5,-1.3 2.2,3.7 -0.8,3.1 -3.1,2.5 -0.5,1.8 5.2,0.5 4.1,-1.1z" />
    <path
       id="MS"
       fill="#D3D3D3"
       d="M604.3,472.5 l2.6,-4.2 1.8,0.8 6.8,-1.9 2.1,0.3 1.5,0.8 h5.2 l0.4,-1.6 -1.7,-14.8 -2.8,-19 1,-45.1 -0.2,-16.7 0.2,-6.3 -4.8,0.3 -19.6,1.6 -13,0.4 -0.2,3.2 -2.8,1.3 -2.6,5.1 0.5,1.6 0.1,2.4 -2.9,1.1 -3.5,5.1 0.8,2.3 -3,2.5 -1,5.7 -0.6,1.9 1.6,2.5 -1.5,1.4 1.5,2.8 0.3,4.2 -1.2,2.5 -0.2,0.9 0.4,5 2,4.5 -0.1,1.7 2.3,2 -0.7,3.1 -0.9,0.3 0.6,1.9 -8.6,15 -0.8,8.2 0.5,1.5 24.2,-0.7 8.2,-0.7 1.9,-0.3 0.6,1.4 -1,7.1 3.3,3.3 2.2,6.4z" />
    <path
       id="MT"
       fill="#D3D3D3"
       d="M361.1,70.77 l-5.3,57.13 -1.3,15.2 -59.1,-6.6 -49,-7.1 -1.4,11.2 -1.9,-1.7 -0.4,-2.5 -1.3,-1.9 -3.3,1.5 -0.7,2.5 -2.3,0.3 -3.8,-1.6 -4.1,0.1 -2.4,0.7 -3.2,-1.5 -3,0.2 -2.1,1.9 -0.9,-0.6 -0.7,-3.4 0.7,-3.2 -2.7,-3.2 -3.3,-2.5 -2.5,-12.6 -0.1,-5.3 -1.6,-0.8 -0.6,1 -4.5,3.2 -1.2,-0.1 -2.3,-2.8 -0.2,-2.8 7,-17.15 -0.6,-2.67 -3.5,-1.12 -0.4,-0.91 -2.7,-3.5 -4.6,-10.41 -3.2,-1.58 -1.8,-4.26 1.3,-4.63 -3.2,-7.57 4.4,-21.29 32.7,6.89 18.4,3.4 32.3,5.3 29.3,4 29.2,3.5 30.8,3.07z" />
    <path
       id="NC"
       fill="#D3D3D3"
       d="M786.7,357.7 l-12.7,-7.7 -3.1,-0.8 -16.6,2.1 -1.6,-3 -2.8,-2.2 -16.7,0.5 -7.4,0.9 -9.2,4.5 -6.8,2.7 -6.5,1.2 -13.4,1.4 0.1,-4.1 1.7,-1.3 2.7,-0.7 0.7,-3.8 3.9,-2.5 3.9,-1.5 4.5,-3.7 4.4,-2.3 0.7,-3.2 4.1,-3.8 0.7,1 2.5,0.2 2.4,-3.6 1.7,-0.4 2.6,0.3 1.8,-4 2.5,-2.4 0.5,-1.8 0.1,-3.5 4.4,0.1 38.5,-5.6 57.5,-12.3 2,4.8 3.6,6.5 2.4,2.4 0.6,2.3 -2.4,0.2 0.8,0.6 -0.3,4.2 -2.6,1.3 -0.6,2.1 -1.3,2.9 -3.7,1.6 -2.4,-0.3 -1.5,-0.2 -1.6,-1.3 0.3,1.3 v1 h1.9 l0.8,1.3 -1.9,6.3 h4.2 l0.6,1.6 2.3,-2.3 1.3,-0.5 -1.9,3.6 -3.1,4.8 h-1.3 l-1.1,-0.5 -2.7,0.6 -5.2,2.4 -6.5,5.3 -3.4,4.7 -1.9,6.5 -0.5,2.4 -4.7,0.5 -5.1,1.5z m49.3,-26.2 2.6,-2.5 3.2,-2.6 1.5,-0.6 0.2,-2 -0.6,-6.1 -1.5,-2.3 -0.6,-1.9 0.7,-0.2 2.7,5.5 0.4,4.4 -0.2,3.4 -3.4,1.5 -2.8,2.4 -1.1,1.2z" />
    <path
       id="ND"
       fill="#D3D3D3"
       d="M471,126.4 l-0.4,-6.2 -1.8,-7.3 -1.8,-13.61 -0.5,-9.7 -1.9,-3.18 -1.6,-5.32 v-10.41 l0.6,-3.85 -1.8,-5.54 -28.6,-0.59 -18.6,-0.6 -26.5,-1.3 -25.2,-2.16 -0.9,14.42 -4.7,50.94 56.8,3.9 56.9,1.7z" />
    <path
       id="NE"
       fill="#D3D3D3"
       d="M470.3,204.3 l-1,-2.3 -0.5,-1.6 -2.9,-1.6 -4.8,-1.5 -2.2,-1.2 -2.6,0.1 -3.7,0.4 -4.2,1.2 -6,-4.1 -2.2,-2 -10.7,0.6 -41.5,-2.4 -35.6,-2.2 -4.3,43.7 33.1,3.3 -1.4,21.1 21.7,1 40.6,1.2 43.8,0.6 h4.5 l-2.2,-3 -2.6,-3.9 0.1,-2.3 -1.4,-2.7 -1.9,-5.2 -0.4,-6.7 -1.4,-4.1 -0.5,-5 -2.3,-3.7 -1,-4.7 -2.8,-7.9 -1,-5.3z" />
    <path
       id="NH"
       fill="#D3D3D3"
       d="M881.7,141.3 l1.1,-3.2 -2.7,-1.2 -0.5,-3.1 -4.1,-1.1 -0.3,-3 -11.7,-37.48 -0.7,0.08 -0.6,1.6 -0.6,-0.5 -1,-1 -1.5,1.9 -0.2,2.29 0.5,8.41 1.9,2.8 v4.3 l-3.9,4.8 -2.4,0.9 v0.7 l1.1,1.9 v8.6 l-0.8,9.2 -0.2,4.7 1,1.4 -0.2,4.7 -0.5,1.5 1,1.1 5.1,-1.2 13.8,-3.5 1.7,-2.9 4,-1.9z" />
    <path
       id="NJ"
       fill="#D3D3D3"
       d="M823.7,228.3 l0.1,-1.5 2.7,-1.3 1.7,-2.8 1.7,-2.4 3.3,-3.2 v-1.2 l-6.1,-4.1 -1,-2.7 -2.7,-0.3 -0.1,-0.9 -0.7,-2.2 2.2,-1.1 0.2,-2.9 -1.3,-1.3 0.2,-1.2 1.9,-3.1 v-3.1 l2.5,-3.1 5.6,2.5 6.4,1.9 2.5,1.2 0.1,1.8 -0.5,2.7 0.4,4.5 -2.1,1.9 -1.1,1 0.5,0.5 2.7,-0.3 1.1,-0.8 1.6,3.4 0.2,9.4 0.6,1.1 -1.1,5.5 -3.1,6.5 -2.7,4 -0.8,4.8 -2.1,2.4 h-0.8 l-0.3,-2.7 0.8,-1 -0.2,-1.5 -4,-0.6 -4.8,-2.3 -3.2,-2.9 -1,-2z" />
    <path
       id="NM"
       fill="#D3D3D3"
       d="M270.2,429.4 l-16.7,-2.6 -1.2,9.6 -15.8,-2 6,-39.7 7,-53.2 4.4,-30.9 34,3.9 37.4,4.4 32,2.8 -0.3,10.8 -1.4,-0.1 -7.4,97.7 -28.4,-1.8 -38.1,-3.7 0.7,6.3z" />
    <path
       id="NV"
       fill="#D3D3D3"
       d="M123.1,173.6 l38.7,8.5 26,5.2 -10.6,53.1 -5.4,29.8 -3.3,15.5 -2.1,11.1 -2.6,16.4 -1.7,3.1 -1.6,-0.1 -1.2,-2.6 -2.8,-0.5 -1.3,-1.1 -1.8,0.1 -0.9,0.8 -1.8,1.3 -0.3,7.3 -0.3,1.5 -0.5,12.4 -1.1,1.8 -16.7,-25.5 -42.1,-62.1 -12.43,-19 8.55,-32.6 8.01,-31.3z" />
    <path
       id="NY"
       fill="#D3D3D3"
       d="M843.4,200 l0.5,-2.7 -0.2,-2.4 -3,-1.5 -6.5,-2 -6,-2.6 -0.6,-0.4 -2.7,-0.3 -2,-1.5 -2.1,-5.9 -3.3,-0.5 -2.4,-2.4 -38.4,8.1 -31.6,6 -0.5,-6.5 1.6,-1.2 1.3,-1.1 1,-1.6 1.8,-1.1 1.9,-1.8 0.5,-1.6 2.1,-2.7 1.1,-1 -0.2,-1 -1.3,-3.1 -1.8,-0.2 -1.9,-6.1 2.9,-1.8 4.4,-1.5 4,-1.3 3.2,-0.5 6.3,-0.2 1.9,1.3 1.6,0.2 2.1,-1.3 2.6,-1.1 5.2,-0.5 2.1,-1.8 1.8,-3.2 1.6,-1.9 h2.1 l1.9,-1.1 0.2,-2.3 -1.5,-2.1 -0.3,-1.5 1.1,-2.1 v-1.5 h-1.8 l-1.8,-0.8 -0.8,-1.1 -0.2,-2.6 5.8,-5.5 0.6,-0.8 1.5,-2.9 2.9,-4.5 2.7,-3.7 2.1,-2.4 2.4,-1.8 3.1,-1.2 5.5,-1.3 3.2,0.2 4.5,-1.5 7.4,-2.2 0.7,4.9 2.4,6.5 0.8,5 -1,4.2 2.6,4.5 0.8,2 -0.9,3.2 3.7,1.7 2.7,10.2 v5.8 l-0.6,10.9 0.8,5.4 0.7,3.6 1.5,7.3 v8.1 l-1.1,2.3 2.1,2.7 0.5,0.9 -1.9,1.8 0.3,1.3 1.3,-0.3 1.5,-1.3 2.3,-2.6 1.1,-0.6 1.6,0.6 2.3,0.2 7.9,-3.9 2.9,-2.7 1.3,-1.5 4.2,1.6 -3.4,3.6 -3.9,2.9 -7.1,5.3 -2.6,1 -5.8,1.9 -4,1.1 -1,-0.4z" />
    <path
       id="OH"
       fill="#D3D3D3"
       d="M663.8,211.2 l1.7,15.5 4.8,41.1 3.9,-0.2 2.3,-0.8 3.6,1.8 1.7,4.2 5.4,0.1 1.8,2 h1.7 l2.4,-1.4 3.1,0.5 1.5,1.3 1.8,-2 2.3,-1.4 2.4,-0.4 0.6,2.7 1.6,1 2.6,2 0.8,0.2 2,-0.1 1.2,-0.6 v-2.1 l1.7,-1.5 0.1,-4.8 1.1,-4.2 1.9,-1.3 1,0.7 1,1.1 0.7,0.2 0.4,-0.4 -0.9,-2.7 v-2.2 l1.1,-1.4 2.5,-3.6 1.3,-1.5 2.2,0.5 2.1,-1.5 3,-3.3 2.2,-3.7 0.2,-5.4 0.5,-5 v-4.6 l-1.2,-3.2 1.2,-1.8 1.3,-1.2 -0.6,-2.8 -4.3,-25.6 -6.2,3.7 -3.9,2.3 -3.4,3.7 -4,3.9 -3.2,0.8 -2.9,0.5 -5.5,2.6 -2.1,0.2 -3.4,-3.1 -5.2,0.6 -2.6,-1.5 -2.2,-1.3z" />
    <path
       id="OK"
       fill="#D3D3D3"
       d="M411.9,334.9 l-1.8,24.3 -0.9,18 0.2,1.6 4,3.6 1.7,0.9 h0.9 l0.9,-2.1 1.5,1.9 1.6,0.1 0.3,-0.2 0.2,-1.1 2.8,1.4 -0.4,3.5 3.8,0.5 2.5,1 4.2,0.6 2.3,1.6 2.5,-1.7 3.5,0.7 2.2,3.1 1.2,0.1 v2.3 l2.1,0.7 2.5,-2.1 1.8,0.6 2.7,0.1 0.7,2.3 4.4,1.8 1.7,-0.3 1.9,-4.2 h1.3 l1.1,2.1 4.2,0.8 3.4,1.3 3,0.8 1.6,-0.7 0.7,-2.7 h4.5 l1.9,0.9 2.7,-1.9 h1.4 l0.6,1.4 h3.6 l2,-1.8 2.3,0.6 1.7,2.2 3,1.7 3.4,0.9 1.9,1.2 -0.3,-37.6 -1.4,-10.9 -0.1,-8.6 -1.5,-6.6 -0.6,-6.8 0.1,-4.3 -12.6,0.3 -46.3,-0.5 -44.7,-2.1 -41.5,-1.8 -0.4,10.7z" />
    <path
       id="OR"
       fill="#D3D3D3"
       d="M67.44,158.9 l28.24,7.2 27.52,6.5 17,3.7 8.8,-35.1 1.2,-4.4 2.4,-5.5 -0.7,-1.3 -2.5,0.1 -1.3,-1.8 0.6,-1.5 0.4,-3.3 4.7,-5.7 1.9,-0.9 0.9,-0.8 0.7,-2.7 0.8,-1.1 3.9,-5.7 3.7,-4 0.2,-3.26 -3.4,-2.49 -1.2,-4.55 -13.1,-3.83 -15.3,-3.47 -14.8,0.37 -1.1,-1.31 -5.1,1.84 -4.5,-0.48 -2.4,-1.58 -1.3,0.54 -4.68,-0.29 -1.96,-1.43 -4.84,-1.77 -1.1,-0.07 -4.45,-1.27 -1.76,1.52 -6.26,-0.24 -5.31,-3.85 0.21,-9.28 -2.05,-3.5 -4.1,-0.6 -0.7,-2.5 -2.4,-0.5 -5.8,2.1 -2.3,6.5 -3.2,10 -3.2,6.5 -5,14.1 -6.5,13.6 -8.1,12.6 -1.9,2.9 -0.8,8.6 -1.3,6 2.71,3.5z" />
    <path
       id="PA"
       fill="#D3D3D3"
       d="M736.6,192.2 l1.3,-0.5 5.7,-5.5 0.7,6.9 33.5,-6.5 36.9,-7.8 2.3,2.3 3.1,0.4 2,5.6 2.4,1.9 2.8,0.4 0.1,0.1 -2.6,3.2 v3.1 l-1.9,3.1 -0.2,1.9 1.3,1.3 -0.2,1.9 -2.4,1.1 1,3.4 0.2,1.1 2.8,0.3 0.9,2.5 5.9,3.9 v0.4 l-3.1,3 -1.5,2.2 -1.7,2.8 -2.7,1.2 -1.4,0.3 -2.1,1.3 -1.6,1.4 -22.4,4.3 -38.7,7.8 -11.3,1.4 -3.9,0.7 -5.1,-22.4 -4.3,-25.9z" />
    <path
       id="RI"
       fill="#D3D3D3"
       d="M873.6,175.7 l-0.8,-4.4 -1.6,-6 5.7,-1.5 1.5,1.3 3.4,4.3 2.8,4.4 -2.8,1.4 -1.3,-0.2 -1.1,1.8 -2.4,1.9 -2.8,1.1z" />
    <path
       id="SC"
       fill="#D3D3D3"
       d="M759,413.6 l-2.1,-1 -1.9,-5.6 -2.5,-2.3 -2.5,-0.5 -1.5,-4.6 -3,-6.5 -4.2,-1.8 -1.9,-1.8 -1.2,-2.6 -2.4,-2 -2.3,-1.3 -2.2,-2.9 -3.2,-2.4 -4.4,-1.7 -0.4,-1.4 -2.3,-2.8 -0.5,-1.5 -3.8,-5.4 -3.4,0.1 -3.9,-2.5 -1.2,-1.2 -0.2,-1.4 0.6,-1.6 2.7,-1.3 -0.8,-2 6.4,-2.7 9.2,-4.5 7.1,-0.9 16.4,-0.5 2.3,1.9 1.8,3.5 4.6,-0.8 12.6,-1.5 2.7,0.8 12.5,7.4 10.1,8.3 -5.3,5.4 -2.6,6.1 -0.5,6.3 -1.6,0.8 -1.1,2.7 -2.4,0.6 -2.1,3.6 -2.7,2.7 -2.3,3.4 -1.6,0.8 -3.6,3.4 -2.9,0.2 1,3.2 -5,5.3 -2.3,1.6z" />
    <path
       id="SD"
       fill="#D3D3D3"
       d="M471,181.1 l-0.9,3.2 0.4,3 2.6,2 -1.2,5.4 -1.8,4.1 1.5,3.3 0.7,1.1 -1.3,0.1 -0.7,-1.6 -0.6,-2 -3.3,-1.8 -4.8,-1.5 -2.5,-1.3 -2.9,0.1 -3.9,0.4 -3.8,1.2 -5.3,-3.8 -2.7,-2.4 -10.9,0.8 -41.5,-2.4 -35.6,-2.2 1.5,-24.8 2.8,-34 0.4,-5 56.9,3.9 56.9,1.7 v2.7 l-1.3,1.5 -2,1.5 -0.1,2.2 1.1,2.2 4.1,3.4 0.5,2.7 v35.9z" />
    <path
       id="TN"
       fill="#D3D3D3"
       d="M670.8,359.6 l-13.1,1.2 -23.3,2.2 -37.6,2.7 -11.8,0.4 0.9,-0.6 0.9,-4.5 -1.2,-3.6 3.9,-2.3 0.4,-2.5 1.2,-4.3 3,-9.5 0.5,-5.6 0.3,-0.2 12.3,-0.2 13.6,-0.8 0.1,-3.9 3.5,-0.1 30.4,-3.3 54,-5.2 10.3,-1.5 7.6,-0.2 2.4,-1.9 1.3,0.3 -0.1,3.3 -0.4,1.6 -2.4,2.2 -1.6,3.6 -2,-0.4 -2.4,0.9 -2.2,3.3 -1.4,-0.2 -0.8,-1.2 -1.1,0.4 -4.3,4 -0.8,3.1 -4.2,2.2 -4.3,3.6 -3.8,1.5 -4.4,2.8 -0.6,3.6 -2.5,0.5 -2,1.7 -0.2,4.8z" />
    <path
       id="TX"
       fill="#D3D3D3"
       d="M282.8,425.6 l37,3.6 29.3,1.9 7.4,-97.7 54.4,2.4 -1.7,23.3 -1,18 0.2,2 4.4,4.1 2,1.1 h1.8 l0.5,-1.2 0.7,0.9 2.4,0.2 1.1,-0.6 v-0.2 l1,0.5 -0.4,3.7 4.5,0.7 2.4,0.9 4.2,0.7 2.6,1.8 2.8,-1.9 2.7,0.6 2.2,3.1 0.8,0.1 v2.1 l3.3,1.1 2.5,-2.1 1.5,0.5 2.1,0.1 0.6,2.1 5.2,2 2.3,-0.5 1.9,-4 h0.1 l1.1,1.9 4.6,0.9 3.4,1.3 3.2,1 2.4,-1.2 0.7,-2.3 h3.6 l2.1,1 3,-2 h0.4 l0.5,1.4 h4.7 l1.9,-1.8 1.3,0.4 1.7,2.1 3.3,1.9 3.4,1 2.5,1.4 2.7,2 3.1,-1.2 2.1,0.8 0.7,20 0.7,9.5 0.6,4.1 2.6,4.4 0.9,4.5 4.2,5.9 0.3,3.1 0.6,0.8 -0.7,7.7 -2.9,4.8 1.3,2.6 -0.5,2.4 -0.8,7.2 -1.3,3 0.3,4.2 -5.6,1.6 -9.9,4.5 -1,1.9 -2.6,1.9 -2.1,1.5 -1.3,0.8 -5.7,5.3 -2.7,2.1 -5.3,3.2 -5.7,2.4 -6.3,3.4 -1.8,1.5 -5.8,3.6 -3.4,0.6 -3.9,5.5 -4,0.3 -1,1.9 2.3,1.9 -1.5,5.5 -1.3,4.5 -1.1,3.9 -0.8,4.5 0.8,2.4 1.8,7 1,6.1 1.8,2.7 -1,1.5 -3.1,1.9 -5.7,-3.9 -5.5,-1.1 -1.3,0.5 -3.2,-0.6 -4.2,-3.1 -5.2,-1.1 -7.6,-3.4 -2.1,-3.9 -1.3,-6.5 -3.2,-1.9 -0.6,-2.3 0.6,-0.6 0.3,-3.4 -1.3,-0.6 -0.6,-1 1.3,-4.4 -1.6,-2.3 -3.2,-1.3 -3.4,-4.4 -3.6,-6.6 -4.2,-2.6 0.2,-1.9 -5.3,-12.3 -0.8,-4.2 -1.8,-1.9 -0.2,-1.5 -6,-5.3 -2.6,-3.1 v-1.1 l-2.6,-2.1 -6.8,-1.1 -7.4,-0.6 -3.1,-2.3 -4.5,1.8 -3.6,1.5 -2.3,3.2 -1,3.7 -4.4,6.1 -2.4,2.4 -2.6,-1 -1.8,-1.1 -1.9,-0.6 -3.9,-2.3 v-0.6 l-1.8,-1.9 -5.2,-2.1 -7.4,-7.8 -2.3,-4.7 v-8.1 l-3.2,-6.5 -0.5,-2.7 -1.6,-1 -1.1,-2.1 -5,-2.1 -1.3,-1.6 -7.1,-7.9 -1.3,-3.2 -4.7,-2.3 -1.5,-4.4 -2.6,-2.9 -1.7,-0.5z m174.4,141.7 -0.6,-7.1 -2.7,-7.2 -0.6,-7 1.5,-8.2 3.3,-6.9 3.5,-5.4 3.2,-3.6 0.6,0.2 -4.8,6.6 -4.4,6.5 -2,6.6 -0.3,5.2 0.9,6.1 2.6,7.2 0.5,5.2 0.2,1.5z" />
    <path
       id="UT"
       fill="#D3D3D3"
       d="M228.4,305.9 l24.6,3.6 1.9,-13.7 7,-50.5 2.3,-22 -32.2,-3.5 2.2,-13.1 1.8,-10.6 -34.7,-6.1 -12.5,-2.5 -10.6,52.9 -5.4,30 -3.3,15.4 -1.7,9.2z" />
    <path
       id="VA"
       fill="#D3D3D3"
       d="M834.7,265.2 l-0.2,2.8 -2.9,3.8 -0.4,4.6 0.5,3.4 -1.8,5 -2.2,1.9 -1.5,-4.6 0.4,-5.4 1.6,-4.2 0.7,-3.3 -0.1,-1.7z m-60.3,44.6 -38.6,5.6 -4.8,-0.1 -2.2,-0.3 -2.5,1.9 -7.3,0.1 -10.3,1.6 -6.7,0.6 4.1,-2.6 4.1,-2.3 v-2.1 l5.7,-7.3 4.1,-3.7 2.2,-2.5 3.6,4.3 3.8,0.9 2.7,-1 2,-1.5 2.4,1.2 4.6,-1.3 1.7,-4.4 2.4,0.7 3.2,-2.3 1.6,0.4 2.8,-3.2 0.2,-2.7 -0.8,-1.2 4.8,-10.5 1.8,-5.2 0.5,-4.7 0.7,-0.2 1.1,1.7 1.5,1.2 3.9,-0.2 1.7,-8.1 3,-0.6 0.8,-2.6 2.8,-2.2 1.1,-2.1 1.8,-4.3 0.1,-4.6 3.6,1.4 6.6,3.1 0.3,-5.2 3.4,1.2 -0.6,2.9 8.6,3.1 1.4,1.8 -0.8,3.3 -1.3,1.3 -0.5,1.7 0.5,2.4 2,1.3 3.9,1.4 2.9,1 4.9,0.9 2.2,2.1 3.2,0.4 0.9,1.2 -0.4,4.7 1.4,1.1 -0.5,1.9 1.2,0.8 -0.2,1.4 -2.7,-0.1 0.1,1.6 2.3,1.5 0.1,1.4 1.8,1.8 0.5,2.5 -2.6,1.4 1.6,1.5 5.8,-1.7 3.7,6.2z" />
    <path
       id="VT"
       fill="#D3D3D3"
       d="M832.7,111.3 l2.4,6.5 0.8,5.3 -1,3.9 2.5,4.4 0.9,2.3 -0.7,2.6 3.3,1.5 2.9,10.8 v5.3 l11.5,-2.1 -1,-1.1 0.6,-1.9 0.2,-4.3 -1,-1.4 0.2,-4.7 0.8,-9.3 v-8.5 l-1.1,-1.8 v-1.6 l2.8,-1.1 3.5,-4.4 v-3.6 l-1.9,-2.7 -0.3,-5.79 -26.1,6.79z" />
    <path
       id="WA"
       fill="#D3D3D3"
       d="M74.5,67.7 l-2.3,-4.3 -4.1,-0.7 -0.4,-2.4 -2.5,-0.6 -2.9,-0.5 -1.8,1 -2.3,-2.9 0.3,-2.9 2.7,-0.3 1.6,-4 -2.6,-1.1 0.2,-3.7 4.4,-0.6 -2.7,-2.7 -1.5,-7.1 0.6,-2.9 v-7.9 l-1.8,-3.2 2.3,-9.4 2.1,0.5 2.4,2.9 2.7,2.6 3.2,1.9 4.5,2.1 3.1,0.6 2.9,1.5 3.4,1 2.3,-0.2 v-2.4 l1.3,-1.1 2.1,-1.3 0.3,1.1 0.3,1.8 -2.3,0.5 -0.3,2.1 1.8,1.5 1.1,2.4 0.6,1.9 1.5,-0.2 0.2,-1.3 -1,-1.3 -0.5,-3.2 0.8,-1.8 -0.6,-1.5 v-2.6 l1.8,-3.6 -1.1,-2.6 -2.4,-4.8 0.3,-0.8 1.4,-0.8 4.4,1.5 9.7,2.7 8.6,1.9 20,5.7 23,5.7 15,3.49 -4.8,17.56 -4.5,20.83 -3.4,16.25 -0.4,9.18 v0 l-12.9,-3.72 -15.3,-3.47 -14.5,0.32 -1.1,-1.53 -5.7,2.09 -3.9,-0.42 -2.6,-1.79 -1.7,0.65 -4.15,-0.25 -1.72,-1.32 -5.16,-1.82 -1.18,-0.16 -4.8,-1.39 -1.92,1.65 -5.65,-0.25 -4.61,-3.35z m9.6,-55.4 2,-0.2 0.5,1.4 1.5,-1.6 h2.3 l0.8,1.5 -1.5,1.7 0.6,0.8 -0.7,2 -1.4,0.4 c0,0 -0.9,0.1 -0.9,-0.2 0,-0.3 1.5,-2.6 1.5,-2.6 l-1.7,-0.6 -0.3,1.5 -0.7,0.6 -1.5,-2.3z" />
    <path
       id="WI"
       fill="#D3D3D3"
       d="M541.4,109.9 l2.9,0.5 2.9,-0.6 7.4,-3.2 2.9,-1.9 2.1,-0.8 1.9,1.5 -1.1,1.1 -1.9,3.1 -0.6,1.9 1,0.6 1.8,-1 1.1,-0.2 2.7,0.8 0.6,1.1 1.1,0.2 0.6,-1.1 4,5.3 8.2,1.2 8.2,2.2 2.6,1.1 12.3,2.6 1.6,2.3 3.6,1.2 1.7,10.2 1.6,1.4 1.5,0.9 -1.1,2.3 -1.8,1.6 -2.1,4.7 -1.3,2.4 0.2,1.8 1.5,0.3 1.1,-1.9 1.5,-0.8 0.8,-2.3 1.9,-1.8 2.7,-4 4.2,-6.3 0.8,-0.5 0.3,1 -0.2,2.3 -2.9,6.8 -2.7,5.7 -0.5,3.2 -0.6,2.6 0.8,1.3 -0.2,2.7 -1.9,2.4 -0.5,1.8 0.6,3.6 0.6,3.4 -1.5,2.6 -0.8,2.9 -1,3.1 1.1,2.4 0.6,6.1 1.6,4.5 -0.2,3 -15.9,1.8 -17.5,1 h-12.7 l-0.7,-1.5 -2.9,-0.4 -2.6,-1.3 -2.3,-3.7 -0.3,-3.6 2,-2.9 -0.5,-1.4 -2.1,-2.2 -0.8,-3.3 -0.6,-6.8 -2.1,-2.5 -7,-4.5 -3.8,-5.4 -3.4,-1 -2.2,-2.8 h-3.2 l-2.9,-3.3 -0.5,-6.5 0.1,-3.8 1.5,-3.1 -0.8,-3.2 -2.5,-2.8 1.8,-5.4 5.2,-3.8 1.6,-1.9 -0.2,-8.1 0.2,-2.8 2.4,-2.8z" />
    <path
       id="WV"
       fill="#D3D3D3"
       d="M758.9,254.3 l5.8,-6 2.6,-0.8 1.6,-1.5 1.5,-2.2 1.1,0.3 3.1,-0.2 4.6,-3.6 1.5,-0.5 1.3,1 2.6,1.2 3,3 -0.4,4.3 -5.4,-2.6 -4.8,-1.8 -0.1,5.9 -2.6,5.7 -2.9,2.4 -0.8,2.3 -3,0.5 -1.7,8.1 -2.8,0.2 -1.1,-1 -1.2,-2 -2.2,0.5 -0.5,5.1 -1.8,5.1 -5,11 0.9,1.4 -0.1,2 -2.2,2.5 -1.6,-0.4 -3.1,2.3 -2.8,-0.8 -1.8,4.9 -3.8,1 -2.5,-1.3 -2.5,1.9 -2.3,0.7 -3.2,-0.8 -3.8,-4.5 -3.5,-2.2 -2.5,-2.5 -2.9,-3.7 -0.5,-2.3 -2.8,-1.7 -0.6,-1.3 -0.2,-5.6 0.3,0.1 2.4,-0.2 1.8,-1 v-2.2 l1.7,-1.5 0.1,-5.2 0.9,-3.6 1.1,-0.7 0.4,0.3 1,1.1 1.7,0.5 1.1,-1.3 -1,-3.1 v-1.6 l3.1,-4.6 1.2,-1.3 2,0.5 2.6,-1.8 3.1,-3.4 2.4,-4.1 0.2,-5.6 0.5,-4.8 v-4.9 l-1.1,-3 0.9,-1.3 0.8,-0.7 4.3,19.3 4.3,-0.8 11.2,-1.3z" />
    <path
       id="WY"
       fill="#D3D3D3"
       d="M353,161.9 l-1.5,25.4 -4.4,44 -2.7,-0.3 -83.3,-9.1 -27.9,-3 2,-12 6.9,-41 3.8,-24.2 1.3,-11.2 48.2,7 59.1,6.5z" />
    <g
       id="DC">
      <path
         id="DC1"
         fill="#D3D3D3"
         d="M801.8,253.8 l-1.1-1.6 -1-0.8 1.1-1.6 2.2,1.5z" />
      <circle
         id="DC2"
         fill="#D3D3D3"
         stroke="#FFFFFF"
         stroke-width="1.5"
         cx="801.3"
         cy="251.8"
         r="5"
         opacity="1" />
      <!-- Set opacity to "0" to hide DC circle -->
    </g>
  </g>
  <path
     id="frames"
     fill="none"
     stroke="#A9A9A9"
     stroke-width="2"
     d="M215,493v55l36,45 M0,425h147l68,68h85l54,54v46" />
  <path
     style="fill:none;stroke:#000000;stroke-width:1px;stroke-linecap:butt;stroke-linejoin:miter;stroke-opacity:1"
     d="m 881.6,154.1 c -1.90127,1.03277 -0.62623,3.72116 -1.49208,5.16424 -0.11714,0.19523 -0.47165,-0.0846 -0.68305,0 -0.3811,0.15244 -0.6962,0.43677 -1.02457,0.68305 -0.51519,0.38639 -0.85091,0.9797 -1.3661,1.36609 -0.0911,0.0683 -0.22768,0 -0.34152,0 -0.22768,0 -0.47165,-0.0846 -0.68305,0 -0.3811,0.15244 -0.65744,0.49949 -1.02457,0.68305 -0.21466,0.10733 -1.15144,-0.10733 -1.3661,0 -0.288,0.144 -0.45536,0.45537 -0.68305,0.68305 -0.11384,0.11384 -0.18879,0.29061 -0.34152,0.34152 -0.12524,0.0418 -1.99055,0 -2.04915,0 -0.11384,0 -0.2397,-0.0509 -0.34152,0 -0.59372,0.29687 -1.13128,0.69524 -1.70762,1.02458 -0.22102,0.12629 -0.47125,0.20032 -0.68305,0.34152 -0.13396,0.0893 -0.18534,0.30248 -0.34152,0.34152 -0.33133,0.0828 -0.68305,0 -1.02458,0 -0.54298,0 -1.60083,-0.0897 -2.04914,0 -0.24962,0.0499 -0.44156,0.26103 -0.68305,0.34153 -0.108,0.036 -0.2397,-0.0509 -0.34153,0 -0.14399,0.072 -0.2158,0.24095 -0.34152,0.34152 -0.44448,0.35558 -0.92162,0.669 -1.3661,1.02458 -0.42771,0.34217 -0.77244,0.94588 -1.02457,1.36609 -0.13097,0.21828 -0.18879,0.47941 -0.34152,0.68305 -0.1932,0.2576 -0.53905,0.39505 -0.68305,0.68305 -0.10182,0.20365 0.072,0.46705 0,0.68305 -0.0509,0.15273 -0.29061,0.18879 -0.34153,0.34152 -0.072,0.216 0.072,0.46705 0,0.68305 -0.35533,1.06601 -0.22768,-0.11384 -0.68304,0.34153 -1.59269,1.59268 -0.24853,0.40406 -0.68305,1.70762 -0.0509,0.15273 -0.25222,0.20756 -0.34153,0.34152 -0.1412,0.2118 -0.16152,0.50305 -0.34152,0.68305 -1.74532,1.74532 0.47633,-1.432 -1.3661,1.02457 -0.47335,0.63113 -0.33743,1.59105 -1.02457,2.04915 -0.17932,0.11954 -0.91271,0.34745 -1.02457,0.68305 -0.072,0.21599 0.12629,0.4936 0,0.68304 -0.14121,0.21181 -0.45537,0.22769 -0.68305,0.34153 -0.22768,0.34152 -0.53061,0.64347 -0.68305,1.02457 -0.0846,0.2114 0.1263,0.49361 0,0.68305 -0.1412,0.2118 -0.48427,0.1825 -0.68305,0.34152 -0.37715,0.30172 -0.72285,0.64743 -1.02457,1.02458 -0.15902,0.19877 -0.20032,0.47124 -0.34153,0.68304 -0.1786,0.26792 -0.58122,0.37758 -0.68304,0.68305 -0.072,0.216 0.0447,0.45979 0,0.68305 -0.0706,0.35301 -0.27093,0.67157 -0.34153,1.02457 -0.0446,0.22327 0.10182,0.47941 0,0.68305 -0.144,0.288 -0.56346,0.38409 -0.68305,0.68305 -0.20915,0.52288 0.11525,1.47293 0,2.04915 -0.0706,0.353 -0.27092,0.67156 -0.34152,1.02457 -0.0447,0.22326 0.12629,0.4936 0,0.68305 -0.1412,0.2118 -0.54185,0.12972 -0.68305,0.34152 -0.11566,0.17349 0.16803,1.5956 0,1.70762 -0.28416,0.18945 -0.75135,-0.20491 -1.02457,0 -0.288,0.216 -0.14184,0.72504 -0.34153,1.02458 -0.0631,0.0947 -0.2397,-0.0509 -0.34152,0 -0.288,0.14399 -0.43162,0.4819 -0.68305,0.68304 -0.44448,0.35558 -0.96361,0.62209 -1.3661,1.02458 -0.8224,0.8224 0.27909,0.83851 -1.02457,1.70762 -0.5537,0.36913 -1.12054,0.34152 -1.70762,0.34152 -0.34152,0 -0.70748,-0.12684 -1.02457,0 -0.29896,0.11959 -0.4819,0.43162 -0.68305,0.68305 -0.39828,0.49785 -1.52788,2.41765 -1.70762,2.73219 -0.1263,0.22102 -0.18251,0.48428 -0.34153,0.68305 -0.30172,0.37715 -0.68304,0.68305 -1.02457,1.02458 -0.11384,0.11384 -0.26165,0.20174 -0.34152,0.34152 -0.37889,0.66305 -0.71442,1.35129 -1.02458,2.04914 -0.70294,1.58162 0.0739,1.05777 -1.36609,3.07372 -0.14796,0.20714 -0.54185,0.12972 -0.68305,0.34153 -0.1263,0.18944 0,0.45536 0,0.68305 0,0.34152 0.0828,0.69324 0,1.02457 -0.0781,0.31238 -0.58123,0.37758 -0.68305,0.68305 -0.072,0.216 0.0846,0.47165 0,0.68304 -1.32729,3.31823 -0.004,-0.4501 -1.3661,1.3661 -0.40012,0.5335 -0.19601,1.22059 -0.68304,1.70762 -0.4025,0.40249 -0.92163,0.66899 -1.3661,1.02458 -0.12572,0.10057 -0.28173,0.19204 -0.34153,0.34152 -0.17432,0.43581 -0.0599,0.99059 -0.34152,1.3661 -0.13661,0.18214 -0.5009,-0.13661 -0.68305,0 -0.32837,0.24627 -0.39281,0.73433 -0.68305,1.02457 -0.29024,0.29024 -0.6726,0.47187 -1.02457,0.68305 -0.21828,0.13097 -0.56921,0.11384 -0.68305,0.34152 -0.0388,0.0775 0.0493,1.99983 0,2.04915 -0.29024,0.29024 -0.73433,0.39281 -1.02457,0.68305 -1.09255,1.09254 -0.26722,0.76021 -1.02457,1.36609 -0.44448,0.35558 -0.87801,0.73172 -1.3661,1.02458 -0.0976,0.0586 -0.26103,-0.0805 -0.34152,0 -1.7751,1.77509 0.32375,0.35574 -1.3661,1.70762 -0.32052,0.25641 -0.73433,0.39281 -1.02457,0.68304 -0.18,0.18 -0.20033,0.47125 -0.34153,0.68305 -0.26221,0.39332 -0.74064,0.64601 -1.02457,1.02458 -0.24628,0.32836 -0.36253,0.76816 -0.68305,1.02457 -0.28111,0.22489 -0.69032,0.20782 -1.02457,0.34152 -0.44917,0.17967 -1.44035,0.7573 -1.70762,1.02458 -1.59523,1.59522 1.80738,-0.40803 -1.3661,1.70762 -0.29954,0.19969 -0.67532,0.25421 -1.02457,0.34152 -0.11045,0.0276 -0.24681,-0.0632 -0.34153,0 -0.26791,0.17861 -0.41513,0.50444 -0.68305,0.68305 -0.0947,0.0632 -0.25045,-0.0683 -0.34152,0 -2.23799,1.67849 0.0279,0.31363 -1.70762,2.04914 -0.0805,0.0805 -0.22768,0 -0.34153,0 -0.34152,0 -0.70747,-0.12683 -1.02457,0 -0.29896,0.11959 -0.45536,0.45537 -0.68305,0.68305 -0.34152,0.34153 -0.68304,0.68305 -1.02457,1.02458 -0.22768,0.22768 -0.50444,0.41513 -0.68305,0.68304 -0.0631,0.0947 0.0632,0.24681 0,0.34153 -0.17861,0.26791 -0.45536,0.45536 -0.68305,0.68305 -0.34152,0.34152 -0.72285,0.64742 -1.02457,1.02457 -0.0958,0.11975 -0.62215,1.32042 -0.68305,1.3661 -0.288,0.216 -0.73657,0.12552 -1.02457,0.34152 -0.20365,0.15273 -0.21056,0.46477 -0.34152,0.68305 -0.21118,0.35197 -0.39281,0.73433 -0.68305,1.02457 -0.18,0.18 -0.50305,0.16153 -0.68305,0.34153 -0.0805,0.0805 0,0.22768 0,0.34152 -0.11384,0.22768 -0.12972,0.54185 -0.34152,0.68305 -0.5101,0.34006 -1.31516,0.21209 -1.70763,0.68305 -0.29151,0.34982 0,0.91073 0,1.36609 0,1.93531 0,3.87061 0,5.80592 0,0.68304 0,1.36609 0,2.04914 0,0.22768 -0.18492,0.81588 0,0.68305 0.82154,-0.59009 1.39961,-1.46068 2.09942,-2.19102"
     id="path17039"
     inkscape:connector-curvature="0" />
  <path
     style="fill:none;stroke:#000000;stroke-width:1px;stroke-linecap:butt;stroke-linejoin:miter;stroke-opacity:1"
     d="m 741.9,507.2 c -0.1503,-0.42956 -0.32959,-0.85005 -0.45091,-1.28868 -0.0736,-0.26604 0,-2.13071 0,-2.39067 0,-1.47993 0,-2.95987 0,-4.43981 0,-0.68305 0,-1.3661 0,-2.04915 0,-0.22768 -0.13661,-0.5009 0,-0.68304 0.24627,-0.32837 0.70405,-0.42664 1.02457,-0.68305 0.25143,-0.20115 0.43161,-0.48191 0.68305,-0.68305 0.32051,-0.25641 0.70405,-0.42664 1.02457,-0.68305 0.52665,0.0875 0.805,-1.14652 1.02457,-1.3661 0.40249,-0.40249 0.96361,-0.62208 1.3661,-1.02457 0.0805,-0.0805 -0.0805,-0.26103 0,-0.34152 0.18,-0.18 0.47124,-0.20033 0.68305,-0.34153 0.13396,-0.0893 0.19752,-0.26952 0.34152,-0.34152 0.10183,-0.0509 0.22769,0 0.34153,0 0.45536,0 0.91957,0.0893 1.36609,0 0.15787,-0.0316 0.20757,-0.25222 0.34153,-0.34153 0.2118,-0.1412 0.53031,-0.13788 0.68305,-0.34152 0.216,-0.288 0.12552,-0.73658 0.34152,-1.02457 0.15274,-0.20365 0.45537,-0.22769 0.68305,-0.34153 0.80866,-0.40433 2.43046,-1.17157 3.07372,-1.70762 0.19555,-0.16296 0.14275,-0.52403 0.34152,-0.68305 0.39755,-0.31804 1.0061,-0.32305 1.3661,-0.68305 0.25456,-0.25455 0.087,-0.77001 0.34152,-1.02457 0.36,-0.36 0.92954,-0.42111 1.3661,-0.68305 0.13805,-0.0828 0.18879,-0.29061 0.34152,-0.34152 0.216,-0.072 0.45537,0 0.68305,0 0.22769,-0.11384 0.45537,-0.22768 0.68305,-0.34153"
     id="path17041"
     inkscape:connector-curvature="0" />
  <path
     style="fill:none;stroke:#000000;stroke-width:1px;stroke-linecap:butt;stroke-linejoin:miter;stroke-opacity:1"
     d="m 95.968307,379.20584 c 0,-6.37512 0,-12.75024 0,-19.12536 0,-1.25226 0,-2.50451 0,-3.75677 0,-0.14004 0.04064,-1.606 0,-1.70762 -0.477581,-1.19395 -0.694104,-0.81163 -1.366097,-1.70762 -1.537821,-2.05043 -2.641777,-4.3851 -4.098291,-6.48896 -0.41492,-0.59933 -0.979759,-1.08948 -1.366097,-1.70762 -1.027917,-1.64467 0.629012,-0.55281 -1.366097,-2.04915 -0.09107,-0.0683 -0.250451,0.0683 -0.341524,0 -0.386391,-0.28979 -0.683048,-0.68304 -1.024573,-1.02457 -0.227682,-0.22768 -0.539049,-0.39505 -0.683048,-0.68305 -0.101823,-0.20364 0,-0.45536 0,-0.68304 0,-0.11385 0.06831,-0.25046 0,-0.34153 -0.993696,-1.32493 -1.080335,-1.02457 -2.39067,-1.02457"
     id="path17043"
     inkscape:connector-curvature="0" />
  <path
     style="fill:none;stroke:#000000;stroke-width:1px;stroke-linecap:butt;stroke-linejoin:miter;stroke-opacity:1"
     d="m 29.5,262.9 c 0.640076,-0.96204 1.372759,-1.86852 1.920228,-2.88612 0.107874,-0.2005 -0.101822,-0.4794 0,-0.68305 0.253239,-0.50647 1.643112,-1.464 2.049146,-1.70762 0.218281,-0.13097 0.436092,-0.27978 0.683048,-0.34152 0.220885,-0.0552 0.493605,0.12629 0.683049,0 0.211804,-0.1412 0.12972,-0.54185 0.341524,-0.68305 0.189443,-0.12629 0.462164,0.0552 0.683048,0 0.246957,-0.0617 0.446698,-0.24698 0.683049,-0.34152 0.33425,-0.1337 0.725036,-0.14184 1.024572,-0.34153 0.401871,-0.26791 0.592575,-0.80857 1.024573,-1.02457 0.04185,-0.0209 1.81809,0 2.049145,0 0.113842,0 0.233525,0.036 0.341525,0 0.241494,-0.0805 0.436091,-0.27979 0.683048,-0.34152 0.220885,-0.0552 0.493605,0.12629 0.683049,0 0.211804,-0.14121 0.137878,-0.53032 0.341524,-0.68305 0.287998,-0.216 0.770015,-0.087 1.024572,-0.34153 0.160997,-0.16099 -0.160996,-0.52205 0,-0.68305 0.160997,-0.16099 0.459788,0.0447 0.683049,0 0.353007,-0.0706 0.683048,-0.22768 1.024573,-0.34152 0.341524,-0.11384 0.743461,-0.11664 1.024572,-0.34152 0.320516,-0.25642 0.331081,-0.8134 0.683049,-1.02458 0.292854,-0.17571 0.710662,0.13454 1.024572,0 0.523184,-0.22422 0.878006,-0.73171 1.366097,-1.02457 0.09762,-0.0586 0.227683,0 0.341525,0 0.341524,0 0.696188,0.0938 1.024572,0 0.489526,-0.13986 0.910731,-0.45537 1.366097,-0.68305 0.910731,-0.34152 1.793805,-0.76865 2.732194,-1.02457 0.32949,-0.0899 0.683048,0 1.024573,0 0.113841,0 0.261026,0.0805 0.341524,0 0.179999,-0.18 0.105174,-0.58851 0.341524,-0.68305 0.422796,-0.16912 0.919574,0.0893 1.366097,0 0.157869,-0.0316 0.185335,-0.30248 0.341524,-0.34152 0.331327,-0.0828 0.683049,0 1.024573,0 0.683048,0 1.366097,0 2.049145,0 0.341524,0 0.683049,0 1.024573,0 0.113841,0 0.261026,0.0805 0.341524,0 0.179999,-0.18 0.161525,-0.50305 0.341524,-0.68305 0.0805,-0.0805 0.290613,0.10182 0.341524,0 0.844045,-1.68809 -0.757825,0.0748 0.341525,-1.02457"
     id="path17045"
     inkscape:connector-curvature="0" />
  <path
     style="fill:none;stroke:#000000;stroke-width:1px;stroke-linecap:butt;stroke-linejoin:miter;stroke-opacity:1"
     d="m 463.10685,415.4074 c 2.09464,2.69312 2.3306,3.25873 4.78133,5.46439 1.47994,1.25226 2.95988,2.50451 4.43982,3.75677 0.45537,0.22768 0.95181,0.38713 1.3661,0.68305 1.95824,1.39874 0.20985,0.55137 1.70762,2.04914 0.96932,0.96933 2.16674,1.70429 3.07372,2.7322 0.81471,0.92333 1.33341,2.0717 2.04914,3.07371 0.42369,0.59317 0.88869,1.15677 1.3661,1.70762 1.00308,1.1574 2.03155,2.29292 3.07372,3.41525 0.4382,0.4719 0.94699,0.87714 1.36609,1.36609 0.26713,0.31165 0.42028,0.70925 0.68305,1.02458 0.87759,1.0531 1.93542,1.95822 2.7322,3.07371 0.91924,1.28695 1.55245,2.75716 2.39066,4.0983 0.68794,1.10069 1.72286,1.96069 2.39067,3.07371 0.31542,0.52569 0.37889,1.17534 0.68305,1.70762 0.27322,0.47814 0.7172,0.61475 1.02458,1.02458 0.24627,0.32837 0.45536,0.68305 0.68304,1.02457 0.22769,0.34152 0.48371,0.66577 0.68305,1.02457 0.37087,0.66757 0.56637,1.43821 1.02458,2.04915 0.57958,0.77278 1.48768,1.2631 2.04914,2.04914 1.11644,0.82085 1.00161,2.35622 1.70762,3.41525 0.31574,0.4736 0.74814,0.86852 1.02457,1.36609 1.05338,1.89607 0.4163,1.43836 1.02458,3.41524 0.28604,0.92965 0.69217,1.8181 1.02457,2.7322 0.12303,0.33832 0.18053,0.70258 0.34152,1.02457 0.11495,0.2299 0.93938,1.28164 1.02458,1.70762 0.0684,0.34227 0,1.60443 0,2.04915 0,0.34152 -0.12684,0.70747 0,1.02457 0.11958,0.29896 0.56999,0.38156 0.68304,0.68305 0.24315,0.64838 0.10214,1.39937 0.34153,2.04914 0.56349,1.52947 1.53371,2.8935 2.04914,4.43982 0.18,0.54 -0.16356,1.16242 0,1.70762 0.19075,0.63581 0.72771,1.1139 1.02458,1.70762 0.16099,0.32199 0.28234,0.66947 0.34152,1.02457 0.0562,0.33688 0,0.68305 0,1.02458 0,0.5692 0,1.13841 0,1.70762"
     id="path17047"
     inkscape:connector-curvature="0" />
  <path
     style="fill:none;stroke:#000000;stroke-width:1px;stroke-linecap:butt;stroke-linejoin:miter;stroke-opacity:1"
     d="m 605.86397,187.26922 c 1.87107,2.71885 1.3661,1.45938 1.3661,4.78134 0,0.22769 0,0.45537 0,0.68305 0,0.11384 -0.0276,0.23108 0,0.34153 0.20101,0.80403 0.39982,1.61178 0.68305,2.39066 0.38086,1.04738 1.17808,1.94567 1.36609,3.07372 0.0749,0.44917 0,0.91073 0,1.3661 0,1.3661 0,2.73219 0,4.09829 0,3.87061 0,7.74122 0,11.61182"
     id="path17049"
     inkscape:connector-curvature="0" />
  <path
     style="fill:none;stroke:#000000;stroke-width:1px;stroke-linecap:butt;stroke-linejoin:miter;stroke-opacity:1"
     d="m 701.49075,239.52243 c -2.39067,0 -4.78134,0 -7.17201,0 -0.68304,0 -1.37936,-0.13396 -2.04914,0 -0.49923,0.0998 -0.88311,0.52205 -1.3661,0.68305 -0.55069,0.18356 -1.15693,0.15796 -1.70762,0.34152 -0.48299,0.161 -0.88311,0.52205 -1.3661,0.68305 -0.55069,0.18356 -1.14759,0.18879 -1.70762,0.34152 -0.69462,0.18945 -1.34629,0.52686 -2.04914,0.68305 -0.33339,0.0741 -0.68305,0 -1.02457,0 -0.56921,0 -1.13842,0 -1.70763,0 -0.68304,0 -1.36609,0 -2.04914,0 -0.23583,0 -1.26226,-0.0519 -1.3661,0 -0.144,0.072 -0.22768,0.22769 -0.34152,0.34153 -0.11384,0.11384 -0.29062,0.18879 -0.34153,0.34152 -0.072,0.216 0.072,0.46705 0,0.68305 -0.0509,0.15273 -0.30247,0.18534 -0.34152,0.34152 -0.0828,0.33133 0,0.68305 0,1.02458 0,0.22768 0,0.45536 0,0.68305 0,1.25225 0,2.50451 0,3.75676 0,3.64293 0,7.28585 0,10.92878"
     id="path17055"
     inkscape:connector-curvature="0" />
  <path
     style="fill:none;stroke:#000000;stroke-width:1px;stroke-linecap:butt;stroke-linejoin:miter;stroke-opacity:1"
     d="m 609.27921,215.61573 c 0.56921,0.34153 1.23824,0.5552 1.70762,1.02458 0.161,0.16099 0,0.45536 0,0.68305 0,1.82146 0,3.64292 0,5.46438 0,0.34153 0,0.68305 0,1.02458 0,0.22768 -0.14223,0.50525 0,0.68304 0.35559,0.44448 0.93393,0.65414 1.3661,1.02458 0.36671,0.31432 0.65353,0.71537 1.02457,1.02457 0.31533,0.26277 0.68634,0.45051 1.02458,0.68305 1.48326,1.01974 3.01898,1.96863 4.43981,3.07372 0.63541,0.49421 1.13842,1.13841 1.70762,1.70762 1.13842,0.79689 2.31381,1.54341 3.41524,2.39067 0.38283,0.29448 0.68305,0.68304 1.02458,1.02457 0.45536,0.45536 0.91073,0.91073 1.36609,1.3661 0.22769,0.22768 0.48191,0.43161 0.68305,0.68304 0.25642,0.32052 0.37141,0.75745 0.68305,1.02458 0.504,0.43199 1.14472,0.67275 1.70762,1.02457 0.34807,0.21754 0.67828,0.46268 1.02457,0.68305 0.90608,0.57659 1.8386,1.11188 2.7322,1.70762 0.60651,0.40434 0.79689,1.25225 1.3661,1.70762 0.71669,0.57336 1.62699,0.85698 2.39067,1.3661 0.26791,0.17861 0.45536,0.45536 0.68304,0.68305 0.45537,0.34152 0.87801,0.73171 1.3661,1.02457 0.0976,0.0586 0.22768,0 0.34152,0 0.22769,0 0.47941,-0.10182 0.68305,0 0.288,0.144 0.40695,0.51738 0.68305,0.68305 2.3691,1.42145 -0.57874,-1.60332 2.7322,1.70762 0.0805,0.0805 0,0.22768 0,0.34152 0.22768,0.22768 0.42545,0.48986 0.68304,0.68305 0.20365,0.15273 0.47125,0.20032 0.68305,0.34152 0.13396,0.0893 0.18534,0.30248 0.34153,0.34153 2.55826,0.63956 -0.23431,-0.62944 1.70762,0.34152"
     id="path17057"
     inkscape:connector-curvature="0" />
  <path
     style="fill:none;stroke:#000000;stroke-width:1px;stroke-linecap:butt;stroke-linejoin:miter;stroke-opacity:1"
     d="m 438.85863,469.02671 c 0,1.82146 0,3.64292 0,5.46438 0,0.56921 0.13805,1.15541 0,1.70763 -0.0996,0.3982 -0.53061,0.64347 -0.68305,1.02457 -0.57707,1.44267 0.747,-0.0853 -0.34153,1.3661 -0.19319,0.25759 -0.53905,0.39505 -0.68305,0.68304 -0.17076,0.34153 0.0854,0.68305 0,1.02458 -0.0873,0.34925 -0.28234,0.66947 -0.34152,1.02457 -0.0562,0.33688 0,0.68305 0,1.02457 0,0.11384 0.0805,0.26103 0,0.34153 -0.29024,0.29024 -0.76816,0.36253 -1.02457,0.68304 -0.22489,0.28112 -0.25421,0.67533 -0.34153,1.02458 -0.0276,0.11044 0.0805,0.26102 0,0.34152 -0.0805,0.0805 -0.23108,-0.0276 -0.34152,0 -0.34925,0.0873 -0.70258,0.18053 -1.02457,0.34153 -0.144,0.072 -0.22769,0.22768 -0.34153,0.34152 -0.11384,0.11384 -0.22768,0.22768 -0.34152,0.34152"
     id="path17059"
     inkscape:connector-curvature="0" />
  <path
     style="fill:none;stroke:#000000;stroke-width:1px;stroke-linecap:butt;stroke-linejoin:miter;stroke-opacity:1"
     d="m 717.20087,210.83439 c 2.03492,-0.49642 4.07096,-0.34152 6.14743,-0.34152 0.34153,0 0.69815,-0.10044 1.02458,0 1.46194,0.44983 3.75503,1.3648 5.12286,2.39067 0.38639,0.28979 0.68305,0.68305 1.02457,1.02457 1.02457,0.91073 1.95823,1.93542 3.07372,2.7322 0.49886,0.35633 1.22891,0.30007 1.70762,0.68305 0.6943,0.55543 1.12213,1.38 1.70762,2.04914 0.31805,0.36349 0.73478,0.63818 1.02458,1.02457 0.28956,0.38609 0.84159,1.44537 1.36609,1.70762 3.70784,1.85392 3.27922,0.9951 5.80591,2.7322 12.43302,8.5477 -1.51024,-1.13989 5.46439,4.43981 1.12693,1.51081 3.03426,1.94928 4.43982,3.07372 0.25143,0.20115 0.45536,0.45537 0.68304,0.68305 0.22769,0.34152 0.36773,0.7618 0.68305,1.02457 0.39112,0.32593 0.96855,0.36501 1.3661,0.68305 0.56627,0.45301 0.23158,0.81639 0.34152,1.3661 0.0706,0.353 0.22769,0.68305 0.34153,1.02457"
     id="path17061"
     inkscape:connector-curvature="0" />
  <path
     style="fill:none;stroke:#000000;stroke-width:1px;stroke-linecap:butt;stroke-linejoin:miter;stroke-opacity:1"
     d="m 687.14674,196.49038 c -1.42056,0.94249 -2.62329,2.21329 -4.09829,3.07372 -4.68738,2.7343 2.82266,-3.05619 -3.07372,1.36609 -1.36709,1.02532 -0.70886,1.20824 -2.39067,2.04915 -0.41983,0.20991 -0.92081,0.19309 -1.3661,0.34152 -0.92275,0.30758 -1.84906,0.61697 -2.73219,1.02457 -2.35644,1.08759 -0.97759,1.01115 -3.41525,1.70763 -1.00918,0.28833 -2.07801,0.35114 -3.07371,0.68304 -0.3894,0.1298 -0.67651,0.46551 -1.02458,0.68305 -0.5629,0.35182 -1.16746,0.63875 -1.70762,1.02458 -0.26201,0.18715 -0.40348,0.52329 -0.68305,0.68304 -0.53228,0.30416 -1.15928,0.40889 -1.70762,0.68305 -1.24396,0.34575 -1.99269,1.4595 -3.07371,2.04915 -0.76113,0.41516 -1.58569,0.70258 -2.39067,1.02457 -0.33425,0.1337 -0.77002,0.087 -1.02458,0.34152 -0.25455,0.25456 -0.14183,0.72504 -0.34152,1.02458 -0.0631,0.0947 -0.23689,-0.0448 -0.34153,0 -1.29746,0.55605 -2.01507,0.95144 -3.07371,1.70762 -4.4813,3.36097 0.96198,-0.49649 -2.39067,1.3661 -0.71762,0.39867 -1.33639,0.9588 -2.04915,1.36609 -0.0988,0.0565 -0.23689,-0.0448 -0.34152,0 -0.70193,0.30083 -1.38158,0.6537 -2.04915,1.02457 -2.4383,1.35462 0.72048,-0.0187 -2.73219,1.70763 -0.10182,0.0509 -0.22768,0 -0.34153,0 -0.22768,0 -0.45846,-0.0374 -0.68304,0 -0.463,0.0772 -0.93467,0.15662 -1.3661,0.34152 -0.37727,0.16169 -0.63518,0.55325 -1.02457,0.68305 -0.19107,0.0637 -2.01068,0 -2.39067,0 -2.16299,0 -4.32598,0 -6.48896,0 -7.48582,0 -13.13363,0 -20.83298,0"
     id="path17063"
     inkscape:connector-curvature="0" />
  <path
     style="fill:none;stroke:#000000;stroke-width:1px;stroke-linecap:butt;stroke-linejoin:miter;stroke-opacity:1"
     d="m 66.255699,82.762811 c 0.462296,-1.105087 1.727617,0.442035 2.39067,0 0.578747,-0.385831 0.281459,-1.688754 0.341524,-2.049145 0.04185,-0.251094 0.261026,-0.441554 0.341524,-0.683048 0.13661,-0.409829 -0.273219,-0.546439 0,-1.024573 0.361656,-0.632898 0.910731,-1.138414 1.366097,-1.707621 0.683049,-1.138414 1.455421,-2.227794 2.049145,-3.415242 0.209914,-0.419827 0.150891,-0.937172 0.341525,-1.366097 0.570201,-1.282953 1.067902,-1.635534 1.707621,-2.732194 0.590571,-1.012409 1.093343,-2.075516 1.707621,-3.073718 0.29832,-0.48477 0.737766,-0.874428 1.024573,-1.366097 0.641319,-1.099405 1.138414,-2.276828 1.707621,-3.415242 0.182327,-0.364655 0.95233,-2.045865 1.366097,-2.39067 0.391112,-0.325927 0.974984,-0.357121 1.366096,-0.683048 0.854155,-0.711796 0.48094,-0.982777 1.024573,-1.707621 1.753588,-2.338118 -0.691103,1.788813 1.707621,-2.049146 0.26983,-0.431728 0.455366,-0.910731 0.683049,-1.366096 0.455365,-0.910732 0.842222,-1.859071 1.366097,-2.732194 0.21118,-0.351968 0.426635,-0.704057 0.683048,-1.024573 0.201147,-0.251434 0.563464,-0.384086 0.683048,-0.683048 0.126839,-0.317098 0,-0.683049 0,-1.024573 0,-0.683049 0,-1.366097 0,-2.049145 0,-0.227683 -0.06255,-0.464126 0,-0.683049 0.640741,-2.242591 0.814886,-1.376138 1.707622,-3.756766 0.07994,-0.213186 -0.072,-0.46705 0,-0.683049 0.05091,-0.152734 0.290612,-0.18879 0.341524,-0.341524 0.072,-0.215999 0,-0.455366 0,-0.683048 0,-0.341525 -0.08283,-0.693246 0,-1.024573 0.03905,-0.156189 0.302477,-0.185335 0.341524,-0.341524 0.08283,-0.331327 0,-0.683049 0,-1.024573 0,-0.227683 0,-0.455366 0,-0.683048 0,-0.113842 0,-0.227683 0,-0.341525 0,-0.113841 -0.06315,-0.246802 0,-0.341524 0.178609,-0.267913 0.455366,-0.455365 0.683048,-0.683048"
     id="path17065"
     inkscape:connector-curvature="0" />
  <path
     style="fill:none;stroke:#000000;stroke-width:1px;stroke-linecap:butt;stroke-linejoin:miter;stroke-opacity:1"
     d="m 753.7,352.4 c -0.44071,-0.74124 -1.11367,-1.38694 -1.32214,-2.22372 -0.0615,-0.24701 0.47941,-0.18879 0.68305,-0.34153 0.25759,-0.19319 0.50444,-0.41513 0.68305,-0.68304 1.6956,-2.5434 -0.71679,-0.30779 2.39067,-3.41525 0.40249,-0.40249 0.96361,-0.62208 1.3661,-1.02457 0.29024,-0.29024 0.3928,-0.73433 0.68304,-1.02457 0.62871,-0.62871 1.38461,-1.11692 2.04915,-1.70762 0.36099,-0.32088 0.65353,-0.71537 1.02457,-1.02458 0.31533,-0.26277 0.75745,-0.3714 1.02457,-0.68304 0.432,-0.504 0.52058,-1.27563 1.02458,-1.70763 0.35638,-0.30546 0.9636,-0.10003 1.36609,-0.34152 2.07986,-1.24791 -0.89235,-0.23687 0.68305,-1.02457 0.54834,-0.27417 1.20876,-0.32672 1.70762,-0.68305 0.33401,-0.23858 0.44448,-0.69057 0.68305,-1.02457 0.33085,-0.46319 0.66018,-0.92882 1.02458,-1.3661 0.20613,-0.24736 0.45536,-0.45537 0.68304,-0.68305 0.45537,-0.45536 0.91073,-0.91073 1.3661,-1.3661 0.34152,-0.34152 0.64742,-0.72285 1.02457,-1.02457 0.19878,-0.15902 0.46203,-0.21523 0.68305,-0.34152 0.57634,-0.32934 1.13128,-0.69524 1.70762,-1.02458 0.22102,-0.12629 0.50305,-0.16152 0.68305,-0.34152 0.29024,-0.29024 0.42028,-0.70925 0.68305,-1.02457 0.3092,-0.37104 0.71537,-0.65353 1.02457,-1.02458 0.26277,-0.31532 0.34153,-0.79689 0.68305,-1.02457 0.72138,-0.48092 1.64723,-0.57851 2.39067,-1.02457 0.41416,-0.2485 0.66358,-0.70369 1.02457,-1.02457 0.66455,-0.59071 1.32074,-1.19774 2.04915,-1.70762 1.16358,-0.81451 1.60804,-0.40325 2.39067,-1.70763 0.11714,-0.19523 0,-0.45536 0,-0.68304 0,-0.45537 0,-0.91074 0,-1.3661"
     id="path17069"
     inkscape:connector-curvature="0" />
  <path
     style="fill:none;stroke:#000000;stroke-width:1px;stroke-linecap:butt;stroke-linejoin:miter;stroke-opacity:1"
     d="m 768.4295,161.65491 c 7.51353,0 15.02707,0 22.5406,0"
     id="path17071"
     inkscape:connector-curvature="0" />
  <path
     style="fill:none;stroke:#000000;stroke-width:1px;stroke-linecap:butt;stroke-linejoin:miter;stroke-opacity:1"
     d="m 687.14674,196.49038 c -0.79689,0.79689 -1.69878,1.50109 -2.39067,2.39067 -0.13979,0.17972 0,0.45536 0,0.68305 0,0.22768 0,0.45536 0,0.68304 0,1.13842 0,2.27683 0,3.41525 0,4.21213 0,8.42426 0,12.63639 0,0.79689 0,1.59378 0,2.39067 0,0.22768 -0.161,0.52205 0,0.68305 0.16099,0.161 0.45536,0 0.68304,0 2.16299,0 4.32598,0 6.48896,0 3.87061,0 7.74122,0 11.61183,0 1.02457,0 2.04914,0 3.07372,0 0.34152,0 0.68305,0 1.02457,0 0.22768,0 0.5009,0.13661 0.68305,0 0.32837,-0.24628 0.39281,-0.73433 0.68305,-1.02457 0.29024,-0.29024 0.69056,-0.44448 1.02457,-0.68305 0.46318,-0.33085 0.92162,-0.66899 1.3661,-1.02457 0.0846,-0.0676 0.65825,-0.67685 0.68304,-0.68305 0.33133,-0.0828 0.68305,0 1.02458,0 0.11384,0 0.2397,0.0509 0.34152,0 0.11014,-0.0551 1.65942,-1.63533 1.70762,-1.70762 0.0632,-0.0947 -0.0805,-0.26103 0,-0.34153 0.40249,-0.40249 0.96361,-0.62208 1.3661,-1.02457 0.18,-0.18 0.18879,-0.4794 0.34152,-0.68305 0.1932,-0.25759 0.50444,-0.41513 0.68305,-0.68305 0.0632,-0.0947 -0.10182,-0.29061 0,-0.34152 0.20365,-0.10182 0.49361,0.12629 0.68305,0 0.2118,-0.1412 0.20032,-0.47124 0.34152,-0.68305 0.22976,-0.34463 0.68305,-0.58873 0.68305,-0.34152 0,0.11384 -0.23352,-0.036 -0.34152,0 -0.5816,0.19386 -1.13841,0.45536 -1.70762,0.68304"
     id="path17073"
     inkscape:connector-curvature="0" />
  <path
     style="fill:none;stroke:#000000;stroke-width:1px;stroke-linecap:butt;stroke-linejoin:miter;stroke-opacity:1"
     d="m 661.5,283.2 c 0.0108,0.0125 0.0449,0.0267 0.0324,0.0375 -0.0125,0.0108 -0.0433,-0.0251 -0.0324,-0.0375 0.79545,-0.90908 1.60981,-1.80149 2.42309,-2.69466 0.10839,-0.11904 0.25222,-0.20757 0.34152,-0.34153 0.14121,-0.2118 0.18879,-0.4794 0.34153,-0.68305 0.19319,-0.25759 0.43568,-0.47691 0.68305,-0.68304 3.45062,-2.87553 0.0158,-0.0106 2.04914,-1.3661 0.13396,-0.0893 0.19753,-0.26953 0.34153,-0.34153 0.32199,-0.16099 0.73657,-0.12552 1.02457,-0.34152 0.20364,-0.15273 0.24125,-0.44907 0.34152,-0.68305 0.2415,-0.56348 0.36764,-1.18193 0.68305,-1.70762 0.0586,-0.0976 0.26103,0.0805 0.34152,0 0.97877,-0.97876 0.46904,-0.93807 1.02458,-2.04915 0.29121,-0.58242 1.13163,-0.68304 1.70762,-0.68304 0.22768,0 0.4794,0.10182 0.68305,0 0.10182,-0.0509 0,-0.22769 0,-0.34153 0,-0.22768 0,-0.45536 0,-0.68305 0,-0.22768 -0.072,-0.46705 0,-0.68304 0.0509,-0.15274 0.25222,-0.20757 0.34152,-0.34153 0.84116,-1.26174 -0.35922,-0.32383 1.3661,-2.04914 0.18,-0.18 0.58851,-0.10518 0.68305,-0.34153 0.16912,-0.42279 -0.20365,-0.9588 0,-1.3661 0.10182,-0.20364 0.4794,0.10183 0.68304,0 0.288,-0.14399 0.53905,-0.39505 0.68305,-0.68304 0.0534,-0.10686 0,-1.83752 0,-2.04915 0,-0.34152 0,-0.68305 0,-1.02457 0.11384,-0.11384 0.30248,-0.18534 0.34153,-0.34153 0.043,-0.17216 0,-2.72266 0,-2.73219 0,-0.11384 -0.0276,-0.23108 0,-0.34152 0.52208,-2.08835 0.0526,0.0196 1.70762,-2.04915 0.14223,-0.17779 0,-0.45536 0,-0.68305 0,-0.5692 0,-1.13841 0,-1.70762"
     id="path17075"
     inkscape:connector-curvature="0" />
</svg>
